<?xml version="1.0" standalone="no"?>
<!DOCTYPE svg PUBLIC "-//W3C//DTD SVG 20010904//EN"
 "http://www.w3.org/TR/2001/REC-SVG-20010904/DTD/svg10.dtd">
<svg version="1.0" xmlns="http://www.w3.org/2000/svg"
 width="16.000000pt" height="16.000000pt" viewBox="0 0 16.000000 16.000000"
 preserveAspectRatio="xMidYMid meet">
<metadata>
Created by potrace 1.11, written by Peter Selinger 2001-2013
</metadata>
<g transform="translate(0.000000,16.000000) scale(0.002667,-0.002667)"
fill="#000000" stroke="none">
<path d="M2945 4616 c-46 -21 -832 -815 -841 -849 -10 -42 2 -97 27 -124 28
-29 89 -46 129 -36 21 6 136 113 385 362 l355 354 352 -352 c384 -384 390
-388 465 -360 70 27 103 112 69 177 -22 42 -807 820 -839 831 -37 14 -65 13
-102 -3z"/>
<path d="M840 3723 c-14 -9 -204 -194 -422 -412 -281 -279 -401 -405 -409
-429 -23 -69 22 -152 90 -165 67 -14 88 4 452 367 192 192 351 347 354 345 2
-2 458 -457 1013 -1011 556 -554 1022 -1012 1035 -1017 14 -6 38 -8 54 -7 15
2 34 4 42 5 7 0 470 457 1028 1014 558 556 1016 1014 1019 1016 2 2 161 -153
354 -345 193 -193 363 -355 380 -362 63 -26 150 21 165 89 16 70 12 75 -394
483 -212 213 -404 401 -425 417 -46 34 -97 38 -141 10 -16 -10 -481 -469
-1032 -1020 l-1003 -1001 -1002 1001 c-552 551 -1016 1010 -1033 1020 -37 23
-93 24 -125 2z"/>
<path d="M787 2282 c-36 -4 -93 -62 -99 -99 -10 -71 -1 -82 372 -454 388 -386
386 -385 464 -359 76 25 109 119 65 183 -20 29 -661 673 -701 705 -22 17 -67
28 -101 24z"/>
<path d="M5152 2278 c-26 -7 -120 -95 -392 -367 -308 -307 -359 -363 -365
-394 -13 -69 19 -127 81 -147 78 -26 78 -27 453 348 191 191 356 360 366 375
25 40 21 102 -9 142 -29 38 -85 56 -134 43z"/>
</g>
</svg>
