
<svg version="1.1" xmlns="http://www.w3.org/2000/svg" width="32" height="32" viewBox="0 0 32 32">
<title>action-undo</title>
<path d="M30.939 29.448c-0.011 0-0.023 0-0.034-0.001-0.506-0.017-0.825-0.409-0.868-0.913-0.034-0.371-1.061-9.347-15.070-9.337v5.739c0 0.387-0.223 0.739-0.573 0.904-0.347 0.166-0.764 0.115-1.062-0.132l-12.968-10.743c-0.233-0.191-0.366-0.475-0.365-0.774s0.136-0.584 0.368-0.774l12.967-10.643c0.299-0.244 0.712-0.291 1.061-0.128 0.348 0.166 0.572 0.518 0.572 0.903v5.614c5.811 0.184 10.344 2.053 13.261 5.468 4.748 5.556 3.688 13.63 3.639 13.966-0.074 0.489-0.433 0.849-0.927 0.849zM13.967 17.182l0.002-0c10.007 0.006 13.831 3.385 16.014 6.369-0.32-2.39-1.252-5.273-3.282-7.626-2.698-3.128-7.045-4.777-12.735-4.777-0.553 0-1-0.447-1-1v-4.493l-10.389 8.543 10.389 8.622v-4.637c0-0.265 0.105-0.52 0.294-0.708 0.188-0.187 0.441-0.293 0.707-0.293z"></path>
</svg>
