
<svg version="1.1" xmlns="http://www.w3.org/2000/svg" width="32" height="32" viewBox="0 0 32 32">
<title>action-redo</title>
<path d="M1.060 29.448c0.010 0 0.022 0 0.034-0.001 0.506-0.017 0.825-0.409 0.868-0.913 0.034-0.371 1.030-9.347 15.039-9.337l0.032 5.739c0 0.387 0.223 0.739 0.573 0.904 0.346 0.166 0.764 0.115 1.061-0.132l12.968-10.743c0.233-0.191 0.366-0.475 0.365-0.774s-0.136-0.584-0.368-0.774l-12.967-10.643c-0.299-0.244-0.712-0.291-1.061-0.128-0.349 0.166-0.572 0.518-0.572 0.903l-0.032 5.614c-5.811 0.184-10.312 2.053-13.229 5.467-4.748 5.556-3.688 13.63-3.639 13.966 0.074 0.49 0.433 0.85 0.926 0.85zM18.033 17.182h-0.002c-10.007 0.006-13.831 3.385-16.015 6.37 0.32-2.39 1.252-5.273 3.281-7.626 2.698-3.128 7.045-4.777 12.736-4.777 0.552 0 1-0.447 1-1v-4.493l10.389 8.542-10.389 8.622v-4.637c0-0.265-0.105-0.52-0.294-0.708-0.187-0.187-0.441-0.293-0.706-0.293z"></path>
</svg>
