
<svg version="1.1" xmlns="http://www.w3.org/2000/svg" width="32" height="32" viewBox="0 0 32 32">
<title>anchor</title>
<path d="M31.907 22.857l-2.571-4.728c-0.004-0.006-0.003-0.012-0.007-0.019l-0.183-0.317c-0.102-0.175-0.264-0.288-0.444-0.331-0.178-0.044-0.375-0.017-0.544 0.093l-0.308 0.198c-0.006 0.003-0.010 0.009-0.016 0.013l-4.55 3.073c-0.34 0.219-0.451 0.677-0.248 1.029l0.204 0.225c0.203 0.349 0.665 0.364 1.005 0.145l2.72-1.849c-0.644 5.188-4.835 9.168-9.968 9.631v-20.050h4.002c0.552 0 1-0.448 1-1s-0.448-1-1-1h-4.045c-0.008-0.026-0.014-0.052-0.024-0.077 1.785-0.415 3.115-2.011 3.115-3.923 0-2.227-1.805-4.032-4.032-4.032s-4.031 1.804-4.031 4.032c0 1.901 1.316 3.489 3.085 3.915-0.011 0.027-0.018 0.056-0.027 0.085h-4.043c-0.552 0-1 0.448-1 1s0.448 1 1 1h3.999v20.049c-5.13-0.462-9.318-4.441-9.963-9.629l2.717 1.848c0.34 0.219 0.802 0.204 1.005-0.145l0.205-0.225c0.203-0.351 0.092-0.809-0.248-1.028l-4.55-3.072c-0.006-0.005-0.010-0.010-0.015-0.013l-0.308-0.198c-0.169-0.11-0.365-0.136-0.544-0.093s-0.341 0.156-0.443 0.331l-0.183 0.317c-0.003 0.006-0.003 0.012-0.007 0.019l-2.571 4.728c-0.203 0.349-0.092 0.808 0.248 1.028l0.285 0.107c0.34 0.218 0.758 0.020 0.961-0.329l1.497-2.78c0.918 6.398 6.41 11.182 12.915 11.182 6.502 0 11.998-4.784 12.918-11.178l1.495 2.777c0.203 0.349 0.622 0.548 0.962 0.329l0.285-0.107c0.34-0.22 0.452-0.679 0.248-1.028zM13.985 3.968c0-1.12 0.911-2.032 2.031-2.032s2.032 0.911 2.032 2.032-0.911 2.032-2.032 2.032c-1.12-0-2.031-0.912-2.031-2.031z"></path>
</svg>
