<svg   xmlns="http://www.w3.org/2000/svg" viewBox="0 0 32 32"><title>android_32</title><path d="M27.5,12A2.5,2.5,0,0,0,25,14.5V13a1,1,0,0,0-1-1H8a1,1,0,0,0-1,1v1.5a2.5,2.5,0,0,0-5,0v6a2.5,2.5,0,0,0,5,0V24a1,1,0,0,0,1,1h2v4.5a2.5,2.5,0,0,0,5,0V25h2v4.5a2.5,2.5,0,0,0,5,0V25h2a1,1,0,0,0,1-1V20.5a2.5,2.5,0,0,0,5,0v-6A2.5,2.5,0,0,0,27.5,12ZM5,20.5a.5.5,0,0,1-1,0v-6a.5.5,0,0,1,1,0Zm8,9a.5.5,0,0,1-1,0V25h1Zm6.5.5a.51.51,0,0,1-.5-.5V25h1v4.5A.51.51,0,0,1,19.5,30ZM23,23H9V14H23Zm5-2.5a.5.5,0,0,1-1,0v-6a.5.5,0,0,1,1,0Z"/><path d="M7.08,9.88a1,1,0,0,0,.24.78,1,1,0,0,0,.75.34H23.93a1,1,0,0,0,.75-.34,1,1,0,0,0,.24-.78A9,9,0,0,0,21.65,4l2.18-2.18A1,1,0,0,0,22.42.42L19.93,2.91A9,9,0,0,0,16,2a8.87,8.87,0,0,0-4.42,1.18L8.82.42A1,1,0,0,0,7.4.42a1,1,0,0,0,0,1.41L9.94,4.37A8.94,8.94,0,0,0,7.08,9.88ZM22.7,9H9.3A7,7,0,0,1,22.7,9Z"/></svg>
