
<svg version="1.1" xmlns="http://www.w3.org/2000/svg" width="32" height="32" viewBox="0 0 32 32">
<title>arrow-right-circle</title>
<path d="M16 0c-8.836 0-16 7.163-16 16s7.163 16 16 16c8.837 0 16-7.163 16-16s-7.163-16-16-16zM16 30.032c-7.72 0-14-6.312-14-14.032s6.28-14 14-14 14 6.28 14 14-6.28 14.032-14 14.032zM16.637 9.957c-0.39 0.39-0.39 1.024 0 1.414l3.617 3.617h-11.264c-0.553 0-1 0.448-1 1s0.447 1 1 1h11.327l-3.68 3.68c-0.39 0.39-0.39 1.023 0 1.414 0.195 0.195 0.451 0.293 0.707 0.293s0.512-0.098 0.707-0.293l5.907-6.063-5.907-6.063c-0.391-0.39-1.023-0.39-1.415 0z"></path>
</svg>
