
<svg version="1.1" xmlns="http://www.w3.org/2000/svg" width="32" height="32" viewBox="0 0 32 32">
<title>arrow-down-circle</title>
<path d="M0 16c0 8.837 7.163 16 16 16s16-7.163 16-16c0-8.836-7.163-16-16-16s-16 7.163-16 16zM30.032 16c0 7.72-6.312 14-14.032 14s-14-6.28-14-14 6.28-14 14-14 14.032 6.28 14.032 14zM14.989 8.99v11.264l-3.617-3.617c-0.39-0.39-1.024-0.39-1.414 0s-0.39 1.023 0 1.414l6.063 5.907 6.063-5.907c0.195-0.195 0.293-0.451 0.293-0.707s-0.098-0.512-0.293-0.707c-0.39-0.39-1.023-0.39-1.414 0l-3.68 3.68v-11.326c0-0.553-0.448-1-1-1s-1.001 0.447-1.001 1z"></path>
</svg>
