
<svg version="1.1" xmlns="http://www.w3.org/2000/svg" width="32" height="32" viewBox="0 0 32 32">
<title>arrow-left-circle</title>
<path d="M16 0c-8.837 0-16 7.163-16 16s7.163 16 16 16c8.837 0 16-7.163 16-16s-7.163-16-16-16zM16 30.032c-7.72 0-14-6.312-14-14.032s6.28-14 14-14 14 6.28 14 14-6.28 14.032-14 14.032zM23.010 14.989h-11.264l3.617-3.617c0.39-0.39 0.39-1.024 0-1.414s-1.024-0.39-1.414 0l-5.907 6.062 5.907 6.063c0.195 0.195 0.451 0.293 0.707 0.293s0.511-0.098 0.707-0.293c0.39-0.39 0.39-1.023 0-1.414l-3.68-3.68h11.327c0.552 0 1-0.448 1-1s-0.448-1-1-1z"></path>
</svg>
