
<svg version="1.1" xmlns="http://www.w3.org/2000/svg" width="32" height="32" viewBox="0 0 32 32">
<title>arrow-up-circle</title>
<path d="M32 16c0-8.837-7.163-16-16-16s-16 7.163-16 16c0 8.837 7.163 16 16 16s16-7.163 16-16zM1.969 16c0-7.72 6.311-14 14.031-14s14 6.28 14 14-6.28 14-14 14-14.031-6.28-14.031-14zM17.011 23.010v-11.264l3.617 3.617c0.39 0.39 1.023 0.39 1.414 0s0.39-1.024 0-1.414l-6.063-5.907-6.063 5.907c-0.195 0.195-0.293 0.451-0.293 0.707s0.098 0.511 0.293 0.707c0.39 0.39 1.024 0.39 1.414 0l3.679-3.68v11.327c0 0.552 0.448 1 1 1s1-0.448 1-1z"></path>
</svg>
