
<svg version="1.1" xmlns="http://www.w3.org/2000/svg" width="32" height="32" viewBox="0 0 32 32">
<title>bag</title>
<path d="M27 4.96h-5.975v-1.918c0-1.655-1.346-3-3-3h-3.989c-1.655 0-3 1.345-3 3v1.918h-6.037c-1.104 0-2 0.896-2 2v22.999c0 1.105 0.896 2 2 2h22c1.105 0 2-0.895 2-2v-22.999c0-1.104-0.895-2-2-2h0zM13.037 3.042c0-0.552 0.448-1 1-1h3.989c0.552 0 1 0.448 1 1v1.918h-5.989v-1.918zM27 29.959h-22v-22.999h6.037v2.058s-0.027 0.999 0.994 0.999c1.125 0 1.006-0.999 1.006-0.999v-2.058h5.989v2.058s-0.067 1.004 0.996 1.004c1 0 1.004-1.004 1.004-1.004v-2.058h5.974v22.999z"></path>
</svg>
