
<svg version="1.1" xmlns="http://www.w3.org/2000/svg" width="32" height="32" viewBox="0 0 32 32">
<title>bell</title>
<path d="M28.3 22.247c-1.167-1.419-2.765-3.429-2.765-5.48v-6.53c0-5.625-4.207-10.202-9.584-10.202-5.378 0-9.552 4.577-9.552 10.202v6.53c0 2.016-1.734 3.921-2.833 5.4-0.989 1.328-1.77 2.378-1.242 3.427 0.463 0.923 1.624 1.041 2.583 1.041h5.73c0.002 2.944 2.389 5.331 5.333 5.331s5.333-2.386 5.334-5.331h5.864c0.61 0 2.036 0 2.527-1.038 0.495-1.050-0.297-2.016-1.395-3.351zM15.969 29.871c-1.788 0-3.239-1.448-3.241-3.235h6.482c-0.003 1.787-1.452 3.235-3.241 3.235zM27.168 24.506h-22.262c-0.153 0-0.281-0.005-0.386-0.012 0.206-0.319 0.508-0.727 0.755-1.058 1.218-1.637 3.255-3.949 3.255-6.669v-6.53c0-4.452 3.22-8.073 7.423-8.073s7.455 3.622 7.455 8.073v6.53c0 2.813 1.878 5.164 3.249 6.832 0.231 0.281 0.507 0.617 0.722 0.905-0.064 0.002-0.134 0.003-0.209 0.003z"></path>
</svg>
