<svg   xmlns="http://www.w3.org/2000/svg" viewBox="0 0 32 32"><title>bitcoin_32</title><path d="M3,28H7v3a1,1,0,0,0,1,1h4a1,1,0,0,0,1-1V28h2v3a1,1,0,0,0,1,1h4a1,1,0,0,0,1-1V28h1a8,8,0,0,0,2.61-15.55A5,5,0,0,0,21,4V1a1,1,0,0,0-1-1H16a1,1,0,0,0-1,1V4H13V1a1,1,0,0,0-1-1H8A1,1,0,0,0,7,1V4H3A1,1,0,0,0,2,5V9a1,1,0,0,0,1,1H7V22H3a1,1,0,0,0-1,1v4A1,1,0,0,0,3,28Zm8,2H9V28h2Zm8,0H17V28h2ZM17,2h2V4H17ZM9,2h2V4H9ZM4,8V6H21a3,3,0,0,1,0,6H9V10H19a1,1,0,0,0,0-2H4ZM4,24H22a4,4,0,0,0,0-8H12a1,1,0,0,0-1,1v5H9V14H22a6,6,0,0,1,0,12H4Zm9-2V18h9a2,2,0,0,1,0,4Z"/></svg>
