<svg   xmlns="http://www.w3.org/2000/svg" viewBox="0 0 32 32">
    <title>bold_stroke_32 copy 2</title>
    <path d="M18,32H3.24a1,1,0,0,1-1-1V1a1,1,0,0,1,1-1H20.65A7,7,0,0,1,24,.79a8.17,8.17,0,0,1,2.46,2A8.92,8.92,0,0,1,28,5.55a9.43,9.43,0,0,1,.54,3.14,9.17,9.17,0,0,1-1.2,4.53,7.51,7.51,0,0,1-1.9,2.22A8.46,8.46,0,0,1,28,17.64a8.87,8.87,0,0,1,1.72,5.67A7.54,7.54,0,0,1,26.12,30a12,12,0,0,1-3.75,1.5A20,20,0,0,1,18,32ZM4.24,30H18a17.89,17.89,0,0,0,3.94-.42,10.24,10.24,0,0,0,3.13-1.24,5.58,5.58,0,0,0,2.7-5,7,7,0,0,0-1.28-4.43,6.88,6.88,0,0,0-3.58-2.3,1,1,0,0,1-.13-1.87,5.74,5.74,0,0,0,2.77-2.47,7.08,7.08,0,0,0,.95-3.55,7.31,7.31,0,0,0-.43-2.48,7,7,0,0,0-1.2-2.14A6.05,6.05,0,0,0,23,2.56,4.87,4.87,0,0,0,20.65,2H4.24ZM18,25.07H11.48a1,1,0,0,1-1-1V19a1,1,0,0,1,1-1h6.8a2.86,2.86,0,0,1,2.3,1.12,3.82,3.82,0,0,1,.82,2.46,3.31,3.31,0,0,1-1,2.56A3.43,3.43,0,0,1,18,25.07Zm-5.51-2H18a1.46,1.46,0,0,0,1-.37,1.28,1.28,0,0,0,.38-1.08A1.86,1.86,0,0,0,19,20.41a.85.85,0,0,0-.74-.37h-5.8Zm4.62-9.45H11.48a1,1,0,0,1-1-1V8a1,1,0,0,1,1-1h5.87a3,3,0,0,1,2.06.79,3.18,3.18,0,0,1,.93,2.5A3,3,0,0,1,19.2,13,3.73,3.73,0,0,1,17.1,13.62Zm-4.62-2H17.1a1.69,1.69,0,0,0,1-.3c.13-.08.26-.39.26-1a1.46,1.46,0,0,0-.26-1A1,1,0,0,0,17.35,9H12.48Z"/>
</svg>
