
<svg version="1.1" xmlns="http://www.w3.org/2000/svg" width="32" height="32" viewBox="0 0 32 32">
<title>book-open</title>
<path d="M29.753 0.049l-13.22 3.581c-0.336 0.090-1.066 0.089-1.4-0.005l-12.88-3.569c-1.149-0.317-2.263 0.512-2.263 1.696v24.316c0 1.003 0.76 1.962 1.728 2.232l12.88 3.57c0.345 0.096 0.788 0.149 1.248 0.149 0.315 0 0.781-0.024 1.21-0.142l13.22-3.581c0.971-0.262 1.734-1.22 1.734-2.227v-24.317c0.001-1.183-1.113-2.014-2.258-1.703zM15 29.904l-12.779-3.533c-0.096-0.026-0.232-0.203-0.232-0.303v-24.001l12.608 3.486c0.122 0.034 0.259 0.061 0.402 0.083v24.269zM30.010 26.068c0 0.099-0.162 0.27-0.258 0.297l-12.753 3.454v-24.247c0.018-0.005 0.038-0.007 0.056-0.012l12.954-3.504v24.012h0zM20.062 11.447c0.090 0 0.182-0.011 0.272-0.037l6.998-1.97c0.532-0.15 0.842-0.702 0.692-1.234s-0.705-0.84-1.234-0.692l-6.998 1.97c-0.532 0.15-0.842 0.702-0.692 1.234 0.124 0.441 0.525 0.729 0.962 0.729zM20.063 17.447c0.090 0 0.182-0.012 0.272-0.037l6.998-1.97c0.532-0.15 0.842-0.702 0.692-1.234s-0.705-0.84-1.234-0.693l-6.998 1.97c-0.532 0.15-0.842 0.702-0.692 1.233 0.124 0.442 0.525 0.73 0.962 0.73zM20.063 23.447c0.090 0 0.182-0.012 0.272-0.037l6.998-1.97c0.532-0.151 0.842-0.702 0.692-1.234s-0.705-0.84-1.234-0.692l-6.998 1.97c-0.532 0.151-0.842 0.702-0.692 1.234 0.124 0.441 0.525 0.73 0.962 0.73zM12.332 9.484l-6.998-1.97c-0.529-0.147-1.084 0.161-1.234 0.692s0.16 1.083 0.692 1.234l6.998 1.97c0.090 0.025 0.181 0.037 0.271 0.037 0.437 0 0.838-0.288 0.962-0.729 0.149-0.531-0.16-1.083-0.693-1.234zM12.332 15.484l-6.998-1.97c-0.529-0.148-1.084 0.161-1.234 0.693s0.16 1.083 0.692 1.234l6.998 1.97c0.090 0.026 0.181 0.037 0.271 0.037 0.437 0 0.838-0.288 0.962-0.73 0.149-0.531-0.16-1.083-0.693-1.234zM12.332 21.484l-6.998-1.97c-0.529-0.148-1.084 0.161-1.234 0.692s0.16 1.083 0.692 1.234l6.998 1.97c0.090 0.026 0.181 0.037 0.271 0.037 0.437 0 0.838-0.288 0.962-0.73 0.149-0.532-0.16-1.083-0.693-1.234z"></path>
</svg>
