
<svg version="1.1" xmlns="http://www.w3.org/2000/svg" width="32" height="32" viewBox="0 0 32 32">
<title>briefcase</title>
<path d="M30 5.984h-7.988v-1.938c0-1.655-1.346-3-3-3h-6.014c-1.655 0-3 1.345-3 3v1.938h-7.999c-1.099 0-2 0.901-2 2v7.008h-0.001v2h0.001v11.963c0 1.099 0.9 2 2 2h28c1.099 0 2-0.901 2-2v-20.971c0-1.099-0.901-2-2-2h0zM11.999 4.046c0-0.552 0.448-1 1-1h6.013c0.552 0 1 0.448 1 1v1.938h-8.014zM2.001 7.984h28v7.008h-11.012v-1.024c0-1.102-0.898-2-2-2h-1.992c-1.102 0-2 0.898-2 2v1.024h-10.996v-7.008zM16.99 19.004h-1.994v-5.036h1.992zM2 28.954v-11.963h10.996v2.012c0 1.102 0.897 2 2 2h1.992c1.102 0 2-0.898 2-2v-2.012h11.012v11.963h-28z"></path>
</svg>
