<svg   xmlns="http://www.w3.org/2000/svg" viewBox="0 0 32 32"><title>browser_32</title><path d="M31.13,4H.87a1,1,0,0,0-1,1V27a1,1,0,0,0,1,1H31.13a1,1,0,0,0,1-1V5A1,1,0,0,0,31.13,4Zm-1,5.5H13.47a2.37,2.37,0,0,0,.78-1.75A2.33,2.33,0,0,0,13.47,6H30.13ZM11.88,8.12a.37.37,0,0,1-.38-.37.38.38,0,1,1,.75,0A.37.37,0,0,1,11.88,8.12ZM9.81,6.59A2.22,2.22,0,0,0,9.34,6h.94A2.71,2.71,0,0,0,9.81,6.59ZM7.75,8.12a.37.37,0,0,1-.38-.37.38.38,0,0,1,.76,0A.37.37,0,0,1,7.75,8.12ZM5.69,6.59A2.71,2.71,0,0,0,5.22,6h.94A2.22,2.22,0,0,0,5.69,6.59Zm-2.07.78A.38.38,0,0,1,4,7.75a.38.38,0,0,1-.75,0A.38.38,0,0,1,3.62,7.37ZM5.69,8.9a2.12,2.12,0,0,0,.47.6H5.22A2.55,2.55,0,0,0,5.69,8.9Zm4.12,0a2.55,2.55,0,0,0,.47.6H9.34A2.12,2.12,0,0,0,9.81,8.9ZM2,6s-.11.1-.16.16V6ZM2,9.5H1.87V9.34ZM1.87,26V11.5H30.13V26Z"/></svg>
