<svg   xmlns="http://www.w3.org/2000/svg" viewBox="0 0 32 32"><title>brush_32</title><path d="M1,32a1,1,0,0,1-.45-.11A1,1,0,0,1,0,31c0-3.74,1.79-7.91,4.69-8.14a3.83,3.83,0,0,1,3.55,2.21,3.7,3.7,0,0,1-.56,4.2,5.26,5.26,0,0,1-3.83,1.82,4.24,4.24,0,0,0-2.26.72A1,1,0,0,1,1,32Zm3.92-7.15H4.85C3.65,25,2.51,27,2.13,29.36a9.28,9.28,0,0,1,1.5-.26A3.26,3.26,0,0,0,6.17,28a1.69,1.69,0,0,0,.29-2A2,2,0,0,0,4.92,24.85Z"/><path d="M10.49,25.33a1,1,0,0,1-.7-.29L7,22.21a1,1,0,0,1-.29-.7A1,1,0,0,1,7,20.8L27.47.29a1,1,0,0,1,1.41,0l2.83,2.83a1,1,0,0,1,0,1.42L11.2,25A1,1,0,0,1,10.49,25.33ZM9.08,21.51l1.41,1.41L29.59,3.83,28.17,2.41Z"/></svg>
