
<svg version="1.1" xmlns="http://www.w3.org/2000/svg" width="32" height="32" viewBox="0 0 32 32">
<title>bubble</title>
<path d="M16 4c7.72 0 14 4.486 14 10s-6.28 10-14 10l-0.829 0.003c-0.55 0-0.909-0.015-1.471-0.099l-1.12-0.16-0.719 0.87c-0.331 0.399-2.017 1.785-3.878 2.677 0.378-1.001 0.657-2.094 0.683-3.175l0.010-0.059v-1.395l-1.090-0.556c-3.55-1.816-5.585-4.77-5.585-8.106 0-5.514 6.28-10 14-10zM16 2c-8.838 0-16 5.373-16 12 0 4.127 2.446 7.724 6.675 9.886 0 0.026-0.008 0.044-0.008 0.073 0 1.793-1.005 3.765-1.594 4.779h0.002c-0.046 0.109-0.074 0.229-0.074 0.357 0 0.503 0.405 0.906 0.907 0.906 0.075 0 0.196-0.015 0.239-0.015 0.011 0 0.016 0 0.016 0.003 3.125-0.511 6.561-3.271 7.245-4.104 0.703 0.105 1.177 0.12 1.765 0.12 0.248 0 0.515-0.003 0.829-0.003 8.836 0 16-5.372 16-12 0-6.627-7.164-12-16-12z"></path>
</svg>
