<svg   xmlns="http://www.w3.org/2000/svg" viewBox="0 0 32 32"><title>bug_32</title><path d="M29.51,21.52a1,1,0,0,0,0-2h-5V16.8l5.25-1.32a1,1,0,0,0-.49-1.94l-4.86,1.22A8.57,8.57,0,0,0,20,8.52V7a4,4,0,0,0-.75-2.33l3.41-2.92A1,1,0,1,0,21.36.24L17.69,3.39A4,4,0,0,0,16,3a4,4,0,0,0-1.68.39L10.65.24A1,1,0,0,0,9.34,1.76l3.41,2.92A4,4,0,0,0,12,7V8.52a8.57,8.57,0,0,0-4.41,6.24L2.73,13.54a1,1,0,0,0-.49,1.94L7.49,16.8v2.72h-5a1,1,0,0,0,0,2h5v2.72L2.24,25.56a1,1,0,0,0,.25,2,.66.66,0,0,0,.24,0L7.6,26.28a8.47,8.47,0,0,0,3.31,5.52,1,1,0,0,0,.61.2h.16a1.08,1.08,0,0,0,.67-.43l.51-.77a8,8,0,0,0,6.28,0l.51.77a1.08,1.08,0,0,0,.67.43h.16a1,1,0,0,0,.61-.2,8.47,8.47,0,0,0,3.31-5.52l4.87,1.21a.66.66,0,0,0,.24,0,1,1,0,0,0,.25-2l-5.25-1.32V21.52ZM14,7a2,2,0,1,1,4,0v.74h-.06l-.24-.06s-.05,0-.07,0A8.93,8.93,0,0,0,16,7.51a8.73,8.73,0,0,0-1.62.17.21.21,0,0,1-.08,0l-.24.06H14Zm2.5,2.53v.1a8.34,8.34,0,0,0-1,0v-.1A5.57,5.57,0,0,1,16.5,9.54Zm-3,1.22V26.22L11.67,29h0l-.35.53A6.41,6.41,0,0,1,9.49,25V16a6.53,6.53,0,0,1,3.9-5.95h0l.1,0ZM14,29.09l1.34-2a1,1,0,0,0,.17-.56V11.63a5.57,5.57,0,0,1,1,0V26.52a1,1,0,0,0,.17.56l1.34,2A6.15,6.15,0,0,1,14,29.09ZM22.51,25a6.41,6.41,0,0,1-1.83,4.48L20.33,29h0L18.5,26.22V10l.1,0h0a6.54,6.54,0,0,1,3.9,6Z"/></svg>
