<svg   xmlns="http://www.w3.org/2000/svg" viewBox="0 0 32 32"><title>building_32</title><path d="M30,25.11H29v-.89a2,2,0,0,0-2-2H26V14.11h1a2,2,0,0,0,2-2v-.89h2a1,1,0,0,0,.43-1.9l-15-7.22a1,1,0,0,0-.86,0L.57,9.32A1,1,0,0,0,1,11.22H3v.89a2,2,0,0,0,2,2H6v8.11H5a2,2,0,0,0-2,2v.89H2a2,2,0,0,0-2,2V29a1,1,0,0,0,1,1H31a1,1,0,0,0,1-1V27.11A2,2,0,0,0,30,25.11Zm-14-21L26.62,9.22H5.38Zm-11,8v-.89H27v.89H5Zm19,2v8.11H21.5V14.11Zm-4.5,0v8.11H17V14.11Zm-4.5,0v8.11H12.5V14.11Zm-4.5,0v8.11H8V14.11ZM5,24.22H27v.89H5ZM30,28H2v-.89H30Z"/></svg>
