
<svg version="1.1" xmlns="http://www.w3.org/2000/svg" width="32" height="32" viewBox="0 0 32 32">
<title>bulb</title>
<path d="M15.999 0c-6.188 0-11.035 5.035-11.035 11.223 0 4.662 2.29 6.883 4.1 8.504 1.165 1.044 1.949 1.674 1.949 2.448v1.695c0 0.044 0.006 0.086 0.011 0.129h-0.023v2.895c0.001 3.053 1.975 5.105 5.033 5.105 2.952 0 4.967-2.052 4.967-5.105v-2.895h-0.029c0.006-0.043 0.013-0.085 0.013-0.129v-1.695c0-1.18 0.876-1.893 2.204-3.053 1.797-1.569 3.844-3.521 3.844-7.899 0-6.189-4.847-11.223-11.036-11.223zM15.962 30c-1.872 0-2.959-1.161-2.959-3.105l-0.014-1.334c0.72 0.246 1.7 0.439 3.012 0.439 1.294 0 2.276-0.207 3.003-0.462v1.356c0 1.974-1.102 3.105-3.041 3.105zM21.876 17.616c-1.358 1.186-2.889 2.413-2.889 4.559v1.264c-0.474 0.265-1.349 0.58-3.004 0.58-1.736 0-2.56-0.308-2.969-0.546v-1.298c0-1.706-1.334-2.791-2.615-3.938-1.697-1.521-3.434-3.245-3.434-7.014-0-5.085 3.95-9.223 9.034-9.223 5.086 0 9.036 4.138 9.036 9.223 0 3.47-1.515 4.956-3.16 6.393z"></path>
</svg>
