
<svg version="1.1" xmlns="http://www.w3.org/2000/svg" width="32" height="32" viewBox="0 0 32 32">
<title>calculator</title>
<path d="M30-0.003h-28c-1.099 0-2 0.9-2 2v28.006c0 1.099 0.9 2 2 2h28c1.099 0 2-0.901 2-2v-28.006c0-1.099-0.901-2-2-2zM30 30.003h-28v-28.006h28v28.006zM7 11.010h2v2c0 0.552 0.448 1 1 1s1-0.448 1-1v-2h2c0.552 0 1-0.448 1-1s-0.448-1-1-1h-2v-2c0-0.552-0.448-1-1-1s-1 0.448-1 1v2h-2c-0.552 0-1 0.448-1 1s0.448 1 1 1zM13.536 18.474c-0.39-0.39-1.024-0.391-1.414-0l-2.122 2.121-2.122-2.121c-0.391-0.39-1.024-0.39-1.415 0s-0.391 1.024 0 1.415l2.121 2.121-2.121 2.121c-0.391 0.39-0.391 1.024 0 1.415s1.024 0.39 1.415 0l2.122-2.12 2.122 2.121c0.39 0.39 1.024 0.39 1.414 0s0.39-1.024 0-1.415l-2.121-2.121 2.121-2.121c0.39-0.391 0.39-1.024 0-1.415zM19 11.009h6c0.552 0 1-0.448 1-1s-0.448-1-1-1h-6c-0.552 0-1 0.448-1 1s0.448 1 1 1zM19 21.009h6c0.552 0 1-0.448 1-1s-0.448-1-1-1h-6c-0.552 0-1 0.448-1 1s0.448 1 1 1zM19 25.009h6c0.552 0 1-0.448 1-1s-0.448-1-1-1h-6c-0.552 0-1 0.448-1 1s0.448 1 1 1z"></path>
</svg>
