<svg   xmlns="http://www.w3.org/2000/svg" viewBox="0 0 32 32"><title>calc_32</title><path d="M1,32H31a1,1,0,0,0,1-1V1a1,1,0,0,0-1-1H1A1,1,0,0,0,0,1V31A1,1,0,0,0,1,32ZM2,2H30V30H2Z"/><path d="M25.55,5.45H6.45a1,1,0,0,0-1,1V9.18a1,1,0,0,0,1,1h19.1a1,1,0,0,0,1-1V6.45A1,1,0,0,0,25.55,5.45Zm-1,2.73H7.45V7.45h17.1Z"/><path d="M9.18,13.64H6.45a1,1,0,0,0-1,1v2.72a1,1,0,0,0,1,1H9.18a1,1,0,0,0,1-1V14.64A1,1,0,0,0,9.18,13.64Zm-1,2.72H7.45v-.72h.73Z"/><path d="M17.36,13.64H14.64a1,1,0,0,0-1,1v2.72a1,1,0,0,0,1,1h2.72a1,1,0,0,0,1-1V14.64A1,1,0,0,0,17.36,13.64Zm-1,2.72h-.72v-.72h.72Z"/><path d="M25.55,13.64H22.82a1,1,0,0,0-1,1V25.55a1,1,0,0,0,1,1h2.73a1,1,0,0,0,1-1V14.64A1,1,0,0,0,25.55,13.64Zm-1,10.91h-.73V15.64h.73Z"/><path d="M9.18,21.82H6.45a1,1,0,0,0-1,1v2.73a1,1,0,0,0,1,1H9.18a1,1,0,0,0,1-1V22.82A1,1,0,0,0,9.18,21.82Zm-1,2.73H7.45v-.73h.73Z"/><path d="M17.36,21.82H14.64a1,1,0,0,0-1,1v2.73a1,1,0,0,0,1,1h2.72a1,1,0,0,0,1-1V22.82A1,1,0,0,0,17.36,21.82Zm-1,2.73h-.72v-.73h.72Z"/></svg>
