<svg xmlns="http://www.w3.org/2000/svg" xmlns:xlink="http://www.w3.org/1999/xlink" preserveAspectRatio="xMidYMid" width="32" height="32" viewBox="0 0 32 32">
  <path d="M30.000,32.000 L2.000,32.000 C0.897,32.000 -0.000,31.103 -0.000,30.000 L-0.000,5.000 C-0.000,3.897 0.897,3.000 2.000,3.000 L10.000,3.000 L10.000,1.000 C10.000,0.448 10.448,-0.000 11.000,-0.000 C11.552,-0.000 12.000,0.448 12.000,1.000 L12.000,3.000 L20.000,3.000 L20.000,1.000 C20.000,0.448 20.448,-0.000 21.000,-0.000 C21.552,-0.000 22.000,0.448 22.000,1.000 L22.000,3.000 L30.000,3.000 C31.103,3.000 32.000,3.897 32.000,5.000 L32.000,30.000 C32.000,31.103 31.103,32.000 30.000,32.000 ZM22.000,5.000 L22.000,6.000 C22.000,6.552 21.552,7.000 21.000,7.000 C20.448,7.000 20.000,6.552 20.000,6.000 L20.000,5.000 L12.000,5.000 L12.000,6.000 C12.000,6.552 11.552,7.000 11.000,7.000 C10.448,7.000 10.000,6.552 10.000,6.000 L10.000,5.000 L2.000,5.000 L2.000,30.000 L29.997,30.000 L30.000,5.000 L22.000,5.000 ZM25.000,24.000 L23.000,24.000 C22.448,24.000 22.000,23.552 22.000,23.000 L22.000,21.000 C22.000,20.448 22.448,20.000 23.000,20.000 L25.000,20.000 C25.552,20.000 26.000,20.448 26.000,21.000 L26.000,23.000 C26.000,23.552 25.552,24.000 25.000,24.000 ZM25.000,16.000 L23.000,16.000 C22.448,16.000 22.000,15.552 22.000,15.000 L22.000,13.000 C22.000,12.448 22.448,12.000 23.000,12.000 L25.000,12.000 C25.552,12.000 26.000,12.448 26.000,13.000 L26.000,15.000 C26.000,15.552 25.552,16.000 25.000,16.000 ZM17.000,24.000 L15.000,24.000 C14.448,24.000 14.000,23.552 14.000,23.000 L14.000,21.000 C14.000,20.448 14.448,20.000 15.000,20.000 L17.000,20.000 C17.552,20.000 18.000,20.448 18.000,21.000 L18.000,23.000 C18.000,23.552 17.552,24.000 17.000,24.000 ZM17.000,16.000 L15.000,16.000 C14.448,16.000 14.000,15.552 14.000,15.000 L14.000,13.000 C14.000,12.448 14.448,12.000 15.000,12.000 L17.000,12.000 C17.552,12.000 18.000,12.448 18.000,13.000 L18.000,15.000 C18.000,15.552 17.552,16.000 17.000,16.000 ZM9.000,24.000 L7.000,24.000 C6.448,24.000 6.000,23.552 6.000,23.000 L6.000,21.000 C6.000,20.448 6.448,20.000 7.000,20.000 L9.000,20.000 C9.552,20.000 10.000,20.448 10.000,21.000 L10.000,23.000 C10.000,23.552 9.552,24.000 9.000,24.000 ZM9.000,16.000 L7.000,16.000 C6.448,16.000 6.000,15.552 6.000,15.000 L6.000,13.000 C6.000,12.448 6.448,12.000 7.000,12.000 L9.000,12.000 C9.552,12.000 10.000,12.448 10.000,13.000 L10.000,15.000 C10.000,15.552 9.552,16.000 9.000,16.000 Z" class="cls-1"/>
</svg>
