
<svg version="1.1" xmlns="http://www.w3.org/2000/svg" width="32" height="32" viewBox="0 0 32 32">
<title>camrecorder</title>
<path d="M19.942 6.981c0.040 0 0.073 0.032 0.073 0.070v3.996c0 0.739 0.408 1.419 1.063 1.766 0.294 0.156 0.616 0.233 0.938 0.233 0.392 0 0.846-0.115 1.183-0.343l6.803-3.851v14.263l-6.841-3.735c-0.343-0.239-0.743-0.36-1.145-0.36-0.317 0-0.633 0.075-0.924 0.226-0.66 0.345-1.075 1.028-1.076 1.771l-0.005 3.933c0 0.039-0.032 0.070-0.072 0.070h-17.866c-0.040 0-0.071-0.031-0.071-0.070l0.005-17.899c0-0.039 0.031-0.070 0.071-0.070h17.865zM30.949 5.979c-0.213 0-0.634 0.063-0.874 0.302l-8.061 4.765v-3.996c0-1.143-0.927-2.070-2.072-2.070h-17.865c-1.146 0-2.071 0.927-2.071 2.070l-0.004 17.898c0 1.142 0.926 2.070 2.071 2.070h17.866c1.145 0 2.072-0.927 2.072-2.070l0.005-3.93 8.218 4.791c0.241 0.24 0.508 0.209 0.721 0.209 0.221 0 0.387-0.067 0.407-0.076 0.389-0.162 0.639-0.537 0.639-0.959v-17.968c0-0.422-0.251-0.798-0.639-0.958-0.023-0.010-0.188-0.079-0.411-0.079z"></path>
</svg>
