
<svg version="1.1" xmlns="http://www.w3.org/2000/svg" width="32" height="32" viewBox="0 0 32 32">
<title>chart</title>
<path d="M8.502 9.999h-7.002c-0.552 0-1 0.447-1 1v20.001c0 0.552 0.448 1 1 1h7.002c0.553 0 1-0.448 1-1v-20c0-0.553-0.447-1-1-1zM7.502 30h-5.002v-18h5.002v18zM19.492 15.945h-7.003c-0.553 0-1 0.448-1 1v14.055c0 0.552 0.447 1 1 1h7.003c0.552 0 1-0.448 1-1v-14.055c0-0.553-0.447-1-1-1zM18.492 30h-5.003v-12.055h5.003v12.055zM30.5 0h-6.992c-0.552 0-1 0.448-1 1v30c0 0.552 0.448 1 1 1h6.992c0.552 0 1-0.448 1-1v-30c0-0.552-0.448-1-1-1zM29.5 30h-4.992v-28h4.992v28z"></path>
</svg>
