
<svg version="1.1" xmlns="http://www.w3.org/2000/svg" width="32" height="32" viewBox="0 0 32 32">
<title>chemistry</title>
<path d="M25.326 30.335l-5.325-6.302v-11.047h0.666c0.552 0 1-0.447 1-1s-0.448-1-1-1h-1.666c-0.552 0-1 0.447-1 1v12.432c0 0.248 0.092 0.486 0.258 0.67l4.074 4.917h-12.665l4.074-4.917c0.166-0.183 0.258-0.422 0.258-0.67v-12.432c0-0.553-0.447-1-1-1h-1.666c-0.553 0-1 0.447-1 1s0.447 1 1 1h0.666v11.047l-5.325 6.302c-0.264 0.293-0.332 0.715-0.172 1.076s0.519 0.594 0.914 0.594h17.167c0.395 0 0.753-0.233 0.914-0.594 0.16-0.361 0.093-0.783-0.172-1.076zM15 9.99c1.102 0 1.995-0.893 1.995-1.995 0-1.101-0.893-1.994-1.995-1.994s-1.995 0.894-1.995 1.994c0 1.102 0.893 1.995 1.995 1.995zM21.515 7.021c1.949 0 3.529-1.573 3.529-3.513s-1.579-3.513-3.529-3.513c-1.948 0-3.529 1.573-3.529 3.513s1.581 3.513 3.529 3.513zM21.499 1.989c0.833 0 1.511 0.675 1.511 1.504s-0.677 1.504-1.511 1.504-1.511-0.675-1.511-1.504c0-0.829 0.677-1.504 1.511-1.504z"></path>
</svg>
