
<svg version="1.1" xmlns="http://www.w3.org/2000/svg" width="32" height="32" viewBox="0 0 32 32">
<title>control-start</title>
<path d="M30.467 2.043c0-0.726-0.393-1.395-1.029-1.748-0.302-0.169-0.637-0.252-0.971-0.252-0.366 0-0.733 0.101-1.055 0.301l-22.991 13.956c-0.498 0.309-0.829 0.819-0.918 1.387v-14.688c0-0.552-0.448-1-1-1s-1 0.448-1 1v30c0 0.552 0.448 1 1 1s1-0.448 1-1v-14.69c0.090 0.569 0.42 1.078 0.918 1.387l23.023 13.957c0.323 0.201 0.689 0.302 1.055 0.302 0.335 0 0.669-0.084 0.971-0.252 0.635-0.352 1.029-1.021 1.029-1.748zM5.475 16l22.992-13.956 0.032 27.913z"></path>
</svg>
