
<svg version="1.1" xmlns="http://www.w3.org/2000/svg" width="32" height="32" viewBox="0 0 32 32">
<title>control-end</title>
<path d="M29.498 0c-0.552 0-1 0.448-1 1v14.688c-0.090-0.569-0.42-1.077-0.918-1.387l-22.991-13.957c-0.322-0.2-0.689-0.301-1.056-0.301-0.335 0-0.669 0.084-0.971 0.252-0.635 0.352-1.028 1.022-1.028 1.748l-0.032 27.913c0 0.727 0.393 1.395 1.028 1.748 0.303 0.168 0.636 0.252 0.971 0.252 0.366 0 0.733-0.101 1.055-0.302l23.023-13.957c0.498-0.308 0.828-0.817 0.918-1.386v14.688c0 0.552 0.448 1 1 1s1-0.448 1-1v-30c0-0.552-0.448-1-1-1zM3.502 29.957l0.031-27.913 22.992 13.956z"></path>
</svg>
