
<svg version="1.1" xmlns="http://www.w3.org/2000/svg" width="32" height="32" viewBox="0 0 32 32">
<title>control-play</title>
<path d="M4.519 2.043l22.992 13.956-23.023 13.957zM4.519 0.043c-0.335 0-0.669 0.084-0.971 0.252-0.635 0.352-1.029 1.022-1.029 1.748l-0.031 27.913c0 0.727 0.393 1.395 1.028 1.748 0.303 0.168 0.636 0.252 0.971 0.252 0.366 0 0.734-0.101 1.055-0.302l23.023-13.957c0.588-0.364 0.946-1.007 0.946-1.698s-0.358-1.334-0.946-1.698l-22.991-13.957c-0.322-0.2-0.689-0.301-1.055-0.301v0z"></path>
</svg>
