
<svg version="1.1" xmlns="http://www.w3.org/2000/svg" width="32" height="32" viewBox="0 0 32 32">
<title>control-forward</title>
<path d="M14.065 6.184l15.79 9.816-15.79 9.816v-7.718l-12 7.718v-19.631l12 7.718v-7.995zM14.148 4.185c-0.335 0-0.71 0.083-1.014 0.252-0.634 0.353-1.069 1.022-1.069 1.748v4.12l-9.319-5.819c-0.322-0.2-0.668-0.301-1.035-0.301-0.334 0-0.492 0.083-0.795 0.252-0.634 0.353-0.851 1.022-0.851 1.748v19.631c0 0.727 0.227 1.395 0.862 1.748 0.302 0.168 0.554 0.252 0.889 0.252 0.366 0 0.649-0.101 0.972-0.302l9.278-5.818v4.12c0 0.727 0.435 1.395 1.069 1.748 0.303 0.168 0.658 0.252 0.993 0.252 0.366 0 0.743-0.101 1.066-0.302l15.796-9.816c0.587-0.364 0.947-1.007 0.947-1.698s-0.355-1.334-0.942-1.698l-15.79-9.816c-0.322-0.2-0.689-0.301-1.055-0.301v0z"></path>
</svg>
