
<svg version="1.1" xmlns="http://www.w3.org/2000/svg" width="32" height="32" viewBox="0 0 32 32">
<title>control-rewind</title>
<path d="M17.935 6.184l-15.79 9.816 15.79 9.816v-7.718l12 7.718v-19.631l-12 7.718v-7.719zM17.852 4.185c0.334 0 0.71 0.083 1.013 0.252 0.635 0.353 1.070 1.022 1.070 1.748v4.12l9.319-5.819c0.323-0.2 0.668-0.301 1.035-0.301 0.334 0 0.491 0.083 0.794 0.252 0.635 0.353 0.851 1.022 0.851 1.748v19.631c0 0.727-0.227 1.395-0.861 1.748-0.302 0.168-0.554 0.252-0.889 0.252-0.366 0-0.649-0.101-0.972-0.302l-9.278-5.818v4.12c0 0.727-0.435 1.395-1.070 1.748-0.302 0.168-0.657 0.252-0.992 0.252-0.366 0-0.744-0.101-1.066-0.302l-15.796-9.816c-0.587-0.364-0.946-1.006-0.946-1.698s0.355-1.334 0.942-1.698l15.79-9.816c0.322-0.2 0.688-0.301 1.055-0.301z"></path>
</svg>
