
<svg version="1.1" xmlns="http://www.w3.org/2000/svg" width="32" height="32" viewBox="0 0 32 32">
<title>crop</title>
<path d="M31 25l-4 0v-18.559l3.733-3.728c0.39-0.39 0.39-1.024 0-1.415s-1.024-0.391-1.415 0l-3.706 3.702h-18.612v-4c0-0.552-0.447-1-1-1s-1 0.448-1 1v4h-4c-0.552 0-1 0.447-1 1s0.448 1 1 1h4v19c0 0.092 0.029 0.175 0.053 0.259 0.010 0.038 0.008 0.077 0.022 0.113 0.101 0.252 0.3 0.451 0.552 0.553 0.043 0.017 0.090 0.015 0.134 0.026 0.079 0.020 0.154 0.049 0.239 0.049h19v4c0 0.552 0.448 1 1 1s1-0.448 1-1v-4h4c0.552 0 1-0.448 1-1s-0.448-1-1-1zM23.609 7l-16.609 16.587v-16.587h16.609zM8.415 25l16.585-16.562v16.562z"></path>
</svg>
