
<svg version="1.1" xmlns="http://www.w3.org/2000/svg" width="32" height="32" viewBox="0 0 32 32">
<title>cup</title>
<path d="M26.017 12.993c-0.261 0-1.1-0.005-2.010-0.011l0.003-1.999c0-1.104-0.895-2-2-2l-20.015-0.005c-1.105 0-2 0.896-2 2v15.030c0 3.314 2.687 6 6 6h12.020c3.314 0 5.969-2.686 5.969-6l0.002-1.026c0.907 0.007 1.831 0.012 2.031 0.012 3.305 0 5.986-2.657 5.986-5.971s-2.681-6.029-5.987-6.029zM21.985 26.008c0 2.206-1.762 4-3.969 4h-12.021c-2.206 0-4-1.794-4-4l-0.003-15.030 20.018 0.006zM26.017 23.023c-0.198 0-1.122-0.006-2.027-0.012l0.014-8.025c0.91 0.007 1.752 0.011 2.012 0.011 2.285 0 4.020 1.704 4.020 3.995s-1.734 4.032-4.019 4.032zM17.996 6.993c0.552 0 1-0.448 1-1v-5c0-0.552-0.448-1-1-1s-1 0.448-1 1v5c0 0.553 0.448 1 1 1zM5.996 6.993c0.552 0 1-0.448 1-1v-5c0-0.552-0.448-1-1-1s-1 0.448-1 1v5c0 0.553 0.448 1 1 1zM11.996 6.993c0.552 0 1-0.448 1-1v-5c0-0.552-0.448-1-1-1s-1 0.448-1 1v5c0 0.553 0.448 1 1 1z"></path>
</svg>
