<svg   xmlns="http://www.w3.org/2000/svg" viewBox="0 0 32 32"><title>cut_32 </title><path d="M30.4,25.42a4.92,4.92,0,0,0-7.71-2.25L17.63,19.3l.26-.2,3.81,2.09a1,1,0,0,0,.48.12,1,1,0,0,0,.88-.52L30,7.93A5.61,5.61,0,0,0,27.79.31L27.45.12A1.08,1.08,0,0,0,26.68,0a1,1,0,0,0-.59.48L17,17.25,16,18l-1-.79L5.9.52A1,1,0,0,0,5.3,0a1,1,0,0,0-.76.08L4.19.31A5.61,5.61,0,0,0,2,7.92l7,12.87a1,1,0,0,0,.6.48.86.86,0,0,0,.28,0,1,1,0,0,0,.48-.12l3.81-2.09.26.2-5,3.87A5.27,5.27,0,0,0,8,22.43a5,5,0,0,0-6.24,6.82,4.94,4.94,0,0,0,2.82,2.58,5.11,5.11,0,0,0,1.71.31,5,5,0,0,0,4.7-3.3A4.92,4.92,0,0,0,10.81,25a3,3,0,0,0-.2-.34L16,20.56l5.38,4.12c-.06.12-.14.22-.2.34a5,5,0,1,0,9.23.4Zm-3.06-23a3.56,3.56,0,0,1,1.22,1.81A3.62,3.62,0,0,1,28.26,7L21.78,19l-2.63-1.44ZM10.2,19,3.72,7a3.61,3.61,0,0,1,.92-4.55l8.19,15.1ZM9.1,28.16a3,3,0,0,1-1.55,1.69,3,3,0,0,1-4.09-3.74A3,3,0,0,1,5,24.41a3.16,3.16,0,0,1,1.27-.28,3.1,3.1,0,0,1,1,.18A3,3,0,0,1,9.1,28.16ZM26.73,30a3,3,0,0,1-2.3-.1,3,3,0,0,1,1.27-5.72,3,3,0,0,1,1,5.82Z"/></svg>
