
<svg version="1.1" xmlns="http://www.w3.org/2000/svg" width="32" height="32" viewBox="0 0 32 32">
<title>direction</title>
<path d="M30.216 9.318l-5.598-6c-0.19-0.203-0.454-0.317-0.732-0.317h-8.348l-0.031-2.063c0-0.517-0.448-0.938-1-0.938s-0.938 0.42-0.938 0.938l-0.030 2.063h-11.024c-0.552 0-1 0.447-1 1v12c0 0.552 0.448 1 1 1h11.011v14.063c0 0.517 0.448 0.938 1 0.938s1-0.42 1-0.938v-14.063h8.361c0.277 0 0.542-0.115 0.732-0.317l5.598-6c0.358-0.384 0.358-0.98 0-1.365zM23.452 15h-19.936v-10h19.936l4.665 5z"></path>
</svg>
