
<svg version="1.1" xmlns="http://www.w3.org/2000/svg" width="32" height="32" viewBox="0 0 32 32">
<title>directions</title>
<path d="M31.783 5.814l-3.116-3.479c-0.189-0.214-0.462-0.336-0.748-0.336h-10.945v-1.062c0-0.517-0.448-0.938-1-0.938s-1 0.42-1 0.938v1.062h-7.994c-0.553 0-1 0.448-1 1v6.989c0 0.553 0.447 1 1 1h7.994v2.003h-10.893c-0.286 0-0.558 0.122-0.748 0.336l-3.115 3.541c-0.336 0.379-0.336 0.949 0 1.328l3.115 3.509c0.191 0.214 0.462 0.305 0.748 0.305h10.893v9.052c0 0.517 0.448 0.938 1 0.938s1-0.42 1-0.938v-9.053h8.015c0.552 0 1-0.448 1-1v-7.019c0-0.553-0.448-1-1-1h-8.014v-2.003h10.945c0.286 0 0.558-0.122 0.748-0.336l3.116-3.51c0.335-0.378 0.335-0.949 0-1.328v-0zM23.989 20.010h-19.459l-2.228-2.477 2.228-2.541h19.459v5.018zM27.47 8.989h-19.49v-4.989h19.49l2.227 2.479z"></path>
</svg>
