
<svg version="1.1" xmlns="http://www.w3.org/2000/svg" width="32" height="32" viewBox="0 0 32 32">
<title>disc</title>
<path d="M16 0c-8.837 0-16 7.163-16 16s7.163 16 16 16 16-7.163 16-16-7.163-16-16-16zM30 16c0 2.072-0.456 4.039-1.268 5.81l-8.851-4.736c0.095-0.343 0.149-0.702 0.149-1.075 0-2.226-1.805-4.032-4.032-4.032-0.457 0-0.895 0.079-1.303 0.22l-5.3-8.528c1.969-1.058 4.217-1.659 6.604-1.659 7.72 0 14 6.28 14 14zM16 13.969c1.12 0 2.032 0.911 2.032 2.032s-0.912 2.031-2.031 2.031-2.031-0.912-2.031-2.031 0.911-2.031 2.031-2.031zM7.705 4.73l5.318 8.557c-0.024 0.026-0.048 0.052-0.072 0.079l-8.849-4.735c0.944-1.518 2.168-2.843 3.602-3.901zM2 16c0-1.99 0.42-3.883 1.172-5.599l8.886 4.755c-0.058 0.273-0.090 0.554-0.090 0.844 0 2.226 1.805 4.031 4.032 4.031 0.387 0 0.761-0.058 1.116-0.16l5.319 8.556c-1.927 1.002-4.114 1.572-6.434 1.572-7.72 0-14-6.28-14-14zM24.139 27.38l-5.297-8.521c0.015-0.015 0.030-0.032 0.046-0.048l8.884 4.755c-0.961 1.488-2.195 2.784-3.633 3.815z"></path>
</svg>
