<svg   xmlns="http://www.w3.org/2000/svg" viewBox="0 0 32 32"><title>dollar_32</title><path d="M28.42,17.62A7.47,7.47,0,0,0,21.5,13h-11a1.5,1.5,0,0,1,0-3H27a1,1,0,0,0,1-1V5a1,1,0,0,0-1-1H23V1a1,1,0,0,0-1-1H18a1,1,0,0,0-1,1V4H15V1a1,1,0,0,0-1-1H10A1,1,0,0,0,9,1V4.15A7.52,7.52,0,0,0,3,11.5a7.35,7.35,0,0,0,.58,2.89A7.48,7.48,0,0,0,10.5,19h11a1.5,1.5,0,0,1,0,3H5a1,1,0,0,0-1,1v4a1,1,0,0,0,1,1H9v3a1,1,0,0,0,1,1h4a1,1,0,0,0,1-1V28h2v3a1,1,0,0,0,1,1h4a1,1,0,0,0,1-1V27.85a7.52,7.52,0,0,0,6-7.35A7.27,7.27,0,0,0,28.42,17.62ZM19,2h2V4H19ZM11,2h2V4H11Zm2,28H11V28h2Zm8,0H19V28h2Zm.5-4H6V24H21.5a3.5,3.5,0,0,0,0-7h-11a5.5,5.5,0,0,1,0-11H26V8H10.5a3.5,3.5,0,0,0,0,7h11a5.5,5.5,0,0,1,0,11Z"/></svg>
