<svg xmlns="http://www.w3.org/2000/svg" xmlns:xlink="http://www.w3.org/1999/xlink" preserveAspectRatio="xMidYMid" width="31.969" height="32" viewBox="0 0 31.969 32">
  <path d="M31.927,17.054 C31.927,17.093 31.941,17.128 31.937,17.167 C31.934,17.187 31.922,17.202 31.919,17.222 C31.434,23.591 27.208,28.918 21.443,31.024 C21.370,31.061 21.294,31.086 21.212,31.104 C19.573,31.674 17.821,32.000 15.990,32.000 C7.173,32.000 -0.001,24.822 -0.001,16.000 C-0.001,15.328 0.054,14.670 0.135,14.019 C0.139,13.992 0.131,13.967 0.137,13.940 C0.140,13.927 0.149,13.918 0.152,13.905 C0.827,8.775 3.942,4.414 8.283,2.006 C8.365,1.938 8.458,1.893 8.555,1.855 C10.778,0.678 13.303,0.000 15.990,0.000 C20.053,0.000 23.755,1.537 26.579,4.044 C26.587,4.048 26.597,4.048 26.605,4.053 C26.723,4.127 26.819,4.222 26.894,4.330 C30.016,7.252 31.981,11.396 31.981,16.000 C31.981,16.356 31.950,16.704 31.927,17.054 ZM29.829,17.954 C26.564,17.670 23.691,17.869 21.178,18.338 C21.969,21.286 22.390,24.694 22.135,28.573 C26.212,26.565 29.173,22.625 29.829,17.954 ZM15.990,30.000 C17.407,30.000 18.770,29.779 20.059,29.385 C20.439,25.347 20.051,21.816 19.218,18.771 C16.208,19.558 13.819,20.724 12.048,21.841 C9.254,23.604 7.521,25.489 6.727,26.464 C9.197,28.656 12.436,30.000 15.990,30.000 ZM1.998,16.000 C1.998,19.438 3.248,22.585 5.310,25.024 C6.940,23.056 11.200,18.795 18.615,16.839 C18.235,15.773 17.804,14.774 17.337,13.842 C14.680,15.071 11.451,15.917 7.585,15.917 C5.863,15.917 4.008,15.737 2.030,15.361 C2.021,15.574 1.998,15.784 1.998,16.000 ZM2.257,13.351 C8.170,14.498 12.808,13.643 16.349,12.050 C13.576,7.433 10.128,4.800 8.886,3.949 C5.499,5.959 3.026,9.354 2.257,13.351 ZM15.990,2.000 C14.205,2.000 12.501,2.344 10.930,2.957 C12.328,4.021 14.493,5.913 16.566,8.725 C17.091,9.438 17.626,10.242 18.147,11.122 C21.482,9.195 23.626,6.695 24.743,5.095 C22.344,3.163 19.302,2.000 15.990,2.000 ZM26.213,6.475 C24.940,8.248 22.631,10.875 19.120,12.911 C19.651,13.973 20.146,15.133 20.581,16.391 C23.327,15.864 26.446,15.651 29.980,15.959 C29.969,12.295 28.534,8.967 26.213,6.475 Z" class="cls-1"/>
</svg>
