<svg xmlns="http://www.w3.org/2000/svg" xmlns:xlink="http://www.w3.org/1999/xlink" preserveAspectRatio="xMidYMid" width="31.938" height="31.938" viewBox="0 0 31.938 31.938">
  <path d="M31.595,7.763 L26.540,11.969 L30.580,15.197 C30.829,15.396 30.968,15.701 30.954,16.019 C30.941,16.337 30.776,16.630 30.510,16.806 L25.936,19.851 C25.941,19.891 25.960,19.926 25.960,19.967 L25.960,24.955 C25.960,25.289 25.793,25.600 25.515,25.785 L16.523,31.771 C16.489,31.794 16.450,31.804 16.414,31.822 C16.381,31.839 16.350,31.856 16.315,31.869 C16.202,31.911 16.087,31.939 15.969,31.939 C15.851,31.939 15.735,31.911 15.623,31.869 C15.588,31.856 15.557,31.839 15.523,31.822 C15.487,31.804 15.449,31.794 15.415,31.771 L6.423,25.785 C6.145,25.600 5.978,25.289 5.978,24.955 L5.978,19.967 C5.978,19.926 5.997,19.891 6.001,19.851 L1.428,16.806 C1.162,16.630 0.997,16.337 0.984,16.019 C0.970,15.701 1.109,15.396 1.358,15.197 L5.398,11.969 L0.343,7.763 C0.101,7.561 -0.032,7.257 -0.015,6.943 C0.002,6.629 0.166,6.341 0.428,6.166 L9.420,0.180 C9.787,-0.066 10.273,-0.040 10.614,0.244 L15.969,4.700 L21.324,0.244 C21.664,-0.040 22.150,-0.066 22.518,0.180 L31.509,6.166 C31.772,6.341 31.936,6.629 31.953,6.943 C31.970,7.257 31.837,7.561 31.595,7.763 ZM28.265,15.903 L24.907,13.220 L17.660,18.044 L21.018,20.727 L28.265,15.903 ZM16.968,29.077 L23.962,24.421 L23.962,21.166 L21.519,22.792 C21.350,22.904 21.157,22.960 20.964,22.960 C20.743,22.960 20.522,22.886 20.340,22.741 L16.968,20.047 L16.968,29.077 ZM15.969,16.772 L23.160,11.985 L15.969,7.198 L8.778,11.985 L15.969,16.772 ZM7.976,24.421 L14.970,29.077 L14.970,20.047 L11.597,22.741 C11.416,22.886 11.195,22.960 10.973,22.960 C10.781,22.960 10.588,22.904 10.419,22.792 L7.976,21.166 L7.976,24.421 ZM10.920,20.727 L14.278,18.044 L7.031,13.220 L3.673,15.903 L10.920,20.727 ZM9.908,2.253 L2.650,7.086 L7.044,10.742 L14.302,5.910 L9.908,2.253 ZM22.030,2.253 L17.636,5.910 L24.894,10.742 L29.288,7.086 L22.030,2.253 Z" class="cls-1"/>
</svg>
