
<svg version="1.1" xmlns="http://www.w3.org/2000/svg" width="32" height="32" viewBox="0 0 32 32">
<title>drop</title>
<path d="M15.95 31.959c-6.041 0-10.956-4.848-10.956-10.806 0-6.959 9.739-20.151 10.153-20.71 0.188-0.252 0.482-0.402 0.796-0.404 0.349-0.003 0.611 0.144 0.802 0.393 0.419 0.548 10.261 13.507 10.261 20.721 0 5.959-4.96 10.806-11.056 10.806zM15.961 2.74c-2.325 3.302-8.967 13.189-8.967 18.413 0 4.855 4.018 8.806 8.956 8.806 4.993 0 9.056-3.95 9.056-8.806 0-5.418-6.692-15.157-9.045-18.413z"></path>
</svg>
