
<svg version="1.1" xmlns="http://www.w3.org/2000/svg" width="32" height="32" viewBox="0 0 32 32">
<title>earphones</title>
<path d="M31.995 18.892c0.003-0.658-0.101-3.141-0.18-3.851-0.91-8.149-7.523-14.063-15.724-14.063-8.542 0-15.463 6.582-15.932 15.309-0.010 0.191-0.080 1.542-0.085 2.346l-0.003 0.448c-0.041 0.185-0.066 0.376-0.066 0.573v8.708c0 1.465 1.192 2.657 2.656 2.657h2.696c1.465 0 2.657-1.192 2.657-2.657v-8.707c0-1.465-1.192-2.657-2.657-2.657h-2.697c-0.184 0-0.364 0.019-0.537 0.055 0.015-0.325 0.029-0.581 0.032-0.658 0.412-7.649 6.473-13.417 13.936-13.417 7.165 0 12.941 5.167 13.736 12.285 0.034 0.297 0.077 1.052 0.111 1.81-0.195-0.045-0.394-0.075-0.601-0.075h-2.665c-1.465 0-2.657 1.192-2.657 2.657v8.677c0 1.465 1.192 2.657 2.657 2.657h2.665c1.465 0 2.657-1.192 2.657-2.657v-8.677c0-0.163-0.020-0.322-0.049-0.476 0.029-0.092 0.048-0.188 0.049-0.288zM2.66 19h2.696c0.362 0 0.657 0.294 0.657 0.657v8.708c0 0.363-0.295 0.657-0.657 0.657h-2.696c-0.362 0-0.656-0.294-0.656-0.657v-8.708c0.001-0.363 0.295-0.657 0.657-0.657zM29.995 28.333c0 0.363-0.295 0.657-0.657 0.657h-2.665c-0.363 0-0.657-0.294-0.657-0.657v-8.677c0-0.363 0.294-0.657 0.657-0.657h2.665c0.363 0 0.657 0.294 0.657 0.657v8.677z"></path>
</svg>
