<svg   xmlns="http://www.w3.org/2000/svg" viewBox="0 0 32 32"><title>edge_32</title><path d="M30.86,13.92A14.23,14.23,0,0,0,25.41,3.14a15.05,15.05,0,0,0-11.16-3A14.62,14.62,0,0,0,4.31,5.73a16.72,16.72,0,0,0-3.22,7.81,1.42,1.42,0,0,0,0,.62,1,1,0,0,0,.69.74,1.06,1.06,0,0,0,1-.24,2,2,0,0,0,.4-.48l.08-.11a16.36,16.36,0,0,1,6.07-5A12.46,12.46,0,0,0,4.66,22c1.17,5.63,5.86,9.55,12,10,.49,0,1,.05,1.46.05a21.5,21.5,0,0,0,8.79-1.93,1.89,1.89,0,0,0,1.24-1.92c0-1,0-2,0-2.95V23.71c0-.24,0-.49,0-.73a1.2,1.2,0,0,0-1.92-1.12l-.25.13a18.54,18.54,0,0,1-4.44,1.7,10.68,10.68,0,0,1-6.73-.52,4.76,4.76,0,0,1-2.95-3.41H29c1.36,0,1.86-.5,1.86-1.86v-1C30.9,15.9,30.91,14.91,30.86,13.92Zm-2,2.93v.9c-1.89,0-3.78,0-5.68,0H11.7a2,2,0,0,0-1.68.55,2.05,2.05,0,0,0-.19,1.79,6.75,6.75,0,0,0,4.1,4.9,12.72,12.72,0,0,0,8,.65,18.65,18.65,0,0,0,4.2-1.52v1.06c0,1,0,2,0,3l-.05,0A19.16,19.16,0,0,1,16.76,30c-5.18-.37-9.16-3.67-10.14-8.4A10.53,10.53,0,0,1,10,11.15a11,11,0,0,0-.32,1.29,1.44,1.44,0,0,0,.26,1.25,1.41,1.41,0,0,0,1.14.51h9.29a3.05,3.05,0,0,0,.43,0A1.59,1.59,0,0,0,22,13.69a1.55,1.55,0,0,0,.24-1.25L22.2,12a13.39,13.39,0,0,0-.46-2.37,5.1,5.1,0,0,0-3.68-3.53,11.19,11.19,0,0,0-4.72-.23A17.21,17.21,0,0,0,4,10.42a14.22,14.22,0,0,1,2-3.48A12.69,12.69,0,0,1,14.5,2.1a13,13,0,0,1,9.66,2.6A12.28,12.28,0,0,1,28.86,14C28.91,15,28.9,15.92,28.89,16.85ZM13,8l-.05,0,.73-.13A9,9,0,0,1,17.51,8a3.1,3.1,0,0,1,2.32,2.18,11.42,11.42,0,0,1,.38,2H11.77a8.33,8.33,0,0,1,1-2.36,3.32,3.32,0,0,0,.29-.6l.07-.17A1,1,0,0,0,13,8Z"/></svg>
