
<svg version="1.1" xmlns="http://www.w3.org/2000/svg" width="32" height="32" viewBox="0 0 32 32">
<title>emotsmile</title>
<path d="M24.415 18.974c-0.508-0.227-1.097 0.002-1.321 0.506-0.020 0.044-2.067 4.506-7.17 4.566-0.031 0-0.063 0.001-0.094 0.001-4.802 0-6.873-4.387-6.959-4.575-0.229-0.5-0.818-0.723-1.322-0.496-0.503 0.227-0.726 0.819-0.499 1.323 0.106 0.236 2.668 5.748 8.776 5.748 0.040 0 0.081-0.001 0.121-0.001 6.371-0.075 8.87-5.521 8.973-5.752 0.227-0.505-0.001-1.096-0.505-1.32zM16 0c-8.837 0-16 7.163-16 16s7.163 16 16 16 16-7.163 16-16-7.163-16-16-16zM16 30c-7.72 0-14-6.28-14-14s6.28-14 14-14 14 6.28 14 14-6.28 14-14 14zM10.984 14.995c1.102 0 1.995-0.893 1.995-1.995s-0.893-1.995-1.995-1.995c-1.102 0-1.995 0.893-1.995 1.995s0.893 1.995 1.995 1.995zM20.984 14.995c1.102 0 1.995-0.893 1.995-1.995s-0.893-1.995-1.995-1.995c-1.102 0-1.995 0.893-1.995 1.995s0.892 1.995 1.995 1.995z"></path>
</svg>
