
<svg version="1.1" xmlns="http://www.w3.org/2000/svg" width="32" height="32" viewBox="0 0 32 32">
<title>energy</title>
<path d="M18.605 2.022v0zM18.605 2.022l-2.256 11.856 8.174 0.027-11.127 16.072 2.257-13.043-8.174-0.029zM18.606 0.023c-0.054 0-0.108 0.002-0.161 0.006-0.353 0.028-0.587 0.147-0.864 0.333-0.154 0.102-0.295 0.228-0.419 0.373-0.037 0.043-0.071 0.088-0.103 0.134l-11.207 14.832c-0.442 0.607-0.508 1.407-0.168 2.076s1.026 1.093 1.779 1.099l5.773 0.042-1.815 10.694c-0.172 0.919 0.318 1.835 1.18 2.204 0.257 0.11 0.527 0.163 0.793 0.163 0.629 0 1.145-0.294 1.533-0.825l11.22-16.072c0.442-0.607 0.507-1.408 0.168-2.076-0.34-0.669-1.026-1.093-1.779-1.098l-5.773-0.010 1.796-9.402c0.038-0.151 0.057-0.308 0.057-0.47 0-1.082-0.861-1.964-1.939-1.999-0.024-0.001-0.047-0.001-0.071-0.001v0z"></path>
</svg>
