<svg xmlns="http://www.w3.org/2000/svg" xmlns:xlink="http://www.w3.org/1999/xlink" preserveAspectRatio="xMidYMid" width="31.781" height="31.906" viewBox="0 0 31.781 31.906">
  <path d="M28.802,31.908 L2.981,31.908 C1.338,31.908 0.001,30.566 0.001,28.915 L0.001,13.951 C0.001,13.938 0.008,13.928 0.008,13.916 C0.009,13.880 0.021,13.846 0.029,13.811 C0.040,13.731 0.054,13.655 0.084,13.580 C0.088,13.566 0.089,13.551 0.095,13.538 C0.115,13.495 0.146,13.459 0.174,13.420 C0.201,13.379 0.213,13.333 0.245,13.295 C0.262,13.276 0.284,13.269 0.301,13.252 C0.309,13.244 0.314,13.233 0.322,13.225 C0.331,13.216 0.335,13.205 0.344,13.197 L4.967,9.172 L4.967,4.973 C4.967,4.422 5.412,3.975 5.960,3.975 L10.937,3.975 L15.241,0.228 C15.615,-0.096 16.168,-0.096 16.542,0.228 L20.847,3.975 L25.823,3.975 C26.372,3.975 26.816,4.422 26.816,4.973 L26.816,9.172 L31.440,13.197 C31.449,13.205 31.452,13.217 31.462,13.225 C31.470,13.233 31.475,13.244 31.483,13.253 C31.500,13.269 31.522,13.277 31.538,13.295 C31.570,13.332 31.582,13.378 31.607,13.418 C31.636,13.458 31.668,13.495 31.688,13.538 C31.694,13.552 31.695,13.567 31.699,13.581 C31.729,13.655 31.742,13.730 31.753,13.808 C31.762,13.844 31.774,13.879 31.775,13.916 C31.775,13.928 31.782,13.938 31.782,13.951 L31.782,28.915 C31.782,30.566 30.445,31.908 28.802,31.908 ZM28.298,29.913 L15.988,18.957 C15.955,18.929 15.827,18.929 15.783,18.967 L3.485,29.913 L28.298,29.913 ZM1.906,28.652 L9.030,22.312 L1.906,16.073 L1.906,28.652 ZM2.508,13.953 L4.967,16.106 L4.967,11.813 L2.508,13.953 ZM15.892,2.302 L13.970,3.975 L17.813,3.975 L15.892,2.302 ZM20.759,5.906 C20.665,5.935 20.570,5.967 20.472,5.967 C20.356,5.967 20.240,5.947 20.129,5.906 L6.906,5.906 L6.906,17.805 L10.529,20.978 L14.478,17.463 C15.277,16.776 16.506,16.776 17.293,17.453 L21.253,20.977 L24.906,17.779 L24.906,5.906 L20.759,5.906 ZM26.816,11.813 L26.816,16.106 L29.274,13.953 L26.816,11.813 ZM29.906,16.047 L22.753,22.312 L29.906,28.678 L29.906,16.047 Z" class="cls-1"/>
</svg>
