
<svg version="1.1" xmlns="http://www.w3.org/2000/svg" width="32" height="32" viewBox="0 0 32 32">
<title>equalizer</title>
<path d="M5.002 12.121v-11.121c0-0.552-0.448-1-1-1s-1 0.448-1 1v11.12c-1.729 0.446-3.013 2.014-3.013 3.88s1.284 3.434 3.013 3.881v11.119c0 0.552 0.448 1 1 1s1-0.448 1-1v-11.12c1.728-0.447 3.010-2.014 3.010-3.88s-1.282-3.433-3.010-3.879zM4.013 18.001c-0.003 0-0.008-0.001-0.011-0.001s-0.008 0.001-0.013 0.002c-1.099-0.006-1.99-0.901-1.99-2.002s0.893-1.995 1.991-2.001c0.004 0 0.008 0.001 0.012 0.001s0.008-0.001 0.011-0.001c1.098 0.007 1.989 0.902 1.989 2.001s-0.891 1.994-1.989 2.001zM17.002 18.121l-0-17.121c0-0.552-0.448-1-1-1s-1 0.448-1 1v17.12c-1.729 0.446-3.012 2.014-3.012 3.88s1.284 3.434 3.012 3.881v5.12c0 0.552 0.448 1 1 1s1-0.448 1-1v-5.12c1.727-0.447 3.009-2.014 3.009-3.88-0-1.864-1.282-3.432-3.009-3.879zM16.013 24.001c-0.004 0-0.008-0.001-0.012-0.001s-0.008 0.001-0.013 0.002c-1.098-0.006-1.99-0.901-1.99-2.002s0.894-1.996 1.994-2.001c0.004 0 0.007 0.001 0.011 0.001s0.006-0.001 0.009-0.001c1.099 0.006 1.992 0.901 1.992 2.001s-0.892 1.994-1.99 2.001zM29.002 6.121l-0-5.121c0-0.552-0.448-1-1-1s-1 0.448-1 1v5.12c-1.729 0.446-3.012 2.014-3.012 3.88s1.284 3.435 3.012 3.88v17.119c0 0.552 0.448 1 1 1s1-0.448 1-1v-17.12c1.727-0.447 3.009-2.014 3.009-3.88-0.001-1.864-1.282-3.432-3.009-3.879zM28.013 12.001c-0.004 0-0.007-0.001-0.011-0.001s-0.009 0.001-0.013 0.001c-1.099-0.006-1.991-0.901-1.991-2.001s0.892-1.995 1.99-2.001c0.005 0 0.009 0.001 0.013 0.001s0.008-0.001 0.011-0.001c1.098 0.007 1.989 0.902 1.989 2.001 0.001 1.099-0.89 1.994-1.989 2.001z"></path>
</svg>
