<svg   xmlns="http://www.w3.org/2000/svg" viewBox="0 0 32 32"><title>euro_32</title><path d="M3,23H6.65A16,16,0,0,0,29,29.86a1,1,0,0,0,.47-.61,1.05,1.05,0,0,0-.1-.76l-2-3.46A1,1,0,0,0,26,24.66,9.91,9.91,0,0,1,13.92,23H21a1,1,0,0,0,1-1V18a1,1,0,0,0-1-1H11.06a8.36,8.36,0,0,1,0-2H23a1,1,0,0,0,1-1V10a1,1,0,0,0-1-1H13.92A9.91,9.91,0,0,1,26,7.34a1,1,0,0,0,.76.1A1,1,0,0,0,27.37,7l2-3.46a1.05,1.05,0,0,0,.1-.76A1.06,1.06,0,0,0,29,2.14,16,16,0,0,0,6.65,9H3a1,1,0,0,0-1,1v4a1,1,0,0,0,1,1H5c0,.35,0,.68,0,1s0,.65,0,1H3a1,1,0,0,0-1,1v4A1,1,0,0,0,3,23Zm18,5a12,12,0,0,0,5.11-1.14l1,1.73A14,14,0,0,1,8.91,23h2.37A12,12,0,0,0,21,28ZM21,2a13.94,13.94,0,0,1,6.12,1.41l-1,1.73A12,12,0,0,0,11.28,9H8.91A14,14,0,0,1,21,2ZM4,11H22v2H4Zm3,5c0-.32,0-.64,0-1h2c0,.34-.05.67-.05,1s0,.66.05,1h-2C7,16.64,7,16.32,7,16ZM4,19H20v2H4Z"/></svg>
