<svg xmlns="http://www.w3.org/2000/svg" xmlns:xlink="http://www.w3.org/1999/xlink" preserveAspectRatio="xMidYMid" width="31.75" height="19.969" viewBox="0 0 31.75 19.969">
  <path d="M31.748,11.976 C31.748,13.953 31.748,19.970 24.806,19.970 L23.566,19.970 C23.507,19.970 23.450,19.965 23.394,19.955 C19.797,19.696 17.795,16.140 17.129,13.625 C17.015,13.494 16.923,13.341 16.890,13.163 C16.813,13.110 16.551,12.975 15.881,12.975 C15.210,12.975 14.948,13.110 14.872,13.163 C14.838,13.341 14.747,13.494 14.632,13.625 C13.966,16.140 11.964,19.696 8.367,19.955 C8.311,19.965 8.254,19.970 8.195,19.970 L6.956,19.970 C0.014,19.970 0.014,13.953 0.014,11.976 C0.014,11.733 0.057,11.533 0.085,11.318 C-0.011,11.054 -0.007,10.757 0.139,10.492 L5.097,1.499 C5.235,1.287 6.086,0.085 7.656,0.008 C9.034,-0.032 10.357,0.730 11.685,2.346 C12.035,2.771 11.977,3.401 11.555,3.752 C11.132,4.107 10.508,4.045 10.159,3.621 C9.274,2.545 8.400,1.975 7.753,2.005 C7.164,2.033 6.789,2.539 6.785,2.544 L3.662,8.214 C4.610,8.050 5.703,7.979 6.956,7.979 C9.808,7.979 13.894,8.836 14.727,11.113 C15.055,11.034 15.422,10.977 15.881,10.977 C16.339,10.977 16.706,11.034 17.034,11.113 C17.867,8.836 21.953,7.979 24.806,7.979 C26.057,7.979 27.150,8.050 28.098,8.213 L24.963,2.528 C24.875,2.417 24.523,2.021 23.992,2.004 C23.324,2.016 22.479,2.556 21.602,3.621 C21.254,4.046 20.630,4.108 20.207,3.752 C19.784,3.401 19.726,2.771 20.076,2.346 C21.405,0.730 22.743,-0.031 24.106,0.008 C25.676,0.085 26.527,1.287 26.619,1.424 L31.623,10.492 C31.769,10.757 31.772,11.054 31.676,11.318 C31.704,11.533 31.748,11.733 31.748,11.976 ZM6.956,9.978 C1.997,9.978 1.997,10.994 1.997,11.976 C1.997,15.090 2.598,17.971 6.956,17.971 L7.947,17.971 C11.201,17.971 12.906,13.517 12.906,11.976 C12.906,11.077 10.160,9.978 6.956,9.978 ZM24.806,9.978 C21.601,9.978 18.856,11.077 18.856,11.976 C18.856,13.517 20.560,17.971 23.814,17.971 L24.806,17.971 C29.164,17.971 29.764,15.090 29.764,11.976 C29.764,10.994 29.764,9.978 24.806,9.978 Z" class="cls-1"/>
</svg>
