
<svg version="1.1" xmlns="http://www.w3.org/2000/svg" width="32" height="32" viewBox="0 0 32 32">
<title>feed</title>
<path d="M3.183 10.32c-0.567 0-1.024 0.458-1.024 1.024s0.458 1.024 1.024 1.024c9.469 0 16.417 7.012 16.417 16.48 0 0.566 0.458 1.023 1.024 1.023s1.024-0.458 1.024-1.023c0-10.636-7.829-18.528-18.465-18.528zM3.192 0.082c-0.566 0-1.024 0.458-1.024 1.024s0.458 1.024 1.024 1.024c14.693 0 26.646 11.953 26.646 26.645 0 0.566 0.458 1.023 1.024 1.023s1.024-0.458 1.024-1.023c-0-15.822-12.872-28.694-28.694-28.694zM5.75 20.612c-3.108 0-5.637 2.535-5.637 5.652 0 3.116 2.529 5.654 5.636 5.654s5.638-2.537 5.638-5.653c0-3.117-2.529-5.652-5.637-5.652zM5.75 29.938c-2.019 0-3.662-1.648-3.662-3.674s1.643-3.673 3.662-3.673c2.019 0 3.663 1.648 3.663 3.673s-1.643 3.674-3.663 3.674z"></path>
</svg>
