<svg xmlns="http://www.w3.org/2000/svg" xmlns:xlink="http://www.w3.org/1999/xlink" preserveAspectRatio="xMidYMid" width="32" height="32" viewBox="0 0 32 32">
  <path d="M30.000,32.000 L2.000,32.000 C0.898,32.000 0.000,31.103 0.000,30.001 L0.000,28.001 C0.000,27.635 0.200,27.298 0.521,27.123 L10.331,21.772 L4.858,20.992 C4.454,20.934 4.125,20.636 4.028,20.239 C3.932,19.842 4.086,19.426 4.419,19.188 C6.966,17.369 7.868,9.736 8.001,6.949 C8.003,6.909 8.008,6.869 8.014,6.830 C8.684,2.872 12.042,-0.000 16.000,-0.000 C19.958,-0.000 23.316,2.872 23.986,6.830 C23.992,6.869 23.997,6.909 23.999,6.949 C24.133,9.737 25.037,17.372 27.581,19.188 C27.914,19.426 28.068,19.842 27.972,20.239 C27.875,20.636 27.546,20.934 27.142,20.992 L21.668,21.773 L31.479,27.123 C31.800,27.298 32.000,27.635 32.000,28.001 L32.000,30.001 C32.000,31.103 31.103,32.000 30.000,32.000 ZM30.000,30.001 L30.000,31.000 L30.000,30.001 L30.000,30.001 L30.000,30.001 ZM2.000,28.594 L2.000,30.001 L29.996,30.001 L29.999,28.593 L20.398,23.358 C19.753,23.006 19.000,22.308 19.000,21.502 C19.000,20.697 19.760,20.026 20.849,19.870 L24.996,19.278 C22.528,15.547 22.064,8.296 22.004,7.107 C21.476,4.144 18.960,1.999 16.000,1.999 C13.040,1.999 10.524,4.144 9.996,7.107 C9.936,8.296 9.472,15.547 7.004,19.278 L11.151,19.870 C12.240,20.026 13.000,20.697 13.000,21.502 C13.000,22.308 12.246,23.006 11.600,23.358 L2.000,28.594 Z" class="cls-1"/>
</svg>
