<svg   xmlns="http://www.w3.org/2000/svg" viewBox="0 0 32 32"><title>firefox_32</title><path d="M16,32l.81,0A16,16,0,0,0,25.6,3.2a1,1,0,0,0-1.05-.09A1,1,0,0,0,24,4c0,.08,0,.79,0,1.81A12.92,12.92,0,0,0,10.47,4.24L10,1.8A1,1,0,0,0,9.19,1a1,1,0,0,0-1,.43L6.47,4H3.54L1.83,1.45A1,1,0,0,0,.71,1,1,1,0,0,0,0,2V16A16,16,0,0,0,16,32ZM24.23,8.7c.06.65.13,1.32.23,2A6.05,6.05,0,0,0,22,10a1,1,0,0,0-.93,1.37,46.08,46.08,0,0,1,1.63,4.86A7.14,7.14,0,0,0,21,16a1,1,0,0,0-.8.4,1,1,0,0,0-.16.87s.74,2.76-.49,4.39A4.19,4.19,0,0,1,16,23a5.84,5.84,0,0,1-5.67-4H13.5a2.5,2.5,0,0,0,0-5H9a1,1,0,0,0,1-1V11h1a1,1,0,0,0,.71-.29l2-2A1,1,0,0,0,14,7.77a1,1,0,0,0-.65-.72l-2.38-.79A10.93,10.93,0,0,1,24.23,8.7ZM2,5.3l.17.26A1,1,0,0,0,3,6H7a1,1,0,0,0,.83-.44l.66-1L9,7.2A1,1,0,0,0,9.68,8l1.47.49L10.59,9H9a1,1,0,0,0-1,1v2.14A2.78,2.78,0,0,0,6,15a1,1,0,0,0,1,1h6.5a.5.5,0,0,1,0,1H9a1,1,0,0,0-.76.35,1,1,0,0,0-.23.81A8.08,8.08,0,0,0,16,25c2.35,0,4.08-.72,5.15-2.13a6.85,6.85,0,0,0,1.07-4.7,2.36,2.36,0,0,1,1.07.54,1,1,0,0,0,1.09.21A1,1,0,0,0,25,18a21.56,21.56,0,0,0-1.37-5.52,6.52,6.52,0,0,1,1.66,1.23,1,1,0,0,0,1.66-1,27.78,27.78,0,0,1-.88-6.41A14,14,0,0,1,16.7,30,14,14,0,0,1,2,16Z"/></svg>
