<svg xmlns="http://www.w3.org/2000/svg" xmlns:xlink="http://www.w3.org/1999/xlink" preserveAspectRatio="xMidYMid" width="31.812" height="31.906" viewBox="0 0 31.812 31.906">
  <path d="M31.728,31.291 C31.628,31.535 31.434,31.729 31.190,31.830 C31.069,31.881 30.940,31.907 30.811,31.907 L23.851,31.907 C23.301,31.907 22.856,31.461 22.856,30.910 C22.856,30.359 23.301,29.913 23.851,29.913 L28.405,29.908 L19.171,20.646 C18.782,20.257 18.782,19.626 19.171,19.236 C19.559,18.847 20.188,18.847 20.577,19.236 L29.906,28.593 L29.906,23.906 C29.906,23.355 30.261,22.933 30.811,22.933 C31.360,22.933 31.805,23.379 31.805,23.930 L31.805,30.910 C31.805,31.040 31.779,31.169 31.728,31.291 ZM30.811,8.973 C30.261,8.973 29.906,8.457 29.906,7.906 L29.906,3.313 L20.577,12.669 C20.382,12.864 20.128,12.962 19.874,12.962 C19.619,12.962 19.365,12.864 19.171,12.669 C18.782,12.280 18.782,11.649 19.171,11.259 L28.497,1.906 L23.906,1.906 C23.356,1.906 22.856,1.546 22.856,0.996 C22.856,0.445 23.301,-0.001 23.851,-0.001 L30.811,-0.001 C30.811,-0.001 30.811,-0.001 30.812,-0.001 C30.941,-0.001 31.069,0.025 31.190,0.076 C31.434,0.177 31.628,0.371 31.728,0.615 C31.779,0.737 31.805,0.866 31.805,0.996 L31.805,7.976 C31.805,8.526 31.360,8.973 30.811,8.973 ZM3.387,29.908 L7.942,29.913 C8.492,29.913 8.936,30.359 8.936,30.910 C8.936,31.461 8.492,31.907 7.942,31.907 L0.982,31.907 C0.853,31.907 0.724,31.881 0.602,31.830 C0.359,31.729 0.165,31.535 0.064,31.291 C0.014,31.169 -0.012,31.040 -0.012,30.910 L-0.012,23.930 C-0.012,23.379 0.433,22.933 0.982,22.933 C1.532,22.933 1.906,23.355 1.906,23.906 L1.906,28.573 L11.216,19.236 C11.605,18.847 12.234,18.847 12.622,19.236 C13.011,19.626 13.011,20.257 12.622,20.646 L3.387,29.908 ZM11.919,12.962 C11.665,12.962 11.410,12.864 11.216,12.669 L1.906,3.332 L1.906,7.906 C1.906,8.457 1.532,8.973 0.982,8.973 C0.433,8.973 -0.012,8.526 -0.012,7.976 L-0.012,0.996 C-0.012,0.866 0.014,0.737 0.064,0.615 C0.165,0.371 0.359,0.177 0.602,0.076 C0.723,0.025 0.852,-0.001 0.980,-0.001 C0.981,-0.001 0.981,-0.001 0.982,-0.001 L7.942,-0.001 C8.492,-0.001 8.936,0.445 8.936,0.996 C8.936,1.546 8.456,1.906 7.906,1.906 L3.296,1.906 L12.622,11.259 C13.011,11.649 13.011,12.280 12.622,12.669 C12.428,12.864 12.174,12.962 11.919,12.962 Z" class="cls-1"/>
</svg>
