
<svg version="1.1" xmlns="http://www.w3.org/2000/svg" width="32" height="32" viewBox="0 0 32 32">
<title>ghost</title>
<path d="M15.999-0.004c-7.163 0-12.99 6.247-12.99 13.925v17.084c0 0.413 0.255 0.784 0.64 0.933 0.116 0.046 0.239 0.067 0.36 0.067 0.277 0 0.548-0.115 0.741-0.329l3.768-4.16 2.951 4.076c0.187 0.258 0.485 0.411 0.803 0.413h0.007c0.316 0 0.614-0.149 0.802-0.404l2.963-3.98 2.912 3.974c0.189 0.257 0.488 0.409 0.807 0.409s0.618-0.151 0.807-0.408l2.986-4.072 3.688 4.145c0.276 0.309 0.717 0.418 1.102 0.27 0.387-0.148 0.645-0.52 0.645-0.934v-17.084c0-7.678-5.828-13.925-12.991-13.925zM26.99 28.376l-2.763-3.105c-0.201-0.226-0.494-0.354-0.794-0.334-0.302 0.015-0.581 0.164-0.76 0.407l-2.91 3.969-2.907-3.966c-0.188-0.256-0.485-0.408-0.802-0.409h-0.004c-0.316 0-0.614 0.149-0.802 0.404l-2.959 3.974-2.875-3.971c-0.177-0.244-0.454-0.395-0.755-0.411-0.018-0.001-0.036-0.002-0.054-0.002-0.281 0-0.551 0.119-0.741 0.329l-2.856 3.151v-14.49c0-6.575 4.93-11.925 10.99-11.925s10.991 5.349 10.991 11.925v14.456h0zM21 11.005c-1.102 0-1.995 0.893-1.995 1.994s0.892 1.995 1.995 1.995 1.995-0.893 1.995-1.995c0-1.101-0.892-1.994-1.995-1.994zM11 11.005c-1.103 0-1.995 0.893-1.995 1.994s0.893 1.995 1.995 1.995 1.995-0.893 1.995-1.995c0-1.101-0.893-1.994-1.995-1.994z"></path>
</svg>
