
<svg version="1.1" xmlns="http://www.w3.org/2000/svg" width="32" height="32" viewBox="0 0 32 32">
<title>globe-alt</title>
<path d="M29.047 12.95c0-5.274-2.781-10.059-7.437-12.799-0.477-0.281-1.090-0.121-1.369 0.355s-0.121 1.089 0.355 1.369c4.039 2.376 6.45 6.516 6.45 11.074 0 7.574-5.498 13.072-13.072 13.072-1.694 0-3.337-0.317-4.885-0.942-0.511-0.208-1.096 0.040-1.302 0.552s0.040 1.096 0.552 1.302c1.788 0.723 3.684 1.089 5.635 1.089 0.006 0 0.012-0 0.018-0v1.969h-2.904c-0.577 0-1.045 0.447-1.045 0.998s0.468 0.998 1.045 0.998h7.902c0.577 0 1.045-0.447 1.045-0.998s-0.468-0.998-1.045-0.998h-3.012v-2.087c7.681-0.892 13.069-6.903 13.069-14.952zM24.98 13.040c0-6.083-4.93-11.044-11.012-11.044-6.084 0-11.015 4.961-11.015 11.044s4.931 10.982 11.015 10.982c6.083 0 11.012-4.899 11.012-10.982zM4.953 13.040c0-4.97 4.044-9.044 9.014-9.044s9.012 4.074 9.012 9.044-4.043 8.982-9.012 8.982c-4.971 0-9.014-4.012-9.014-8.982z"></path>
</svg>
