
<svg version="1.1" xmlns="http://www.w3.org/2000/svg" width="32" height="32" viewBox="0 0 32 32">
<title>graduation</title>
<path d="M30.964 21.759v-8.067l0.503-0.265c0.327-0.17 0.533-0.507 0.537-0.876s-0.195-0.709-0.518-0.886l-15.045-8.050c-0.301-0.165-0.665-0.164-0.968 0.003l-14.963 8.060c-0.319 0.178-0.515 0.514-0.513 0.88s0.203 0.7 0.525 0.874l6.574 3.499c-0.082 0.145-0.133 0.311-0.133 0.49v8.462c0 0.285 0.122 0.558 0.335 0.747 0.217 0.192 2.295 1.878 8.648 1.878 6.331 0 8.465-1.593 8.688-1.774 0.233-0.189 0.367-0.474 0.367-0.774v-8.679c0-0.14-0.029-0.274-0.081-0.395l4.044-2.136v7.016c-0.593 0.347-0.995 0.983-0.995 1.719 0 1.105 0.895 2 2 2s2-0.895 2-2c0-0.741-0.407-1.38-1.005-1.725zM23.001 25.387c-0.786 0.378-2.866 1.122-7.055 1.122-4.215 0-6.248-0.792-6.983-1.173v-7.41l6.494 3.457c0.148 0.080 0.312 0.12 0.475 0.12 0.159 0 0.318-0.038 0.463-0.114l6.607-3.489v7.488zM15.939 19.369l-12.863-6.83 12.885-6.905 12.925 6.886z"></path>
</svg>
