
<svg version="1.1" xmlns="http://www.w3.org/2000/svg" width="32" height="32" viewBox="0 0 32 32">
<title>handbag</title>
<path d="M31.961 29.457l-2.606-15.743c-0.233-2.041-2.093-3.701-4.148-3.701h-2.208v-2.665c0-4.067-2.901-7.376-6.968-7.376-4.066 0-7.029 3.308-7.029 7.376v2.665h-2.396c-2.054 0-3.915 1.66-4.141 3.658l-2.415 15.755c-0.093 0.83 0.070 1.485 0.482 1.947 0.389 0.434 0.954 0.656 1.679 0.656h27.299c1.029 0 1.618-0.413 1.933-0.76 0.288-0.319 0.614-0.88 0.519-1.811zM11.002 7.348c0-2.964 2.066-5.376 5.029-5.376s4.968 2.412 4.968 5.376v2.665h-9.998zM29.599 30.014l-27.266 0.014c-0.172 0-0.344-0.092-0.304-0.334l2.414-15.753c0.12-1.045 1.109-1.928 2.161-1.928h2.397v2.279c-0.596 0.346-1.002 0.984-1.002 1.723 0 1.105 0.896 2 2 2s2-0.895 2-2c0-0.738-0.404-1.375-0.998-1.722v-2.281h9.997v2.281c-0.594 0.347-0.998 0.984-0.998 1.722 0 1.105 0.895 2 2 2s2-0.895 2-2c0-0.739-0.405-1.377-1.002-1.723v-2.279h2.208c1.052 0 2.041 0.883 2.169 1.982l2.604 15.727c0.012 0.128-0.088 0.291-0.381 0.291z"></path>
</svg>
