<svg xmlns="http://www.w3.org/2000/svg" xmlns:xlink="http://www.w3.org/1999/xlink" preserveAspectRatio="xMidYMid" width="32" height="32" viewBox="0 0 32 32">
  <path d="M16.000,32.000 C7.178,32.000 -0.000,24.822 -0.000,16.000 C-0.000,7.178 7.178,-0.000 16.000,-0.000 C24.822,-0.000 32.000,7.178 32.000,16.000 C32.000,24.822 24.822,32.000 16.000,32.000 ZM29.410,20.000 L22.917,20.000 C22.216,21.209 21.209,22.216 20.000,22.917 L20.000,29.410 C24.507,28.064 28.064,24.507 29.410,20.000 ZM16.000,10.000 C12.691,10.000 10.000,12.691 10.000,16.000 C10.000,19.309 12.691,22.000 16.000,22.000 C19.309,22.000 22.000,19.309 22.000,16.000 C22.000,12.691 19.309,10.000 16.000,10.000 ZM16.000,30.000 C16.681,30.000 17.345,29.935 18.000,29.840 L18.000,23.737 C17.359,23.902 16.692,24.000 16.000,24.000 C15.308,24.000 14.641,23.902 14.000,23.737 L14.000,29.840 C14.655,29.935 15.319,30.000 16.000,30.000 ZM12.000,29.410 L12.000,22.917 C10.791,22.216 9.784,21.209 9.083,20.000 L2.590,20.000 C3.936,24.507 7.493,28.064 12.000,29.410 ZM2.000,16.000 C2.000,16.681 2.065,17.345 2.160,18.000 L8.263,18.000 C8.097,17.359 8.000,16.692 8.000,16.000 C8.000,15.308 8.097,14.641 8.263,14.000 L2.160,14.000 C2.065,14.655 2.000,15.319 2.000,16.000 ZM2.590,12.000 L9.083,12.000 C9.784,10.791 10.791,9.784 12.000,9.082 L12.000,2.590 C7.493,3.936 3.936,7.493 2.590,12.000 ZM16.000,2.000 C15.319,2.000 14.655,2.065 14.000,2.160 L14.000,8.263 C14.641,8.097 15.308,8.000 16.000,8.000 C16.692,8.000 17.359,8.097 18.000,8.263 L18.000,2.160 C17.345,2.065 16.681,2.000 16.000,2.000 ZM20.000,2.590 L20.000,9.082 C21.209,9.784 22.216,10.791 22.918,12.000 L29.410,12.000 C28.064,7.493 24.507,3.936 20.000,2.590 ZM23.737,14.000 C23.903,14.641 24.000,15.308 24.000,16.000 C24.000,16.692 23.903,17.359 23.737,18.000 L29.840,18.000 C29.935,17.345 30.000,16.681 30.000,16.000 C30.000,15.319 29.935,14.655 29.840,14.000 L23.737,14.000 Z" class="cls-1"/>
</svg>
