
<svg version="1.1" xmlns="http://www.w3.org/2000/svg" width="32" height="32" viewBox="0 0 32 32">
<title>hourglass</title>
<path d="M26.033 2.019h-2.015v6.731c0 3.262-1.77 5.73-5.566 7.662 3.939 1.994 5.597 4.442 5.597 8.096 0 2.379-0.011 4.375-0.018 5.473h2.002c0.552 0 1 0.447 1 0.999s-0.448 1-1 1h-20.067c-0.553 0-1-0.448-1-1s0.447-0.999 1-0.999h2.060c-0.008-1.098-0.018-3.094-0.018-5.473 0-3.654 1.634-6.101 5.567-8.095-3.788-1.933-5.536-4.4-5.536-7.662v-6.732h-2.074c-0.553 0-1-0.447-1-1s0.447-1 1-1h20.067c0.552 0 1 0.448 1 1s-0.447 1-1 1zM10.008 24.509c0 2.384 0.011 4.382 0.019 5.473h12.005c0.007-1.091 0.018-3.089 0.018-5.473 0-2.782-1.035-4.939-6.037-7.012-5 2.074-6.005 4.231-6.005 7.012zM22.019 2.019h-11.98v6.731c0 1.918 0.645 4.388 5.974 6.579 5.33-2.191 6.006-4.661 6.006-6.579v-6.731z"></path>
</svg>
