<svg   xmlns="http://www.w3.org/2000/svg" viewBox="0 0 32 32"><title>ie_32</title><path d="M21.07,2.58C24,1.76,26.56,2,28,3.46a4.63,4.63,0,0,1,1.27,2.65,1,1,0,0,0,1.15.83,1,1,0,0,0,.83-1.14A6.72,6.72,0,0,0,29.46,2C26.79-.63,22-.46,16.93,2A15,15,0,0,0,2,16.93C-.46,22-.63,26.79,2,29.46A7.17,7.17,0,0,0,7.11,31.4h0a1,1,0,0,0,0-2A5.15,5.15,0,0,1,3.46,28c-1.49-1.48-1.7-4-.88-7A15,15,0,0,0,31,22.36a1,1,0,0,0-.11-.93,1,1,0,0,0-.83-.43h-7.6a1,1,0,0,0-.82.43A5.71,5.71,0,0,1,17,24a6.2,6.2,0,0,1-5.74-5H31a1,1,0,0,0,1-.93V18c0-.32,0-.63,0-.95A15,15,0,0,0,21.07,2.58ZM12.16,4.94a35.63,35.63,0,0,0-7.22,7.22A13.09,13.09,0,0,1,12.16,4.94ZM10.06,17a1,1,0,0,0-.74.33,1,1,0,0,0-.25.78C9.56,22.61,13,26,17,26a7.6,7.6,0,0,0,6-3h5.56A13,13,0,0,1,4,17.42,32.14,32.14,0,0,1,17.42,4,13,13,0,0,1,30,17Z"/><path d="M17,8a8,8,0,0,0-7.43,5.67,1,1,0,0,0,.13.91,1,1,0,0,0,.81.42h13a1,1,0,0,0,.94-1.33A8,8,0,0,0,17,8Zm-4.92,5A5.79,5.79,0,0,1,17,10a5.79,5.79,0,0,1,4.92,3Z"/></svg>
