
<svg version="1.1" xmlns="http://www.w3.org/2000/svg" width="32" height="32" viewBox="0 0 32 32">
<title>info</title>
<path d="M18 23l-1-0v-8.938c0-0.011-0.003-0.021-0.003-0.031s0.003-0.020 0.003-0.031c0-0.552-0.448-1-1-1h-2c-0.552 0-1 0.448-1 1s0.448 1 1 1h1v8h-1c-0.552 0-1 0.448-1 1s0.448 1 1 1h4c0.552 0 1-0.448 1-1s-0.448-1-1-1zM16 11c1.105 0 2-0.896 2-2s-0.895-2-2-2-2 0.896-2 2 0.896 2 2 2zM16-0c-8.836 0-16 7.163-16 16s7.163 16 16 16c8.837 0 16-7.163 16-16s-7.163-16-16-16zM16 30.031c-7.72 0-14-6.312-14-14.032s6.28-14 14-14 14 6.28 14 14-6.28 14.032-14 14.032z"></path>
</svg>
