
<svg version="1.1" xmlns="http://www.w3.org/2000/svg" width="32" height="32" viewBox="0 0 32 32">
<title>key</title>
<path d="M20.491 0c-4.971 0-9 4.036-9 9.015 0 2.232 0.813 4.27 2.155 5.844-0.276-0.017-0.557 0.076-0.768 0.287l-10.075 10.137c-0.39 0.39-0.39 1.024 0 1.414 0.007 0.008 0.016 0.012 0.024 0.020 0.002 0.003 0.004 0.006 0.006 0.008l4.904 4.997c0.39 0.39 1.024 0.39 1.414 0s0.39-1.024 0-1.414l-4.234-4.314 2.578-2.594 4.242 4.322c0.39 0.39 1.024 0.39 1.414 0s0.39-1.024 0-1.414l-4.245-4.326 5.387-5.421c0.209-0.209 0.302-0.485 0.288-0.758 1.582 1.384 3.646 2.229 5.912 2.229 4.971 0 9-4.036 9-9.015s-4.029-9.015-9-9.015zM20.49 16c-3.852 0-7-3.133-7-7s3.148-7 7-7 7 3.133 7 7c0 3.867-3.148 7-7 7z"></path>
</svg>
