
<svg version="1.1" xmlns="http://www.w3.org/2000/svg" width="32" height="32" viewBox="0 0 32 32">
<title>layers</title>
<path d="M0.682 9.431l14.847 8.085c0.149 0.081 0.313 0.122 0.479 0.122 0.163 0 0.326-0.040 0.474-0.12l15.003-8.085c0.327-0.176 0.53-0.52 0.525-0.892s-0.216-0.711-0.547-0.88l-14.848-7.54c-0.283-0.143-0.617-0.144-0.902-0.002l-15.002 7.54c-0.332 0.167-0.545 0.505-0.551 0.877s0.196 0.717 0.521 0.895zM16.161 2.134l12.692 6.446-12.843 6.921-12.693-6.912zM31.292 15.010l-2.968-1.507-2.142 1.155 2.5 1.27-12.842 6.921-12.694-6.912 2.666-1.34-2.136-1.164-3.135 1.575c-0.332 0.167-0.545 0.505-0.551 0.877s0.196 0.717 0.521 0.895l14.847 8.085c0.149 0.081 0.313 0.122 0.479 0.122 0.163 0 0.326-0.040 0.474-0.12l15.003-8.085c0.327-0.176 0.53-0.52 0.525-0.892s-0.215-0.711-0.546-0.88zM31.292 22.010l-2.811-1.382-2.142 1.155 2.344 1.145-12.843 6.921-12.694-6.912 2.478-1.121-2.136-1.164-2.947 1.357c-0.332 0.167-0.545 0.505-0.551 0.877s0.196 0.717 0.521 0.895l14.847 8.085c0.149 0.081 0.313 0.122 0.479 0.122 0.163 0 0.326-0.040 0.475-0.12l15.003-8.085c0.327-0.176 0.53-0.52 0.525-0.892-0.005-0.373-0.215-0.712-0.546-0.88z"></path>
</svg>
