<svg   xmlns="http://www.w3.org/2000/svg" viewBox="0 0 32 32"><title>linux_32</title><path d="M30.34,24.73a.77.77,0,0,1-.19-.79A2.75,2.75,0,0,0,27,20.38a16,16,0,0,0-3.48-8.62c-1.12-1.61-1.8-2.63-1.53-3.44A6.55,6.55,0,0,0,21,2.53,6,6,0,0,0,16,0a6,6,0,0,0-5,2.53,6.55,6.55,0,0,0-.94,5.79c.27.81-.4,1.83-1.53,3.44A16,16,0,0,0,5,20.38a2.75,2.75,0,0,0-3.19,3.56.77.77,0,0,1-.19.79l-.35.35a2.75,2.75,0,0,0-.76,2.45,2.79,2.79,0,0,0,1.57,2l4.63,2.1a4.79,4.79,0,0,0,2,.43A5,5,0,0,0,9.66,32a4.82,4.82,0,0,0,1.71-.72A14.11,14.11,0,0,0,16,32a14.06,14.06,0,0,0,4.63-.72,4.82,4.82,0,0,0,1.71.72,5,5,0,0,0,.94.09,4.79,4.79,0,0,0,2-.43l4.63-2.1a2.82,2.82,0,0,0,1.58-2,2.78,2.78,0,0,0-.77-2.45ZM12.61,3.7A4.06,4.06,0,0,1,16,2a4,4,0,0,1,3.39,1.7,4.53,4.53,0,0,1,.66,4,3.4,3.4,0,0,0-.15.92,1.23,1.23,0,0,0-.19-.31A5.32,5.32,0,0,0,16,7a5.35,5.35,0,0,0-3.71,1.29,1.23,1.23,0,0,0-.19.31A3.4,3.4,0,0,0,12,7.68,4.56,4.56,0,0,1,12.61,3.7ZM17,9.11,16,9.8l-1-.68A5.24,5.24,0,0,1,17,9.11ZM9.27,30a2.73,2.73,0,0,1-1.69-.19L3,27.74a.77.77,0,0,1-.22-1.25l.35-.35a2.77,2.77,0,0,0,.67-2.83.75.75,0,0,1,.18-.79.78.78,0,0,1,.54-.23.81.81,0,0,1,.25,0,2.78,2.78,0,0,0,1.28.1h.06l.31-.07.07,0a2.63,2.63,0,0,0,1.11-.66l.35-.35a.77.77,0,0,1,.69-.21.78.78,0,0,1,.56.44l2.1,4.62a2.84,2.84,0,0,1,.2,1.7A2.77,2.77,0,0,1,9.27,30Zm3.62-.38a4.81,4.81,0,0,0,.52-1.4,4.69,4.69,0,0,0-.34-2.91L11,20.71a2.74,2.74,0,0,0-3.84-1.27,15.07,15.07,0,0,1,3-6.53,9.8,9.8,0,0,0,1.9-3.65.92.92,0,0,0,.39.57l3,2A1,1,0,0,0,16,12a1,1,0,0,0,.56-.17l3-2a.94.94,0,0,0,.38-.57,9.8,9.8,0,0,0,1.9,3.65,15.07,15.07,0,0,1,3,6.53,2.76,2.76,0,0,0-1.81-.31,2.81,2.81,0,0,0-2,1.58l-2.1,4.63a4.74,4.74,0,0,0,.18,4.31,14,14,0,0,1-6.22,0Zm16.16-1.91-4.63,2.1a2.72,2.72,0,0,1-1.69.19,2.77,2.77,0,0,1-2.18-2.17,2.84,2.84,0,0,1,.2-1.7l2.1-4.62a.78.78,0,0,1,.56-.44h.15a.79.79,0,0,1,.54.22l.35.35a2.69,2.69,0,0,0,1.11.66l.07,0,.31.07h0a2.58,2.58,0,0,0,1.29-.09.78.78,0,0,1,1,1,2.75,2.75,0,0,0,.66,2.83l.35.35a.75.75,0,0,1,.22.68A.78.78,0,0,1,29.05,27.74Z"/></svg>
