<svg   xmlns="http://www.w3.org/2000/svg" viewBox="0 0 32 32"><title>lira_32</title><path d="M4.5,18.63A1,1,0,0,0,4.13,20l2,3.46A1,1,0,0,0,7,24a1,1,0,0,0,.5-.13l4.38-2.53V31a1,1,0,0,0,1,1H17A13,13,0,0,0,30,19V15a1,1,0,0,0-1-1H25a1,1,0,0,0-1,1v4a7,7,0,0,1-6.12,7V17.84L24,14.33a1,1,0,0,0,.46-.61,1,1,0,0,0-.1-.76l-2-3.46A1,1,0,0,0,21.71,9a1,1,0,0,0-.75.1l-3.08,1.78V9.84L24,6.33a1,1,0,0,0,.46-.61,1,1,0,0,0-.1-.76l-2-3.46A1,1,0,0,0,21,1.13L17.88,2.91V1a1,1,0,0,0-1-1h-4a1,1,0,0,0-1,1V6.38L4.5,10.63A1,1,0,0,0,4.13,12l2,3.46A1,1,0,0,0,7,16a1,1,0,0,0,.5-.13l4.38-2.53v1.08ZM13.88,2h2V4.07l-2,1.15ZM7.37,13.6l-1-1.73,14.72-8.5,1,1.73L16.38,8.4h0l-.48.27Zm7.55-2,1-.55v1l-2,1.21V12.15Zm1,7.45v8a.93.93,0,0,0,.91,1L17,28a9,9,0,0,0,9-9V16h2v3A11,11,0,0,1,17,30H13.88V20.15l1-.6Zm5.21-7.63.65,1.13.35.6-5.71,3.3h0l-4,2.31h0l-5,2.89-1-1.73Z"/></svg>
