
<svg version="1.1" xmlns="http://www.w3.org/2000/svg" width="32" height="32" viewBox="0 0 32 32">
<title>list</title>
<path d="M3 14h-2c-0.552 0-1 0.448-1 1v2c0 0.552 0.448 1 1 1h2c0.552 0 1-0.448 1-1v-2c0-0.552-0.448-1-1-1zM31 15h-21c-0.552 0-1 0.448-1 1s0.448 1 1 1h21c0.552 0 1-0.448 1-1s-0.448-1-1-1zM3 22h-2c-0.552 0-1 0.448-1 1v2c0 0.552 0.448 1 1 1h2c0.552 0 1-0.448 1-1v-2c0-0.552-0.448-1-1-1zM31 23h-21c-0.552 0-1 0.448-1 1s0.448 1 1 1h21c0.552 0 1-0.448 1-1s-0.448-1-1-1zM3 6h-2c-0.552 0-1 0.448-1 1v2c0 0.552 0.448 1 1 1h2c0.552 0 1-0.448 1-1v-2c0-0.552-0.448-1-1-1zM10 9h21c0.552 0 1-0.448 1-1s-0.448-1-1-1h-21c-0.552 0-1 0.448-1 1s0.448 1 1 1z"></path>
</svg>
