
<svg version="1.1" xmlns="http://www.w3.org/2000/svg" width="32" height="32" viewBox="0 0 32 32">
<title>loop</title>
<path d="M30 3.183l-28 0c-1.105 0-2 0.895-2 2v18c0 1.105 0.895 2 2 2h5c0.641 0 1-0.823 1-1v-0c0-0.182-0.34-1.013-1-1.013h-3.78c-0.668 0-1.21-0.542-1.21-1.21v-15.522c0-0.668 0.542-1.21 1.21-1.21l25.571-0.032c0.668 0 1.21 0.542 1.21 1.21v15.553c0 0.668-0.542 1.21-1.21 1.21h-12.599l2.375-2.154c0.292-0.279 0.387-0.732 0.095-1.011l-0.171-0.252c-0.293-0.279-0.765-0.279-1.058 0l-4.054 3.701c-0.006 0.005-0.011 0.007-0.017 0.012l-0.265 0.253c-0.146 0.139-0.219 0.323-0.218 0.507-0.001 0.184 0.072 0.368 0.218 0.509l0.265 0.253c0.005 0.005 0.011 0.006 0.017 0.011l3.992 3.61c0.292 0.279 0.765 0.279 1.058 0l0.171-0.252c0.292-0.279 0.197-0.733-0.095-1.012l-2.41-2.162h13.906c1.105 0 2-0.895 2-2v-18c0-1.104-0.895-2-2-2z"></path>
</svg>
