<svg   xmlns="http://www.w3.org/2000/svg" viewBox="0 0 32 32"><title>mac_32</title><path d="M17,7.81a6.25,6.25,0,0,0,1.28.13,5.64,5.64,0,0,0,4-1.64A5.81,5.81,0,0,0,23.81,1,1,1,0,0,0,23,.19,5.81,5.81,0,0,0,17.7,1.7,5.81,5.81,0,0,0,16.19,7,1,1,0,0,0,17,7.81Zm2.14-4.69a3.66,3.66,0,0,1,2.81-1.05,3.66,3.66,0,0,1-1.05,2.81,3.61,3.61,0,0,1-2.81,1A3.68,3.68,0,0,1,19.12,3.12Z"/><path d="M28.16,23.28a6,6,0,0,1-.63-10.17,1,1,0,0,0,.41-.68,1,1,0,0,0-.21-.77A11.19,11.19,0,0,0,23.29,8.4a5.59,5.59,0,0,0-4.16,0l-1.79.72a3.62,3.62,0,0,1-2.67,0l-1.8-.72a5.59,5.59,0,0,0-4.16,0A11.08,11.08,0,0,0,2.34,22.12l.35.84a26.81,26.81,0,0,0,3.75,6.5,6.06,6.06,0,0,0,7.75,2.05,4,4,0,0,1,3.62,0,6.06,6.06,0,0,0,7.71-2,27.93,27.93,0,0,0,3.06-4.92A1,1,0,0,0,28.16,23.28ZM23.9,28.35a4.05,4.05,0,0,1-5.19,1.37,6.14,6.14,0,0,0-5.42,0,4.08,4.08,0,0,1-5.23-1.43,25.63,25.63,0,0,1-3.52-6.08l-.32-.78A9.06,9.06,0,0,1,9.46,10.26a3.5,3.5,0,0,1,2.66,0l1.8.72a5.64,5.64,0,0,0,4.16,0l1.8-.72a3.53,3.53,0,0,1,2.67,0,9.18,9.18,0,0,1,3,1.93,8,8,0,0,0,.87,12.34A27.67,27.67,0,0,1,23.9,28.35Z"/></svg>
