<svg   xmlns="http://www.w3.org/2000/svg" viewBox="0 0 32 32"><title>macos_32</title><path d="M31,0H1A1,1,0,0,0,0,1V31a1,1,0,0,0,1,1H31a1,1,0,0,0,1-1V1A1,1,0,0,0,31,0ZM2,2H14.36C11.89,7.34,11,15.52,11,15.9a1,1,0,0,0,.25.77A1,1,0,0,0,12,17h4.89a29.9,29.9,0,0,0,.25,7c-.37,0-.75.05-1.14.05A14.07,14.07,0,0,1,5.78,19.38a1,1,0,0,0-1.4-.16,1,1,0,0,0-.16,1.41A15.87,15.87,0,0,0,16,26c.53,0,1.05,0,1.55-.08A18.35,18.35,0,0,0,19.07,30H2ZM30,30H21.39a15.57,15.57,0,0,1-1.86-4.42,15.91,15.91,0,0,0,8.25-4.95,1,1,0,1,0-1.56-1.25,14.13,14.13,0,0,1-7.09,4.24A27.91,27.91,0,0,1,19,16.15,1,1,0,0,0,18,15H13.13c.34-2.59,1.36-9.12,3.46-13H30Z"/><path d="M8,13a1,1,0,0,0,1-1V9A1,1,0,0,0,7,9v3A1,1,0,0,0,8,13Z"/><path d="M24,13a1,1,0,0,0,1-1V9a1,1,0,0,0-2,0v3A1,1,0,0,0,24,13Z"/></svg>
