
<svg version="1.1" xmlns="http://www.w3.org/2000/svg" width="32" height="32" viewBox="0 0 32 32">
<title>magic-wand</title>
<path d="M31.891 13.418l-3.212-4.802 1.599-5.588c0.099-0.35 0.002-0.728-0.257-0.985-0.258-0.258-0.633-0.353-0.986-0.251l-5.578 1.629-4.822-3.247c-0.303-0.204-0.692-0.229-1.014-0.061-0.324 0.166-0.532 0.496-0.544 0.859l-0.173 5.811-4.578 3.581c-0.287 0.225-0.428 0.588-0.371 0.947s0.306 0.659 0.65 0.782l4.296 1.54c-0.029 0.023-0.059 0.044-0.087 0.071l-16.586 16.586c-0.391 0.39-0.391 1.023 0 1.414 0.196 0.195 0.451 0.293 0.707 0.293s0.511-0.098 0.707-0.293l16.586-16.586c0.064-0.065 0.114-0.137 0.157-0.213l1.681 4.611c0.125 0.342 0.426 0.589 0.786 0.645 0.051 0.008 0.102 0.012 0.154 0.012 0.306 0 0.599-0.142 0.791-0.389l3.555-4.599 5.747-0.205c0.364-0.012 0.692-0.223 0.858-0.548s0.139-0.714-0.066-1.015zM24.814 13.205c-0.297 0.010-0.574 0.153-0.756 0.388l-2.733 3.535-1.53-4.197c-0.102-0.28-0.323-0.498-0.602-0.598l-4.206-1.508 3.52-2.752c0.235-0.184 0.374-0.461 0.384-0.758l0.133-4.467 3.706 2.496c0.247 0.166 0.555 0.213 0.839 0.131l4.289-1.253-1.23 4.296c-0.081 0.286-0.032 0.593 0.136 0.839l2.517 3.691z"></path>
</svg>
