
<svg version="1.1" xmlns="http://www.w3.org/2000/svg" width="32" height="32" viewBox="0 0 32 32">
<title>magnifier-remove</title>
<path d="M31.707 30.282l-8.845-8.899c1.894-2.262 3.034-5.18 3.034-8.366 0-7.189-5.797-13.018-12.986-13.018s-13.017 5.828-13.017 13.017 5.828 13.017 13.017 13.017c3.282 0 6.271-1.218 8.553-3.221l8.829 8.884c0.39 0.39 1.024 0.39 1.414 0s0.391-1.024 0-1.415zM12.893 24c-6.048 0-11-4.951-11-11s4.952-11 11-11c6.048 0 11 4.952 11 11s-4.951 11-11 11zM17.893 12h-10c-0.552 0-1 0.448-1 1s0.448 1 1 1h10c0.552 0 1-0.448 1-1s-0.448-1-1-1z"></path>
</svg>
