
<svg version="1.1" xmlns="http://www.w3.org/2000/svg" width="32" height="32" viewBox="0 0 32 32">
<title>magnet</title>
<path d="M30.009 1.881v-0.906c0-0.552-0.448-1-1-1h-7.020c-0.552 0-1 0.448-1 1v4.083c0 0.002 0.001 0.003 0.001 0.005v12.423c0 3.010-1.698 5.458-4.708 5.458s-5.271-2.448-5.271-5.458v-15.604h-0.003v-0.906c0-0.552-0.447-1-1-1h-7.019c-0.553 0-1 0.448-1 1v4.083c0 0.021 0.010 0.037 0.011 0.058v12.828c0 7.779 6.212 14.083 13.989 14.083s14.020-6.305 14.020-14.083v-16.062zM28.009 1.974v4.011h-5.008v-4.011h5.008zM9.009 1.974v4.011h-5.008v-4.011h5.008zM15.99 30.026c-6.663 0-11.989-5.421-11.989-12.083v-9.959h5.011v9.5c0 4.119 3.152 7.458 7.27 7.458s6.709-3.339 6.709-7.458v-9.499h5.020v9.959c0 6.662-5.357 12.083-12.021 12.083z"></path>
</svg>
