
<svg version="1.1" xmlns="http://www.w3.org/2000/svg" width="32" height="32" viewBox="0 0 32 32">
<title>map</title>
<path d="M31.037 4.219l-10.030-4.158-9.982 3.951-10.062-3.949c-0.086-0.025-0.17-0.035-0.249-0.035-0.41-0.002-0.714 0.304-0.714 0.765v25.938c0 0.549 0.433 1.121 0.963 1.268l10.073 3.974 9.969-4.047 10.032 3.942c0.086 0.023 0.17 0.035 0.249 0.035 0.41 0 0.714-0.305 0.714-0.765v-25.648c0-0.549-0.433-1.122-0.963-1.27zM12 5.661l8-3.135v23.797l-8 3.162v-23.825zM2 2.709l8 2.956v23.805l-8-3.259v-23.502zM30 29.313l-8-3.012v-23.744l8 3.45v23.307z"></path>
</svg>
