
<svg version="1.1" xmlns="http://www.w3.org/2000/svg" width="32" height="32" viewBox="0 0 32 32">
<title>menu</title>
<path d="M0.844 6.050c-0.256-0.256-0.381-0.581-0.381-0.975s0.125-0.719 0.381-0.975 0.581-0.381 0.975-0.381h28.512c0.394 0 0.719 0.125 0.975 0.381s0.381 0.581 0.381 0.975-0.125 0.719-0.381 0.975-0.581 0.381-0.975 0.381h-28.512c-0.394 0-0.719-0.125-0.975-0.381zM31.306 14.963c0.256 0.256 0.381 0.581 0.381 0.975s-0.125 0.719-0.381 0.975-0.581 0.381-0.975 0.381h-28.512c-0.394 0-0.719-0.125-0.975-0.381s-0.381-0.581-0.381-0.975 0.125-0.719 0.381-0.975 0.581-0.381 0.975-0.381h28.512c0.394 0 0.719 0.125 0.975 0.381zM31.306 25.819c0.256 0.256 0.381 0.581 0.381 0.975s-0.125 0.719-0.381 0.975-0.581 0.381-0.975 0.381h-28.512c-0.394 0-0.719-0.125-0.975-0.381s-0.381-0.581-0.381-0.975 0.125-0.719 0.381-0.975 0.581-0.381 0.975-0.381h28.512c0.394 0 0.719 0.131 0.975 0.381z"></path>
</svg>
