
<svg version="1.1" xmlns="http://www.w3.org/2000/svg" width="32" height="32" viewBox="0 0 32 32">
<title>microphone</title>
<path d="M15.965 22h0.238c2.78 0 4.797-2.050 4.797-4.874v-11.919c0-2.92-2.108-5.207-4.798-5.207h-0.237c-2.738 0-4.965 2.336-4.965 5.207v11.919c0 2.779 2.135 4.874 4.965 4.874zM13 5.207c0-1.768 1.33-3.207 2.965-3.207h0.238c1.595 0 2.797 1.379 2.797 3.207v11.919c0 1.718-1.124 2.874-2.798 2.874h-0.237c-1.746 0-2.965-1.181-2.965-2.874zM25 11c-0.552 0-1 0.448-1 1v4.159c0 5.95-2.124 8.842-6.492 8.842h-2.973c-5.713 0-6.535-4.808-6.535-8.841v-4.159c0-0.552-0.448-1-1-1s-1 0.448-1 1v4.159c0 6.89 2.872 10.841 8.535 10.841h0.465v3h-5c-0.552 0-1 0.448-1 1s0.448 1 1 1h12c0.552 0 1-0.448 1-1s-0.448-1-1-1h-5v-3h0.508c3.874 0 8.492-1.881 8.492-10.842v-4.159c0-0.552-0.448-1-1-1z"></path>
</svg>
