<svg   xmlns="http://www.w3.org/2000/svg" viewBox="0 0 32 32"><title>system-part_32</title><path d="M31.89,8.75a.85.85,0,0,0-.17-.25l0,0a1.28,1.28,0,0,0-.22-.17L16.48.12a1,1,0,0,0-1,0L.57,8.28s0,.05-.08.06a1.3,1.3,0,0,0-.23.18,1.25,1.25,0,0,0-.08.12,1,1,0,0,0-.12.23s0,0,0,.06a.92.92,0,0,0,0,.16s0,.06,0,.09V22.81A.86.86,0,0,0,0,23l0,.14a1,1,0,0,0,.48.59l15,8.18.06,0,.08,0A1,1,0,0,0,16,32a1.09,1.09,0,0,0,.35-.07l.07,0,.06,0,15-8.18a1,1,0,0,0,.52-.88V9.18a1,1,0,0,0-.07-.34A.36.36,0,0,0,31.89,8.75ZM15,29.32,2,22.22V10.87L15,18Zm1-13.1-12.91-7L16,2.14l12.91,7Zm14,6-13,7.1V18l13-7.09Z"/></svg>
