<svg   xmlns="http://www.w3.org/2000/svg" viewBox="0 0 32 32"><title>full-module_32</title><path d="M.63,25.93l7.48,3h0a1,1,0,0,0,.74,0h0L16,26.08l7.11,2.84h0a1,1,0,0,0,.74,0h0l7.48-3A1,1,0,0,0,32,25V17.5a1,1,0,0,0-.07-.35.93.93,0,0,0-.05-.1.86.86,0,0,0-.13-.2l-.08-.08a.78.78,0,0,0-.24-.16s0,0-.05,0h0L24.5,13.82V7a1,1,0,0,0-.07-.35.47.47,0,0,0-.05-.1.86.86,0,0,0-.13-.2l-.08-.08a.78.78,0,0,0-.24-.16s0,0-.05,0h0l-7.5-3a1,1,0,0,0-.74,0l-7.5,3h0s0,0,0,0a.78.78,0,0,0-.24.16.27.27,0,0,0-.07.08.9.9,0,0,0-.14.2.93.93,0,0,0,0,.1A1,1,0,0,0,7.5,7v6.82L.63,16.57h0s0,0-.05,0a.78.78,0,0,0-.24.16.6.6,0,0,0-.08.08.86.86,0,0,0-.13.2l0,.1A1,1,0,0,0,0,17.5V25A1,1,0,0,0,.63,25.93ZM15,24.32l-5.5,2.2V21.18L15,19Zm7.5,2.2L17,24.32V19l5.5,2.2Zm7.5-2.2-5.5,2.2V21.18L30,19ZM28.31,17.5,23.5,19.42,18.69,17.5l4.81-1.92ZM22.5,13.82,17,16V10.68l5.5-2.2ZM16,5.08,20.81,7,16,8.92,11.19,7ZM9.5,8.48l5.5,2.2V16l-5.5-2.2Zm-1,7.1,4.81,1.92L8.5,19.42,3.69,17.5ZM2,19l5.5,2.2v5.34L2,24.32Z"/></svg>
