<svg xmlns="http://www.w3.org/2000/svg" xmlns:xlink="http://www.w3.org/1999/xlink" preserveAspectRatio="xMidYMid" width="32" height="14" viewBox="0 0 32 14">
  <path d="M24.999,14.000 C21.150,14.000 19.528,12.048 18.343,10.623 C17.457,9.557 16.950,9.000 16.000,9.000 C15.050,9.000 14.543,9.557 13.657,10.623 C12.472,12.048 10.850,14.000 7.002,14.000 C1.522,14.000 0.028,8.883 0.003,6.177 C-0.000,5.862 0.145,5.565 0.396,5.373 C0.646,5.182 0.972,5.121 1.275,5.206 C1.865,5.373 2.427,5.457 2.945,5.457 C5.053,5.457 6.335,4.090 7.692,2.641 C8.909,1.343 10.167,-0.000 12.001,-0.000 C13.466,-0.000 15.222,0.616 16.000,0.920 C16.778,0.616 18.534,-0.000 19.999,-0.000 C21.832,-0.000 23.090,1.343 24.307,2.641 C25.664,4.089 26.946,5.457 29.054,5.457 C29.573,5.457 30.135,5.373 30.725,5.206 C31.029,5.122 31.354,5.183 31.604,5.373 C31.855,5.565 32.000,5.862 31.997,6.177 C31.972,8.883 30.478,14.000 24.999,14.000 ZM16.000,7.000 C17.932,7.000 18.968,8.245 19.881,9.345 C21.016,10.710 22.088,12.000 24.999,12.000 C28.498,12.000 29.548,9.130 29.863,7.411 C29.588,7.441 29.319,7.457 29.054,7.457 C26.080,7.457 24.288,5.545 22.848,4.008 C21.838,2.931 20.966,2.000 19.999,2.000 C18.769,2.000 16.984,2.661 16.400,2.916 C16.146,3.027 15.855,3.027 15.600,2.916 C15.016,2.661 13.231,2.000 12.001,2.000 C11.034,2.000 10.161,2.931 9.152,4.009 C7.712,5.545 5.920,7.457 2.945,7.457 C2.684,7.457 2.416,7.442 2.143,7.412 C2.465,9.131 3.523,12.000 7.002,12.000 C9.912,12.000 10.984,10.710 12.119,9.345 C13.032,8.245 14.068,7.000 16.000,7.000 Z" class="cls-1"/>
</svg>
