
<svg version="1.1" xmlns="http://www.w3.org/2000/svg" width="32" height="32" viewBox="0 0 32 32">
<title>mouse</title>
<path d="M16.049 0c-4.941 0-9.047 4.007-9.047 8.948v14.104c0 4.942 4.105 8.948 9.047 8.948s8.948-4.007 8.948-8.948v-14.104c0-4.941-4.007-8.948-8.948-8.948v-0zM22.998 23.052c0 3.831-3.117 6.948-6.948 6.948s-7.047-3.117-7.047-6.948v-14.104c0-3.831 3.216-6.948 7.047-6.948s6.948 3.117 6.948 6.948v14.104zM16.011 6c-0.552 0-1 0.448-1 1v5c0 0.552 0.448 1 1 1s1-0.448 1-1v-5c0-0.552-0.448-1-1-1z"></path>
</svg>
