
<svg version="1.1" xmlns="http://www.w3.org/2000/svg" width="32" height="32" viewBox="0 0 32 32">
<title>music-tone</title>
<path d="M26.644 10.103l-9.779-9.778c-0.31-0.31-0.771-0.37-1.144-0.188-0.392 0.136-0.675 0.503-0.675 0.942v22.137c-1.060-0.785-2.451-1.267-3.98-1.267-3.314 0-6.003 2.243-6.003 5.009s2.689 5.011 6.003 5.011c3.316 0 6.003-2.243 6.003-5.011 0-0.122-0.012-0.242-0.022-0.363v-23.261l8.184 8.183c0.39 0.39 1.024 0.39 1.414 0s0.39-1.024 0-1.414zM11.043 29.956c-2.364 0-4.011-1.579-4.011-2.996s1.647-2.994 4.011-2.994c2.313 0 3.938 1.512 4.004 2.906v0.177c-0.067 1.393-1.691 2.907-4.004 2.907v0z"></path>
</svg>
