
<svg version="1.1" xmlns="http://www.w3.org/2000/svg" width="32" height="32" viewBox="0 0 32 32">
<title>music-tone-alt</title>
<path d="M30.991 22.044c0-0.017 0.005-0.033 0.005-0.051v-20.845c0.012-0.109 0.008-0.223-0.018-0.336-0.085-0.466-0.492-0.82-0.982-0.82-0.184 0-0.355 0.053-0.503 0.14l-18.683 4.864c-0.337 0.083-0.586 0.335-0.688 0.646-0.078 0.142-0.125 0.302-0.125 0.475v17.892c-0.952-0.637-2.169-1.020-3.496-1.020-3.048 0-5.52 2.019-5.52 4.509s2.472 4.51 5.52 4.51c3.049 0 5.519-2.019 5.519-4.51 0-0.127-0.011-0.252-0.023-0.377v-20.367l17-4.425v16.68c-0.951-0.637-2.169-1.020-3.496-1.020-3.048 0-5.52 2.020-5.52 4.508 0 2.49 2.472 4.509 5.52 4.509s5.519-2.019 5.519-4.51c-0-0.154-0.010-0.305-0.028-0.453zM6.522 29.998c-2.080 0-3.53-1.318-3.53-2.5s1.45-2.498 3.53-2.498c1.851 0 3.2 1.044 3.475 2.106v0.012c0 0.101 0.020 0.197 0.048 0.288 0.002 0.031 0.007 0.061 0.007 0.093 0 1.181-1.45 2.5-3.529 2.5zM25.49 24.999c-2.061 0-3.499-1.318-3.499-2.5s1.437-2.498 3.498-2.498c2.061 0 3.498 1.317 3.498 2.498s-1.436 2.5-3.498 2.5z"></path>
</svg>
