<svg   xmlns="http://www.w3.org/2000/svg" viewBox="0 0 32 32"><title>new_doc_32 </title><path d="M30,6.5H16.33L12.6,3.7l-.1-.05-.19-.09-.2,0L12,3.5H2a2,2,0,0,0-2,2v21a2,2,0,0,0,2,2H13a1,1,0,0,0,0-2H2V5.5h9.67L15.4,8.3l.13.07.12.06A1,1,0,0,0,16,8.5H30V11a1,1,0,0,0,2,0V8.5A2,2,0,0,0,30,6.5Z"/><path d="M31.93,17.31l0-.09a1.07,1.07,0,0,0-.19-.28h0L26,11.2h0a1.07,1.07,0,0,0-.28-.19l-.09,0a1.31,1.31,0,0,0-.27-.06H17.65A1.65,1.65,0,0,0,16,12.56V30.35A1.65,1.65,0,0,0,17.65,32h12.7A1.65,1.65,0,0,0,32,30.35V17.64s0,0,0-.06A1.31,1.31,0,0,0,31.93,17.31Zm-5.66-3,2.32,2.32H26.27ZM18,30V12.91h6.27v4.73a1,1,0,0,0,1,1H30V30Z"/></svg>
