<svg   xmlns="http://www.w3.org/2000/svg" viewBox="0 0 32 32"><title>number_list_32 </title><path d="M10,17H31a1,1,0,1,0,0-2H10a1,1,0,0,0,0,2Z"/><path d="M10,10H31a1,1,0,1,0,0-2H10a1,1,0,0,0,0,2Z"/><path d="M32,23a1,1,0,0,0-1-1H10a1,1,0,1,0,0,2H31A1,1,0,0,0,32,23Z"/><path d="M1,9v2a1,1,0,0,0,2,0V7.33a1,1,0,0,0-.53-.88,1,1,0,0,0-1,0l-1,.67A1,1,0,0,0,1,9Z"/><path d="M1,16a.93.93,0,0,0,.52-.15A11.24,11.24,0,0,1,.29,17.29a1,1,0,0,0-.21,1.09A1,1,0,0,0,1,19H3a1,1,0,0,0,.16-2A3.92,3.92,0,0,0,4,15a1.84,1.84,0,0,0-2-1.75A1.84,1.84,0,0,0,0,15,1,1,0,0,0,1,16Z"/><path d="M0,24a1.84,1.84,0,0,0,2,1.75A1.84,1.84,0,0,0,4,24a2,2,0,0,0-.25-1A2,2,0,0,0,4,22a1.84,1.84,0,0,0-2-1.75A1.84,1.84,0,0,0,0,22a1,1,0,0,0,1,1A1,1,0,0,0,0,24Z"/></svg>
