<svg   xmlns="http://www.w3.org/2000/svg" viewBox="0 0 32 32"><title>orchid_32</title><path d="M8.08,24.88a1,1,0,0,1-.71-.29l-3.5-3.5a1,1,0,1,1,1.41-1.41l3.5,3.5a1,1,0,0,1,0,1.41A1,1,0,0,1,8.08,24.88Z"/><path d="M23.92,24.88a1,1,0,0,1-.7-.29,1,1,0,0,1,0-1.41l3.5-3.5a1,1,0,0,1,1.41,1.41l-3.5,3.5A1,1,0,0,1,23.92,24.88Z"/><path d="M16,24.72a1,1,0,0,1-.71-.3L5,14.18,1.71,17.51a1,1,0,0,1-1.42,0,1,1,0,0,1,0-1.41l4.05-4.05a1,1,0,0,1,1.41,0L16,22.3,26.25,12.05a1,1,0,0,1,1.41,0l4.05,4.05a1,1,0,0,1,0,1.41,1,1,0,0,1-1.42,0L27,14.18,16.71,24.42A1,1,0,0,1,16,24.72Z"/><path d="M12,13.16a1,1,0,0,1-.71-1.71l4-4A1,1,0,0,1,16,7.12h0a1,1,0,0,1,.71.29l4,4a1,1,0,0,1,0,1.42,1,1,0,0,1-1.41,0L16,9.53l-3.34,3.34A1,1,0,0,1,12,13.16Z"/></svg>
