<svg   xmlns="http://www.w3.org/2000/svg" viewBox="0 0 32 32"><title>paste_32 </title><path d="M20.93,12.67a.32.32,0,0,0,0-.09,1.07,1.07,0,0,0-.19-.28h0l-8-8h0a1.07,1.07,0,0,0-.28-.19l-.1,0A1.1,1.1,0,0,0,12.06,4H2A2,2,0,0,0,0,6V30a2,2,0,0,0,2,2H19a2,2,0,0,0,2-2V13s0,0,0-.06A1.31,1.31,0,0,0,20.93,12.67ZM13,7.41,17.59,12H13ZM2,30V6h9v7a1,1,0,0,0,1,1h7V30Z"/><path d="M31,4.38H25V3a3,3,0,0,0-3-3H12a1,1,0,0,0,0,2H22a1,1,0,0,1,1,1V4.38H18.38a1,1,0,0,0,0,2H30V9H29a1,1,0,0,0,0,2h1v3.25H29a1,1,0,0,0,0,2h1V20H29a1,1,0,0,0,0,2h1v4H24a1,1,0,0,0,0,2h7a1,1,0,0,0,1-1V5.38A1,1,0,0,0,31,4.38Z"/></svg>
