
<svg version="1.1" xmlns="http://www.w3.org/2000/svg" width="32" height="32" viewBox="0 0 32 32">
<title>phone</title>
<path d="M8.194 1.156c1.169 1.612 2.563 3.694 4.175 6.237 0.406 0.688 0.344 1.512-0.181 2.481-0.2 0.406-0.706 1.331-1.512 2.787 0.887 1.25 2.238 2.787 4.056 4.6s3.331 3.169 4.538 4.056c1.45-0.85 2.381-1.369 2.788-1.575 0.525-0.281 1.031-0.425 1.512-0.425 0.363 0 0.688 0.081 0.969 0.244 1.856 1.131 3.956 2.525 6.294 4.175 0.444 0.325 0.694 0.769 0.756 1.331 0.063 0.569-0.113 1.169-0.512 1.819-0.2 0.281-0.525 0.694-0.969 1.244-0.444 0.544-1.113 1.231-2 2.056s-1.613 1.244-2.181 1.244h-0.063c-4.269-0.169-9.531-3.369-15.762-9.6-6.237-6.238-9.438-11.494-9.6-15.769 0-0.563 0.412-1.3 1.244-2.212 0.825-0.906 1.506-1.563 2.025-1.969 0.525-0.4 0.969-0.725 1.331-0.969 0.444-0.325 0.95-0.481 1.513-0.481 0.694 0 1.212 0.244 1.581 0.725zM6.194 2.425c-0.85 0.606-1.644 1.287-2.394 2.031-0.744 0.75-1.181 1.3-1.3 1.662 0.163 3.756 3.156 8.537 8.988 14.35s10.625 8.819 14.375 9.019c0.325-0.119 0.856-0.563 1.606-1.331s1.425-1.575 2.025-2.419c0.119-0.163 0.163-0.3 0.119-0.425-2.419-1.694-4.438-3.044-6.056-4.056-0.163 0-0.363 0.063-0.606 0.181-0.363 0.2-1.269 0.706-2.725 1.512l-1.031 0.606-1.031-0.669c-1.331-0.925-2.944-2.363-4.844-4.3-1.894-1.894-3.306-3.512-4.238-4.844l-0.725-0.969 0.606-1.088c0.806-1.45 1.313-2.363 1.512-2.725 0.119-0.244 0.181-0.444 0.181-0.606-1.438-2.294-2.769-4.313-3.981-6.050h-0.063c-0.156 0-0.3 0.044-0.419 0.119z"></path>
</svg>
