
<svg version="1.1" xmlns="http://www.w3.org/2000/svg" width="32" height="32" viewBox="0 0 32 32">
<title>pie-chart</title>
<path d="M17.988 2.919c-0.552 0-1 0.448-1 1s0.448 1 1 1c7.076 0 12.012 5.171 12.012 12.247 0 7.077-5.757 12.834-12.834 12.834s-12.248-5.113-12.248-12.189c0-0.552-0.448-1-1-1s-1 0.448-1 1c0 8.18 6.069 14.189 14.248 14.189s14.834-6.654 14.834-14.834c0-8.178-5.834-14.247-14.012-14.247v-0zM15.008 14.008v-13.008c0-0.552-0.448-1-1-1-7.789 0-14.008 6.219-14.008 14.008 0 0.552 0.448 1 1 1h13.008c0.552 0 1-0.448 1-1zM13.008 13.008h-10.967c0.483-5.891 5.077-10.484 10.967-10.967v10.967z"></path>
</svg>
