
<svg version="1.1" xmlns="http://www.w3.org/2000/svg" width="32" height="32" viewBox="0 0 32 32">
<title>plane</title>
<path d="M29.198 2.059c0.326 0 0.555 0.061 0.675 0.107 0.143 0.382 0.336 1.751-1.079 3.167l-7.218 7.218 0.052 0.896c0.11 1.874 0.313 5.232 0.488 8.111 0.154 2.563 0.301 4.983 0.311 5.189 0.005 0.142 0.007 0.175-0.125 0.334-0.295 0.358-0.846 0.966-1.309 1.47-0.72-1.939-2.232-6.033-3.067-8.325l-1.073-2.949-2.22 2.22-4.082 3.924-0.569 0.567-0.018 0.802c-0.014 0.64-0.011 1.79-0.009 2.803 0.002 0.706 0.004 1.348-0.001 1.701-0.009 0.017 0.136 0.036 0.123 0.059-0.087-0.14-0.181-0.29-0.28-0.447-0.823-1.313-1.962-3.128-2.309-3.695l-0.254-0.415-0.417-0.252c-1.516-0.916-3.196-1.973-4.221-2.634 0.035-0.020 0.064 0.088 0.088 0.075h0.067c0.323 0 0.856 0.007 1.453 0.015 0.782 0.011 1.668 0.023 2.346 0.023 0.26 0 0.491-0.002 0.677-0.006l0.803-0.018 0.568-0.567 3.929-4.053 2.212-2.211-2.935-1.080c-2.206-0.812-6.431-2.389-8.408-3.132 0.507-0.467 1.118-1.021 1.474-1.317 0.099-0.082 0.177-0.124 0.231-0.124l0.071 0.002c0.221 0.011 2.959 0.189 5.606 0.363 2.81 0.184 5.982 0.39 7.786 0.505l0.901 0.056 7.22-7.22c1.014-1.013 2.010-1.164 2.514-1.164zM29.198 0.060c-1.181 0-2.632 0.454-3.927 1.75l-6.581 6.581c-3.707-0.235-13.201-0.862-13.437-0.869-0.042-0.002-0.094-0.004-0.152-0.004-0.321 0-0.874 0.061-1.504 0.582-0.74 0.611-2.281 2.062-2.281 2.062-0.372 0.373-0.56 0.835-0.515 1.27 0.027 0.262 0.17 0.741 0.814 0.993 0.392 0.153 6.622 2.485 9.499 3.543l-3.929 4.053c-0.174 0.004-0.39 0.006-0.633 0.006-1.198 0-3.055-0.039-3.8-0.039-0.099 0-0.178 0-0.234 0.002-0.227 0.007-0.696-0.105-1.933 0.929l-0.088 0.082c-0.371 0.371-0.458 0.741-0.466 0.986-0.008 0.252 0.059 0.615 0.424 0.907 0.219 0.177 3.026 1.974 5.329 3.365 0.552 0.901 3.092 4.938 3.225 5.157 0.194 0.327 0.51 0.514 0.889 0.525h0.031c0.368 0 0.746-0.183 1.116-0.542 1.047-1.224 0.902-1.731 0.907-1.945 0.017-0.668-0.011-3.498 0.012-4.62l4.081-3.925c1.043 2.865 3.323 9.031 3.476 9.424 0.254 0.645 0.733 0.786 0.995 0.813 0.043 0.005 0.087 0.007 0.13 0.007 0.395 0 0.803-0.186 1.139-0.52 0 0 1.445-1.534 2.059-2.28s0.591-1.383 0.579-1.683c-0.005-0.208-0.584-9.651-0.799-13.338l6.583-6.583c2.333-2.334 1.962-5.146 1.096-6.011-0.383-0.385-1.157-0.675-2.103-0.675z"></path>
</svg>
