<svg xmlns="http://www.w3.org/2000/svg" xmlns:xlink="http://www.w3.org/1999/xlink" preserveAspectRatio="xMidYMid" width="24" height="32" viewBox="0 0 24 32">
  <path d="M12.649,31.760 C12.463,31.919 12.231,31.999 12.000,31.999 C11.769,31.999 11.537,31.919 11.351,31.760 C10.887,31.365 0.000,21.976 0.000,11.964 C0.000,5.363 5.383,-0.006 12.000,-0.006 C18.617,-0.006 24.000,5.363 24.000,11.964 C24.000,21.976 13.113,31.365 12.649,31.760 ZM12.000,1.989 C6.486,1.989 2.000,6.464 2.000,11.964 C2.000,19.724 9.687,27.493 12.000,29.654 C14.312,27.493 22.000,19.724 22.000,11.964 C22.000,6.464 17.514,1.989 12.000,1.989 ZM12.000,17.991 C8.691,17.991 6.000,15.306 6.000,12.006 C6.000,8.705 8.691,6.021 12.000,6.021 C15.309,6.021 18.000,8.705 18.000,12.006 C18.000,15.306 15.309,17.991 12.000,17.991 ZM12.000,8.016 C9.794,8.016 8.000,9.805 8.000,12.006 C8.000,14.206 9.794,15.996 12.000,15.996 C14.206,15.996 16.000,14.206 16.000,12.006 C16.000,9.805 14.206,8.016 12.000,8.016 Z" class="cls-1"/>
</svg>
