<svg   xmlns="http://www.w3.org/2000/svg" viewBox="0 0 32 32"><title>pound_32</title><path d="M5,26a1,1,0,0,0-1,1v4a1,1,0,0,0,1,1H27a1,1,0,0,0,1-1V23a1,1,0,0,0-1-1H23a1,1,0,0,0-1,1v3H14V19h9a1,1,0,0,0,1-1V14a1,1,0,0,0-1-1H14V10a4,4,0,0,1,6-3.45,1,1,0,0,0,.76.1,1,1,0,0,0,.61-.46l2-3.48A1,1,0,0,0,23,1.37h0l-.05,0,0,0h0A8.83,8.83,0,0,0,21.84.77h-.06L21.68.7l-.06,0-.91-.3h0L20.43.31h0L19.91.2l-.05,0L19.51.12h-.06l-.25,0h0A10.35,10.35,0,0,0,18,0,10,10,0,0,0,8,10v3H4a1,1,0,0,0-1,1v4a1,1,0,0,0,1,1H8v7Zm21,4H6V28H26Zm-2-6h2v2H24ZM10,10a8,8,0,0,1,8-8c.33,0,.65,0,1,.06h0l.23,0h0l.74.15.2,0h0a6.78,6.78,0,0,1,.9.3l0,0-1,1.76A5.78,5.78,0,0,0,18,4a6,6,0,0,0-6,6v3H10ZM5,15H22v2H5Zm5,4h2v7H10Z"/></svg>
