
<svg version="1.1" xmlns="http://www.w3.org/2000/svg" width="32" height="32" viewBox="0 0 32 32">
<title>power</title>
<path d="M21.924 5.128c-0.5-0.233-1.095-0.018-1.329 0.482s-0.018 1.095 0.482 1.329c5.073 2.375 7.828 7.873 6.699 13.371-1.341 6.527-7.739 10.744-14.268 9.407-3.162-0.649-5.756-2.491-7.533-5.186s-2.398-5.922-1.748-9.084c0.772-3.757 3.207-6.854 6.68-8.497 0.499-0.236 0.713-0.832 0.476-1.332-0.236-0.498-0.831-0.71-1.331-0.476-4.047 1.915-6.884 5.523-7.784 9.902-0.757 3.686-0.033 7.445 2.037 10.587 2.071 3.14 5.115 5.287 8.801 6.044 0.951 0.195 1.9 0.289 2.836 0.289 6.546 0 12.427-4.598 13.793-11.254 1.316-6.407-1.895-12.816-7.81-15.585zM16 13c0.552 0 1-0.448 1-1v-11c0-0.552-0.448-1-1-1s-1 0.448-1 1v11c0 0.552 0.448 1 1 1z"></path>
</svg>
