
<svg version="1.1" xmlns="http://www.w3.org/2000/svg" width="32" height="32" viewBox="0 0 32 32">
<title>puzzle</title>
<path d="M16 32.005c-0.634 0-1.231-0.246-1.68-0.693l-13.641-13.64c-0.923-0.927-0.923-2.436-0.002-3.361l4.997-4.996c0.308-0.309 0.782-0.382 1.17-0.179 0.386 0.202 0.598 0.632 0.522 1.062-0.051 0.286-0.074 0.515-0.074 0.723 0 2.188 1.78 4.005 3.969 4.005 2.191 0 3.79-1.817 3.79-4.005 0-2.191-1.599-3.971-3.79-3.971-0.205 0-0.433 0.024-0.719 0.074-0.434 0.080-0.86-0.135-1.062-0.521-0.202-0.388-0.129-0.862 0.179-1.17l4.659-4.66c0.902-0.898 2.463-0.896 3.361-0.002l3.411 3.413c0.712-2.213 2.79-3.82 5.235-3.82 3.032 0 5.499 2.468 5.499 5.501 0 2.446-1.605 4.523-3.82 5.234l3.314 3.312c0.925 0.928 0.925 2.436 0.001 3.363l-13.639 13.64c-0.451 0.45-1.047 0.696-1.681 0.696zM5.465 12.351l-3.372 3.371c-0.145 0.146-0.145 0.389 0.002 0.537l13.636 13.637c0.191 0.189 0.342 0.192 0.537-0.002l13.636-13.637c0.146-0.148 0.146-0.387-0.001-0.536l-4.809-4.806c-0.301-0.301-0.379-0.76-0.194-1.143s0.589-0.61 1.016-0.557l0.152 0.020c0.084 0.011 0.168 0.025 0.256 0.025 1.93 0 3.499-1.569 3.499-3.497 0-1.931-1.57-3.501-3.499-3.501s-3.498 1.571-3.498 3.501c0 0.080 0.012 0.158 0.023 0.236l0.021 0.178c0.045 0.422-0.18 0.826-0.563 1.009-0.38 0.181-0.838 0.104-1.137-0.196l-4.904-4.907c-0.192-0.19-0.342-0.192-0.537 0.002l-3.035 3.035c2.603 0.644 4.356 2.999 4.356 5.798 0 3.291-2.498 6.004-5.79 6.004-2.798-0-5.152-1.972-5.795-4.572z"></path>
</svg>
