<svg   xmlns="http://www.w3.org/2000/svg" viewBox="0 0 32 32"><title>quote_32</title><path d="M6.67,26.06c.09,0,8.77-.14,8.77-11.89A7.22,7.22,0,1,0,5.67,20.9v4.16A1,1,0,0,0,6.67,26.06ZM3,14.17a5.22,5.22,0,1,1,10.44,0c0,7.5-3.88,9.31-5.77,9.75V20.17a1,1,0,0,0-.75-1A5.21,5.21,0,0,1,3,14.17Z"/><path d="M22.22,26.06c.09,0,8.78-.14,8.78-11.89a7.22,7.22,0,1,0-9.78,6.73v4.16A1,1,0,0,0,22.22,26.06ZM18.56,14.17a5.22,5.22,0,1,1,10.44,0c0,7.5-3.89,9.31-5.78,9.75V20.17a1,1,0,0,0-.75-1A5.21,5.21,0,0,1,18.56,14.17Z"/></svg>
