
<svg version="1.1" xmlns="http://www.w3.org/2000/svg" width="32" height="32" viewBox="0 0 32 32">
<title>rocket</title>
<path d="M6.553 27.602c-0.628 1.306-1.025 2.177-4.522 2.304 0.1-3.374 0.744-3.736 2.031-4.378 0.54-0.27 1.213-0.605 1.941-1.164l-1.218-1.555c-0.575 0.442-1.104 0.674-1.615 0.928-2.145 1.070-3.156 2.123-3.156 7.145l0.017 1.022 0.983-0.022c5.301 0 6.292-1.198 7.285-3.26 0.217-0.452 0.338-0.758 0.705-1.367l-1.483-1.347c-0.444 0.607-0.722 1.183-0.968 1.692zM22.030 5.896c-2.212 0-4.011 1.799-4.011 4.010s1.8 4.011 4.011 4.011 4.011-1.8 4.011-4.011c0-2.211-1.8-4.011-4.011-4.011zM22.030 11.909c-1.104 0-2.003-0.899-2.003-2.002s0.898-2.002 2.003-2.002 2.003 0.899 2.003 2.002c-0 1.104-0.898 2.002-2.003 2.002zM31.993 0.916c-0.030-0.499-0.426-0.899-0.925-0.936 0 0-5.596-0.408-10.98 1.603-1.967 0.735-3.586 1.898-5.097 3.661-1.26 1.47-2.512 4.126-3.617 6.332-0.427 0.851-0.835 1.666-1.181 2.288h-5.563c-0.286 0-0.558 0.123-0.748 0.336l-3.666 3.973c-0.234 0.265-0.312 0.633-0.204 0.969s0.385 0.592 0.729 0.67l5.967 1.364c0.407 0.502 1.084 1.253 2.168 2.456l2.261 2.506 1.217 5.148c0.080 0.339 0.331 0.613 0.663 0.72 0.101 0.032 0.206 0.049 0.309 0.049 0.236 0 0.467-0.083 0.651-0.241l3.705-3.686c0.221-0.189 0.349-0.467 0.349-0.759v-5.16c0.498-0.309 1.381-0.786 2.212-1.251 2.264-1.265 5.645-2.841 7.046-4.087 1.974-1.754 2.692-3.040 3.398-4.941 1.678-4.521 1.322-10.751 1.305-11.014zM28.813 11.233c-0.616 1.659-1.174 2.651-2.852 4.142-1.239 1.101-4.629 2.682-6.694 3.837-1.541 0.861-2.464 1.364-2.869 1.695-0.233 0.189-0.368 0.474-0.368 0.774v5.227l-2.11 2.319-0.899-3.8c-0.039-0.163-0.118-0.314-0.231-0.439-1.839-2.038-4.617-5.119-4.83-5.364-0.139-0.169-0.332-0.289-0.549-0.339l-4.581-1.048 2.247-2.375h5.689c0.348 0 0.671-0.181 0.852-0.476 0.44-0.716 0.95-1.736 1.542-2.915 1.002-1.998 2.248-4.642 3.348-5.926 1.3-1.516 2.619-2.469 4.278-3.089 3.691-1.379 7.499-1.524 9.24-1.511 0.032 1.844-0.037 6.119-1.214 9.289z"></path>
</svg>
