<svg   xmlns="http://www.w3.org/2000/svg" viewBox="0 0 32 32"><title>rupi_32</title><path d="M17.39,31.71a1,1,0,0,0,.7.29h5.66a1,1,0,0,0,.7-1.71l-11-10.91A10,10,0,0,0,19.52,13H26a1,1,0,0,0,1-1V8a1,1,0,0,0-1-1H19.53c-.11-.34-.23-.67-.37-1H26a1,1,0,0,0,1-1V1a1,1,0,0,0-1-1H6A1,1,0,0,0,5,1V5A1,1,0,0,0,6,6h4a4,4,0,0,1,2.64,1H6A1,1,0,0,0,5,8v4a1,1,0,0,0,1,1h6.64A4,4,0,0,1,10,14H6a1,1,0,0,0-1,1v4a1,1,0,0,0,.3.71ZM7,2H25V4H7Zm7.47,4h2.46a7.64,7.64,0,0,1,.48,1H15.19A6.51,6.51,0,0,0,14.47,6ZM7,9H25v2H7Zm0,7h3a6,6,0,0,0,5.19-3h2.22a8,8,0,0,1-6.06,4.88,1,1,0,0,0-.53,1.69L21.32,30H18.51L7,18.58Z"/></svg>
