<svg   xmlns="http://www.w3.org/2000/svg" viewBox="0 0 32 32"><title>safari_32</title><path d="M16,0A16,16,0,0,0,0,16,16,16,0,0,0,16,32,16,16,0,0,0,32,16,16,16,0,0,0,16,0ZM28,17H30a13.85,13.85,0,0,1-3.38,8.16l-1.38-1.38a1,1,0,1,0-1.41,1.41l1.38,1.38A13.85,13.85,0,0,1,17,30V28a1,1,0,0,0-2,0V30a13.88,13.88,0,0,1-8.16-3.38l1.38-1.38a1,1,0,1,0-1.41-1.41L5.43,25.16A13.85,13.85,0,0,1,2.05,17H4a1,1,0,0,0,0-2H2.05A13.88,13.88,0,0,1,5.43,6.84L6.81,8.22a1,1,0,0,0,1.41,0,1,1,0,0,0,0-1.41L6.84,5.43A13.88,13.88,0,0,1,15,2.05V4a1,1,0,0,0,2,0V2.05a13.85,13.85,0,0,1,8.16,3.38L23.78,6.81a1,1,0,0,0,0,1.41,1,1,0,0,0,1.41,0l1.38-1.38A13.88,13.88,0,0,1,30,15H28a1,1,0,0,0,0,2Z"/><path d="M21.86,8.77l-8.07,4.66,0,0a1,1,0,0,0-.2.2l-.1.11,0,0L8.77,21.86a1,1,0,0,0,.87,1.5,1,1,0,0,0,.5-.13l8.07-4.66,0,0a1.06,1.06,0,0,0,.11-.09,1.31,1.31,0,0,0,.2-.21l0,0,4.66-8.07a1,1,0,0,0-1.37-1.37Zm-7.35,7.15,1.57,1.57-3.71,2.15Zm3,.16-1.57-1.57,3.72-2.14Z"/></svg>
