
<svg version="1.1" xmlns="http://www.w3.org/2000/svg" width="32" height="32" viewBox="0 0 32 32">
<title>screen-smartphone</title>
<path d="M22.005 0h-12.009c-1.657 0-3 1.343-3 3v26c0 1.657 1.343 3 3 3h12.009c1.657 0 3-1.343 3-3v-26c0-1.657-1.343-3-3-3zM23.005 29c0 0.552-0.448 1-1 1h-12.009c-0.552 0-1-0.448-1-1v-26c0-0.552 0.448-1 1-1h12.009c0.552 0 1 0.448 1 1v26zM16.002 25.006c-1.102 0-1.995 0.893-1.995 1.994s0.893 1.995 1.995 1.995c1.102 0 1.995-0.894 1.995-1.995s-0.892-1.994-1.995-1.994zM18.002 3h-4c-0.552 0-1 0.448-1 1s0.448 1 1 1h4c0.552 0 1-0.448 1-1s-0.448-1-1-1z"></path>
</svg>
