<svg   xmlns="http://www.w3.org/2000/svg" viewBox="0 0 32 32"><title>server_32</title><path d="M31,0H1A1,1,0,0,0,0,1V7.67a1,1,0,0,0,1,1H31a1,1,0,0,0,1-1V1A1,1,0,0,0,31,0ZM26,5a.67.67,0,1,1,.67-.67A.67.67,0,0,1,26,5ZM2,2H24.74a2.66,2.66,0,0,0-1.41,2.33,2.69,2.69,0,0,0,1.41,2.34H2ZM30,6.67H27.26a2.67,2.67,0,0,0,1.41-2.34A2.64,2.64,0,0,0,27.26,2H30Z"/><path d="M31,11.67H1a1,1,0,0,0-1,1v6.66a1,1,0,0,0,1,1H31a1,1,0,0,0,1-1V12.67A1,1,0,0,0,31,11.67Zm-5,5a.67.67,0,1,1,.67-.67A.67.67,0,0,1,26,16.67Zm-24-3H24.74a2.63,2.63,0,0,0,0,4.66H2Zm28,4.66H27.26a2.63,2.63,0,0,0,0-4.66H30Z"/><path d="M31,23.33H1a1,1,0,0,0-1,1V31a1,1,0,0,0,1,1H31a1,1,0,0,0,1-1V24.33A1,1,0,0,0,31,23.33Zm-5,5a.67.67,0,1,1,.67-.66A.67.67,0,0,1,26,28.33Zm-24-3H24.74a2.69,2.69,0,0,0-1.41,2.34A2.66,2.66,0,0,0,24.74,30H2ZM30,30H27.26a2.64,2.64,0,0,0,1.41-2.33,2.67,2.67,0,0,0-1.41-2.34H30Z"/></svg>
