
<svg version="1.1" xmlns="http://www.w3.org/2000/svg" width="32" height="32" viewBox="0 0 32 32">
<title>share</title>
<path d="M27 22c-1.646 0-3.103 0.8-4.013 2.028l-13.168-6.71c0.114-0.421 0.181-0.86 0.181-1.317 0-0.572-0.101-1.119-0.277-1.63l13.242-6.426c0.909 1.244 2.375 2.056 4.035 2.056 2.762 0 5-2.239 5-5s-2.238-5-5-5-5 2.239-5 5c0 0.388 0.049 0.764 0.133 1.127l-13.432 6.518c-0.915-1.009-2.231-1.646-3.7-1.646-2.761 0-5 2.239-5 5s2.239 5 5 5c1.59 0 3.004-0.744 3.92-1.902l13.222 6.739c-0.090 0.374-0.142 0.762-0.142 1.163 0 2.761 2.238 5 5 5s5-2.239 5-5-2.238-5-5-5zM27 2c1.657 0 3 1.343 3 3s-1.343 3-3 3-3-1.343-3-3 1.343-3 3-3zM5 19c-1.657 0-3-1.343-3-3s1.343-3 3-3c1.657 0 3 1.344 3 3s-1.343 3-3 3zM27 30c-1.657 0-3-1.343-3-3s1.343-3 3-3 3 1.343 3 3-1.343 3-3 3z"></path>
</svg>
