<svg   xmlns="http://www.w3.org/2000/svg" viewBox="0 0 32 32"><title>shekel_32</title><path d="M18,11.5V22a1,1,0,0,0,1,1h4a1,1,0,0,0,1-1V11.5A9.51,9.51,0,0,0,14.5,2H1A1,1,0,0,0,0,3V29a1,1,0,0,0,1,1H5a1,1,0,0,0,1-1V8h8.5A3.5,3.5,0,0,1,18,11.5ZM5,6A1,1,0,0,0,4,7V28H2V4H14.5A7.5,7.5,0,0,1,22,11.5V21H20V11.5A5.51,5.51,0,0,0,14.5,6Z"/><path d="M31,2H27a1,1,0,0,0-1,1V24H17.5A3.5,3.5,0,0,1,14,20.5V10a1,1,0,0,0-1-1H9a1,1,0,0,0-1,1V20.5A9.51,9.51,0,0,0,17.5,30H31a1,1,0,0,0,1-1V3A1,1,0,0,0,31,2ZM30,28H17.5A7.5,7.5,0,0,1,10,20.5V11h2v9.5A5.51,5.51,0,0,0,17.5,26H27a1,1,0,0,0,1-1V4h2Z"/></svg>
