
<svg version="1.1" xmlns="http://www.w3.org/2000/svg" width="32" height="32" viewBox="0 0 32 32">
<title>shuffle</title>
<path d="M12.572 15.808l1.227-1.726-4.197-5.728h-9.517v2h8.484zM28.712 10.354l-2.423 2.173c-0.292 0.28-0.387 0.732-0.095 1.011l0.171 0.252c0.293 0.28 0.765 0.28 1.057 0l3.992-3.61c0.006-0.005 0.012-0.006 0.017-0.011l0.265-0.253c0.146-0.14 0.219-0.324 0.218-0.509 0.001-0.184-0.072-0.368-0.218-0.507l-0.265-0.253c-0.005-0.005-0.011-0.007-0.017-0.011l-4.054-3.701c-0.293-0.279-0.764-0.279-1.058 0l-0.171 0.252c-0.293 0.279-0.198 0.731 0.094 1.010l2.377 2.155h-7.242l-12.791 18h-8.484v2h9.516l12.791-18zM31.432 26.649c-0.005-0.005-0.011-0.007-0.017-0.012l-4.054-3.701c-0.293-0.279-0.764-0.279-1.058 0l-0.171 0.252c-0.293 0.279-0.198 0.732 0.094 1.011l2.386 2.163-6.219-0.009-3.576-5.532-1.227 1.727 3.77 5.805 7.342 0.009-2.413 2.164c-0.292 0.279-0.387 0.733-0.095 1.012l0.171 0.252c0.293 0.28 0.765 0.28 1.057 0l3.992-3.61c0.006-0.005 0.012-0.006 0.017-0.011l0.265-0.253c0.146-0.14 0.219-0.324 0.218-0.509 0.001-0.183-0.072-0.368-0.218-0.507z"></path>
</svg>
