
<svg version="1.1" xmlns="http://www.w3.org/2000/svg" width="32" height="32" viewBox="0 0 32 32">
<title>size-fullscreen</title>
<path d="M21.434 11.975l8.602-8.549-0.028 4.846c-0.009 0.404 0.311 0.755 0.716 0.746l0.513-0.001c0.404-0.009 0.739-0.25 0.748-0.654l0.021-7.219c0-0.007-0.027-0.012-0.027-0.019l0.040-0.366c0.004-0.203-0.044-0.384-0.174-0.513-0.13-0.131-0.311-0.21-0.512-0.204l-0.366 0.009c-0.007 0-0.012 0.003-0.020 0.004l-7.172-0.032c-0.404 0.009-0.738 0.343-0.747 0.748l-0.001 0.513c0.061 0.476 0.436 0.755 0.84 0.746l4.726 0.013-8.572 8.52c-0.39 0.39-0.39 1.024 0 1.415s1.023 0.39 1.414 0zM10.597 20.025l-8.602 8.523 0.027-4.82c0.010-0.404-0.312-0.756-0.716-0.747l-0.544 0.001c-0.405 0.010-0.739 0.25-0.748 0.654l-0.021 7.219c0 0.007 0.028 0.011 0.028 0.019l-0.040 0.365c-0.005 0.203 0.043 0.385 0.174 0.514 0.129 0.131 0.311 0.21 0.512 0.205l0.366-0.009c0.007 0 0.012-0.003 0.020-0.003l7.203 0.032c0.404-0.010 0.738-0.344 0.748-0.748l0.001-0.514c-0.062-0.476-0.436-0.755-0.84-0.746l-4.726-0.012 8.571-8.518c0.39-0.39 0.39-1.023 0-1.414s-1.023-0.391-1.413-0zM32.007 30.855l-0.021-7.219c-0.009-0.404-0.343-0.645-0.747-0.654l-0.513-0.001c-0.404-0.009-0.725 0.343-0.716 0.747l0.028 4.846-8.602-8.549c-0.39-0.39-1.023-0.39-1.414 0s-0.39 1.023 0 1.414l8.571 8.518-4.726 0.012c-0.404-0.009-0.779 0.27-0.84 0.746l0.001 0.514c0.009 0.404 0.344 0.739 0.747 0.748l7.172-0.032c0.008 0 0.013 0.003 0.020 0.003l0.366 0.009c0.201 0.005 0.384-0.074 0.512-0.205 0.131-0.129 0.178-0.311 0.174-0.514l-0.040-0.365c0-0.008 0.027-0.012 0.027-0.019zM3.439 2.041l4.727-0.012c0.404 0.009 0.778-0.27 0.84-0.746l-0.001-0.513c-0.010-0.405-0.344-0.739-0.748-0.748l-7.204 0.031c-0.008-0.001-0.013-0.004-0.020-0.004l-0.366-0.009c-0.201-0.005-0.383 0.074-0.512 0.204-0.132 0.13-0.179 0.31-0.174 0.514l0.040 0.366c0 0.007-0.028 0.012-0.028 0.020l0.021 7.219c0.009 0.404 0.343 0.645 0.748 0.654l0.545 0.001c0.404 0.009 0.724-0.342 0.715-0.746l-0.028-4.819 8.602 8.523c0.39 0.39 1.024 0.39 1.414 0s0.39-1.024 0-1.415z"></path>
</svg>
