
<svg version="1.1" xmlns="http://www.w3.org/2000/svg" width="32" height="32" viewBox="0 0 32 32">
<title>size-actual</title>
<path d="M11.975 10.838l-0.021-7.219c-0.009-0.404-0.344-0.644-0.748-0.654l-0.513-0.001c-0.405-0.009-0.725 0.343-0.716 0.747l0.028 4.851-8.321-8.242c-0.391-0.391-1.024-0.391-1.414 0s-0.391 1.024 0 1.414l8.285 8.207-4.721 0.012c-0.404-0.009-0.779 0.27-0.84 0.746l0.001 0.513c0.010 0.405 0.344 0.739 0.748 0.748l7.172-0.031c0.008 0.001 0.013 0.003 0.020 0.003l0.366 0.008c0.201 0.005 0.383-0.074 0.512-0.205 0.132-0.13 0.178-0.311 0.175-0.514l-0.040-0.366c0.001-0.007 0.027-0.012 0.027-0.019zM20.187 11.736c0.129 0.13 0.311 0.21 0.512 0.205l0.366-0.008c0.007 0 0.012-0.002 0.020-0.004l7.172 0.031c0.404-0.009 0.738-0.344 0.747-0.748l0.001-0.513c-0.061-0.476-0.436-0.755-0.84-0.746l-4.721-0.012 8.285-8.207c0.391-0.391 0.391-1.024 0-1.414s-1.023-0.391-1.414 0l-8.32 8.241 0.027-4.851c0.009-0.404-0.311-0.756-0.715-0.747l-0.513 0.001c-0.405 0.010-0.739 0.25-0.748 0.654l-0.021 7.219c0 0.007 0.027 0.012 0.027 0.020l-0.040 0.366c-0.005 0.203 0.043 0.384 0.174 0.514zM11.813 20.232c-0.13-0.131-0.311-0.21-0.512-0.205l-0.366 0.009c-0.007 0-0.012 0.003-0.020 0.003l-7.173-0.032c-0.404 0.009-0.738 0.343-0.748 0.747l-0.001 0.514c0.062 0.476 0.436 0.755 0.84 0.745l4.727 0.012-8.29 8.238c-0.391 0.39-0.391 1.023 0 1.414s1.024 0.39 1.414 0l8.321-8.268-0.028 4.878c-0.009 0.404 0.312 0.756 0.716 0.747l0.513-0.001c0.405-0.010 0.739-0.25 0.748-0.654l0.021-7.219c0-0.007-0.027-0.011-0.027-0.019l0.040-0.397c0.005-0.203-0.043-0.384-0.174-0.514zM23.439 22.028l4.727-0.012c0.404 0.009 0.779-0.27 0.84-0.745l-0.001-0.514c-0.010-0.404-0.344-0.739-0.748-0.748h-7.172c-0.008-0-0.013-0.003-0.020-0.003l-0.428-0.009c-0.201-0.006-0.384 0.136-0.512 0.267-0.131 0.13-0.178 0.311-0.174 0.514l0.040 0.366c0 0.008-0.027 0.012-0.027 0.019l0.021 7.219c0.009 0.404 0.343 0.644 0.748 0.654l0.544 0.001c0.404 0.009 0.725-0.343 0.715-0.747l-0.027-4.829 8.352 8.22c0.39 0.391 1.023 0.391 1.414 0s0.391-1.023 0-1.414z"></path>
</svg>
