
<svg version="1.1" xmlns="http://www.w3.org/2000/svg" width="32" height="32" viewBox="0 0 32 32">
<title>social-pintarest</title>
<path d="M27.712 10.983c-0.119-5.822-4.878-10.040-11.329-10.040-0.698 0-1.408 0.050-2.119 0.151-5.168 0.717-9.135 4.438-9.877 9.254-0.528 3.433 0.578 7.557 4.231 8.487l0.528 0.132 0.308-0.446c0.107-0.151 1.044-1.534 0.893-2.678-0.075-0.572-0.421-0.924-0.629-1.132l-0.101-0.101c-0.572-0.899-0.811-2.42-0.572-3.697 0.578-3.143 3.2-5.426 6.519-5.677 0.233-0.019 0.465-0.025 0.692-0.025 3.439 0 5.765 2.050 5.928 5.218 0.151 3.062-0.767 5.853-2.402 7.286l-0.107 0.094c-0.384 0.34-0.685 0.61-1.314 0.704-0.163 0.025-0.327 0.038-0.478 0.038-1.257 0-1.943-0.83-1.968-1.647-0.031-0.918 0.333-1.924 0.723-2.993 0.478-1.314 0.974-2.678 0.792-4.086-0.195-1.459-1.521-2.596-3.024-2.596-0.383 0-0.773 0.075-1.151 0.214-2.728 1.037-3.131 4.608-2.131 7.488-0.239 1.138-0.547 2.263-0.874 3.451-0.974 3.577-1.987 7.28-1.22 11.618l0.17 0.962 0.899-0.371c0.874-0.365 1.345-1.169 1.735-1.836 0.075-0.126 0.151-0.252 0.22-0.371 1.276-2.006 1.993-4.401 2.546-6.727 1.377 1.037 2.785 1.371 4.791 1.151 5.545-0.604 8.424-6.545 8.318-11.826zM12.706 15.038l0.044-0.22-0.082-0.214c-0.855-2.257-0.66-5.004 1.144-5.69 0.195-0.075 0.396-0.113 0.591-0.113 0.736 0 1.383 0.541 1.471 1.232 0.138 1.031-0.277 2.15-0.71 3.345-0.421 1.157-0.861 2.351-0.817 3.577 0.050 1.534 1.308 3.162 3.533 3.162 0.233 0 0.471-0.019 0.717-0.057 1.088-0.163 1.691-0.698 2.125-1.088l0.101-0.088c1.98-1.741 3.106-5.017 2.93-8.544-0.214-4.262-3.615-7.029-8.299-6.677-4.042 0.308-7.23 3.099-7.94 6.953-0.308 1.66 0.013 3.602 0.792 4.828 0.094 0.145 0.201 0.258 0.302 0.358 0.069 0.075 0.182 0.182 0.189 0.233 0.025 0.214-0.107 0.654-0.333 1.088-2.276-0.968-2.917-4.030-2.527-6.551 0.629-4.124 4.061-7.318 8.544-7.94 0.641-0.088 1.282-0.132 1.905-0.132 5.558 0 9.663 3.577 9.757 8.506 0.094 4.589-2.301 9.732-6.909 10.241-0.314 0.031-0.61 0.050-0.886 0.050-1.672 0-2.571-0.578-3.653-1.653l-1.006-1-0.308 1.383c-0.591 2.628-1.276 5.375-2.634 7.513-0.088 0.138-0.176 0.289-0.264 0.446-0.031 0.057-0.063 0.113-0.101 0.163-0.251-3.357 0.578-6.4 1.389-9.361 0.333-1.226 0.685-2.502 0.937-3.753z"></path>
</svg>
