
<svg version="1.1" xmlns="http://www.w3.org/2000/svg" width="32" height="32" viewBox="0 0 32 32">
<title>social-vkontakte</title>
<path d="M0.094 7.75c0-1.188 0.813-1.656 1.813-1.719l4.656 0.031c0.281 0 0.531 0.188 0.625 0.469 1.063 3.438 2.375 5.563 3.938 7.969 0.094 0.188 0.25 0.281 0.406 0.281 0.125 0 0.25-0.063 0.344-0.219l0.094-0.344 0.031-5.406c0-0.781-0.375-0.906-1.25-1.031-0.344-0.063-0.563-0.375-0.563-0.688 0-0.063 0-0.125 0.031-0.188 0.438-1.344 1.813-2.031 3.75-2.031l1.75-0.031c1.438 0 2.75 0.625 2.75 2.469v7.094c0.125 0.094 0.25 0.156 0.406 0.156 0.25 0 0.563-0.156 0.813-0.563 1.625-2.281 3.469-5 3.719-6.438 0-0.063 0.031-0.094 0.063-0.156 0.344-0.688 1.219-1.156 1.594-1.281 0.063-0.031 0.156-0.063 0.281-0.063h4.844l0.313 0.031c0.469 0 0.813 0.313 0.969 0.594 0.281 0.438 0.219 0.906 0.25 1.094v0.219c-0.469 2.844-3.719 6.031-5.094 8.094-0.188 0.25-0.281 0.469-0.281 0.688 0 0.188 0.094 0.375 0.25 0.563l4.563 5.75c0.25 0.344 0.375 0.75 0.375 1.094 0 1.031-0.969 1.625-1.906 1.719l-0.531 0.031h-4.75c-0.094 0-0.156 0.031-0.25 0.031-0.531 0-0.969-0.281-1.281-0.594-1-1.219-1.969-2.469-2.938-3.688-0.188-0.25-0.25-0.281-0.438-0.406-0.219 0.906-0.406 1.844-0.625 2.781l-0.094 0.531c-0.156 0.563-0.563 1.156-1.313 1.313l-0.438 0.031h-3.063c-5.406 0-10.25-7.688-13.656-17.281-0.094-0.25-0.156-0.594-0.156-0.906zM18.875 15.844c-0.813 0-1.719-0.469-1.719-1.344v-7.188c0-0.844-0.375-1.156-1.406-1.156l-1.781 0.063c-1 0-1.563 0.156-2.031 0.469 0.719 0.344 1.375 0.813 1.375 2.125v5.5c-0.094 1.094-1 1.813-1.875 1.813-0.594 0-1.125-0.344-1.438-0.906-1.406-2.125-2.594-4.125-3.625-7l-0.281-0.813-4.156-0.031c-0.563 0-0.5 0.031-0.5 0.313 0 0.188 0.031 0.438 0.063 0.594l0.656 1.75c3.406 8.813 7.688 14.594 11.75 14.594h3.125c0.438 0 0.406-0.531 0.5-0.844l0.594-2.75c0.125-0.281 0.219-0.531 0.438-0.75 0.25-0.25 0.531-0.344 0.813-0.344 0.594 0 1.156 0.469 1.531 0.906l2.656 3.375c0.219 0.344 0.406 0.406 0.531 0.406h5.156c0.5 0 0.938-0.156 0.938-0.469 0-0.094-0.031-0.219-0.094-0.313l-4.531-5.656c-0.375-0.469-0.531-0.938-0.531-1.406 0-0.5 0.188-1 0.5-1.438 1.313-1.969 4.125-4.781 4.781-7.094l0.094-0.406c-0.031-0.156-0.031-0.281-0.063-0.438h-4.906c-0.313 0.125-0.563 0.313-0.75 0.563l-0.188 0.594c-0.719 2-2.688 4.75-4.094 6.656-0.469 0.438-1 0.625-1.531 0.625z"></path>
</svg>
