
<svg version="1.1" xmlns="http://www.w3.org/2000/svg" width="32" height="32" viewBox="0 0 32 32">
<title>social-github</title>
<path d="M4.956 16.331c-0.362 0-0.7-0.231-0.813-0.594-0.919-2.869-1.050-7.938 0.919-10.238-0.438-1.663-0.194-3.913 0.612-5.119 0.169-0.25 0.444-0.394 0.75-0.381 2.294 0.1 3.787 1.056 5.1 1.931 1.869-0.488 3.688-0.656 5.844-0.538 0.531 0.031 1.056 0.15 1.519 0.256 0.438 0.1 0.887 0.206 1.15 0.181 0.238-0.025 0.662-0.313 1.006-0.55 0.319-0.219 0.656-0.444 1.006-0.6 1-0.438 1.9-0.637 3.113-0.681 0.469-0.013 0.869 0.35 0.887 0.825s-0.35 0.869-0.825 0.881c-1.006 0.038-1.681 0.181-2.488 0.538-0.206 0.094-0.462 0.263-0.731 0.45-0.531 0.362-1.137 0.775-1.813 0.837-0.544 0.050-1.106-0.075-1.7-0.219-0.413-0.094-0.844-0.194-1.225-0.219-2.106-0.119-3.856 0.063-5.669 0.581-0.238 0.069-0.494 0.031-0.706-0.112l-0.213-0.144c-1.144-0.756-2.225-1.481-3.806-1.675-0.394 1.006-0.444 2.675-0.050 3.663 0.138 0.338 0.037 0.731-0.237 0.963-1.544 1.313-1.738 5.956-0.819 8.838 0.144 0.45-0.106 0.931-0.556 1.075-0.088 0.038-0.175 0.050-0.256 0.050zM11.456 24.769c-0.063 0-0.125-0.006-0.188-0.019-0.463-0.1-0.75-0.556-0.65-1.019l0.056-0.244c0.262-1.188 0.506-2.144 0.794-2.856-3.506-0.731-6.063-2.4-7.275-4.762-0.212-0.419-0.050-0.938 0.369-1.15s0.938-0.050 1.15 0.369c1.094 2.131 3.669 3.575 7.256 4.069 0.344 0.050 0.625 0.3 0.713 0.631 0.088 0.337-0.037 0.694-0.319 0.9-0.181 0.163-0.512 0.844-1.019 3.163l-0.056 0.25c-0.088 0.394-0.438 0.669-0.831 0.669zM9.881 31.025c-0.056 0-0.106-0.006-0.162-0.019-0.463-0.094-0.769-0.525-0.675-0.988 0.156-0.794 0.713-1.125 1.044-1.319 0.225-0.131 0.294-0.181 0.331-0.269 0.194-0.413 0.144-1.481 0.1-2.338-0.019-0.363-0.037-0.731-0.044-1.087-1.981 0.344-4.131 0.45-5.269-1.431-0.225-0.375-0.369-0.756-0.5-1.1-0.15-0.387-0.275-0.725-0.481-0.975-0.3-0.363-0.244-0.9 0.119-1.2s0.9-0.25 1.2 0.119c0.381 0.469 0.581 0.994 0.756 1.456 0.112 0.3 0.219 0.581 0.362 0.819 0.612 1.012 1.95 0.95 4.525 0.431 0.269-0.056 0.544 0.025 0.744 0.206 0.2 0.188 0.3 0.456 0.269 0.725-0.063 0.544-0.025 1.256 0.006 1.944 0.063 1.206 0.119 2.344-0.262 3.15-0.275 0.581-0.719 0.844-1.012 1.012-0.081 0.050-0.206 0.119-0.231 0.15-0.056 0.419-0.412 0.713-0.819 0.713zM22.306 30.862c-0.281 0-0.55-0.137-0.719-0.387-0.069-0.113-0.169-0.181-0.344-0.3-0.275-0.194-0.65-0.456-0.931-1-0.506-0.994-0.425-2.438-0.344-3.962 0.050-0.938 0.1-1.906-0-2.669-0.087-0.644-0.313-0.931-0.625-1.331-0.2-0.262-0.431-0.556-0.613-0.944-0.119-0.256-0.1-0.55 0.038-0.794 0.144-0.244 0.394-0.4 0.675-0.419 3.206-0.238 5.738-1.75 6.956-4.144 0.212-0.419 0.725-0.588 1.15-0.375 0.419 0.213 0.588 0.725 0.375 1.15-1.3 2.569-3.781 4.3-6.919 4.894 0.281 0.413 0.556 0.938 0.663 1.744 0.125 0.919 0.069 1.969 0.012 2.981-0.063 1.175-0.131 2.506 0.163 3.094 0.075 0.15 0.169 0.219 0.381 0.369 0.231 0.156 0.544 0.375 0.8 0.769s0.144 0.925-0.25 1.181c-0.144 0.1-0.306 0.144-0.469 0.144zM27.162 16.156c-0.075 0-0.156-0.012-0.231-0.031-0.456-0.131-0.719-0.6-0.587-1.056 0.944-3.319 0.3-7.631-1.35-9.037-0.269-0.231-0.369-0.6-0.25-0.931 0.4-1.144 0.131-2.862-0.325-3.9-0.188-0.431 0.006-0.938 0.438-1.125s0.938 0.006 1.125 0.438c0.525 1.188 0.869 3.056 0.525 4.613 2.038 2.25 2.438 7.050 1.481 10.412-0.113 0.375-0.45 0.619-0.825 0.619zM19.487 32.013c-0.156 0-0.319-0.044-0.462-0.137-0.156-0.1-0.625-0.4-1.494-1.75-0.394-0.613-0.681-3.662-0.856-9.075-0.012-0.469 0.356-0.869 0.825-0.881s0.869 0.356 0.881 0.825c0.113 3.544 0.375 7.563 0.613 8.25 0.637 0.988 0.938 1.188 0.95 1.194 0.394 0.256 0.512 0.781 0.256 1.181-0.156 0.256-0.431 0.394-0.712 0.394zM13.006 32.013c-0.281 0-0.556-0.137-0.719-0.394-0.256-0.394-0.137-0.925 0.256-1.181 0.012-0.006 0.313-0.206 0.95-1.194 0.238-0.681 0.494-4.706 0.613-8.25 0.012-0.469 0.412-0.844 0.881-0.825 0.469 0.012 0.844 0.413 0.825 0.881-0.175 5.413-0.463 8.469-0.856 9.075-0.869 1.344-1.338 1.65-1.494 1.75-0.137 0.094-0.3 0.137-0.456 0.137z"></path>
</svg>
