
<svg version="1.1" xmlns="http://www.w3.org/2000/svg" width="32" height="32" viewBox="0 0 32 32">
<title>social-instagram</title>
<path d="M15.969 0.125c4.313 0 4.844 0.031 6.531 0.094 1.656 0.063 2.813 0.344 3.844 0.75 1.063 0.406 1.938 0.938 2.813 1.813s1.406 1.75 1.813 2.813c0.406 1.031 0.688 2.188 0.75 3.844 0.063 1.688 0.094 2.219 0.094 6.531s-0.031 4.844-0.094 6.531c-0.063 1.656-0.344 2.813-0.75 3.844-0.406 1.063-0.938 1.938-1.813 2.813s-1.75 1.406-2.813 1.813c-1.031 0.406-2.188 0.688-3.844 0.75-1.688 0.063-2.219 0.094-6.531 0.094s-4.844-0.031-6.531-0.094c-1.656-0.063-2.813-0.344-3.844-0.75-1.063-0.406-1.938-0.938-2.813-1.813s-1.406-1.75-1.813-2.813c-0.406-1.031-0.688-2.188-0.75-3.844-0.063-1.688-0.094-2.219-0.094-6.531s0.031-4.844 0.094-6.531c0.063-1.656 0.344-2.813 0.75-3.844 0.406-1.063 0.938-1.938 1.813-2.813s1.75-1.406 2.813-1.813c1.031-0.406 2.188-0.688 3.844-0.75 1.688-0.063 2.219-0.094 6.531-0.094zM15.969 2.188c-4.5 0-5.031 0.031-6.781 0.094-1.625 0.063-2.531 0.375-3.125 0.594-1.531 0.625-2.563 1.656-3.188 3.188-0.219 0.594-0.531 1.5-0.594 3.125-0.063 1.75-0.094 2.281-0.094 6.781s0.031 5.031 0.094 6.781c0.063 1.625 0.375 2.531 0.594 3.125 0.625 1.531 1.656 2.563 3.188 3.188 0.594 0.219 1.5 0.531 3.125 0.594 1.75 0.063 2.281 0.094 6.781 0.094s5.031-0.031 6.781-0.094c1.625-0.063 2.531-0.375 3.125-0.594 1.531-0.625 2.563-1.656 3.188-3.188 0.219-0.594 0.531-1.5 0.594-3.125 0.063-1.75 0.094-2.281 0.094-6.781s-0.031-5.031-0.094-6.781c-0.063-1.625-0.375-2.531-0.594-3.125-0.625-1.531-1.656-2.563-3.188-3.188-0.594-0.219-1.5-0.531-3.125-0.594-1.75-0.063-2.281-0.094-6.781-0.094zM15.969 22.313c3.5 0 6.344-2.844 6.344-6.344s-2.844-6.344-6.344-6.344-6.344 2.844-6.344 6.344 2.844 6.344 6.344 6.344zM15.969 7.844c4.5 0 8.125 3.625 8.125 8.125s-3.625 8.125-8.125 8.125-8.125-3.625-8.125-8.125 3.625-8.125 8.125-8.125zM26.344 7.531c0 1.063-0.875 1.875-1.938 1.875s-1.875-0.813-1.875-1.875 0.813-1.938 1.875-1.938 1.938 0.875 1.938 1.938z"></path>
</svg>
