
<svg version="1.1" xmlns="http://www.w3.org/2000/svg" width="32" height="32" viewBox="0 0 32 32">
<title>social-dribbble</title>
<path d="M15.999 0.009c-2.183 0-4.264 0.441-6.162 1.236-0.066 0.021-0.131 0.048-0.192 0.083-5.665 2.463-9.637 8.111-9.637 14.672 0 8.817 7.174 15.991 15.991 15.991 8.819 0 15.992-7.174 15.992-15.991 0-8.819-7.174-15.992-15.992-15.992zM29.992 16c0 0.112-0.006 0.222-0.009 0.333-1.532-0.406-5.419-1.17-10.213-0.117-0.422-0.965-0.891-1.955-1.415-2.963-0.044-0.085-0.087-0.165-0.131-0.248 5.129-1.979 7.309-4.646 8.211-6.311 2.209 2.476 3.555 5.736 3.555 9.306zM24.923 5.232c-0.466 1.1-2.157 3.938-7.647 5.997-2.466-4.507-4.382-7.208-5.456-8.582 1.32-0.414 2.724-0.638 4.18-0.638 3.389 0 6.499 1.212 8.924 3.224zM9.877 3.422c0.851 1.040 2.825 3.658 5.472 8.451-6.25 1.884-11.326 1.658-13.088 1.494 0.838-4.38 3.721-8.041 7.617-9.945h-0zM2.009 16c0-0.216 0.007-0.43 0.017-0.643 0.602 0.060 1.536 0.127 2.759 0.127 2.715 0 6.803-0.336 11.531-1.817 0.089 0.168 0.177 0.335 0.267 0.508 0.451 0.868 0.859 1.725 1.231 2.565-0.855 0.269-1.731 0.596-2.621 0.999-5.707 2.584-8.381 6.272-9.334 7.886-2.384-2.51-3.851-5.898-3.851-9.625zM7.378 27.007c0.508-0.961 2.831-4.815 8.639-7.446 0.874-0.396 1.735-0.712 2.575-0.966 1.898 4.823 2.557 8.799 2.756 10.331-1.648 0.684-3.454 1.064-5.348 1.064-3.251 0-6.244-1.117-8.621-2.984zM23.238 27.97c-0.288-1.925-1.005-5.543-2.687-9.864 4.639-0.924 8.311-0.017 9.238 0.253-0.695 4.069-3.148 7.547-6.551 9.612z"></path>
</svg>
