
<svg version="1.1" xmlns="http://www.w3.org/2000/svg" width="32" height="32" viewBox="0 0 32 32">
<title>social-foursqare</title>
<path d="M4.531 2.369c0.025-0.056 0.050-0.119 0.069-0.175 0.45-1.444 1.431-2.181 2.95-2.181 3.6-0.006 7.2 0 10.8 0h6.181c0.45 0 0.894 0.037 1.325 0.163 0.913 0.263 1.45 0.944 1.563 1.881 0.131 1.069-0.131 2.087-0.344 3.113-0.944 4.581-1.9 9.162-2.85 13.75-0.106 0.5-0.231 0.994-0.469 1.45-0.544 1.044-1.481 1.369-2.581 1.375-1.581 0.006-3.162 0.006-4.744 0-0.288 0-0.506 0.081-0.694 0.3-1.119 1.306-2.237 2.606-3.362 3.912-1.569 1.825-3.125 3.663-4.713 5.475-0.487 0.556-1.156 0.688-1.869 0.525-0.656-0.15-1.031-0.6-1.2-1.231-0.019-0.063-0.044-0.119-0.062-0.181v-28.175zM7.225 28.881c0.044-0.081 0.063-0.131 0.094-0.169 1.006-1.262 2.012-2.519 3.025-3.781 1.144-1.425 2.287-2.85 3.419-4.281 0.488-0.613 1.069-0.931 1.881-0.913 1.8 0.038 3.606 0.012 5.406 0.006 0.869 0 1.231-0.313 1.406-1.163 0.269-1.331 0.55-2.669 0.813-4 0.175-0.887-0.25-1.394-1.144-1.394-1.944 0-3.887-0.056-5.825 0.019-1.619 0.056-2.406-0.656-2.313-2.331 0.069-1.275 0.669-1.925 1.95-1.931h7.413c0.769 0 1.137-0.294 1.294-1.044 0.281-1.331 0.556-2.662 0.831-4 0.194-0.956-0.212-1.456-1.181-1.456h-15.887c-0.95 0-1.294 0.344-1.294 1.306v24.663c0 0.125-0.037 0.269 0.112 0.469z"></path>
</svg>
