
<svg version="1.1" xmlns="http://www.w3.org/2000/svg" width="32" height="32" viewBox="0 0 32 32">
<title>social-steam</title>
<path d="M23.75 1.25c1.688 0 4 0.938 5.094 2.031l0.938 0.938c1.156 1.219 1.875 3.25 2 5v1.156c-0.25 3.625-2.781 6.375-5.719 7.375-1.688 0.594-2.219 0.25-2.719 0.625l-6.25 4.594c-0.281 0.219-0.375 0.25-0.531 0.375-0.438 3.531-3.531 5.5-6.594 5.5-2.219 0-4.375-1.031-5.531-3.25-0.406-0.781-0.438-1.063-0.594-1.438l-3.094-1.25c-0.25-0.094-0.563-0.281-0.625-0.656l-0.063-0.375v-6.656c0.031-0.656 0.406-1 0.906-1 0.125 0 0.25 0.031 0.406 0.063 1.906 0.781 3.844 1.5 5.719 2.313l0.5-0.219c1.031-0.438 1.625-0.5 2.75-0.5 0.156-0.219 0.375-0.531 0.5-0.719l2.781-3.969c0.219-0.281 0.969-1.344 1.219-1.781 0.188-2.781 1.063-4.219 2.781-5.969 1.344-1.281 3.719-2.188 6.125-2.188zM10.188 17.25c-1.063 0-1.375 0.125-2.625 0.656-0.156 0.063-0.313 0.094-0.438 0.094-0.375 0-0.75-0.219-1.063-0.344-1.531-0.625-3.094-1.25-4.625-1.875v5.906l3.094 1.25c0.781 0.375 0.594 1.063 1.125 2.031 0.875 1.719 2.594 2.5 4.344 2.5 2.375 0 4.75-1.469 5.156-4.125l0.063-0.344c0.094-0.594 0.5-0.75 1.031-1.156l6.281-4.594c0.906-0.656 1.656-0.313 3.094-0.813 2.438-0.844 4.563-3.125 4.781-6.156v-1c-0.094-1.406-0.719-3.031-1.625-4.094l-0.906-0.906c-1.094-1-2.906-1.656-4.688-1.656-0.938 0-1.906 0.188-2.75 0.594-2.656 1.313-4.094 3.438-4.344 6.75-0.188 0.344-1.188 1.781-1.375 2.031l-2.75 3.938c-0.469 0.5-0.469 1.219-1.25 1.313h-0.531zM9.906 26.094c-0.688 0-1.406-0.344-1.813-0.625-0.344-0.25-1.031-0.813-1.156-1.25 0.75 0.188 1.781 0.906 2.938 0.906 0.625 0 1.313-0.25 2-0.875 0.594-0.563 0.906-1.375 0.906-2.188-0.125-2-1.563-2.844-3.25-3.313 0.063-0.094 0.031-0.125 0.188-0.125h0.344c2.281 0 3.781 1.781 3.781 3.719 0 1.875-1.313 3.75-3.938 3.75zM19.375 9.531c0-2.281 1.844-4.156 4.125-4.156s4.156 1.875 4.156 4.156-1.875 4.125-4.156 4.125-4.125-1.844-4.125-4.125zM20.75 9.531c0 1.531 1.219 2.75 2.75 2.75s2.781-1.219 2.781-2.75-1.25-2.781-2.781-2.781-2.75 1.25-2.75 2.781z"></path>
</svg>
