
<svg version="1.1" xmlns="http://www.w3.org/2000/svg" width="32" height="32" viewBox="0 0 32 32">
<title>social-google</title>
<path d="M22.094 11.25c-2.188-2.344-4-2.719-5.75-2.75h-0.063c-3.938 0-7.656 3.25-7.656 7.75 0 4.719 4.25 7.469 7.625 7.469h0.031c1.875 0 4.156-0.344 6.156-3.219h-7.688v-7.969l16.344 0.063c0.156 0.813 0.438 2.844 0.438 3.906 0 9.031-6.063 15.469-15.406 15.469-8.875 0-16.094-7.063-16.094-15.875s7.219-15.844 16.094-15.844c4.344 0 9 1.719 11.938 5.625zM16.25 14.156v4.813h8.219c-0.375 2.031-2.531 6.094-8.219 6.094-4.969 0-8.969-4.063-8.969-8.906 0-4.875 4.094-8.969 8.969-8.969 2.844 0 4.75 1.25 5.781 2.25l3.938-3.719c-2.5-2.344-5.781-3.75-9.719-3.75-8 0-14.5 6.281-14.5 14.188 0 7.844 6.5 14.156 14.5 14.156 8.438 0 13.906-5.781 13.906-13.813 0-0.906-0.063-1.625-0.188-2.344h-13.719z"></path>
</svg>
