
<svg version="1.1" xmlns="http://www.w3.org/2000/svg" width="32" height="32" viewBox="0 0 32 32">
<title>social-skype</title>
<path d="M30.555 17.952c0.101-0.71 0.152-1.432 0.152-2.148 0-8.181-6.653-14.84-14.84-14.84-0.684 0-1.381 0.051-2.059 0.139-1.343-0.722-2.864-1.103-4.398-1.103-5.12 0-9.283 4.163-9.283 9.277 0 1.508 0.368 2.997 1.071 4.322-0.108 0.729-0.165 1.47-0.165 2.205 0 8.181 6.653 14.84 14.84 14.84 0.577 0 1.16-0.032 1.73-0.101 1.489 0.951 3.213 1.457 4.993 1.457 5.12 0 9.277-4.163 9.277-9.277 0-1.686-0.456-3.333-1.318-4.771zM27.653 27.78c-1.35 1.35-3.149 2.097-5.063 2.097-1.413 0-2.775-0.412-3.948-1.191l-0.526-0.349-0.627 0.082c-0.532 0.070-1.077 0.101-1.616 0.101-1.717 0-3.384-0.336-4.949-1.001-1.514-0.64-2.877-1.559-4.043-2.725s-2.085-2.528-2.725-4.043c-0.665-1.565-1.001-3.232-1.001-4.949 0-0.672 0.051-1.35 0.158-2.015l0.089-0.57-0.279-0.507c-0.57-1.046-0.874-2.23-0.874-3.434 0-1.914 0.741-3.707 2.097-5.063 1.35-1.35 3.149-2.097 5.063-2.097 1.223 0 2.433 0.317 3.492 0.912l0.507 0.285 0.577-0.082c0.621-0.095 1.261-0.139 1.888-0.139 1.717 0 3.384 0.336 4.949 1.001 1.514 0.64 2.877 1.559 4.043 2.725s2.085 2.528 2.725 4.043c0.665 1.565 1.001 3.232 1.001 4.949 0 0.659-0.051 1.324-0.152 1.977l-0.095 0.621 0.336 0.539c0.703 1.134 1.077 2.44 1.077 3.777-0.006 1.907-0.754 3.707-2.104 5.057v0zM18.085 14.422l-3.004-0.678c-1.635-0.368-2.459-0.931-2.459-1.705 0-0.551 0.228-1.001 0.678-1.343s1.090-0.513 1.907-0.513c0.963 0 1.749 0.203 2.345 0.615 0.177 0.114 0.558 0.488 1.141 1.115 0.38 0.406 0.792 0.615 1.229 0.615 0.45 0 0.843-0.127 1.16-0.38 0.323-0.253 0.482-0.602 0.482-1.039 0-1.008-0.665-1.882-1.996-2.623-1.255-0.703-2.63-1.052-4.125-1.052-1.724 0-3.156 0.368-4.296 1.096-1.331 0.862-1.996 2.104-1.996 3.72 0 2.218 1.286 3.656 3.859 4.309l4.055 1.027c1.020 0.26 1.533 0.811 1.533 1.641 0 0.558-0.247 1.027-0.741 1.419-0.539 0.437-1.255 0.659-2.142 0.659-1.033 0-1.863-0.247-2.49-0.741-0.146-0.101-0.545-0.551-1.198-1.356-0.406-0.494-0.868-0.741-1.375-0.741-0.437 0-0.798 0.139-1.084 0.418s-0.425 0.634-0.425 1.071c0 0.995 0.532 1.869 1.597 2.623 1.236 0.906 2.902 1.356 4.981 1.356 2.097 0 3.713-0.475 4.854-1.426 1.077-0.874 1.616-2.059 1.616-3.549 0.019-2.395-1.356-3.91-4.106-4.537z"></path>
</svg>
