
<svg version="1.1" xmlns="http://www.w3.org/2000/svg" width="32" height="32" viewBox="0 0 32 32">
<title>social-behance</title>
<path d="M11.773 12.964c0.498-0.302 0.75-0.85 0.75-1.619 0-0.85-0.334-1.424-0.995-1.701-0.554-0.189-1.272-0.283-2.129-0.283h-4.769v4.050h5.222c0.781 0 1.43-0.151 1.921-0.447zM11.257 11.345c0 0.29-0.050 0.479-0.145 0.535-0.29 0.176-0.712 0.265-1.266 0.265h-3.95v-1.518h3.502c0.699 0 1.266 0.069 1.682 0.202 0.063 0.031 0.176 0.082 0.176 0.517v0zM11.717 16.586c-0.428-0.195-1.039-0.302-1.808-0.309h-5.279v4.876h5.216c0.781 0 1.398-0.107 1.833-0.321 0.8-0.397 1.203-1.165 1.203-2.28 0.006-0.945-0.384-1.606-1.165-1.965v-0zM5.896 17.543h4.013c0.768 0.006 1.134 0.126 1.285 0.195 0.227 0.107 0.428 0.246 0.428 0.813 0 0.901-0.34 1.065-0.504 1.146-0.12 0.057-0.472 0.189-1.272 0.189h-3.95v-2.343zM26.507 14.148c-0.561-0.479-1.26-0.724-2.085-0.724-0.895 0-1.606 0.258-2.104 0.775-0.498 0.51-0.813 1.209-0.932 2.079l-0.006 0.057h6.079l-0.006-0.050c-0.069-0.939-0.384-1.657-0.945-2.135zM23.238 15.061c0.107-0.107 0.397-0.378 1.184-0.378 0.491 0 0.888 0.126 1.209 0.378h-2.394zM32.082 15.754c-0.189-1.216-0.611-2.306-1.253-3.244-0.592-0.882-1.329-1.575-2.205-2.079v-5.027h-8.391v5.077c-0.51 0.309-0.976 0.674-1.411 1.109-0.989 0.995-1.638 2.274-1.959 3.811-0.233-0.34-0.51-0.649-0.819-0.92 0.044-0.050 0.076-0.088 0.107-0.126 0.737-0.888 1.109-2.035 1.109-3.414 0-1.317-0.353-2.476-1.052-3.446-1.14-1.556-3.017-2.369-5.575-2.413h-10.746v20.346h10.104c0.983 0 1.921-0.088 2.778-0.271 0.957-0.202 1.802-0.58 2.513-1.128 0.63-0.472 1.153-1.058 1.568-1.745 0.164-0.258 0.309-0.529 0.428-0.813 0.416 1.014 1.020 1.852 1.827 2.501 1.562 1.26 3.389 1.896 5.43 1.896 2.482 0 4.46-0.781 5.877-2.324 0.939-0.995 1.474-2.028 1.6-3.074l0.082-0.706h0.088l0.019-1.197c0.032-1.172-0.013-2.123-0.12-2.816h0zM13.827 14.557l-0.101 0.050 0.107 0.038c0.901 0.328 1.587 0.85 2.047 1.562s0.693 1.587 0.693 2.595c0 1.046-0.265 1.997-0.794 2.835-0.334 0.554-0.756 1.020-1.254 1.398-0.561 0.428-1.241 0.731-2.003 0.888-0.775 0.164-1.619 0.246-2.52 0.246h-8.85v-17.82h9.43c2.161 0.032 3.71 0.668 4.605 1.89 0.542 0.75 0.813 1.657 0.813 2.709 0 1.077-0.277 1.953-0.819 2.608-0.309 0.365-0.762 0.699-1.354 1.002zM24.422 9.398c-0.315 0-0.624 0.013-0.92 0.044h-2.003v-2.772h5.865v2.772h-2.003c-0.309-0.025-0.624-0.044-0.939-0.044h0zM21.298 18.57c0.057 1.342 0.529 2.293 1.411 2.835 0.535 0.334 1.184 0.504 1.934 0.504 0.8 0 1.455-0.208 1.953-0.617 0.271-0.22 0.51-0.523 0.712-0.901h3.452c-0.107 0.756-0.529 1.531-1.266 2.312-1.172 1.272-2.835 1.915-4.951 1.915-1.745 0-3.307-0.542-4.636-1.619-1.329-1.071-2.003-2.847-2.003-5.266 0-2.268 0.611-4.038 1.808-5.247 1.020-1.027 2.318-1.625 3.861-1.783h1.72c0.8 0.082 1.543 0.271 2.217 0.573 0.913 0.409 1.676 1.065 2.268 1.946 0.535 0.775 0.888 1.694 1.046 2.721 0.095 0.605 0.132 1.468 0.113 2.576h-9.638v0.050h0zM25.802 20.308c-0.277 0.227-0.655 0.334-1.159 0.334-0.517 0-0.926-0.101-1.26-0.309-0.164-0.101-0.365-0.252-0.529-0.554h3.345c-0.126 0.239-0.258 0.416-0.397 0.529z"></path>
</svg>
