
<svg version="1.1" xmlns="http://www.w3.org/2000/svg" width="32" height="32" viewBox="0 0 32 32">
<title>social-youtube</title>
<path d="M29.398 5.928c-0.867-0.624-3.283-1.453-13.406-1.453-10.848 0-12.458 0.952-12.975 1.264-2.749 1.652-3.010 8.963-3.034 10.445 0.033 1.958 0.349 8.473 3.032 10.084 0.515 0.311 2.116 1.257 12.976 1.257 10.13 0 12.543-0.825 13.406-1.447 2.343-1.686 2.612-7.49 2.619-9.92-0.006-1.954-0.211-8.496-2.619-10.23zM28.23 24.456c-0.349 0.251-2.35 1.069-12.239 1.069-9.56 0-11.566-0.742-11.945-0.971-0.965-0.579-1.984-3.652-2.063-8.376 0.079-4.713 1.111-8.153 2.066-8.726 0.38-0.229 2.393-0.977 11.943-0.977 9.881 0 11.887 0.824 12.239 1.076 0.857 0.617 1.773 3.865 1.787 8.613-0.014 4.823-0.936 7.678-1.787 8.291zM22.513 15.213l-8.998-5.522c-0.309-0.187-0.695-0.191-1.008-0.014-0.315 0.178-0.509 0.511-0.509 0.871v11.045c0 0.36 0.194 0.694 0.509 0.871 0.152 0.086 0.322 0.129 0.491 0.129 0.178 0 0.358-0.048 0.516-0.143l8.998-5.524c0.3-0.181 0.483-0.506 0.483-0.856s-0.183-0.676-0.483-0.857zM13.999 19.822v-7.503l6.063 3.751z"></path>
</svg>
