
<svg version="1.1" xmlns="http://www.w3.org/2000/svg" width="32" height="32" viewBox="0 0 32 32">
<title>social-soundcloud</title>
<path d="M31.931 18.056c0 2.75-2.231 4.981-4.981 4.981h-1.994c-0.55 0-0.994-0.444-0.994-0.994s0.444-0.994 0.994-0.994h1.994c1.65 0 2.988-1.337 2.988-2.988s-1.337-2.988-2.988-2.988h-0.012c-1.294 0-2.4-0.825-2.813-1.975 0-0.006-0.012-0.012-0.012-0.025-0.775-2.181-2.781-3.781-5.188-3.956-0.519 0.031-0.931 0.463-0.931 0.988v11.931c0 0.55-0.444 0.994-0.994 0.994s-0.994-0.444-0.994-0.994v-11.931c0-1.637 1.319-2.963 2.95-2.981 3.25 0.188 5.975 2.319 7.025 5.256 0.006 0.006 0.012 0.012 0.019 0.012 0.131 0.4 0.506 0.688 0.944 0.688h0.012c0.056 0 0.113 0.006 0.162 0.006h0.031c2.656 0.106 4.781 2.287 4.781 4.969v0zM13.012 23.037c-0.55 0-0.994-0.444-0.994-0.994v-10.956c0-0.55 0.444-0.994 0.994-0.994s0.994 0.444 0.994 0.994v10.956c0 0.544-0.444 0.994-0.994 0.994v0zM9.025 23.037c-0.55 0-0.994-0.444-0.994-0.994v-11.456c0-0.55 0.444-0.994 0.994-0.994s0.994 0.444 0.994 0.994v11.45c0.006 0.55-0.444 1-0.994 1v0 0zM5.044 23.037c-0.55 0-0.994-0.444-0.994-0.994v-7.969c0-0.55 0.444-0.994 0.994-0.994s0.994 0.444 0.994 0.994v7.969c0 0.544-0.444 0.994-0.994 0.994v0zM1.063 21.044c-0.55 0-0.994-0.444-0.994-0.994v-3.981c0-0.55 0.444-0.994 0.994-0.994s0.994 0.444 0.994 0.994v3.981c0 0.55-0.444 0.994-0.994 0.994v0zM20.975 21.044c0.55 0 0.994 0.444 0.994 0.994s-0.444 0.994-0.994 0.994-0.994-0.444-0.994-0.994 0.444-0.994 0.994-0.994v0z"></path>
</svg>
