
<svg version="1.1" xmlns="http://www.w3.org/2000/svg" width="32" height="32" viewBox="0 0 32 32">
<title>social-tumblr</title>
<path d="M16.5 1.992l-0 6.996h7.010v2.999h-6.979l-0.010 8.704c0 1.618 0.084 2.657 0.255 3.117 0.267 0.727 1.236 1.657 3.037 1.657 1.396 0 3.281-0.42 4.692-1.477v4.666c-1.177 0.561-2.273 0.788-3.227 1.014s-1.989 0.339-3.098 0.339c-1.236 0-4.802-0.034-6.265-3.762-0.264-0.671-0.395-1.645-0.395-2.921v-11.332h-4.027l0.019-3.066c1.333 0 5.332-0.809 5.332-6.934zM16.5-0.008l-3.655-0c-1.104 0-2 0.895-2 2 0 4.578-2.551 4.934-3.332 4.934-1.101 0-1.995 0.889-2 1.99l-0.019 3.066c-0.003 0.532 0.207 1.043 0.582 1.421 0.376 0.377 0.885 0.589 1.418 0.589h2.027v9.332c0 1.543 0.175 2.739 0.534 3.652 0.902 2.295 3.043 5.032 8.127 5.032 1.259 0 2.456-0.132 3.558-0.392l0.221-0.052c0.933-0.22 2.126-0.493 3.407-1.104 0.697-0.332 1.139-1.034 1.139-1.805v-4.666c0-0.757-0.427-1.449-1.105-1.788-0.283-0.142-0.59-0.212-0.895-0.212-0.424 0-0.846 0.135-1.198 0.398-1.191 0.892-2.714 1.078-3.494 1.078-0.8 0-1.097-0.29-1.163-0.367-0.034-0.157-0.129-0.743-0.129-2.407l0.007-6.704h4.982c1.105 0 2-0.896 2-2v-2.999c0-1.104-0.895-2-2-2h-5.010v-4.997c0-1.105-0.895-2-2-2v0z"></path>
</svg>
