
<svg version="1.1" xmlns="http://www.w3.org/2000/svg" width="32" height="32" viewBox="0 0 32 32">
<title>social-facebook</title>
<path d="M18.18 2.515c0.119 0 0.187 0.005 0.187 0.005h2.611l-0.014 3h-2.594c-1.427 0-1.395 1.219-1.395 1.219v4.756h5.051l-0.705 2.996h-4.363v14.993h-2.997l-0.002-14.993h-3.982l-0.008-2.996h3.991v-4.662c0.001-4.065 3.377-4.318 4.217-4.318zM20.979 2.52v0zM18.18 0.515c-0.719 0-2.124 0.119-3.455 0.921-1.26 0.758-2.761 2.311-2.761 5.396v2.662h-1.991c-0.531 0-1.041 0.212-1.417 0.588-0.375 0.377-0.585 0.886-0.583 1.419l0.008 2.996c0.004 1.101 0.899 1.993 2 1.993h1.982l0.002 12.993c0 1.105 0.896 2 2 2h2.997c1.105 0 2-0.895 2-2v-12.993h2.363c0.887 0 1.669-0.585 1.919-1.437l0.705-2.996c0.177-0.604 0.059-1.258-0.319-1.761-0.377-0.505-0.971-0.802-1.601-0.802h-3.051v-1.973l1.988-0.001c1.101 0 1.995-0.889 2-1.991l0.014-2.898c0.002-0.037 0.003-0.073 0.003-0.111 0-1.105-0.893-2-1.998-2h-2.561c-0.058-0.003-0.14-0.005-0.244-0.005z"></path>
</svg>
