
<svg version="1.1" xmlns="http://www.w3.org/2000/svg" width="32" height="32" viewBox="0 0 32 32">
<title>social-twitter</title>
<path d="M21.387 4.959c1.652 0 3.144 0.676 4.195 1.762 1.308-0.253 2.54-0.714 3.648-1.352-0.428 1.301-1.34 2.393-2.525 3.083 1.16-0.136 2.27-0.434 3.301-0.88-0.773 1.117-1.745 2.1-2.868 2.886 0.011 0.239 0.017 0.479 0.017 0.719 0 7.366-5.782 15.863-16.354 15.863-3.245 0-6.268-0.926-8.809-2.507 0.449 0.052 0.906 0.079 1.37 0.079 2.692 0 5.172-0.89 7.139-2.387-2.517-0.043-4.641-1.657-5.369-3.87 0.351 0.066 0.711 0.101 1.082 0.101 0.522 0 1.032-0.067 1.512-0.195-2.629-0.511-4.611-2.764-4.611-5.467v-0.072c0.776 0.418 1.661 0.669 2.605 0.698-1.543-1.001-2.558-2.705-2.558-4.64 0-1.022 0.284-1.981 0.779-2.801 2.834 3.371 7.069 5.591 11.847 5.824-0.098-0.407-0.149-0.837-0.149-1.27 0-3.079 2.574-5.575 5.749-5.575zM30.006 7.572v0zM21.387 2.959c-3.927 0-7.18 2.869-7.681 6.576-3.213-0.646-6.135-2.346-8.235-4.842-0.381-0.454-0.942-0.713-1.531-0.713-0.052 0-0.104 0.002-0.157 0.006-0.643 0.052-1.223 0.41-1.556 0.962-0.698 1.157-1.066 2.482-1.066 3.833 0 0.902 0.162 1.779 0.469 2.601-0.327 0.364-0.515 0.839-0.515 1.341v0.072c0 1.959 0.774 3.777 2.061 5.139-0.074 0.343-0.058 0.702 0.055 1.046 0.444 1.349 1.251 2.512 2.298 3.398-0.703 0.157-1.428 0.235-2.169 0.235-0.392 0-0.773-0.021-1.133-0.066-0.080-0.010-0.159-0.014-0.238-0.014-0.84 0-1.603 0.529-1.885 1.337-0.31 0.885 0.034 1.866 0.83 2.361 2.954 1.838 6.366 2.808 9.866 2.808 11.376 0 18.219-8.905 18.352-17.605 0.931-0.771 1.754-1.662 2.451-2.661 0.254-0.334 0.405-0.751 0.405-1.203 0-0.681-0.34-1.282-0.859-1.644 0.224-0.769-0.032-1.603-0.657-2.111-0.365-0.297-0.813-0.448-1.262-0.448-0.344 0-0.689 0.088-0.999 0.268-0.661 0.381-1.368 0.683-2.113 0.9-1.347-1.014-3.017-1.578-4.732-1.578z"></path>
</svg>
