
<svg version="1.1" xmlns="http://www.w3.org/2000/svg" width="32" height="32" viewBox="0 0 32 32">
<title>social-stumbleupon</title>
<path d="M24.288 28.144c-4.056 0-7.388-3.3-7.419-7.356v-4.188c0-0.244 0.125-0.469 0.331-0.6s0.462-0.15 0.688-0.044l1.806 0.844 2.794-0.838c0.219-0.063 0.45-0.025 0.631 0.113s0.288 0.35 0.288 0.575v4.213c0 0.481 0.394 0.875 0.875 0.875s0.875-0.394 0.875-0.875v-4.294c0-0.188 0.075-0.369 0.206-0.506 0.131-0.131 0.313-0.206 0.506-0.206v0h5.131c0.394 0 0.712 0.319 0.712 0.712v4.163c-0.006 4.087-3.337 7.413-7.425 7.413zM18.294 17.725v3.063c0.031 3.269 2.719 5.931 5.994 5.931 3.306 0 5.994-2.688 5.994-5.994v-3.444h-3.706v3.581c0 1.269-1.031 2.3-2.3 2.3s-2.306-1.031-2.306-2.3v-3.256l-2.137 0.637c-0.169 0.050-0.35 0.037-0.506-0.038zM7.7 28.144c-4.094 0-7.425-3.325-7.425-7.419v-4.156c0-0.394 0.319-0.713 0.713-0.713h5.131c0.394 0 0.713 0.319 0.713 0.713v4.106c0 0.481 0.394 0.875 0.875 0.875s0.875-0.394 0.875-0.875v-9.688c0.144-4.037 3.394-7.181 7.406-7.181 4.031 0 7.281 3.162 7.406 7.194v2.144c0 0.319-0.206 0.594-0.512 0.688l-3.056 0.912c-0.169 0.050-0.35 0.037-0.506-0.038l-2.050-0.956c-0.25-0.119-0.413-0.369-0.413-0.65v-1.844c0-0.481-0.394-0.875-0.875-0.875s-0.875 0.394-0.875 0.875l-0.006 9.569c-0.044 4.038-3.369 7.319-7.4 7.319zM1.706 17.281l-0 3.444c0 3.306 2.688 5.994 5.994 5.994 3.256 0 5.938-2.65 5.981-5.906l0.006-9.556c0-1.269 1.031-2.3 2.3-2.3s2.3 1.031 2.3 2.3v1.387l1.394 0.65 2.288-0.681v-1.588c-0.1-3.237-2.725-5.787-5.975-5.787-3.237 0-5.862 2.537-5.975 5.775v9.662c0 1.269-1.031 2.3-2.3 2.3s-2.3-1.031-2.3-2.3v-3.394h-3.712z"></path>
</svg>
