
<svg version="1.1" xmlns="http://www.w3.org/2000/svg" width="32" height="32" viewBox="0 0 32 32">
<title>social-reddit</title>
<path d="M20.769 22.806c-0.3-0.081-0.662 0.025-1.106 0.319l-0.044 0.038c-0.719 0.719-2.025 1.081-3.881 1.081s-3.162-0.363-3.881-1.081c-0.3-0.3-0.906-0.3-1.206 0-0.313 0.313-0.313 0.894 0.019 1.225 1.331 1.113 3.006 1.631 5.262 1.631 2.344 0 4.219-0.587 5.281-1.65 0.15-0.15 0.238-0.369 0.238-0.6 0-0.212-0.075-0.419-0.2-0.562-0.144-0.262-0.337-0.363-0.481-0.4zM13.694 18.106c0-1.381-1.162-2.637-2.444-2.637s-2.444 1.256-2.444 2.637c0 1.325 1.119 2.444 2.444 2.444s2.444-1.119 2.444-2.444zM20.613 15.662c-1.325 0-2.444 1.119-2.444 2.444s1.119 2.444 2.444 2.444 2.444-1.119 2.444-2.444-1.119-2.444-2.444-2.444zM28.019 11.762c-0.8 0-1.738 0.363-2.369 0.894-2.125-1.35-4.994-2.188-8.35-2.431l1.563-5.219 4.381 1.050c0.131 1.619 1.575 2.987 3.213 2.987 1.719 0 3.225-1.506 3.225-3.225s-1.506-3.225-3.225-3.225c-1.181 0-2.375 0.719-2.9 1.706l-5.213-1.306-0.075-0.006c-0.356 0-0.85 0.313-0.881 0.831l-2.063 6.381c-3.287 0.037-6.519 0.912-9.137 2.481-0.781-0.488-1.55-0.725-2.344-0.725-2.1 0-3.813 1.706-3.813 3.813 0 1.312 0.631 2.481 1.756 3.106v0.794c0 2.725 1.469 5.1 4.225 6.875 2.594 1.794 6.119 2.781 9.925 2.781s7.431-0.988 10.025-2.781c2.725-1.887 4.325-4.331 4.325-6.875v-0.813c0.813-0.712 1.65-1.988 1.65-3.287-0.006-2.1-1.813-3.806-3.919-3.806zM30.063 15.769c0 0.356-0.2 0.863-0.531 1.238-0.394-1.044-1.137-2.031-2.331-3.106 0.238-0.1 0.5-0.169 0.825-0.169 1.2-0.006 2.038 0.838 2.038 2.037zM28.306 19.669c0 2.438-1.844 4.288-3.369 5.4-2.65 1.631-5.762 2.494-9.006 2.494-3.35 0-6.631-0.906-9-2.488-2.338-1.556-3.569-3.425-3.569-5.406s1.231-3.85 3.569-5.406c2.406-1.6 5.531-2.488 8.806-2.488 3.35 0 6.631 0.906 9 2.488 2.331 1.556 3.569 3.425 3.569 5.406zM4.7 13.825c-1.006 0.8-1.862 1.869-2.462 3.081-0.244-0.394-0.438-0.781-0.438-1.137 0-1.2 0.837-2.037 2.038-2.037 0.406-0.006 0.656 0 0.862 0.094zM25.006 5.825c0-0.819 0.637-1.456 1.456-1.456s1.456 0.638 1.456 1.456-0.637 1.456-1.456 1.456c-0.819-0.006-1.456-0.644-1.456-1.456z"></path>
</svg>
