
<svg version="1.1" xmlns="http://www.w3.org/2000/svg" width="32" height="32" viewBox="0 0 32 32">
<title>social-linkedin</title>
<path d="M31.181 31.326h-6.501c-0.46 0-0.831-0.372-0.831-0.831v-10.469c0-3.591-1.852-3.591-2.463-3.591-1.644 0-2.343 1.298-2.57 1.858-0.107 0.252-0.157 0.68-0.157 1.279v10.929c0 0.46-0.372 0.831-0.831 0.831h-6.507c-0.22 0-0.435-0.088-0.592-0.246s-0.246-0.372-0.239-0.592c0-0.176 0.088-17.732 0-19.528-0.013-0.227 0.069-0.447 0.227-0.611s0.372-0.258 0.605-0.258h6.507c0.46 0 0.831 0.372 0.831 0.831v0.491c1.096-0.976 2.677-1.783 5.033-1.783 5.209 0 8.321 3.603 8.321 9.638v11.219c0 0.46-0.372 0.831-0.831 0.831h0zM25.512 29.663l4.844-0v-10.387c0-5.071-2.425-7.975-6.658-7.975-2.828 0-4.202 1.411-5.065 2.702-0.101 0.34-0.422 0.592-0.8 0.592h-0.044c-0.302 0-0.58-0.164-0.724-0.428-0.113-0.208-0.139-0.447-0.063-0.668v-1.745h-4.832c0.044 3.471 0 14.702-0.013 17.902h4.838v-10.091c0-0.838 0.088-1.442 0.277-1.902 0.731-1.808 2.268-2.898 4.107-2.898 2.62 0 4.126 1.915 4.126 5.254v9.644h0.006zM7.723 31.326h-6.507c-0.46 0-0.831-0.372-0.831-0.831v-19.565c0-0.46 0.372-0.831 0.831-0.831h6.507c0.46 0 0.831 0.372 0.831 0.831v19.565c0 0.46-0.372 0.831-0.831 0.831zM2.047 29.663h4.844v-17.902h-4.844v17.902zM4.472 9.090l-0.044-0c-2.564 0-4.428-1.776-4.428-4.22 0-2.438 1.896-4.214 4.517-4.214 2.576 0 4.416 1.726 4.466 4.195 0 2.463-1.896 4.239-4.51 4.239zM4.516 2.324c-1.707 0-2.854 1.027-2.854 2.551 0 1.499 1.134 2.551 2.765 2.551h0.044c1.701 0 2.847-1.027 2.847-2.551-0.032-1.543-1.134-2.551-2.803-2.551z"></path>
</svg>
