
<svg version="1.1" xmlns="http://www.w3.org/2000/svg" width="32" height="32" viewBox="0 0 32 32">
<title>social-spotify</title>
<path d="M13.048 9.711c4.84 0.131 8.565 0.689 12.021 2.442 0.488 0.25 1.077 0.607 1.271 1.058 0.182 0.419 0.075 1.296-0.232 1.515-0.432 0.313-1.302 0.463-1.753 0.232-3.556-1.841-7.344-2.429-11.27-2.273-1.572 0.063-3.149 0.357-4.696 0.657-1.008 0.2-1.841 0.088-2.135-0.952-0.319-1.102 0.463-1.665 1.402-1.841 2.11-0.376 4.245-0.664 5.391-0.839zM13.768 14.482c3.444 0.207 6.693 0.914 9.661 2.605 0.488 0.275 1.002 0.945 1.052 1.471 0.081 0.939-0.995 1.258-2.11 0.664-3.851-2.047-7.926-2.504-12.178-1.784-0.476 0.081-0.977 0.369-1.409 0.282-0.551-0.119-1.046-0.52-1.565-0.795 0.326-0.495 0.57-1.327 0.996-1.434 1.816-0.451 3.694-0.689 5.553-1.008zM13.129 19.265c3.594 0.056 6.249 0.607 8.684 1.985 0.632 0.357 1.377 0.833 0.764 1.603-0.244 0.307-1.24 0.344-1.678 0.106-3.143-1.678-6.474-1.885-9.905-1.453-0.57 0.069-1.14 0.326-1.684 0.269-0.52-0.056-1.008-0.407-1.509-0.626 0.344-0.419 0.632-1.127 1.052-1.215 1.665-0.369 3.375-0.538 4.276-0.67zM32 16.003c0 4.414-1.565 8.189-4.689 11.314s-6.893 4.689-11.314 4.689c-4.414 0-8.189-1.565-11.314-4.689s-4.689-6.893-4.689-11.314c0-4.414 1.565-8.189 4.689-11.314 3.13-3.124 6.9-4.689 11.314-4.689s8.189 1.565 11.314 4.689c3.124 3.124 4.689 6.9 4.689 11.314zM29.997 16.003c0-3.876-1.365-7.175-4.095-9.905-2.724-2.73-6.029-4.095-9.905-4.095-3.869 0-7.175 1.365-9.905 4.095s-4.095 6.029-4.095 9.905 1.365 7.188 4.095 9.936c2.73 2.749 6.029 4.126 9.905 4.126s7.175-1.377 9.905-4.126c2.73-2.749 4.095-6.061 4.095-9.936z"></path>
</svg>
