<svg   xmlns="http://www.w3.org/2000/svg" viewBox="0 0 32 32"><title>sort-1-9_32</title><path d="M8,0A1,1,0,0,0,7,1V28.59l-3.29-3.3a1,1,0,0,0-1.42,1.42l5,5a1,1,0,0,0,.33.21.94.94,0,0,0,.76,0,.93.93,0,0,0,.33-.21l5-5a1,1,0,0,0-1.42-1.42L9,28.59V1A1,1,0,0,0,8,0Z"/><path d="M25.05.08A1,1,0,0,0,24,.29L20.63,3.63A1,1,0,0,0,22,5l1.63-1.63v8.26H23a1,1,0,0,0,0,2h3.33a1,1,0,0,0,0-2h-.66V1A1,1,0,0,0,25.05.08Z"/><path d="M24.67,27a4.41,4.41,0,0,0,1.59-.31C25.58,28.52,24.46,30,23,30a1,1,0,0,0,0,2c4.09,0,6-5.57,6-9.33A4.34,4.34,0,1,0,24.67,27Zm0-6.67a2.34,2.34,0,1,1-2.34,2.34A2.34,2.34,0,0,1,24.67,20.33Z"/></svg>
