<svg   xmlns="http://www.w3.org/2000/svg" viewBox="0 0 32 32"><title>sort_32</title><path d="M12,25.29l-3.29,3.3V1a1,1,0,0,0-2,0V28.59l-3.3-3.3a1,1,0,0,0-1.41,0,1,1,0,0,0,0,1.42l5,5a1,1,0,0,0,.32.21,1.09,1.09,0,0,0,.39.08,1,1,0,0,0,.7-.29l5-5a1,1,0,0,0,0-1.42A1,1,0,0,0,12,25.29Z"/><path d="M16,2h3.33a1,1,0,0,0,0-2H16a1,1,0,0,0,0,2Z"/><path d="M16,7h6.67a1,1,0,0,0,0-2H16a1,1,0,0,0,0,2Z"/><path d="M16,12H26a1,1,0,0,0,0-2H16a1,1,0,0,0,0,2Z"/><path d="M29.33,15H16a1,1,0,0,0,0,2H29.33a1,1,0,0,0,0-2Z"/></svg>
