<svg   xmlns="http://www.w3.org/2000/svg" viewBox="0 0 32 32"><title>sort-a-z_32</title><path d="M30,11.67H29L25.71.71s0,0-.05-.08a.61.61,0,0,0-.09-.18c0-.06-.08-.1-.12-.15L25.31.19a.69.69,0,0,0-.19-.1L25,0h-.58l-.08,0a.69.69,0,0,0-.19.1.69.69,0,0,0-.13.11l-.13.15a1,1,0,0,0-.09.18s0,.05-.05.08l-3.28,11h-1a1,1,0,0,0,0,2H23a1,1,0,0,0,0-2h-.41l.9-3H26l.9,3H26.5a1,1,0,0,0,0,2H30a1,1,0,0,0,0-2Zm-5.91-5,.66-2.19.66,2.19Z"/><path d="M7.25,0a1,1,0,0,0-1,1V28.67l-3.56-3.4a1,1,0,0,0-1.42,0,1,1,0,0,0,0,1.41l5.25,5c0,.05.1.06.15.1a.86.86,0,0,0,.16.1.94.94,0,0,0,.76,0,1.51,1.51,0,0,0,.17-.1s.1-.06.14-.1l5.25-5a1,1,0,0,0,0-1.41,1,1,0,0,0-1.42,0l-3.56,3.4V1A1,1,0,0,0,7.25,0Z"/><path d="M30,28.33a1,1,0,0,0-1,1V30H21.75l9-10a1,1,0,0,0,.17-1.07,1,1,0,0,0-.91-.6H19.5a1,1,0,0,0-1,1V21a1,1,0,0,0,2,0v-.67h7.26l-9,10A1,1,0,0,0,19.5,32H30a1,1,0,0,0,1-1V29.33A1,1,0,0,0,30,28.33Z"/></svg>
