
<svg version="1.1" xmlns="http://www.w3.org/2000/svg" width="32" height="32" viewBox="0 0 32 32">
<title>speech</title>
<path d="M30 1.988h-28c-1.105 0-2 0.895-2 2v18.047c0 1.105 0.895 2 2 2h3.986v4.979c0 0.404 0.242 0.767 0.614 0.922 0.125 0.052 0.257 0.078 0.386 0.078 0.258 0 0.51-0.099 0.701-0.287l5.782-5.692h16.532c1.105 0 2-0.895 2-2v-18.047c0-1.104-0.895-2-2-2zM30 22.034h-17.351l-4.664 4.591v-4.591h-5.986v-18.047h28v18.047zM7 14.031h18c0.552 0 1-0.448 1-1s-0.448-1-1-1h-18c-0.552 0-1 0.448-1 1s0.448 1 1 1zM7 10.031h18c0.552 0 1-0.448 1-1s-0.448-1-1-1h-18c-0.552 0-1 0.448-1 1s0.448 1 1 1zM7 18.032h12c0.552 0 1-0.448 1-1s-0.448-1-1-1h-12c-0.552 0-1 0.448-1 1s0.448 1 1 1z"></path>
</svg>
