<svg xmlns="http://www.w3.org/2000/svg" xmlns:xlink="http://www.w3.org/1999/xlink" preserveAspectRatio="xMidYMid" width="28" height="32" viewBox="0 0 28 32">
  <path d="M26.530,31.994 C26.222,31.994 25.915,31.903 25.619,31.722 L2.000,17.205 L2.000,31.000 C2.000,31.553 1.552,32.000 1.000,32.000 C0.448,32.000 -0.000,31.553 -0.000,31.000 L-0.000,1.006 C-0.000,0.453 0.448,0.006 1.000,0.006 C1.552,0.006 2.000,0.453 2.000,1.006 L2.000,13.855 L25.628,0.248 C25.917,0.083 26.211,-0.000 26.507,-0.000 C27.372,-0.000 28.000,0.689 28.000,1.639 L28.000,30.367 C28.000,31.435 27.260,31.994 26.530,31.994 ZM3.097,15.531 L26.000,29.608 L26.000,2.341 L3.097,15.531 Z" class="cls-1"/>
</svg>
