
<svg version="1.1" xmlns="http://www.w3.org/2000/svg" width="32" height="32" viewBox="0 0 32 32">
<title>symble-female</title>
<path d="M19.491-0.007c-6.904 0-12.5 5.596-12.5 12.5 0 3.079 1.115 5.896 2.96 8.074l-3.979 4.003-4.227-4.267c-0.39-0.39-1.024-0.39-1.414 0s-0.391 1.023 0 1.414l4.231 4.271-4.261 4.287c-0.391 0.39-0.391 1.024 0 1.414 0.39 0.391 1.024 0.391 1.414 0l4.255-4.281 4.265 4.305c0.39 0.391 1.024 0.391 1.414 0s0.39-1.023 0-1.414l-4.269-4.309 3.982-4.006c2.186 1.874 5.024 3.009 8.129 3.009 6.904 0 12.5-5.596 12.5-12.5s-5.596-12.5-12.499-12.5zM19.491 23.010c-5.808 0-10.517-4.709-10.517-10.517s4.709-10.517 10.517-10.517 10.517 4.708 10.517 10.517c0 5.808-4.708 10.517-10.517 10.517z"></path>
</svg>
