<svg xmlns="http://www.w3.org/2000/svg" xmlns:xlink="http://www.w3.org/1999/xlink" preserveAspectRatio="xMidYMid" width="24" height="32" viewBox="0 0 24 32">
  <path d="M21.000,32.000 L3.000,32.000 C1.346,32.000 0.000,30.654 0.000,29.000 L0.000,3.000 C0.000,1.346 1.346,-0.000 3.000,-0.000 L21.000,-0.000 C22.654,-0.000 24.000,1.346 24.000,3.000 L24.000,29.000 C24.000,30.654 22.654,32.000 21.000,32.000 ZM22.000,3.000 C22.000,2.449 21.552,2.000 21.000,2.000 L3.000,2.000 C2.448,2.000 2.000,2.449 2.000,3.000 L2.000,29.000 C2.000,29.551 2.448,30.000 3.000,30.000 L21.000,30.000 C21.552,30.000 22.000,29.551 22.000,29.000 L22.000,3.000 ZM14.000,5.000 L10.000,5.000 C9.447,5.000 9.000,4.552 9.000,4.000 C9.000,3.448 9.447,3.000 10.000,3.000 L14.000,3.000 C14.553,3.000 15.000,3.448 15.000,4.000 C15.000,4.552 14.553,5.000 14.000,5.000 ZM12.000,25.000 C13.102,25.000 14.000,25.897 14.000,27.000 C14.000,28.103 13.102,29.000 12.000,29.000 C10.897,29.000 10.000,28.103 10.000,27.000 C10.000,25.897 10.897,25.000 12.000,25.000 Z" class="cls-1"/>
</svg>
