
<svg version="1.1" xmlns="http://www.w3.org/2000/svg" width="32" height="32" viewBox="0 0 32 32">
<title>tag</title>
<path d="M31.999 13.008l-0-10.574c0-1.342-1.092-2.434-2.433-2.434h-10.793c-0.677 0-1.703 0-2.372 0.67l-15.81 15.811c-0.38 0.38-0.59 0.884-0.59 1.421 0 0.538 0.209 1.043 0.589 1.423l12.088 12.085c0.379 0.381 0.883 0.59 1.421 0.59s1.042-0.209 1.421-0.589l15.811-15.812c0.678-0.677 0.674-1.65 0.67-2.591zM29.915 14.186l-15.826 15.811-12.086-12.101 15.794-15.797c0.159-0.099 0.732-0.099 0.968-0.099l0.45 0.002 10.35-0.002c0.239 0 0.433 0.195 0.433 0.434v10.582c0.002 0.38 0.004 1.017-0.084 1.169zM24 4c-2.209 0-4 1.791-4 4s1.791 4 4 4c2.209 0 4-1.791 4-4s-1.791-4-4-4zM24 10c-1.105 0-2-0.896-2-2s0.895-2 2-2 2 0.896 2 2-0.895 2-2 2z"></path>
</svg>
