
<svg version="1.1" xmlns="http://www.w3.org/2000/svg" width="32" height="32" viewBox="0 0 32 32">
<title>target</title>
<path d="M31 15h-3.045c-0.481-5.829-5.127-10.47-10.955-10.952v-3.048c0-0.552-0.448-1-1-1s-1 0.448-1 1v3.048c-5.828 0.482-10.474 5.123-10.956 10.952h-3.045c-0.552 0-1 0.448-1 1s0.448 1 1 1h3.045c0.481 5.828 5.128 10.47 10.956 10.952v3.048c0 0.552 0.448 1 1 1s1-0.448 1-1v-3.048c5.828-0.482 10.474-5.123 10.955-10.952h3.045c0.552 0 1-0.448 1-1s-0.448-1-1-1zM15 6.050v8.95h-8.951c0.469-4.725 4.226-8.482 8.951-8.95zM6.048 17h8.951v8.95c-4.725-0.469-8.482-4.226-8.951-8.95zM17 25.951v-8.951h8.951c-0.469 4.725-4.226 8.482-8.951 8.95zM17 15v-8.95c4.725 0.469 8.483 4.226 8.951 8.95z"></path>
</svg>
