<svg   xmlns="http://www.w3.org/2000/svg" viewBox="0 0 32 32"><title>task_32</title><path d="M31,0H1A1,1,0,0,0,0,1V7.67a1,1,0,0,0,1,1H31a1,1,0,0,0,1-1V1A1,1,0,0,0,31,0ZM28.67,3.67H30V5H28.67ZM2,2H26.93a1,1,0,0,0-.26.67V6a1,1,0,0,0,.26.67H2Z"/><path d="M31,11.67H1a1,1,0,0,0-1,1v6.66a1,1,0,0,0,1,1H31a1,1,0,0,0,1-1V12.67A1,1,0,0,0,31,11.67ZM18.67,15.33H30v1.34H18.67ZM2,13.67H16.93a1,1,0,0,0-.26.66v3.34a1,1,0,0,0,.26.66H2Z"/><path d="M31,23.33H1a1,1,0,0,0-1,1V31a1,1,0,0,0,1,1H31a1,1,0,0,0,1-1V24.33A1,1,0,0,0,31,23.33ZM28.67,27H30v1.33H28.67ZM2,25.33H26.93a1,1,0,0,0-.26.67v3.33a1,1,0,0,0,.26.67H2Z"/></svg>
