<svg xmlns="http://www.w3.org/2000/svg" xmlns:xlink="http://www.w3.org/1999/xlink" preserveAspectRatio="xMidYMid" width="20.906" height="32" viewBox="0 0 20.906 32">
  <path d="M12.593,32.000 C7.032,32.000 4.000,29.047 4.000,24.000 L4.000,15.000 L0.982,15.000 C0.432,15.000 -0.013,14.552 -0.013,14.000 L-0.013,7.969 C-0.013,7.669 0.121,7.384 0.354,7.194 C0.586,7.004 0.888,6.930 1.183,6.989 C1.204,6.993 1.334,7.012 1.528,7.012 C2.822,7.012 4.995,6.231 4.995,1.000 C4.995,0.448 5.440,0.000 5.990,0.000 L11.930,0.000 C12.480,0.000 12.926,0.448 12.926,1.000 L12.926,7.000 L18.897,7.000 C19.447,7.000 19.892,7.448 19.892,8.000 L19.892,14.000 C19.892,14.552 19.447,15.000 18.897,15.000 L12.926,15.000 L12.926,21.303 C12.926,22.998 13.715,22.998 14.138,22.998 C14.527,22.998 15.004,22.903 15.554,22.718 C15.672,22.678 15.831,22.605 16.020,22.520 C16.306,22.393 16.645,22.242 17.010,22.107 C17.501,21.921 18.059,22.161 18.268,22.650 L20.807,28.594 C20.997,29.037 20.844,29.552 20.445,29.820 C20.313,29.909 17.147,32.000 12.593,32.000 ZM1.978,13.000 L4.963,13.000 C5.513,13.000 5.959,13.448 5.959,14.000 L5.959,24.174 C5.959,28.149 8.067,30.000 12.593,30.000 C15.369,30.000 17.558,29.101 18.626,28.559 L16.828,24.348 C16.566,24.465 16.346,24.561 16.185,24.615 C15.432,24.869 14.743,24.998 14.138,24.998 C12.765,24.998 12.011,24.350 11.619,23.807 C11.165,23.178 11.000,22.032 11.000,21.000 L11.000,14.000 C11.000,13.448 11.380,13.000 11.930,13.000 L18.000,13.000 L18.000,9.000 L11.930,9.000 C11.380,9.000 10.935,8.552 10.935,8.000 L10.935,2.000 L6.958,2.000 C6.637,7.824 3.499,8.842 1.978,8.990 L1.978,13.000 Z" class="cls-1"/>
</svg>
