
<svg version="1.1" xmlns="http://www.w3.org/2000/svg" width="32" height="32" viewBox="0 0 32 32">
<title>user-female</title>
<path d="M30.001 25.084l-8.703-4.127c1.161-0.582 5.695-0.767 6.070-1.79 0 0-1.792-2.75-2.229-6.323-0.17-1.386-0.461-3.206-0.75-5.769-0.469-4.157-3.965-7.075-8.381-7.075h-0.016c-4.416 0-7.912 2.919-8.38 7.075-0.289 2.563-0.58 4.382-0.75 5.769-0.438 3.573-2.229 6.323-2.229 6.323 0.375 1.023 4.909 1.208 6.071 1.79l-8.704 4.128s-1.999 0.702-1.999 2.358v2.642c0 1.105 0.894 1.916 1.999 1.916h28.002c1.105 0 1.999-0.811 1.999-1.916v-2.642c0-1.657-1.999-2.358-1.999-2.358zM2 30v-2.558c0-0.107 0.378-0.363 0.685-0.48 0.067-0.023 0.107-0.042 0.17-0.072l8.703-4.127c0.691-0.327 1.135-1.021 1.144-1.786s-0.42-1.468-1.104-1.81c-0.678-0.34-1.573-0.508-2.976-0.751-0.333-0.058-0.788-0.14-1.229-0.229 0.572-1.285 1.205-3.081 1.454-5.114 0.062-0.506 0.14-1.075 0.229-1.706 0.152-1.073 0.339-2.434 0.524-4.069 0.349-3.090 2.977-5.299 6.393-5.299h0.016c3.416 0 6.045 2.209 6.393 5.299 0.184 1.635 0.372 2.997 0.523 4.069 0.088 0.63 0.167 1.2 0.229 1.706 0.249 2.032 0.882 3.829 1.454 5.114-0.442 0.088-0.896 0.17-1.23 0.229-1.404 0.243-2.299 0.411-2.977 0.751-0.683 0.343-1.111 1.046-1.104 1.811 0.009 0.764 0.452 1.459 1.143 1.786l8.703 4.127c0.063 0.030 0.104 0.049 0.17 0.072 0.308 0.117 0.64 0.373 0.686 0.48l0.001 2.557h-28.001z"></path>
</svg>
