
<svg version="1.1" xmlns="http://www.w3.org/2000/svg" width="32" height="32" viewBox="0 0 32 32">
<title>user-unfollow</title>
<path d="M24.973 11.995l0-4.997c0-3.31-4.582-6.995-8.997-6.995s-9.004 3.686-9.004 6.995v4.997c0 2.184 0.997 6.601 3.793 8.846l-8.783 4.145s-1.998 0.89-1.998 1.999v3.001c0 1.105 0.895 1.999 1.998 1.999h18.998v-2l-18.997 0.001v-2.029c0-0.795 0.597-1.045 0.835-1.154l8.782-4.145c0.63-0.289 1.064-0.886 1.149-1.573s-0.193-1.369-0.733-1.803c-2.078-1.668-3.046-5.334-3.046-7.287v-4.997c0-2.090 3.638-4.995 7.004-4.995 3.396 0 6.997 2.861 6.997 4.995v4.997c0 1.924-0.8 5.604-2.945 7.292-0.548 0.43-0.832 1.114-0.749 1.806 0.081 0.692 0.517 1.291 1.151 1.582l0.566 0.261 0.877-1.619-0.609-0.46c2.77-2.179 3.708-6.462 3.708-8.862zM28.895 27.463l2.828-2.829c0.39-0.39 0.39-1.023 0-1.414s-1.024-0.39-1.414 0l-2.829 2.829-2.828-2.829c-0.39-0.39-1.024-0.39-1.414 0s-0.39 1.024 0 1.414l2.828 2.828-2.828 2.828c-0.39 0.39-0.39 1.024 0 1.415 0.39 0.389 1.024 0.389 1.414 0l2.828-2.828 2.828 2.828c0.39 0.389 1.024 0.389 1.414 0 0.391-0.39 0.391-1.024 0-1.415z"></path>
</svg>
