
<svg version="1.1" xmlns="http://www.w3.org/2000/svg" width="32" height="32" viewBox="0 0 32 32">
<title>vector</title>
<path d="M31 21h-1.009v-0.050c0-5.060-2.704-9.494-6.739-11.95h5.026c0.346 0.595 0.985 1 1.723 1 1.105 0 2-0.896 2-2s-0.895-2-2-2c-0.738 0-1.376 0.405-1.723 1h-9.277v-1c0-0.552-0.448-1-1-1h-4c-0.552 0-1 0.448-1 1v1h-9.277c-0.346-0.595-0.984-1-1.722-1-1.105 0-2 0.896-2 2s0.895 2 2 2c0.738 0 1.376-0.405 1.722-1h5.025c-4.035 2.456-6.739 6.889-6.739 11.95v0.050h-1.009c-0.552 0-1 0.448-1 1v4c0 0.552 0.448 1 1 1h4c0.552 0 1-0.448 1-1v-4c0-0.552-0.448-1-1-1h-0.991v-0.050c0-5.576 3.827-10.271 8.992-11.606v0.656c0 0.552 0.448 1 1 1h4c0.552 0 1-0.448 1-1v-0.656c5.165 1.335 8.992 6.030 8.992 11.606v0.050h-0.991c-0.552 0-1 0.448-1 1v4c0 0.552 0.448 1 1 1h4c0.552 0 1-0.448 1-1v-4c0-0.552-0.448-1-1-1zM4 25h-2v-2h2v2zM17 9h-2v-2h2v2zM30 25h-2v-2h2v2z"></path>
</svg>
