
<svg version="1.1" xmlns="http://www.w3.org/2000/svg" width="32" height="32" viewBox="0 0 32 32">
<title>volume-2</title>
<path d="M17.953 2.059c-0.326-0.173-0.721-0.154-1.028 0.053l-10.034 7.878-3.332 0.002c-1.704 0-3.090 1.208-3.090 2.7l0.053 6.598c0 1.486 1.386 2.695 3.089 2.695l3.331 0.002 9.981 7.898c0.168 0.113 0.363 0.171 0.559 0.171 0.161 0 0.323-0.039 0.469-0.117 0.327-0.173 0.532-0.512 0.532-0.883v-26.115c0-0.369-0.204-0.709-0.531-0.883zM16.484 27.176l-8.675-7.016c-0.165-0.111-0.36-0.171-0.559-0.171l-3.637-0.002c-0.642 0-1.090-0.366-1.090-0.702l-0.054-6.598c0-0.328 0.448-0.693 1.090-0.693l3.638-0.002c0.199 0 0.393-0.059 0.558-0.171l8.729-7v22.355zM26.515 16.172c0-2.656-1.826-4.889-4.341-5.309-0.553-0.091-1.061 0.277-1.151 0.822s0.277 1.060 0.822 1.151c1.573 0.262 2.671 1.635 2.671 3.336 0 1.62-1.137 3.021-2.703 3.334-0.542 0.108-0.893 0.634-0.785 1.176 0.095 0.476 0.512 0.805 0.98 0.805 0.064 0 0.131-0.006 0.197-0.020 2.498-0.498 4.312-2.726 4.312-5.296zM25.188 6.997c-0.517-0.192-1.094 0.070-1.286 0.588-0.194 0.517 0.070 1.093 0.587 1.286 3.017 1.126 5.043 4.059 5.043 7.301 0 3.243-2.026 6.183-5.041 7.313-0.517 0.195-0.779 0.77-0.586 1.287 0.151 0.402 0.532 0.649 0.937 0.649 0.117 0 0.235-0.020 0.351-0.064 3.792-1.422 6.34-5.113 6.34-9.186s-2.55-7.759-6.344-9.175z"></path>
</svg>
