
<svg version="1.1" xmlns="http://www.w3.org/2000/svg" width="32" height="32" viewBox="0 0 32 32">
<title>volume-1</title>
<path d="M20.462 2.059c-0.326-0.173-0.721-0.154-1.029 0.053l-10.034 7.878-3.332 0.002c-1.704 0-3.090 1.208-3.090 2.7l0.054 6.598c0 1.486 1.386 2.695 3.089 2.695l3.331 0.002 9.981 7.898c0.168 0.113 0.363 0.171 0.559 0.171 0.161 0 0.323-0.039 0.469-0.117 0.327-0.173 0.532-0.512 0.532-0.883v-26.115c-0-0.369-0.204-0.709-0.53-0.883zM18.991 27.176l-8.675-7.016c-0.165-0.111-0.36-0.171-0.559-0.171l-3.637-0.002c-0.642 0-1.090-0.366-1.090-0.702l-0.053-6.598c0-0.328 0.448-0.693 1.090-0.693l3.638-0.002c0.198 0 0.393-0.059 0.558-0.171l8.729-7v22.355zM24.682 10.864c-0.553-0.091-1.061 0.277-1.152 0.822s0.277 1.060 0.822 1.151c1.573 0.262 2.671 1.635 2.671 3.336 0 1.62-1.137 3.021-2.703 3.334-0.542 0.108-0.893 0.634-0.785 1.176 0.095 0.476 0.512 0.805 0.98 0.805 0.064 0 0.131-0.006 0.197-0.020 2.499-0.497 4.313-2.725 4.313-5.295-0-2.657-1.826-4.89-4.341-5.309z"></path>
</svg>
