<svg   xmlns="http://www.w3.org/2000/svg" viewBox="0 0 32 32"><title>yen_32</title><path d="M27.2,2.74a1.06,1.06,0,0,0-.47-.61l-3.46-2A1,1,0,0,0,21.9.5L16,10.72,10.1.5A1,1,0,0,0,8.73.13l-3.46,2a1.06,1.06,0,0,0-.47.61,1,1,0,0,0,.1.76L10.39,13H7a1,1,0,0,0-1,1v4a1,1,0,0,0,1,1h6v2H7a1,1,0,0,0-1,1v4a1,1,0,0,0,1,1h6v4a1,1,0,0,0,1,1h4a1,1,0,0,0,1-1V27h6a1,1,0,0,0,1-1V22a1,1,0,0,0-1-1H19V19h6a1,1,0,0,0,1-1V14a1,1,0,0,0-1-1H21.61L27.1,3.5A1,1,0,0,0,27.2,2.74ZM7.13,3.37l1.74-1L15,13H12.7ZM17,30H15V27h2Zm7-5H8V23H24Zm-7-4H15V19h2Zm7-4H8V15H24Zm-4.7-4H17L23.13,2.37l1.74,1Z"/></svg>
