<svg xmlns="http://www.w3.org/2000/svg" width="944pt" height="944pt" version="1" viewBox="0 0 944.000000 944.000000"><path d="M466.5 215.7c-1 .3-3 1.2-4.3 2.1-5.1 3.3-127.4 126.8-129.3 130.5-1.4 2.7-1.9 5.5-1.8 9.6.5 14 14.7 22.7 28.1 17.3 1.5-.6 27.5-25.9 57.7-56.2 30.3-30.2 55.3-55 55.7-55 .3 0 25 24.5 54.9 54.4 35.6 35.7 55.8 55.2 58.6 56.7 16 8.1 34.3-10.8 26-26.9-1.1-2.1-29.9-31.7-64.9-66.8-48.6-48.7-63.9-63.5-67.1-64.7-4-1.6-9.5-2-13.6-1zM134.5 356.9C129 359.5 5.5 483 2.9 488.5c-6.6 14.1 5.9 30.5 21.3 28 2.3-.4 5.9-1.8 7.8-3.1 1.9-1.3 27.5-26.5 56.9-55.9s53.7-53.5 54-53.5c.4 0 72.2 71.6 159.6 159.1C390 650.6 462.6 722.7 464 723.2c5.3 2.1 11.6 2.1 16.2 0 3.5-1.5 38.8-36.3 162.8-160.6C730.2 475.4 801.8 404 802.1 404c.4 0 25.4 24.7 55.6 55 30.3 30.2 56.3 55.5 57.9 56.1 11.2 4.5 24.3-1.5 27.4-12.7 1.3-4.7.7-11.4-1.4-15.3-2.3-4.1-126.9-128.2-130.6-130-4.7-2.4-11.6-2.6-16.5-.5-3 1.2-43.6 41.2-162.8 160.5-87.4 87.4-159 158.9-159.3 158.9-.3 0-71.7-71.3-158.7-158.4-87-87.1-159.8-159.3-161.7-160.3-4.8-2.6-12.5-2.8-17.5-.4zM123.8 584.7c-1.6.2-2.8.9-2.8 1.4 0 .5-.6.9-1.3.9-2.1 0-6.3 4.1-8.7 8.4-2.5 4.6-2.8 11.7-.7 16.9 1.1 2.5 19.5 21.6 57.4 59.6 59.4 59.5 57.8 58.1 67.3 58.1 10.7 0 20.8-12.1 18.9-22.6-.5-2.4-1.4-5.5-2.2-6.9C249.8 696.8 141 588 138 586.8c-4.8-2.1-9.9-2.8-14.2-2.1zM809.7 585.6c-4.3 1.3-9.7 6.5-57.8 54.7-29.2 29.3-54.6 55-56.4 57.2-1.8 2.2-3.6 5.6-4 7.5-1.1 4.9-.6 11.2 1.1 13.1.8.8 1.4 1.9 1.4 2.4 0 1.8 7.4 7.5 10.9 8.5 4.6 1.3 7.6 1.3 12.6-.1 3.4-1 12-9.2 58.5-55.8 47.5-47.6 60.2-60.8 59.3-61.8-.1-.2-.1-.8.1-1.5 2.7-8.8-1.7-18.8-10.2-23.2-4.3-2.2-10.2-2.6-15.5-1z"/></svg>
