<?xml version="1.0" standalone="no"?>
<!DOCTYPE svg PUBLIC "-//W3C//DTD SVG 20010904//EN"
 "http://www.w3.org/TR/2001/REC-SVG-20010904/DTD/svg10.dtd">
<svg version="1.0" xmlns="http://www.w3.org/2000/svg"
 width="944.000000pt" height="944.000000pt" viewBox="0 0 944.000000 944.000000"
 preserveAspectRatio="xMidYMid meet">
<metadata>
Created by potrace 1.11, written by Peter Selinger 2001-2013
</metadata>
<g transform="translate(0.000000,944.000000) scale(0.100000,-0.100000)"
fill="#000000" stroke="none">
<path d="M4645 7272 c-45 -21 -1279 -1248 -1313 -1306 -14 -23 -20 -52 -20
-97 0 -58 3 -70 34 -113 24 -32 50 -53 80 -67 53 -22 78 -23 141 -7 43 10 87
52 600 565 304 304 555 553 558 553 3 0 250 -245 549 -545 568 -569 586 -584
669 -585 141 -1 242 162 179 286 -18 35 -1263 1294 -1279 1294 -4 0 -14 7 -24
16 -28 25 -126 29 -174 6z"/>
<path d="M1347 5872 c-25 -11 -248 -226 -663 -641 -343 -344 -624 -628 -624
-632 0 -4 -4 -9 -10 -11 -19 -7 -38 -75 -36 -130 5 -104 95 -188 196 -182 19
0 45 2 57 3 12 0 29 8 37 17 9 8 16 12 16 8 0 -4 248 241 551 544 303 304 554
552 558 552 3 0 719 -714 1591 -1587 1145 -1146 1596 -1591 1625 -1604 47 -21
126 -19 170 4 17 8 744 729 1615 1601 872 872 1588 1586 1591 1586 4 0 256
-249 560 -553 593 -591 577 -578 672 -572 148 10 234 175 157 300 -35 56
-1266 1279 -1307 1297 -48 22 -109 23 -159 2 -29 -12 -462 -440 -1627 -1605
-873 -874 -1590 -1589 -1593 -1589 -2 0 -719 715 -1592 1589 -1169 1171 -1597
1593 -1626 1605 -50 21 -111 20 -159 -2z"/>
<path d="M1250 3592 c-129 -36 -195 -160 -146 -276 11 -26 185 -206 568 -589
304 -304 564 -558 577 -565 13 -8 47 -16 77 -19 113 -12 214 83 214 201 0 22
-8 58 -18 79 -22 48 -1091 1120 -1145 1148 -38 20 -98 30 -127 21z"/>
<path d="M8098 3583 c-40 -13 -109 -79 -594 -564 -301 -301 -558 -564 -569
-583 -70 -116 15 -276 153 -293 97 -11 95 -13 687 580 351 350 551 558 565
586 81 155 -72 328 -242 274z"/>
</g>
</svg>
