<?xml version="1.0" encoding="iso-8859-1"?>
<!-- Generator: Adobe Illustrator 19.2.1, SVG Export Plug-In . SVG Version: 6.00 Build 0)  -->
<svg version="1.1" id="Layer_1" xmlns="http://www.w3.org/2000/svg" xmlns:xlink="http://www.w3.org/1999/xlink" x="0px" y="0px"
	 viewBox="0 0 550.301 67.707" style="enable-background:new 0 0 550.301 67.707;" xml:space="preserve">
<g>
	<g>
		<path style="fill:#AC5CA0;" d="M29.042,65.916c-0.64,0-1.28-0.244-1.768-0.732L14.149,52.059c-0.977-0.977-0.977-2.559,0-3.535
			c0.976-0.977,2.56-0.977,3.535,0L30.81,61.648c0.977,0.977,0.977,2.559,0,3.535C30.322,65.672,29.682,65.916,29.042,65.916z"/>
		<path style="fill:#AC5CA0;" d="M88.458,65.916c-0.64,0-1.279-0.244-1.768-0.732c-0.977-0.977-0.977-2.559,0-3.535l13.125-13.125
			c0.977-0.977,2.559-0.977,3.535,0s0.977,2.559,0,3.535L90.226,65.184C89.738,65.672,89.098,65.916,88.458,65.916z"/>
		<path style="fill:#AC5CA0;" d="M58.75,65.291c-0.663,0-1.299-0.264-1.768-0.732L17.667,25.243L4.268,38.642
			c-0.976,0.977-2.56,0.977-3.535,0c-0.977-0.977-0.977-2.559,0-3.535L15.899,19.94c0.976-0.977,2.56-0.977,3.535,0L58.75,59.256
			L98.066,19.94c0.977-0.977,2.559-0.977,3.535,0l15.167,15.167c0.977,0.977,0.977,2.559,0,3.535s-2.559,0.977-3.535,0
			L99.833,25.243L60.518,64.559C60.049,65.027,59.413,65.291,58.75,65.291z"/>
		<path style="fill:#AC5CA0;" d="M73.917,21.958c-0.64,0-1.279-0.244-1.768-0.732L58.75,7.827L45.351,21.225
			c-0.976,0.977-2.56,0.977-3.535,0c-0.977-0.976-0.977-2.559,0-3.535L56.982,2.523c0.976-0.977,2.56-0.977,3.535,0L75.684,17.69
			c0.977,0.976,0.977,2.559,0,3.535C75.196,21.713,74.556,21.958,73.917,21.958z"/>
	</g>
	<g>
		<g>
			<path style="fill:#632060;" d="M202.244,67.613c-4.958,0-9.479-0.97-13.565-2.911c-4.086-1.939-7.604-4.476-10.55-7.606
				c-2.948-3.13-5.225-6.729-6.833-10.8c-1.608-4.068-2.412-8.231-2.412-12.489c0-4.444,0.854-8.701,2.563-12.771
				c1.708-4.069,4.052-7.668,7.033-10.799c2.98-3.129,6.497-5.618,10.551-7.465C193.083,0.925,197.487,0,202.244,0
				c4.957,0,9.478,0.986,13.565,2.958c4.085,1.972,7.586,4.555,10.5,7.748c2.914,3.193,5.175,6.808,6.783,10.846
				c1.607,4.038,2.412,8.123,2.412,12.255c0,4.508-0.854,8.797-2.563,12.865c-1.708,4.07-4.054,7.653-7.034,10.752
				c-2.981,3.1-6.498,5.573-10.55,7.419C211.303,66.69,206.932,67.613,202.244,67.613z M172.401,33.807
				c0,4.007,0.736,7.857,2.211,11.551c1.473,3.694,3.532,6.965,6.179,9.813c2.646,2.849,5.793,5.117,9.445,6.808
				c3.65,1.69,7.652,2.536,12.007,2.536c4.487,0,8.557-0.893,12.208-2.677c3.65-1.784,6.782-4.116,9.395-6.996
				c2.612-2.879,4.622-6.166,6.029-9.86c1.407-3.693,2.11-7.419,2.11-11.175c0-4.006-0.753-7.855-2.261-11.551
				c-1.507-3.693-3.584-6.963-6.229-9.813c-2.647-2.848-5.795-5.118-9.445-6.808c-3.652-1.69-7.586-2.536-11.807-2.536
				c-4.488,0-8.558,0.892-12.208,2.676c-3.652,1.784-6.783,4.117-9.395,6.996c-2.613,2.88-4.64,6.151-6.079,9.813
				C173.12,26.247,172.401,29.988,172.401,33.807z"/>
			<path style="fill:#632060;" d="M252.282,67.144V0.47h29.341c2.947,0,5.677,0.596,8.189,1.784c2.512,1.19,4.672,2.739,6.48,4.648
				c1.809,1.91,3.216,4.085,4.221,6.526c1.005,2.442,1.507,4.916,1.507,7.419c0,2.567-0.419,5.009-1.256,7.324
				c-0.839,2.317-2.027,4.383-3.567,6.198c-1.541,1.816-3.383,3.319-5.526,4.508c-2.145,1.189-4.521,1.91-7.134,2.159l17.886,26.106
				h-4.02l-17.685-25.73h-24.919v25.73H252.282z M255.799,38.408h26.426c2.478,0,4.738-0.501,6.783-1.503
				c2.042-1,3.768-2.315,5.175-3.943c1.406-1.628,2.494-3.506,3.266-5.635c0.769-2.128,1.155-4.288,1.155-6.479
				c0-2.254-0.452-4.429-1.356-6.527c-0.904-2.097-2.128-3.944-3.668-5.541c-1.542-1.596-3.351-2.878-5.426-3.85
				c-2.077-0.97-4.288-1.456-6.632-1.456h-25.723V38.408z"/>
			<path style="fill:#632060;" d="M314.579,33.337c0-4.006,0.754-7.981,2.261-11.926s3.7-7.497,6.582-10.659
				c2.879-3.161,6.413-5.728,10.601-7.7c4.186-1.972,8.958-2.958,14.318-2.958c6.363,0,11.771,1.361,16.228,4.085
				c4.454,2.723,7.752,6.214,9.897,10.47l-3.015,1.315c-1.341-2.378-2.898-4.381-4.673-6.01c-1.775-1.627-3.702-2.942-5.777-3.944
				c-2.077-1.001-4.22-1.721-6.431-2.16c-2.211-0.438-4.421-0.658-6.632-0.658c-4.757,0-8.993,0.892-12.711,2.676
				c-3.718,1.785-6.85,4.117-9.395,6.996c-2.547,2.88-4.472,6.136-5.777,9.767c-1.307,3.632-1.96,7.294-1.96,10.987
				c0,4.07,0.77,7.981,2.312,11.738c1.54,3.756,3.667,7.059,6.38,9.907c2.713,2.85,5.911,5.117,9.597,6.808
				c3.683,1.69,7.636,2.536,11.856,2.536c2.276,0,4.587-0.266,6.933-0.799c2.345-0.531,4.622-1.346,6.833-2.441
				c2.211-1.095,4.253-2.488,6.129-4.179c1.875-1.69,3.482-3.724,4.823-6.104l3.115,1.126c-1.206,2.505-2.848,4.729-4.924,6.668
				c-2.077,1.941-4.388,3.568-6.933,4.883c-2.547,1.314-5.242,2.301-8.089,2.958c-2.849,0.657-5.611,0.986-8.29,0.986
				c-4.891,0-9.361-1.001-13.414-3.005c-4.054-2.003-7.553-4.616-10.5-7.842c-2.948-3.224-5.242-6.886-6.883-10.986
				C315.398,41.774,314.579,37.595,314.579,33.337z"/>
			<path style="fill:#632060;" d="M446.207,0.47v66.674h-3.416V34.558h-47.427v32.586h-3.517V0.47h3.517v31.083h47.427V0.47H446.207
				z"/>
			<path style="fill:#632060;" d="M468.01,67.144V0.47h3.517v66.674H468.01z"/>
			<path style="fill:#632060;" d="M493.33,67.144V0.47h23.312c5.626,0,10.55,0.877,14.771,2.629c4.22,1.753,7.72,4.132,10.5,7.137
				c2.778,3.005,4.873,6.527,6.28,10.564c1.406,4.038,2.109,8.343,2.109,12.913c0,5.07-0.788,9.657-2.361,13.757
				c-1.574,4.102-3.818,7.606-6.731,10.518c-2.914,2.911-6.448,5.165-10.602,6.762s-8.809,2.395-13.966,2.395H493.33z
				 M546.785,33.713c0-4.382-0.653-8.42-1.959-12.114c-1.307-3.693-3.25-6.886-5.828-9.579c-2.579-2.691-5.745-4.789-9.495-6.292
				c-3.753-1.502-8.039-2.254-12.861-2.254h-19.795v60.664h19.795c4.956,0,9.31-0.766,13.062-2.301
				c3.751-1.533,6.899-3.662,9.445-6.386c2.545-2.724,4.454-5.947,5.728-9.673C546.147,42.056,546.785,38.032,546.785,33.713z"/>
		</g>
	</g>
</g>
</svg>
