<?xml version="1.0" encoding="UTF-8" standalone="no"?>
<svg
   xmlns:dc="http://purl.org/dc/elements/1.1/"
   xmlns:cc="http://creativecommons.org/ns#"
   xmlns:rdf="http://www.w3.org/1999/02/22-rdf-syntax-ns#"
   xmlns:svg="http://www.w3.org/2000/svg"
   xmlns="http://www.w3.org/2000/svg"
   version="1.1"
   id="svg5401"
   height="512"
   width="512">
  <metadata
     id="metadata5438">
    <rdf:RDF>
      <cc:Work
         rdf:about="">
        <dc:format>image/svg+xml</dc:format>
        <dc:type
           rdf:resource="http://purl.org/dc/dcmitype/StillImage" />
        <dc:title></dc:title>
      </cc:Work>
    </rdf:RDF>
  </metadata>
  <defs
     id="defs5436" />
  <path
     id="body-bg-flat"
     style="stroke: none; fill: rgb(255, 255, 255)"
     fill-rule="nonzero"
     d="M 111.000000,504.000000 C 111.000000,504.000000 100.698120,413.688873 189.440002,403.613342 C 189.440002,403.613342 227.413330,403.613342 227.413330,403.613342 C 227.413330,403.613342 227.413330,386.119995 227.413330,386.119995 C 227.413330,386.119995 254.125000,397.593323 281.173340,387.399994 C 281.173340,387.399994 282.026672,403.613342 282.026672,403.613342 C 282.026672,403.613342 326.399994,403.613342 326.399994,403.613342 C 326.399994,403.613342 403.673462,411.327606 399.000000,504.000000 C 399.000000,504.000000 111.000000,504.000000 111.000000,504.000000 Z" />
  <path
     id="Rounded Rectangle 13 copy"
     style="stroke: none; fill: rgb(59, 67, 79)"
     fill-rule="nonzero"
     d="M 398.261932,505.586670 C 398.261932,505.586670 398.261932,505.586670 398.261932,505.586670 C 398.261932,505.586670 113.745544,505.586670 113.745544,505.586670 C 113.745544,505.586670 113.745544,505.586670 113.745544,505.586670 C 113.745544,505.586670 108.227661,505.586670 108.227661,505.586670 C 108.227661,505.586670 109.605011,482.056854 109.605011,482.056854 C 112.294312,436.114624 148.491882,401.053345 189.915009,401.053345 C 189.915009,401.053345 221.440002,401.053345 221.440002,401.053345 C 221.440002,401.053345 221.440002,405.746674 221.440002,405.746674 C 221.440002,405.746674 192.429718,405.746674 192.429718,405.746674 C 152.506348,405.746674 117.619324,439.495087 115.027374,483.717010 C 115.027374,483.717010 114.070648,500.040009 114.070648,500.040009 C 114.070648,500.040009 397.510162,500.040009 397.510162,500.040009 C 397.510162,500.040009 396.980103,483.717010 396.980103,483.717010 C 394.388153,439.495087 359.501129,405.746674 319.577728,405.746674 C 319.577728,405.746674 280.746674,405.746674 280.746674,405.746674 C 280.746674,405.746674 280.746674,401.053345 280.746674,401.053345 C 280.746674,401.053345 321.839417,401.053345 321.839417,401.053345 C 363.262543,401.053345 399.460114,436.114624 402.149414,482.056854 C 402.149414,482.056854 403.526764,505.586670 403.526764,505.586670 C 403.526764,505.586670 398.261932,505.586670 398.261932,505.586670 Z" />
  <path
     id="neck copy 5"
     style="stroke: none; fill: rgb(59, 67, 79)"
     fill-rule="nonzero"
     d="M 231.679993,384.146088 C 231.679993,384.146088 231.679993,410.461182 231.679993,410.461182 C 231.679993,424.116669 242.759460,435.186676 256.426666,435.186676 C 270.093872,435.186676 281.173340,424.116669 281.173340,410.461182 C 281.173340,410.461182 281.173340,384.688995 281.173340,384.688995 C 282.609497,384.251862 284.032135,383.777069 285.440002,383.264130 C 285.440002,383.264130 285.440002,410.640289 285.440002,410.640289 C 285.440002,426.788910 272.354797,439.880005 256.213348,439.880005 C 240.071899,439.880005 226.986664,426.788910 226.986664,410.640289 C 226.986664,410.640289 226.986664,382.453674 226.986664,382.453674 C 228.532501,383.064911 230.098206,383.627106 231.679993,384.146088 Z" />
  <path
     id="Rounded Rectangle 14"
     style="stroke: none; fill: rgb(59, 67, 79)"
     fill-rule="nonzero"
     d="M 226.773346,434.760010 C 228.304993,434.760010 229.546661,436.001648 229.546661,437.533325 C 229.546661,437.533325 229.546661,479.346649 229.546661,479.346649 C 229.546661,480.878326 228.304993,482.119995 226.773346,482.119995 C 225.241669,482.119995 224.000000,480.878326 224.000000,479.346649 C 224.000000,479.346649 224.000000,437.533325 224.000000,437.533325 C 224.000000,436.001648 225.241669,434.760010 226.773346,434.760010 Z" />
  <path
     id="Rounded Rectangle 15"
     style="stroke: none; fill: rgb(59, 67, 79)"
     fill-rule="nonzero"
     d="M 285.013336,434.333344 C 286.662811,434.333344 288.000000,435.670502 288.000000,437.320007 C 288.000000,437.320007 288.000000,463.346649 288.000000,463.346649 C 288.000000,464.996155 286.662811,466.333344 285.013336,466.333344 C 283.363831,466.333344 282.026672,464.996155 282.026672,463.346649 C 282.026672,463.346649 282.026672,437.320007 282.026672,437.320007 C 282.026672,435.670502 283.363831,434.333344 285.013336,434.333344 Z" />
  <path
     id="Rounded Rectangle 16"
     style="stroke: none; fill: rgb(59, 67, 79)"
     fill-rule="nonzero"
     d="M 226.773346,479.133331 C 227.598083,479.133331 228.266663,479.801910 228.266663,480.626678 C 228.266663,480.626678 228.266663,491.293335 228.266663,491.293335 C 228.266663,492.118073 227.598083,492.786652 226.773346,492.786652 C 225.948578,492.786652 225.279999,492.118073 225.279999,491.293335 C 225.279999,491.293335 225.279999,480.626678 225.279999,480.626678 C 225.279999,479.801910 225.948578,479.133331 226.773346,479.133331 Z" />
  <path
     id="Rounded Rectangle 16 copy"
     style="stroke: none; fill: rgb(59, 67, 79)"
     fill-rule="nonzero"
     d="M 285.226654,463.346649 C 286.051422,463.346649 286.720001,464.015259 286.720001,464.839996 C 286.720001,464.839996 286.720001,475.506653 286.720001,475.506653 C 286.720001,476.331421 286.051422,477.000000 285.226654,477.000000 C 284.401917,477.000000 283.733337,476.331421 283.733337,475.506653 C 283.733337,475.506653 283.733337,464.839996 283.733337,464.839996 C 283.733337,464.015259 284.401917,463.346649 285.226654,463.346649 Z" />
  <path
     id="Shape 1 copy"
     style="stroke: none; fill: rgb(245, 243, 239)"
     fill-rule="nonzero"
     d="M 210.765503,373.646149 C 210.765503,373.646149 183.741852,379.851379 183.741852,379.851379 C 183.741852,379.851379 150.648834,387.347412 172.665649,409.650940 C 194.682495,431.954468 251.306671,435.893341 251.306671,435.893341 C 251.306671,435.893341 236.335297,428.802094 229.973328,418.826660 C 229.973328,418.826660 227.839996,382.986664 227.839996,382.986664 C 227.839996,382.986664 210.765503,373.646149 210.765503,373.646149 Z" />
  <path
     id="Shape 1 copy 2"
     style="stroke: none; fill: rgb(59, 67, 79)"
     fill-rule="evenodd"
     d="M 252.160004,438.026672 C 250.483246,440.148926 203.333374,438.689697 170.666656,410.293335 C 147.014038,389.732666 182.613342,377.866669 182.613342,377.866669 C 182.613342,377.866669 208.640015,371.893341 208.640015,371.893341 C 208.640015,371.893341 231.253326,383.413330 231.253326,383.413330 C 231.253326,383.413330 232.959991,417.973328 232.959991,417.973328 C 242.479462,432.899689 254.859344,434.610107 252.160004,438.026672 Z M 228.693329,419.679993 C 228.693329,419.679993 226.133331,383.413330 226.133331,383.413330 C 226.133331,383.413330 212.480011,375.733337 212.480011,375.733337 C 212.480011,375.733337 186.453339,382.133331 186.453339,382.133331 C 186.453339,382.133331 154.928406,388.597870 174.933319,407.306671 C 196.522644,427.497131 236.461578,432.915588 240.640015,432.480011 C 244.970764,432.028503 238.212799,434.606384 228.693329,419.679993 Z" />
  <path
     id="Shape 1 copy 4"
     style="stroke: none; fill: rgb(245, 243, 239)"
     fill-rule="nonzero"
     d="M 302.059265,374.651398 C 302.059265,374.651398 329.098938,380.875214 329.098938,380.875214 C 329.098938,380.875214 362.211548,388.393677 340.181702,410.764008 C 318.151794,433.134338 261.494049,437.084991 261.494049,437.084991 C 261.494049,437.084991 276.474335,429.972534 282.840027,419.967224 C 282.840027,419.967224 284.974640,384.019897 284.974640,384.019897 C 284.974640,384.019897 302.059265,374.651398 302.059265,374.651398 Z" />
  <path
     id="Shape 1 copy 6"
     style="stroke: none; fill: rgb(59, 67, 79)"
     fill-rule="evenodd"
     d="M 260.640228,438.798035 C 262.317963,440.926666 309.495789,439.463074 342.181854,410.981659 C 365.848511,390.359406 330.228119,378.457886 330.228119,378.457886 C 330.228119,378.457886 304.186005,372.466675 304.186005,372.466675 C 304.186005,372.466675 281.559296,384.021149 281.559296,384.021149 C 281.559296,384.021149 279.851593,418.684662 279.851593,418.684662 C 270.326508,433.655731 257.939301,435.371246 260.640228,438.798035 Z M 284.120789,420.396423 C 284.120789,420.396423 286.682312,384.021149 286.682312,384.021149 C 286.682312,384.021149 300.343750,376.318176 300.343750,376.318176 C 300.343750,376.318176 326.385834,382.737335 326.385834,382.737335 C 326.385834,382.737335 357.929474,389.221222 337.912659,407.986053 C 316.310547,428.237000 276.347931,433.671661 272.167053,433.234772 C 267.833710,432.781921 274.595703,435.367493 284.120789,420.396423 Z" />
  <path
     id="2 copy 5"
     style="stroke: none; fill: rgb(255, 255, 255)"
     fill-rule="nonzero"
     d="M 256.214661,116.466644 C 309.292542,116.466644 351.186951,166.067871 349.824738,225.664948 C 349.824738,225.664948 348.376923,289.006104 348.376923,289.006104 C 347.093597,345.152466 305.845428,389.533325 256.214661,389.533325 C 206.583893,389.533325 165.335724,345.152466 164.052399,289.006104 C 164.052399,289.006104 162.604584,225.664948 162.604584,225.664948 C 161.242401,166.067871 203.136780,116.466644 256.214661,116.466644 Z" />
  <path
     id="2 line"
     style="stroke: none; fill: rgb(59, 67, 79)"
     fill-rule="evenodd"
     d="M 354.089386,223.701141 C 354.089386,223.701141 352.572327,289.615509 352.572327,289.615509 C 351.227631,348.042816 308.006287,394.226654 256.001404,394.226654 C 203.996490,394.226654 160.775177,348.042816 159.430450,289.615509 C 159.430450,289.615509 157.913361,223.701141 157.913361,223.701141 C 156.486023,161.682922 200.384491,110.066650 256.001404,110.066650 C 311.618317,110.066650 355.516754,161.682922 354.089386,223.701141 Z M 255.788300,116.893311 C 203.436035,116.893311 162.114380,166.107025 163.457916,225.238495 C 163.457916,225.238495 164.885956,288.084808 164.885956,288.084808 C 166.151733,343.792511 206.836029,387.826660 255.788300,387.826660 C 304.740570,387.826660 345.424835,343.792511 346.690613,288.084808 C 346.690613,288.084808 348.118622,225.238495 348.118622,225.238495 C 349.462219,166.107025 308.140564,116.893311 255.788300,116.893311 Z" />
  <path
     opacity="0.058824"
     id="1 copy 4"
     style="stroke: none; fill: rgb(59, 67, 79)"
     fill-rule="evenodd"
     d="M 351.426666,234.653320 C 351.426666,234.653320 347.160004,304.626678 347.160004,304.626678 C 347.160004,304.626678 328.209778,385.397614 255.000000,394.961365 C 255.000000,394.961365 255.000000,395.079987 255.000000,395.079987 C 254.856110,395.062408 254.716797,395.038818 254.573334,395.020691 C 254.429871,395.038818 254.290558,395.062408 254.146667,395.079987 C 254.146667,395.079987 254.146667,394.961365 254.146667,394.961365 C 180.936920,385.397614 161.986664,304.626678 161.986664,304.626678 C 161.986664,304.626678 157.720001,234.653320 157.720001,234.653320 C 176.717773,318.980011 192.706665,324.253357 192.706665,324.253357 C 189.471100,298.682220 215.746674,301.213348 215.746674,301.213348 C 231.760803,303.918427 244.509155,305.225616 254.573334,305.714325 C 264.637543,305.225616 277.385864,303.918427 293.399994,301.213348 C 293.399994,301.213348 319.675537,298.682220 316.440002,324.253357 C 316.440002,324.253357 332.428894,318.980011 351.426666,234.653320 Z M 303.983093,332.926392 C 302.741058,317.884766 293.670868,319.160217 293.670868,319.160217 C 277.546234,323.904846 264.888733,326.540649 255.000000,327.880249 C 255.000000,327.880249 255.000000,327.781921 255.000000,327.781921 C 245.180511,326.453247 232.611664,323.839081 216.600006,319.133331 C 216.600006,319.133331 207.593323,317.868317 206.359985,332.786682 C 206.359985,332.786682 202.743317,347.733337 214.893341,354.119995 C 214.893341,354.119995 230.253326,370.333344 230.253326,370.333344 C 230.253326,370.333344 240.750000,373.660004 240.493347,360.946655 C 240.493347,360.946655 239.424988,351.464996 245.613342,349.853333 C 245.613342,349.853333 255.000000,349.853333 255.000000,349.853333 C 255.000000,349.853333 255.000000,350.134094 255.000000,350.134094 C 255.000000,350.134094 264.452881,350.134094 264.452881,350.134094 C 270.684875,351.759094 269.609009,361.319122 269.609009,361.319122 C 269.350525,374.137543 279.921204,370.783356 279.921204,370.783356 C 279.921204,370.783356 295.389557,354.436035 295.389557,354.436035 C 307.625275,347.996582 303.983093,332.926392 303.983093,332.926392 Z" />
  <path
     id="usta"
     style="stroke: none; fill: rgb(59, 67, 79)"
     fill-rule="nonzero"
     d="M 302.079987,327.325928 C 294.324768,334.059753 276.808014,340.466644 256.426697,340.466644 C 236.045349,340.466644 218.528595,334.059753 210.773346,327.325928 C 210.773346,327.325928 209.979889,325.142639 211.144043,323.978485 C 212.329742,322.792786 214.186676,323.050842 214.186676,323.050842 C 221.933777,329.789246 236.037567,335.346680 256.426697,335.346680 C 276.815796,335.346680 290.919586,329.789246 298.666687,323.050842 C 298.666687,323.050842 300.561707,322.346893 301.482269,323.267456 C 303.255310,325.040497 302.079987,327.325928 302.079987,327.325928 Z" />
  <path
     id="-"
     style="stroke: none; fill: rgb(59, 67, 79)"
     fill-rule="nonzero"
     d="M 242.346680,350.706665 C 242.346680,350.706665 269.653351,350.706665 269.653351,350.706665 C 269.653351,350.706665 269.653351,354.973328 269.653351,354.973328 C 269.653351,354.973328 242.346680,354.973328 242.346680,354.973328 C 242.346680,354.973328 242.346680,350.706665 242.346680,350.706665 Z" />
  <path
     id="Shape 11 copy"
     style="stroke: none; fill: rgb(255, 255, 255)"
     fill-rule="nonzero"
     d="M 157.807220,233.313141 C 157.795441,233.313812 156.759613,232.486603 154.803619,231.870758 C 153.826019,231.563507 152.611023,231.310760 151.226166,231.248444 C 150.880310,231.232880 150.524353,231.229187 150.160126,231.239532 C 149.795898,231.249878 149.423370,231.274231 149.044708,231.314667 C 148.287476,231.395569 147.505402,231.540955 146.718414,231.767334 C 143.567261,232.672913 140.352692,234.874664 138.464783,239.419098 C 137.517090,241.691437 136.891907,244.549713 136.726624,248.125916 C 136.685272,249.019989 136.672638,249.958923 136.690765,250.944794 C 136.708923,251.930664 136.757874,252.963470 136.839630,254.045288 C 137.003052,256.208832 137.298157,258.568451 137.737854,261.139679 C 137.728241,261.137146 137.327759,268.909668 140.106445,277.840820 C 142.718689,286.572784 148.991516,297.299225 160.573334,300.364410 C 159.241302,278.185028 159.199921,255.589905 157.807220,233.313141 C 157.807220,233.313141 157.807220,233.313141 157.807220,233.313141 Z" />
  <path
     id="Shape 3"
     style="stroke: none; fill: rgb(59, 67, 79)"
     fill-rule="nonzero"
     d="M 159.127869,234.207275 C 159.127869,234.207275 138.951477,227.955597 139.661530,248.698090 C 139.661530,248.698090 142.665436,278.775360 143.969879,281.547363 C 143.969879,281.547363 151.893707,299.059387 164.970856,299.835480 C 177.751862,300.593994 164.970856,299.835480 164.970856,299.835480 C 164.970856,299.835480 165.129578,305.480011 165.129578,305.480011 C 165.129578,305.480011 142.144928,302.533020 137.705597,276.045410 C 137.705597,276.045410 134.201721,251.982697 134.201721,251.982697 C 134.201721,251.982697 131.481110,220.138062 157.871185,228.234802 C 183.580475,236.122681 157.871185,228.234802 157.871185,228.234802 C 157.871185,228.234802 159.127869,234.207275 159.127869,234.207275 " />
  <path
     id="Shape 4"
     style="stroke: none; fill: rgb(59, 67, 79)"
     fill-rule="nonzero"
     d="M 152.468323,275.994812 C 152.468323,275.994812 151.339172,276.848145 150.369171,276.848145 C 149.399170,276.848145 148.283783,275.994812 148.283783,275.994812 C 148.283783,275.994812 146.201569,255.012024 146.201569,255.012024 C 146.201569,255.012024 149.074493,244.678558 161.265381,250.139496 C 161.265381,250.139496 161.553558,256.139221 161.553558,256.139221 C 161.553558,256.139221 150.857910,252.346008 151.079071,257.069427 C 151.291962,261.615967 152.468323,275.994812 152.468323,275.994812 Z" />
  <path
     id="Shape 11 copy_1"
     style="stroke: none; fill: rgb(255, 255, 255)"
     fill-rule="nonzero"
     d="M 353.813416,233.362122 C 353.825256,233.362793 354.865631,232.536163 356.830170,231.920715 C 357.812073,231.613678 359.032379,231.361115 360.423309,231.298828 C 360.770660,231.283295 361.128174,231.279602 361.494019,231.289948 C 361.859833,231.300262 362.233978,231.324615 362.614319,231.365021 C 363.374847,231.445862 364.160370,231.591156 364.950806,231.817383 C 368.115753,232.722351 371.344391,234.922607 373.240570,239.463959 C 374.192413,241.734741 374.820343,244.591064 374.986328,248.164856 C 375.027863,249.058319 375.040558,249.996613 375.022369,250.981812 C 375.004120,251.967010 374.954956,252.999115 374.872833,254.080200 C 374.708710,256.242279 374.412292,258.600311 373.970673,261.169769 C 373.980347,261.167236 374.382568,268.934509 371.591705,277.859589 C 368.968048,286.585632 362.667725,297.304779 351.035187,300.367889 C 352.373047,278.203552 352.414612,255.623779 353.813416,233.362122 C 353.813416,233.362122 353.813416,233.362122 353.813416,233.362122 Z" />
  <path
     id="Shape 3_1"
     style="stroke: none; fill: rgb(59, 67, 79)"
     fill-rule="nonzero"
     d="M 352.482605,234.255676 C 352.482605,234.255676 372.747375,228.008240 372.034210,248.736633 C 372.034210,248.736633 369.017151,278.793488 367.706970,281.563599 C 367.706970,281.563599 359.748444,299.063751 346.614044,299.839325 C 333.777039,300.597321 346.614044,299.839325 346.614044,299.839325 C 346.614044,299.839325 346.454620,305.480011 346.454620,305.480011 C 346.454620,305.480011 369.539917,302.535034 373.998688,276.065399 C 373.998688,276.065399 377.517914,252.019012 377.517914,252.019012 C 377.517914,252.019012 380.250458,220.195984 353.744781,228.287231 C 327.922913,236.169769 353.744781,228.287231 353.744781,228.287231 C 353.744781,228.287231 352.482605,234.255676 352.482605,234.255676 " />
  <path
     id="Shape 4_1"
     style="stroke: none; fill: rgb(59, 67, 79)"
     fill-rule="nonzero"
     d="M 359.171326,276.014832 C 359.171326,276.014832 360.305420,276.867584 361.279663,276.867584 C 362.253906,276.867584 363.374176,276.014832 363.374176,276.014832 C 363.374176,276.014832 365.465515,255.046295 365.465515,255.046295 C 365.465515,255.046295 362.580017,244.719849 350.335724,250.177063 C 350.335724,250.177063 350.046295,256.172729 350.046295,256.172729 C 350.046295,256.172729 360.788788,252.382080 360.566650,257.102295 C 360.352844,261.645752 359.171326,276.014832 359.171326,276.014832 Z" />
  <path
     display="none"
     id="Rectangle 12"
     style="stroke: none; fill: rgb(233, 239, 239)"
     fill-rule="nonzero"
     d="M 261.973328,257.693329 C 261.973328,257.693329 265.386688,257.693329 265.386688,257.693329 C 265.386688,257.693329 265.386688,294.386658 265.386688,294.386658 C 265.386688,294.386658 261.973328,294.386658 261.973328,294.386658 C 261.973328,294.386658 261.973328,257.693329 261.973328,257.693329 Z" />
  <path
     display="none"
     id="Shape 5"
     style="stroke: none; fill: rgb(59, 67, 79)"
     fill-rule="nonzero"
     d="M 264.810760,275.955231 C 264.810760,275.955231 262.521942,276.486481 262.521942,276.486481 C 264.060394,280.800751 268.272034,290.181519 266.943390,294.716766 C 265.599976,299.302521 258.864746,298.409760 255.181122,301.220825 C 255.181122,301.220825 256.870850,302.974121 256.870850,302.974121 C 260.873749,299.914825 267.849854,300.472626 269.310608,295.486359 C 270.767578,290.513031 266.518219,280.680634 264.810760,275.955231 Z" />
  <path
     id="new_vector_shape_done"
     style="stroke: none; fill: rgb(59, 67, 79)"
     fill-rule="evenodd"
     d="M 263.893341,274.333344 C 264.391052,274.333344 264.888947,274.333344 265.386658,274.333344 C 268.474121,278.526306 269.730225,284.969757 271.359985,290.546661 C 271.865051,292.274963 271.375061,295.297974 270.933319,296.519989 C 269.315552,300.995514 264.235687,300.915192 260.053345,302.919983 C 258.930115,303.458435 258.094604,304.387817 256.640015,304.626678 C 255.691711,303.791351 254.546722,303.627289 254.079987,302.279999 C 252.927673,300.693268 254.412811,299.702393 255.573334,299.079987 C 257.679565,297.950409 264.181488,296.837097 264.959991,294.813324 C 265.923218,293.717590 265.282745,290.423157 264.959991,289.266663 C 264.133392,286.304504 263.736633,283.831543 262.613342,281.160004 C 261.867188,279.385498 260.557159,277.514496 261.333344,275.399994 C 261.976532,275.123810 263.366638,274.809784 263.893341,274.333344 Z" />
  <path
     id="Rounded Rectangle 9"
     style="stroke: none; fill: rgb(59, 67, 79)"
     fill-rule="nonzero"
     d="M 201.813324,244.210663 C 201.813324,244.210663 217.173340,244.210663 217.173340,244.210663 C 219.294098,244.210663 221.013336,246.273743 221.013336,248.818665 C 221.013336,251.363586 219.294098,253.426666 217.173340,253.426666 C 217.173340,253.426666 201.813324,253.426666 201.813324,253.426666 C 199.692566,253.426666 197.973328,251.363586 197.973328,248.818665 C 197.973328,246.273743 199.692566,244.210663 201.813324,244.210663 Z" />
  <path
     id="Rounded Rectangle 9 copy"
     style="stroke: none; fill: rgb(59, 67, 79)"
     fill-rule="nonzero"
     d="M 295.679993,243.186676 C 295.679993,243.186676 311.040009,243.186676 311.040009,243.186676 C 313.160767,243.186676 314.880005,245.249725 314.880005,247.794678 C 314.880005,250.339600 313.160767,252.402649 311.040009,252.402649 C 311.040009,252.402649 295.679993,252.402649 295.679993,252.402649 C 293.559235,252.402649 291.839996,250.339600 291.839996,247.794678 C 291.839996,245.249725 293.559235,243.186676 295.679993,243.186676 Z" />
  <path
     id="Ellipse 3"
     style="stroke: none; fill: rgb(237, 241, 241)"
     fill-rule="nonzero"
     d="M 307.626678,269.640015 C 313.517700,269.640015 318.293335,274.415649 318.293335,280.306671 C 318.293335,286.197693 313.517700,290.973328 307.626678,290.973328 C 301.735626,290.973328 296.960022,286.197693 296.960022,280.306671 C 296.960022,274.415649 301.735626,269.640015 307.626678,269.640015 Z" />
  <path
     id="Ellipse 3 copy"
     style="stroke: none; fill: rgb(237, 241, 241)"
     fill-rule="nonzero"
     d="M 204.373352,269.640015 C 210.264374,269.640015 215.040009,274.415649 215.040009,280.306671 C 215.040009,286.197693 210.264374,290.973328 204.373352,290.973328 C 198.482300,290.973328 193.706696,286.197693 193.706696,280.306671 C 193.706696,274.415649 198.482300,269.640015 204.373352,269.640015 Z" />
  <path
     id="glasses"
     style="stroke: none; fill: rgb(59, 68, 79)"
     fill-rule="evenodd"
     d="M 348.939911,228.879608 C 348.362732,233.809509 347.855652,239.842255 346.789673,245.235870 C 343.602081,261.364380 329.743378,276.307343 306.079590,278.009949 C 282.415833,279.712555 262.275787,267.799591 261.095551,251.401581 C 260.895447,248.621277 260.360138,245.501251 259.949341,242.467896 C 256.600494,240.611298 253.148895,240.607056 249.594574,242.455261 C 249.179474,245.557281 248.623993,248.759369 248.419128,251.606171 C 247.235199,268.058533 227.031647,280.010986 203.293243,278.302734 C 179.554840,276.594482 165.652435,261.602020 162.454773,245.420044 C 161.385437,240.008545 160.876770,233.955811 160.297760,229.009552 C 160.297760,229.009552 156.809448,228.758514 156.809448,228.758514 C 156.809448,228.758514 157.299438,221.949463 157.299438,221.949463 C 157.299438,221.949463 158.150574,222.010712 158.150574,222.010712 C 158.150574,222.010712 179.739105,223.564270 179.739105,223.564270 C 179.739105,223.564270 197.962189,224.875641 197.962189,224.875641 C 197.962189,224.875641 216.219147,226.189423 216.219147,226.189423 C 216.219147,226.189423 244.655823,228.235779 244.655823,228.235779 C 246.617004,228.483826 247.921082,229.324921 248.760895,230.580536 C 252.844788,232.368225 256.811005,232.375366 260.659515,230.601654 C 261.491730,229.265259 262.813354,228.365540 264.847015,228.108368 C 264.847015,228.108368 293.194305,226.068787 293.194305,226.068787 C 293.194305,226.068787 311.393890,224.759338 311.393890,224.759338 C 311.393890,224.759338 329.559692,223.452301 329.559692,223.452301 C 329.559692,223.452301 351.080353,221.903870 351.080353,221.903870 C 351.080353,221.903870 351.928802,221.842834 351.928802,221.842834 C 351.928802,221.842834 352.417267,228.629395 352.417267,228.629395 C 352.417267,228.629395 348.939911,228.879608 348.939911,228.879608 Z M 237.019867,236.237274 C 237.019867,236.237274 181.288300,232.226746 181.288300,232.226746 C 173.999054,231.598328 171.415344,239.789520 170.966095,246.032532 C 170.018951,259.194397 184.684265,270.974823 203.721985,272.344818 C 222.759705,273.714783 238.960663,264.155579 239.907806,250.993683 C 240.357056,244.750702 242.396210,240.895111 237.019867,236.237274 Z M 338.305115,245.846344 C 337.857269,239.623962 335.281677,231.459808 328.015350,232.086151 C 328.015350,232.086151 272.458984,236.083435 272.458984,236.083435 C 267.099548,240.725922 269.132294,244.568726 269.580109,250.791107 C 270.524292,263.909515 286.674316,273.437164 305.652191,272.071686 C 324.630066,270.706238 339.249298,258.964722 338.305115,245.846344 Z" />
  <path
     id="Shape 7"
     style="stroke: none; fill: rgb(59, 67, 79)"
     fill-rule="nonzero"
     d="M 163.016968,261.106659 C 163.016968,261.106659 174.886597,209.110748 185.215393,194.888000 C 195.544189,180.665253 204.482269,177.263428 209.121399,176.828369 C 213.760529,176.393341 250.293213,187.192657 300.476440,174.821716 C 300.476440,174.821716 320.263580,174.032013 328.651367,193.884705 C 328.651367,193.884705 346.335724,225.522369 349.142212,257.093414 C 349.142212,257.093414 352.557343,257.093414 352.557343,257.093414 C 352.557343,257.093414 359.794525,201.750519 356.826324,168.801849 C 353.858032,135.853210 310.721863,119.639526 310.721863,119.639526 C 310.721863,119.639526 320.113495,112.616302 320.113495,112.616302 C 320.113495,112.616302 298.186890,105.838074 289.377228,109.606415 C 289.377228,109.606415 296.207489,95.559998 296.207489,95.559998 C 296.207489,95.559998 251.957397,95.648193 227.050873,115.626251 C 227.050873,115.626251 227.904663,105.593109 227.904663,105.593109 C 227.904663,105.593109 140.114838,119.055573 158.748047,259.100037 C 158.748047,259.100037 163.016968,261.106659 163.016968,261.106659 Z" />
</svg>
