<?xml version="1.0" encoding="UTF-8" standalone="no"?>
<svg
   xmlns:dc="http://purl.org/dc/elements/1.1/"
   xmlns:cc="http://creativecommons.org/ns#"
   xmlns:rdf="http://www.w3.org/1999/02/22-rdf-syntax-ns#"
   xmlns:svg="http://www.w3.org/2000/svg"
   xmlns="http://www.w3.org/2000/svg"
   version="1.1"
   id="svg4155"
   height="512"
   width="512">
  <metadata
     id="metadata4190">
    <rdf:RDF>
      <cc:Work
         rdf:about="">
        <dc:format>image/svg+xml</dc:format>
        <dc:type
           rdf:resource="http://purl.org/dc/dcmitype/StillImage" />
        <dc:title></dc:title>
      </cc:Work>
    </rdf:RDF>
  </metadata>
  <defs
     id="defs4188" />
  <path
     id="body-bg-flat"
     style="stroke: none; fill: rgb(255, 255, 255)"
     fill-rule="nonzero"
     d="M 112.000000,504.000000 C 112.000000,504.000000 101.698120,413.688873 190.440002,403.613342 C 190.440002,403.613342 228.413330,403.613342 228.413330,403.613342 C 228.413330,403.613342 228.413330,386.119995 228.413330,386.119995 C 228.413330,386.119995 255.125000,397.593323 282.173340,387.399994 C 282.173340,387.399994 283.026672,403.613342 283.026672,403.613342 C 283.026672,403.613342 327.399994,403.613342 327.399994,403.613342 C 327.399994,403.613342 404.673462,411.327606 400.000000,504.000000 C 400.000000,504.000000 112.000000,504.000000 112.000000,504.000000 Z" />
  <path
     id="Rounded Rectangle 13 copy"
     style="stroke: none; fill: rgb(59, 67, 79)"
     fill-rule="nonzero"
     d="M 399.261932,505.586670 C 399.261932,505.586670 399.261932,505.586670 399.261932,505.586670 C 399.261932,505.586670 114.745544,505.586670 114.745544,505.586670 C 114.745544,505.586670 114.745544,505.586670 114.745544,505.586670 C 114.745544,505.586670 109.227661,505.586670 109.227661,505.586670 C 109.227661,505.586670 110.605011,482.056854 110.605011,482.056854 C 113.294312,436.114624 149.491882,401.053345 190.915009,401.053345 C 190.915009,401.053345 222.440002,401.053345 222.440002,401.053345 C 222.440002,401.053345 222.440002,405.746674 222.440002,405.746674 C 222.440002,405.746674 193.429718,405.746674 193.429718,405.746674 C 153.506348,405.746674 118.619324,439.495087 116.027374,483.717010 C 116.027374,483.717010 115.070648,500.040009 115.070648,500.040009 C 115.070648,500.040009 398.510162,500.040009 398.510162,500.040009 C 398.510162,500.040009 397.980103,483.717010 397.980103,483.717010 C 395.388153,439.495087 360.501129,405.746674 320.577728,405.746674 C 320.577728,405.746674 281.746674,405.746674 281.746674,405.746674 C 281.746674,405.746674 281.746674,401.053345 281.746674,401.053345 C 281.746674,401.053345 322.839417,401.053345 322.839417,401.053345 C 364.262543,401.053345 400.460114,436.114624 403.149414,482.056854 C 403.149414,482.056854 404.526764,505.586670 404.526764,505.586670 C 404.526764,505.586670 399.261932,505.586670 399.261932,505.586670 Z" />
  <path
     id="neck copy 5"
     style="stroke: none; fill: rgb(59, 67, 79)"
     fill-rule="nonzero"
     d="M 232.679993,384.146088 C 232.679993,384.146088 232.679993,410.461182 232.679993,410.461182 C 232.679993,424.116669 243.759460,435.186676 257.426666,435.186676 C 271.093872,435.186676 282.173340,424.116669 282.173340,410.461182 C 282.173340,410.461182 282.173340,384.688995 282.173340,384.688995 C 283.609497,384.251862 285.032135,383.777069 286.440002,383.264130 C 286.440002,383.264130 286.440002,410.640289 286.440002,410.640289 C 286.440002,426.788910 273.354797,439.880005 257.213348,439.880005 C 241.071899,439.880005 227.986664,426.788910 227.986664,410.640289 C 227.986664,410.640289 227.986664,382.453674 227.986664,382.453674 C 229.532501,383.064911 231.098206,383.627106 232.679993,384.146088 Z" />
  <path
     id="Rounded Rectangle 14"
     style="stroke: none; fill: rgb(59, 67, 79)"
     fill-rule="nonzero"
     d="M 227.773346,434.760010 C 229.304993,434.760010 230.546661,436.001648 230.546661,437.533325 C 230.546661,437.533325 230.546661,479.346649 230.546661,479.346649 C 230.546661,480.878326 229.304993,482.119995 227.773346,482.119995 C 226.241669,482.119995 225.000000,480.878326 225.000000,479.346649 C 225.000000,479.346649 225.000000,437.533325 225.000000,437.533325 C 225.000000,436.001648 226.241669,434.760010 227.773346,434.760010 Z" />
  <path
     id="Rounded Rectangle 15"
     style="stroke: none; fill: rgb(59, 67, 79)"
     fill-rule="nonzero"
     d="M 286.013336,434.333344 C 287.662811,434.333344 289.000000,435.670502 289.000000,437.320007 C 289.000000,437.320007 289.000000,463.346649 289.000000,463.346649 C 289.000000,464.996155 287.662811,466.333344 286.013336,466.333344 C 284.363831,466.333344 283.026672,464.996155 283.026672,463.346649 C 283.026672,463.346649 283.026672,437.320007 283.026672,437.320007 C 283.026672,435.670502 284.363831,434.333344 286.013336,434.333344 Z" />
  <path
     id="Rounded Rectangle 16"
     style="stroke: none; fill: rgb(59, 67, 79)"
     fill-rule="nonzero"
     d="M 227.773346,479.133331 C 228.598083,479.133331 229.266663,479.801910 229.266663,480.626678 C 229.266663,480.626678 229.266663,491.293335 229.266663,491.293335 C 229.266663,492.118073 228.598083,492.786652 227.773346,492.786652 C 226.948578,492.786652 226.279999,492.118073 226.279999,491.293335 C 226.279999,491.293335 226.279999,480.626678 226.279999,480.626678 C 226.279999,479.801910 226.948578,479.133331 227.773346,479.133331 Z" />
  <path
     id="Rounded Rectangle 16 copy"
     style="stroke: none; fill: rgb(59, 67, 79)"
     fill-rule="nonzero"
     d="M 286.226654,463.346649 C 287.051422,463.346649 287.720001,464.015259 287.720001,464.839996 C 287.720001,464.839996 287.720001,475.506653 287.720001,475.506653 C 287.720001,476.331421 287.051422,477.000000 286.226654,477.000000 C 285.401917,477.000000 284.733337,476.331421 284.733337,475.506653 C 284.733337,475.506653 284.733337,464.839996 284.733337,464.839996 C 284.733337,464.015259 285.401917,463.346649 286.226654,463.346649 Z" />
  <path
     id="Shape 1 copy"
     style="stroke: none; fill: rgb(245, 243, 239)"
     fill-rule="nonzero"
     d="M 211.765503,373.646149 C 211.765503,373.646149 184.741852,379.851379 184.741852,379.851379 C 184.741852,379.851379 151.648834,387.347412 173.665649,409.650940 C 195.682495,431.954468 252.306671,435.893341 252.306671,435.893341 C 252.306671,435.893341 237.335297,428.802094 230.973328,418.826660 C 230.973328,418.826660 228.839996,382.986664 228.839996,382.986664 C 228.839996,382.986664 211.765503,373.646149 211.765503,373.646149 Z" />
  <path
     id="Shape 1 copy 2"
     style="stroke: none; fill: rgb(59, 67, 79)"
     fill-rule="evenodd"
     d="M 253.160004,438.026672 C 251.483246,440.148926 204.333374,438.689697 171.666656,410.293335 C 148.014038,389.732666 183.613342,377.866669 183.613342,377.866669 C 183.613342,377.866669 209.640015,371.893341 209.640015,371.893341 C 209.640015,371.893341 232.253326,383.413330 232.253326,383.413330 C 232.253326,383.413330 233.959991,417.973328 233.959991,417.973328 C 243.479462,432.899689 255.859344,434.610107 253.160004,438.026672 Z M 229.693329,419.679993 C 229.693329,419.679993 227.133331,383.413330 227.133331,383.413330 C 227.133331,383.413330 213.480011,375.733337 213.480011,375.733337 C 213.480011,375.733337 187.453339,382.133331 187.453339,382.133331 C 187.453339,382.133331 155.928406,388.597870 175.933319,407.306671 C 197.522644,427.497131 237.461578,432.915588 241.640015,432.480011 C 245.970764,432.028503 239.212799,434.606384 229.693329,419.679993 Z" />
  <path
     id="Shape 1 copy 4"
     style="stroke: none; fill: rgb(245, 243, 239)"
     fill-rule="nonzero"
     d="M 303.059265,374.651398 C 303.059265,374.651398 330.098938,380.875214 330.098938,380.875214 C 330.098938,380.875214 363.211548,388.393677 341.181702,410.764008 C 319.151794,433.134338 262.494049,437.084991 262.494049,437.084991 C 262.494049,437.084991 277.474335,429.972534 283.840027,419.967224 C 283.840027,419.967224 285.974640,384.019897 285.974640,384.019897 C 285.974640,384.019897 303.059265,374.651398 303.059265,374.651398 Z" />
  <path
     id="Shape 1 copy 6"
     style="stroke: none; fill: rgb(59, 67, 79)"
     fill-rule="evenodd"
     d="M 261.640228,438.798035 C 263.317963,440.926666 310.495789,439.463074 343.181854,410.981659 C 366.848511,390.359406 331.228119,378.457886 331.228119,378.457886 C 331.228119,378.457886 305.186005,372.466675 305.186005,372.466675 C 305.186005,372.466675 282.559296,384.021149 282.559296,384.021149 C 282.559296,384.021149 280.851593,418.684662 280.851593,418.684662 C 271.326508,433.655731 258.939301,435.371246 261.640228,438.798035 Z M 285.120789,420.396423 C 285.120789,420.396423 287.682312,384.021149 287.682312,384.021149 C 287.682312,384.021149 301.343750,376.318176 301.343750,376.318176 C 301.343750,376.318176 327.385834,382.737335 327.385834,382.737335 C 327.385834,382.737335 358.929474,389.221222 338.912659,407.986053 C 317.310547,428.237000 277.347931,433.671661 273.167053,433.234772 C 268.833710,432.781921 275.595703,435.367493 285.120789,420.396423 Z" />
  <path
     id="2 copy 5"
     style="stroke: none; fill: rgb(255, 255, 255)"
     fill-rule="nonzero"
     d="M 259.214661,116.466644 C 312.292542,116.466644 354.186951,166.067871 352.824738,225.664948 C 352.824738,225.664948 351.376923,289.006104 351.376923,289.006104 C 350.093597,345.152466 308.845428,389.533325 259.214661,389.533325 C 209.583893,389.533325 168.335724,345.152466 167.052399,289.006104 C 167.052399,289.006104 165.604584,225.664948 165.604584,225.664948 C 164.242401,166.067871 206.136780,116.466644 259.214661,116.466644 Z" />
  <path
     id="2 line"
     style="stroke: none; fill: rgb(59, 67, 79)"
     fill-rule="evenodd"
     d="M 357.089386,223.701141 C 357.089386,223.701141 355.572327,289.615509 355.572327,289.615509 C 354.227631,348.042816 311.006287,394.226654 259.001404,394.226654 C 206.996490,394.226654 163.775177,348.042816 162.430450,289.615509 C 162.430450,289.615509 160.913361,223.701141 160.913361,223.701141 C 159.486023,161.682922 203.384491,110.066650 259.001404,110.066650 C 314.618317,110.066650 358.516754,161.682922 357.089386,223.701141 Z M 258.788300,116.893311 C 206.436035,116.893311 165.114380,166.107025 166.457916,225.238495 C 166.457916,225.238495 167.885956,288.084808 167.885956,288.084808 C 169.151733,343.792511 209.836029,387.826660 258.788300,387.826660 C 307.740570,387.826660 348.424835,343.792511 349.690613,288.084808 C 349.690613,288.084808 351.118622,225.238495 351.118622,225.238495 C 352.462219,166.107025 311.140564,116.893311 258.788300,116.893311 Z" />
  <path
     id="Shape 1"
     style="stroke: none; fill: rgb(59, 67, 79)"
     fill-rule="evenodd"
     d="M 348.524475,326.924896 C 347.262268,332.894379 330.677521,387.022858 333.678192,363.592072 C 336.678833,340.161285 304.858887,384.882690 304.858887,384.882690 C 298.979034,390.924286 275.166260,404.990509 275.166260,404.990509 C 275.166260,404.990509 275.166260,399.076447 275.166260,399.076447 C 275.166260,399.076447 257.700012,406.173340 257.700012,406.173340 C 257.700012,406.173340 249.840210,399.076447 249.840210,399.076447 C 249.840210,399.076447 248.966888,406.173340 248.966888,406.173340 C 246.628082,402.708069 199.188110,370.688965 199.188110,370.688965 C 199.188110,370.688965 207.331757,385.182098 200.934753,377.785828 C 200.706360,377.521759 200.471985,377.238861 200.232422,376.938812 C 193.761444,368.834503 183.468475,348.215515 183.468475,348.215515 C 183.468475,348.215515 181.721863,362.409271 181.721863,362.409271 C 166.287445,332.406464 166.875580,294.988953 166.875580,294.988953 C 166.875580,294.988953 164.279999,216.847656 164.279999,216.847656 C 164.279999,216.847656 171.266510,216.847656 171.266510,216.847656 C 171.266510,216.847656 173.862061,272.515503 173.862061,272.515503 C 173.862061,272.515503 185.215118,291.440491 185.215118,291.440491 C 192.556396,302.172668 212.287781,297.354553 212.287781,297.354553 C 269.309631,336.919647 305.732208,294.988953 305.732208,294.988953 C 305.732208,294.988953 330.434631,300.470551 338.044739,297.354553 C 345.654816,294.238586 346.753479,216.737640 346.753479,216.737640 C 346.753479,216.737640 352.866669,216.737640 352.866669,216.737640 C 352.866669,216.737640 349.786682,320.955383 348.524475,326.924896 Z M 307.573212,332.926392 C 306.319824,317.884766 297.166809,319.160217 297.166809,319.160217 C 280.894897,323.904846 268.121826,326.540649 258.142761,327.880249 C 258.142761,327.880249 258.142761,327.781921 258.142761,327.781921 C 248.233612,326.453247 235.549988,323.839081 219.392090,319.133331 C 219.392090,319.133331 210.303162,317.868317 209.058563,332.786682 C 209.058563,332.786682 205.408844,344.320007 217.669830,350.706665 C 217.669830,350.706665 233.170105,359.240021 233.170105,359.240021 C 233.170105,359.240021 243.762634,362.566681 243.503632,349.853333 C 243.503632,349.853333 242.425507,348.051666 248.670380,346.440002 C 248.670380,346.440002 258.142761,346.440002 258.142761,346.440002 C 258.142761,346.440002 258.142761,346.720764 258.142761,346.720764 C 258.142761,346.720764 267.681976,346.720764 267.681976,346.720764 C 273.970886,348.345764 272.885193,350.225800 272.885193,350.225800 C 272.624359,363.044220 283.291565,359.690033 283.291565,359.690033 C 283.291565,359.690033 298.901184,351.022705 298.901184,351.022705 C 311.248627,344.583252 307.573212,332.926392 307.573212,332.926392 Z" />
  <path
     id="usta"
     style="stroke: none; fill: rgb(59, 67, 79)"
     fill-rule="nonzero"
     d="M 305.079987,327.325928 C 297.324768,334.059753 279.808014,340.466644 259.426697,340.466644 C 239.045349,340.466644 221.528595,334.059753 213.773346,327.325928 C 213.773346,327.325928 212.979889,325.142639 214.144043,323.978485 C 215.329742,322.792786 217.186676,323.050842 217.186676,323.050842 C 224.933777,329.789246 239.037567,335.346680 259.426697,335.346680 C 279.815796,335.346680 293.919586,329.789246 301.666687,323.050842 C 301.666687,323.050842 303.561707,322.346893 304.482269,323.267456 C 306.255310,325.040497 305.079987,327.325928 305.079987,327.325928 Z" />
  <path
     id="-"
     style="stroke: none; fill: rgb(59, 67, 79)"
     fill-rule="nonzero"
     d="M 245.346680,350.706665 C 245.346680,350.706665 272.653351,350.706665 272.653351,350.706665 C 272.653351,350.706665 272.653351,354.973328 272.653351,354.973328 C 272.653351,354.973328 245.346680,354.973328 245.346680,354.973328 C 245.346680,354.973328 245.346680,350.706665 245.346680,350.706665 Z" />
  <path
     id="Shape 11 copy"
     style="stroke: none; fill: rgb(255, 255, 255)"
     fill-rule="nonzero"
     d="M 160.807220,233.313141 C 160.795441,233.313812 159.759613,232.486603 157.803619,231.870758 C 156.826019,231.563507 155.611023,231.310760 154.226166,231.248444 C 153.880310,231.232880 153.524353,231.229187 153.160126,231.239532 C 152.795898,231.249878 152.423370,231.274231 152.044708,231.314667 C 151.287476,231.395569 150.505402,231.540955 149.718414,231.767334 C 146.567261,232.672913 143.352692,234.874664 141.464783,239.419098 C 140.517090,241.691437 139.891907,244.549713 139.726624,248.125916 C 139.685272,249.019989 139.672638,249.958923 139.690765,250.944794 C 139.708923,251.930664 139.757874,252.963470 139.839630,254.045288 C 140.003052,256.208832 140.298157,258.568451 140.737854,261.139679 C 140.728241,261.137146 140.327759,268.909668 143.106445,277.840820 C 145.718689,286.572784 151.991516,297.299225 163.573334,300.364410 C 162.241302,278.185028 162.199921,255.589905 160.807220,233.313141 C 160.807220,233.313141 160.807220,233.313141 160.807220,233.313141 Z" />
  <path
     id="Shape 3"
     style="stroke: none; fill: rgb(59, 67, 79)"
     fill-rule="nonzero"
     d="M 162.127869,234.207275 C 162.127869,234.207275 141.951477,227.955597 142.661530,248.698090 C 142.661530,248.698090 145.665436,278.775360 146.969879,281.547363 C 146.969879,281.547363 154.893707,299.059387 167.970856,299.835480 C 180.751862,300.593994 167.970856,299.835480 167.970856,299.835480 C 167.970856,299.835480 168.129578,305.480011 168.129578,305.480011 C 168.129578,305.480011 145.144928,302.533020 140.705597,276.045410 C 140.705597,276.045410 137.201721,251.982697 137.201721,251.982697 C 137.201721,251.982697 134.481110,220.138062 160.871185,228.234802 C 186.580475,236.122681 160.871185,228.234802 160.871185,228.234802 C 160.871185,228.234802 162.127869,234.207275 162.127869,234.207275 " />
  <path
     id="Shape 4"
     style="stroke: none; fill: rgb(59, 67, 79)"
     fill-rule="nonzero"
     d="M 155.468323,275.994812 C 155.468323,275.994812 154.339172,276.848145 153.369171,276.848145 C 152.399170,276.848145 151.283783,275.994812 151.283783,275.994812 C 151.283783,275.994812 149.201569,255.012024 149.201569,255.012024 C 149.201569,255.012024 152.074493,244.678558 164.265381,250.139496 C 164.265381,250.139496 164.553558,256.139221 164.553558,256.139221 C 164.553558,256.139221 153.857910,252.346008 154.079071,257.069427 C 154.291962,261.615967 155.468323,275.994812 155.468323,275.994812 Z" />
  <path
     id="Shape 11 copy_1"
     style="stroke: none; fill: rgb(255, 255, 255)"
     fill-rule="nonzero"
     d="M 356.813416,233.362122 C 356.825256,233.362793 357.865631,232.536163 359.830170,231.920715 C 360.812073,231.613678 362.032379,231.361115 363.423309,231.298828 C 363.770660,231.283295 364.128174,231.279602 364.494019,231.289948 C 364.859833,231.300262 365.233978,231.324615 365.614319,231.365021 C 366.374847,231.445862 367.160370,231.591156 367.950806,231.817383 C 371.115753,232.722351 374.344391,234.922607 376.240570,239.463959 C 377.192413,241.734741 377.820343,244.591064 377.986328,248.164856 C 378.027863,249.058319 378.040558,249.996613 378.022369,250.981812 C 378.004120,251.967010 377.954956,252.999115 377.872833,254.080200 C 377.708710,256.242279 377.412292,258.600311 376.970673,261.169769 C 376.980347,261.167236 377.382568,268.934509 374.591705,277.859589 C 371.968048,286.585632 365.667725,297.304779 354.035187,300.367889 C 355.373047,278.203552 355.414612,255.623779 356.813416,233.362122 C 356.813416,233.362122 356.813416,233.362122 356.813416,233.362122 Z" />
  <path
     id="Shape 3_1"
     style="stroke: none; fill: rgb(59, 67, 79)"
     fill-rule="nonzero"
     d="M 355.482605,234.255676 C 355.482605,234.255676 375.747375,228.008240 375.034210,248.736633 C 375.034210,248.736633 372.017151,278.793488 370.706970,281.563599 C 370.706970,281.563599 362.748444,299.063751 349.614044,299.839325 C 336.777039,300.597321 349.614044,299.839325 349.614044,299.839325 C 349.614044,299.839325 349.454620,305.480011 349.454620,305.480011 C 349.454620,305.480011 372.539917,302.535034 376.998688,276.065399 C 376.998688,276.065399 380.517914,252.019012 380.517914,252.019012 C 380.517914,252.019012 383.250458,220.195984 356.744781,228.287231 C 330.922913,236.169769 356.744781,228.287231 356.744781,228.287231 C 356.744781,228.287231 355.482605,234.255676 355.482605,234.255676 " />
  <path
     id="Shape 4_1"
     style="stroke: none; fill: rgb(59, 67, 79)"
     fill-rule="nonzero"
     d="M 362.171326,276.014832 C 362.171326,276.014832 363.305420,276.867584 364.279663,276.867584 C 365.253906,276.867584 366.374176,276.014832 366.374176,276.014832 C 366.374176,276.014832 368.465515,255.046295 368.465515,255.046295 C 368.465515,255.046295 365.580017,244.719849 353.335724,250.177063 C 353.335724,250.177063 353.046295,256.172729 353.046295,256.172729 C 353.046295,256.172729 363.788788,252.382080 363.566650,257.102295 C 363.352844,261.645752 362.171326,276.014832 362.171326,276.014832 Z" />
  <path
     id="new_vector_shape_done"
     style="stroke: none; fill: rgb(59, 67, 79)"
     fill-rule="evenodd"
     d="M 266.893341,274.333344 C 267.391052,274.333344 267.888947,274.333344 268.386658,274.333344 C 271.474121,278.526306 272.730225,284.969757 274.359985,290.546661 C 274.865051,292.274963 274.375061,295.297974 273.933319,296.519989 C 272.315552,300.995514 267.235687,300.915192 263.053345,302.919983 C 261.930115,303.458435 261.094604,304.387817 259.640015,304.626678 C 258.691711,303.791351 257.546722,303.627289 257.079987,302.279999 C 255.927673,300.693268 257.412811,299.702393 258.573334,299.079987 C 260.679565,297.950409 267.181488,296.837097 267.959991,294.813324 C 268.923218,293.717590 268.282745,290.423157 267.959991,289.266663 C 267.133392,286.304504 266.736633,283.831543 265.613342,281.160004 C 264.867188,279.385498 263.557159,277.514496 264.333344,275.399994 C 264.976532,275.123810 266.366638,274.809784 266.893341,274.333344 Z" />
  <path
     id="Rounded Rectangle 8"
     style="stroke: none; fill: rgb(59, 67, 79)"
     fill-rule="nonzero"
     d="M 207.799988,241.480011 C 207.799988,241.480011 213.773346,241.480011 213.773346,241.480011 C 217.072327,241.480011 219.746674,244.154358 219.746674,247.453339 C 219.746674,250.752319 217.072327,253.426666 213.773346,253.426666 C 213.773346,253.426666 207.799988,253.426666 207.799988,253.426666 C 204.501007,253.426666 201.826660,250.752319 201.826660,247.453339 C 201.826660,244.154358 204.501007,241.480011 207.799988,241.480011 Z" />
  <path
     id="Rounded Rectangle 8 copy"
     style="stroke: none; fill: rgb(59, 67, 79)"
     fill-rule="nonzero"
     d="M 305.079987,241.480011 C 305.079987,241.480011 311.053345,241.480011 311.053345,241.480011 C 314.352325,241.480011 317.026672,244.154358 317.026672,247.453339 C 317.026672,250.752319 314.352325,253.426666 311.053345,253.426666 C 311.053345,253.426666 305.079987,253.426666 305.079987,253.426666 C 301.781006,253.426666 299.106659,250.752319 299.106659,247.453339 C 299.106659,244.154358 301.781006,241.480011 305.079987,241.480011 Z" />
  <path
     id="Ellipse 3"
     style="stroke: none; fill: rgb(237, 241, 241)"
     fill-rule="nonzero"
     d="M 310.626678,269.640015 C 316.517700,269.640015 321.293335,274.415649 321.293335,280.306671 C 321.293335,286.197693 316.517700,290.973328 310.626678,290.973328 C 304.735626,290.973328 299.960022,286.197693 299.960022,280.306671 C 299.960022,274.415649 304.735626,269.640015 310.626678,269.640015 Z" />
  <path
     id="Ellipse 3 copy"
     style="stroke: none; fill: rgb(237, 241, 241)"
     fill-rule="nonzero"
     d="M 207.373352,269.640015 C 213.264374,269.640015 218.040009,274.415649 218.040009,280.306671 C 218.040009,286.197693 213.264374,290.973328 207.373352,290.973328 C 201.482300,290.973328 196.706696,286.197693 196.706696,280.306671 C 196.706696,274.415649 201.482300,269.640015 207.373352,269.640015 Z" />
  <path
     id="glasses"
     style="stroke: none; fill: rgb(59, 68, 79)"
     fill-rule="evenodd"
     d="M 351.939911,228.879608 C 351.362732,233.809509 350.855652,239.842255 349.789673,245.235870 C 346.602081,261.364380 332.743378,276.307343 309.079590,278.009949 C 285.415833,279.712555 265.275787,267.799591 264.095551,251.401581 C 263.895447,248.621277 263.360138,245.501251 262.949341,242.467896 C 259.600494,240.611298 256.148895,240.607056 252.594574,242.455261 C 252.179474,245.557281 251.623993,248.759369 251.419128,251.606171 C 250.235199,268.058533 230.031647,280.010986 206.293243,278.302734 C 182.554840,276.594482 168.652435,261.602020 165.454773,245.420044 C 164.385437,240.008545 163.876770,233.955811 163.297760,229.009552 C 163.297760,229.009552 159.809448,228.758514 159.809448,228.758514 C 159.809448,228.758514 160.299438,221.949463 160.299438,221.949463 C 160.299438,221.949463 161.150574,222.010712 161.150574,222.010712 C 161.150574,222.010712 182.739105,223.564270 182.739105,223.564270 C 182.739105,223.564270 200.962189,224.875641 200.962189,224.875641 C 200.962189,224.875641 219.219147,226.189423 219.219147,226.189423 C 219.219147,226.189423 247.655823,228.235779 247.655823,228.235779 C 249.617004,228.483826 250.921082,229.324921 251.760895,230.580536 C 255.844788,232.368225 259.811005,232.375366 263.659515,230.601654 C 264.491730,229.265259 265.813354,228.365540 267.847015,228.108368 C 267.847015,228.108368 296.194305,226.068787 296.194305,226.068787 C 296.194305,226.068787 314.393890,224.759338 314.393890,224.759338 C 314.393890,224.759338 332.559692,223.452301 332.559692,223.452301 C 332.559692,223.452301 354.080353,221.903870 354.080353,221.903870 C 354.080353,221.903870 354.928802,221.842834 354.928802,221.842834 C 354.928802,221.842834 355.417267,228.629395 355.417267,228.629395 C 355.417267,228.629395 351.939911,228.879608 351.939911,228.879608 Z M 240.019867,236.237274 C 240.019867,236.237274 184.288300,232.226746 184.288300,232.226746 C 176.999054,231.598328 174.415344,239.789520 173.966095,246.032532 C 173.018951,259.194397 187.684265,270.974823 206.721985,272.344818 C 225.759705,273.714783 241.960663,264.155579 242.907806,250.993683 C 243.357056,244.750702 245.396210,240.895111 240.019867,236.237274 Z M 341.305115,245.846344 C 340.857269,239.623962 338.281677,231.459808 331.015350,232.086151 C 331.015350,232.086151 275.458984,236.083435 275.458984,236.083435 C 270.099548,240.725922 272.132294,244.568726 272.580109,250.791107 C 273.524292,263.909515 289.674316,273.437164 308.652191,272.071686 C 327.630066,270.706238 342.249298,258.964722 341.305115,245.846344 Z" />
  <path
     id="Shape 7"
     style="stroke: none; fill: rgb(59, 67, 79)"
     fill-rule="nonzero"
     d="M 166.016968,261.106659 C 166.016968,261.106659 177.886597,209.110748 188.215393,194.888000 C 198.544189,180.665253 207.482269,177.263428 212.121399,176.828369 C 216.760529,176.393341 253.293213,187.192657 303.476440,174.821716 C 303.476440,174.821716 323.263580,174.032013 331.651367,193.884705 C 331.651367,193.884705 349.335724,225.522369 352.142212,257.093414 C 352.142212,257.093414 355.557343,257.093414 355.557343,257.093414 C 355.557343,257.093414 362.794525,201.750519 359.826324,168.801849 C 356.858032,135.853210 313.721863,119.639526 313.721863,119.639526 C 313.721863,119.639526 323.113495,112.616302 323.113495,112.616302 C 323.113495,112.616302 301.186890,105.838074 292.377228,109.606415 C 292.377228,109.606415 299.207489,95.559998 299.207489,95.559998 C 299.207489,95.559998 254.957397,95.648193 230.050873,115.626251 C 230.050873,115.626251 230.904663,105.593109 230.904663,105.593109 C 230.904663,105.593109 143.114838,119.055573 161.748047,259.100037 C 161.748047,259.100037 166.016968,261.106659 166.016968,261.106659 Z" />
</svg>
