<?xml version="1.0" encoding="UTF-8" standalone="no"?>
<svg
   xmlns:dc="http://purl.org/dc/elements/1.1/"
   xmlns:cc="http://creativecommons.org/ns#"
   xmlns:rdf="http://www.w3.org/1999/02/22-rdf-syntax-ns#"
   xmlns:svg="http://www.w3.org/2000/svg"
   xmlns="http://www.w3.org/2000/svg"
   version="1.1"
   id="svg11811"
   height="512"
   width="512">
  <metadata
     id="metadata11839">
    <rdf:RDF>
      <cc:Work
         rdf:about="">
        <dc:format>image/svg+xml</dc:format>
        <dc:type
           rdf:resource="http://purl.org/dc/dcmitype/StillImage" />
        <dc:title></dc:title>
      </cc:Work>
    </rdf:RDF>
  </metadata>
  <defs
     id="defs11837" />
  <path
     id="Shape 12"
     style="stroke: none; fill: rgb(59, 67, 79)"
     fill-rule="nonzero"
     d="M 419.426666,393.498413 C 399.031616,482.706512 294.637573,447.769043 259.000000,432.947540 C 259.000000,432.947540 259.000000,432.852722 259.000000,432.852722 C 223.362427,447.685608 118.968384,482.649902 98.573334,393.373322 C 98.573334,393.373322 135.153320,393.766663 124.173340,279.026672 C 124.173340,279.026672 84.543243,51.726807 259.000000,70.725372 C 259.000000,70.725372 259.000000,71.097839 259.000000,71.097839 C 433.456757,52.113831 393.826660,279.239410 393.826660,279.239410 C 382.846680,393.891449 419.426666,393.498413 419.426666,393.498413 Z" />
  <path
     id="body-bg-flat copy"
     style="stroke: none; fill: rgb(255, 255, 255)"
     fill-rule="nonzero"
     d="M 116.359985,502.000000 C 116.359985,502.000000 109.744995,412.011780 194.440002,403.613342 C 194.440002,403.613342 232.413330,403.613342 232.413330,403.613342 C 232.413330,403.613342 232.413330,386.119995 232.413330,386.119995 C 232.413330,386.119995 259.125000,397.593323 286.173340,387.399994 C 286.173340,387.399994 287.026672,403.613342 287.026672,403.613342 C 287.026672,403.613342 331.399994,403.613342 331.399994,403.613342 C 331.399994,403.613342 407.385406,406.597595 403.933319,502.853333 C 403.933319,502.853333 116.359985,502.000000 116.359985,502.000000 Z" />
  <path
     id="Rounded Rectangle 13"
     style="stroke: none; fill: rgb(59, 67, 79)"
     fill-rule="nonzero"
     d="M 404.675262,505.586670 C 404.675262,505.586670 404.675262,505.586670 404.675262,505.586670 C 404.675262,505.586670 120.158875,505.586670 120.158875,505.586670 C 120.158875,505.586670 120.158875,505.586670 120.158875,505.586670 C 120.158875,505.586670 114.640991,505.586670 114.640991,505.586670 C 114.640991,505.586670 116.018341,482.056854 116.018341,482.056854 C 118.707642,436.114624 154.905212,401.053345 196.328339,401.053345 C 196.328339,401.053345 227.853333,401.053345 227.853333,401.053345 C 227.853333,401.053345 227.853333,405.746674 227.853333,405.746674 C 227.853333,405.746674 198.843048,405.746674 198.843048,405.746674 C 158.919678,405.746674 124.032654,439.495087 121.440704,483.717010 C 121.440704,483.717010 120.483978,500.040009 120.483978,500.040009 C 120.483978,500.040009 403.923492,500.040009 403.923492,500.040009 C 403.923492,500.040009 403.393433,483.717010 403.393433,483.717010 C 400.801483,439.495087 365.914459,405.746674 325.991058,405.746674 C 325.991058,405.746674 287.160004,405.746674 287.160004,405.746674 C 287.160004,405.746674 287.160004,401.053345 287.160004,401.053345 C 287.160004,401.053345 328.252747,401.053345 328.252747,401.053345 C 369.675873,401.053345 405.873444,436.114624 408.562744,482.056854 C 408.562744,482.056854 409.940094,505.586670 409.940094,505.586670 C 409.940094,505.586670 404.675262,505.586670 404.675262,505.586670 Z" />
  <path
     id="Ellipse 4"
     style="stroke: none; fill: rgb(59, 67, 79)"
     fill-rule="nonzero"
     d="M 257.720001,453.959991 C 234.862793,453.959991 216.333313,435.430573 216.333313,412.573334 C 216.333313,408.573883 216.911926,404.711700 217.970459,401.053345 C 217.970459,401.053345 218.040009,401.053345 218.040009,401.053345 C 218.040009,401.053345 222.431793,401.053345 222.431793,401.053345 C 222.431793,401.053345 229.986664,401.053345 229.986664,401.053345 C 229.986664,401.053345 229.986664,405.746674 229.986664,405.746674 C 229.986664,405.746674 221.238647,405.746674 221.238647,405.746674 C 220.824432,407.959839 220.599976,410.239716 220.599976,412.573334 C 220.599976,433.074158 237.219208,449.693329 257.720001,449.693329 C 278.220825,449.693329 294.839996,433.074158 294.839996,412.573334 C 294.839996,410.239716 294.615570,407.959839 294.201324,405.746674 C 294.201324,405.746674 285.453339,405.746674 285.453339,405.746674 C 285.453339,405.746674 285.453339,401.053345 285.453339,401.053345 C 285.453339,401.053345 293.008179,401.053345 293.008179,401.053345 C 293.008179,401.053345 297.399994,401.053345 297.399994,401.053345 C 297.399994,401.053345 297.469513,401.053345 297.469513,401.053345 C 298.528046,404.711700 299.106659,408.573883 299.106659,412.573334 C 299.106659,435.430573 280.577240,453.959991 257.720001,453.959991 Z" />
  <path
     id="neck"
     style="stroke: none; fill: rgb(59, 67, 79)"
     fill-rule="nonzero"
     d="M 233.399994,384.146088 C 233.399994,384.146088 233.399994,410.461182 233.399994,410.461182 C 233.399994,424.116669 244.479462,435.186676 258.146667,435.186676 C 271.813873,435.186676 282.893341,424.116669 282.893341,410.461182 C 282.893341,410.461182 282.893341,384.688995 282.893341,384.688995 C 284.329498,384.251862 285.752136,383.777069 287.160004,383.264130 C 287.160004,383.264130 287.160004,410.640289 287.160004,410.640289 C 287.160004,426.788910 274.074799,439.880005 257.933350,439.880005 C 241.791901,439.880005 228.706665,426.788910 228.706665,410.640289 C 228.706665,410.640289 228.706665,382.453674 228.706665,382.453674 C 230.252502,383.064911 231.818207,383.627106 233.399994,384.146088 Z" />
  <path
     id="2 copy 5"
     style="stroke: none; fill: rgb(255, 255, 255)"
     fill-rule="nonzero"
     d="M 259.214661,116.466644 C 312.292542,116.466644 354.186951,166.067871 352.824738,225.664948 C 352.824738,225.664948 351.376923,289.006104 351.376923,289.006104 C 350.093597,345.152466 308.845428,389.533325 259.214661,389.533325 C 209.583893,389.533325 168.335724,345.152466 167.052399,289.006104 C 167.052399,289.006104 165.604584,225.664948 165.604584,225.664948 C 164.242401,166.067871 206.136780,116.466644 259.214661,116.466644 Z" />
  <path
     id="2 line"
     style="stroke: none; fill: rgb(59, 67, 79)"
     fill-rule="evenodd"
     d="M 357.089386,223.701141 C 357.089386,223.701141 355.572327,289.615509 355.572327,289.615509 C 354.227631,348.042816 311.006287,394.226654 259.001404,394.226654 C 206.996490,394.226654 163.775177,348.042816 162.430450,289.615509 C 162.430450,289.615509 160.913361,223.701141 160.913361,223.701141 C 159.486023,161.682922 203.384491,110.066650 259.001404,110.066650 C 314.618317,110.066650 358.516754,161.682922 357.089386,223.701141 Z M 258.788300,116.893311 C 206.436035,116.893311 165.114380,166.107025 166.457916,225.238495 C 166.457916,225.238495 167.885956,288.084808 167.885956,288.084808 C 169.151733,343.792511 209.836029,387.826660 258.788300,387.826660 C 307.740570,387.826660 348.424835,343.792511 349.690613,288.084808 C 349.690613,288.084808 351.118622,225.238495 351.118622,225.238495 C 352.462219,166.107025 311.140564,116.893311 258.788300,116.893311 Z" />
  <path
     id="usta"
     style="stroke: none; fill: rgb(59, 67, 79)"
     fill-rule="nonzero"
     d="M 305.079987,327.325928 C 297.324768,334.059753 279.808014,340.466644 259.426697,340.466644 C 239.045349,340.466644 221.528595,334.059753 213.773346,327.325928 C 213.773346,327.325928 212.979889,325.142639 214.144043,323.978485 C 215.329742,322.792786 217.186676,323.050842 217.186676,323.050842 C 224.933777,329.789246 239.037567,335.346680 259.426697,335.346680 C 279.815796,335.346680 293.919586,329.789246 301.666687,323.050842 C 301.666687,323.050842 303.561707,322.346893 304.482269,323.267456 C 306.255310,325.040497 305.079987,327.325928 305.079987,327.325928 Z" />
  <path
     id="-"
     style="stroke: none; fill: rgb(59, 67, 79)"
     fill-rule="nonzero"
     d="M 245.346680,350.706665 C 245.346680,350.706665 272.653351,350.706665 272.653351,350.706665 C 272.653351,350.706665 272.653351,354.973328 272.653351,354.973328 C 272.653351,354.973328 245.346680,354.973328 245.346680,354.973328 C 245.346680,354.973328 245.346680,350.706665 245.346680,350.706665 Z" />
  <path
     id="Shape 11 copy"
     style="stroke: none; fill: rgb(255, 255, 255)"
     fill-rule="nonzero"
     d="M 160.807220,233.313141 C 160.795441,233.313812 159.759613,232.486603 157.803619,231.870758 C 156.826019,231.563507 155.611023,231.310760 154.226166,231.248444 C 153.880310,231.232880 153.524353,231.229187 153.160126,231.239532 C 152.795898,231.249878 152.423370,231.274231 152.044708,231.314667 C 151.287476,231.395569 150.505402,231.540955 149.718414,231.767334 C 146.567261,232.672913 143.352692,234.874664 141.464783,239.419098 C 140.517090,241.691437 139.891907,244.549713 139.726624,248.125916 C 139.685272,249.019989 139.672638,249.958923 139.690765,250.944794 C 139.708923,251.930664 139.757874,252.963470 139.839630,254.045288 C 140.003052,256.208832 140.298157,258.568451 140.737854,261.139679 C 140.728241,261.137146 140.327759,268.909668 143.106445,277.840820 C 145.718689,286.572784 151.991516,297.299225 163.573334,300.364410 C 162.241302,278.185028 162.199921,255.589905 160.807220,233.313141 C 160.807220,233.313141 160.807220,233.313141 160.807220,233.313141 Z" />
  <path
     id="Shape 3"
     style="stroke: none; fill: rgb(59, 67, 79)"
     fill-rule="nonzero"
     d="M 162.127869,234.207275 C 162.127869,234.207275 141.951477,227.955597 142.661530,248.698090 C 142.661530,248.698090 145.665436,278.775360 146.969879,281.547363 C 146.969879,281.547363 154.893707,299.059387 167.970856,299.835480 C 180.751862,300.593994 167.970856,299.835480 167.970856,299.835480 C 167.970856,299.835480 168.129578,305.480011 168.129578,305.480011 C 168.129578,305.480011 145.144928,302.533020 140.705597,276.045410 C 140.705597,276.045410 137.201721,251.982697 137.201721,251.982697 C 137.201721,251.982697 134.481110,220.138062 160.871185,228.234802 C 186.580475,236.122681 160.871185,228.234802 160.871185,228.234802 C 160.871185,228.234802 162.127869,234.207275 162.127869,234.207275 " />
  <path
     id="Shape 4"
     style="stroke: none; fill: rgb(59, 67, 79)"
     fill-rule="nonzero"
     d="M 155.468323,275.994812 C 155.468323,275.994812 154.339172,276.848145 153.369171,276.848145 C 152.399170,276.848145 151.283783,275.994812 151.283783,275.994812 C 151.283783,275.994812 149.201569,255.012024 149.201569,255.012024 C 149.201569,255.012024 152.074493,244.678558 164.265381,250.139496 C 164.265381,250.139496 164.553558,256.139221 164.553558,256.139221 C 164.553558,256.139221 153.857910,252.346008 154.079071,257.069427 C 154.291962,261.615967 155.468323,275.994812 155.468323,275.994812 Z" />
  <path
     id="Shape 11 copy_1"
     style="stroke: none; fill: rgb(255, 255, 255)"
     fill-rule="nonzero"
     d="M 356.813416,233.362122 C 356.825256,233.362793 357.865631,232.536163 359.830170,231.920715 C 360.812073,231.613678 362.032379,231.361115 363.423309,231.298828 C 363.770660,231.283295 364.128174,231.279602 364.494019,231.289948 C 364.859833,231.300262 365.233978,231.324615 365.614319,231.365021 C 366.374847,231.445862 367.160370,231.591156 367.950806,231.817383 C 371.115753,232.722351 374.344391,234.922607 376.240570,239.463959 C 377.192413,241.734741 377.820343,244.591064 377.986328,248.164856 C 378.027863,249.058319 378.040558,249.996613 378.022369,250.981812 C 378.004120,251.967010 377.954956,252.999115 377.872833,254.080200 C 377.708710,256.242279 377.412292,258.600311 376.970673,261.169769 C 376.980347,261.167236 377.382568,268.934509 374.591705,277.859589 C 371.968048,286.585632 365.667725,297.304779 354.035187,300.367889 C 355.373047,278.203552 355.414612,255.623779 356.813416,233.362122 C 356.813416,233.362122 356.813416,233.362122 356.813416,233.362122 Z" />
  <path
     id="Shape 3_1"
     style="stroke: none; fill: rgb(59, 67, 79)"
     fill-rule="nonzero"
     d="M 355.482605,234.255676 C 355.482605,234.255676 375.747375,228.008240 375.034210,248.736633 C 375.034210,248.736633 372.017151,278.793488 370.706970,281.563599 C 370.706970,281.563599 362.748444,299.063751 349.614044,299.839325 C 336.777039,300.597321 349.614044,299.839325 349.614044,299.839325 C 349.614044,299.839325 349.454620,305.480011 349.454620,305.480011 C 349.454620,305.480011 372.539917,302.535034 376.998688,276.065399 C 376.998688,276.065399 380.517914,252.019012 380.517914,252.019012 C 380.517914,252.019012 383.250458,220.195984 356.744781,228.287231 C 330.922913,236.169769 356.744781,228.287231 356.744781,228.287231 C 356.744781,228.287231 355.482605,234.255676 355.482605,234.255676 " />
  <path
     id="Shape 4_1"
     style="stroke: none; fill: rgb(59, 67, 79)"
     fill-rule="nonzero"
     d="M 362.171326,276.014832 C 362.171326,276.014832 363.305420,276.867584 364.279663,276.867584 C 365.253906,276.867584 366.374176,276.014832 366.374176,276.014832 C 366.374176,276.014832 368.465515,255.046295 368.465515,255.046295 C 368.465515,255.046295 365.580017,244.719849 353.335724,250.177063 C 353.335724,250.177063 353.046295,256.172729 353.046295,256.172729 C 353.046295,256.172729 363.788788,252.382080 363.566650,257.102295 C 363.352844,261.645752 362.171326,276.014832 362.171326,276.014832 Z" />
  <path
     id="new_vector_shape_done"
     style="stroke: none; fill: rgb(59, 67, 79)"
     fill-rule="evenodd"
     d="M 266.893341,274.333344 C 267.391052,274.333344 267.888947,274.333344 268.386658,274.333344 C 271.474121,278.526306 272.730225,284.969757 274.359985,290.546661 C 274.865051,292.274963 274.375061,295.297974 273.933319,296.519989 C 272.315552,300.995514 267.235687,300.915192 263.053345,302.919983 C 261.930115,303.458435 261.094604,304.387817 259.640015,304.626678 C 258.691711,303.791351 257.546722,303.627289 257.079987,302.279999 C 255.927673,300.693268 257.412811,299.702393 258.573334,299.079987 C 260.679565,297.950409 267.181488,296.837097 267.959991,294.813324 C 268.923218,293.717590 268.282745,290.423157 267.959991,289.266663 C 267.133392,286.304504 266.736633,283.831543 265.613342,281.160004 C 264.867188,279.385498 263.557159,277.514496 264.333344,275.399994 C 264.976532,275.123810 266.366638,274.809784 266.893341,274.333344 Z" />
  <path
     id="Rounded Rectangle 9"
     style="stroke: none; fill: rgb(59, 67, 79)"
     fill-rule="nonzero"
     d="M 204.813324,244.210663 C 204.813324,244.210663 220.173340,244.210663 220.173340,244.210663 C 222.294098,244.210663 224.013336,246.273743 224.013336,248.818665 C 224.013336,251.363586 222.294098,253.426666 220.173340,253.426666 C 220.173340,253.426666 204.813324,253.426666 204.813324,253.426666 C 202.692566,253.426666 200.973328,251.363586 200.973328,248.818665 C 200.973328,246.273743 202.692566,244.210663 204.813324,244.210663 Z" />
  <path
     id="Rounded Rectangle 9 copy"
     style="stroke: none; fill: rgb(59, 67, 79)"
     fill-rule="nonzero"
     d="M 298.679993,243.186676 C 298.679993,243.186676 314.040009,243.186676 314.040009,243.186676 C 316.160767,243.186676 317.880005,245.249725 317.880005,247.794678 C 317.880005,250.339600 316.160767,252.402649 314.040009,252.402649 C 314.040009,252.402649 298.679993,252.402649 298.679993,252.402649 C 296.559235,252.402649 294.839996,250.339600 294.839996,247.794678 C 294.839996,245.249725 296.559235,243.186676 298.679993,243.186676 Z" />
  <path
     id="Ellipse 3"
     style="stroke: none; fill: rgb(237, 241, 241)"
     fill-rule="nonzero"
     d="M 310.626678,269.640015 C 316.517700,269.640015 321.293335,274.415649 321.293335,280.306671 C 321.293335,286.197693 316.517700,290.973328 310.626678,290.973328 C 304.735626,290.973328 299.960022,286.197693 299.960022,280.306671 C 299.960022,274.415649 304.735626,269.640015 310.626678,269.640015 Z" />
  <path
     id="Ellipse 3 copy"
     style="stroke: none; fill: rgb(237, 241, 241)"
     fill-rule="nonzero"
     d="M 207.373352,269.640015 C 213.264374,269.640015 218.040009,274.415649 218.040009,280.306671 C 218.040009,286.197693 213.264374,290.973328 207.373352,290.973328 C 201.482300,290.973328 196.706696,286.197693 196.706696,280.306671 C 196.706696,274.415649 201.482300,269.640015 207.373352,269.640015 Z" />
  <path
     id="Shape 1 copy 5"
     style="stroke: none; fill: rgb(59, 67, 79)"
     fill-rule="evenodd"
     d="M 344.333344,230.386658 C 344.333344,230.386658 344.333344,261.959991 344.333344,261.959991 C 344.333344,269.675720 336.806915,281.715454 324.542847,282.404938 C 322.741241,282.319031 286.306671,282.440002 286.306671,282.440002 C 269.928345,282.440002 266.679993,262.813324 266.679993,262.813324 C 266.679993,262.813324 266.679993,241.480011 266.679993,241.480011 C 266.679993,241.480011 251.320007,241.480011 251.320007,241.480011 C 251.320007,241.480011 251.320007,262.813324 251.320007,262.813324 C 251.320007,262.813324 248.071655,282.440002 231.693329,282.440002 C 231.693329,282.440002 195.258759,282.319031 193.457153,282.404938 C 181.193085,281.715454 173.666656,269.675720 173.666656,261.959991 C 173.666656,261.959991 173.666656,230.386658 173.666656,230.386658 C 173.666656,230.386658 160.013336,230.386658 160.013336,230.386658 C 160.013336,230.386658 160.013336,221.853333 160.013336,221.853333 C 160.013336,221.853333 239.373322,221.853333 239.373322,221.853333 C 239.373322,221.853333 251.320007,223.783325 251.320007,232.093323 C 251.320007,232.093323 266.679993,232.093323 266.679993,232.093323 C 266.679993,223.783325 278.626678,221.853333 278.626678,221.853333 C 278.626678,221.853333 357.986664,221.853333 357.986664,221.853333 C 357.986664,221.853333 357.986664,230.386658 357.986664,230.386658 C 357.986664,230.386658 344.333344,230.386658 344.333344,230.386658 Z M 242.786652,234.653320 C 242.786652,231.611664 239.373322,231.239990 239.373322,231.239990 C 239.373322,231.239990 182.200012,231.239990 182.200012,231.239990 C 182.200012,231.239990 182.200012,261.106659 182.200012,261.106659 C 182.200012,270.412506 195.000000,273.906677 195.000000,273.906677 C 195.000000,273.906677 229.986664,273.906677 229.986664,273.906677 C 242.024170,273.906677 242.786652,261.106659 242.786652,261.106659 C 242.786652,261.106659 242.786652,237.695007 242.786652,234.653320 Z M 335.799988,231.239990 C 335.799988,231.239990 278.626678,231.239990 278.626678,231.239990 C 278.626678,231.239990 275.213348,231.611664 275.213348,234.653320 C 275.213348,237.695007 275.213348,261.106659 275.213348,261.106659 C 275.213348,261.106659 275.975830,273.906677 288.013336,273.906677 C 288.013336,273.906677 323.000000,273.906677 323.000000,273.906677 C 323.000000,273.906677 335.799988,270.412506 335.799988,261.106659 C 335.799988,261.106659 335.799988,231.239990 335.799988,231.239990 Z M 323.853333,282.440002 C 324.085968,282.435150 324.313477,282.417847 324.542847,282.404938 C 324.735718,282.414154 324.541962,282.425659 323.853333,282.440002 Z M 193.457153,282.404938 C 193.686523,282.417847 193.914032,282.435150 194.146667,282.440002 C 193.458038,282.425659 193.264282,282.414154 193.457153,282.404938 Z" />
  <path
     id="Rounded Rectangle 6"
     style="stroke: none; fill: rgb(59, 67, 79)"
     fill-rule="evenodd"
     d="M 259.000000,163.009369 C 259.000000,163.009369 259.000000,68.530792 259.000000,68.530792 C 259.284790,68.528595 259.568024,68.519989 259.853333,68.519989 C 319.706268,68.519989 368.226654,117.040405 368.226654,176.893341 C 368.226654,176.893341 368.226654,211.723328 368.226654,211.723328 C 368.204895,212.937103 368.203796,214.128418 368.226654,215.293335 C 368.226654,215.293335 267.577911,188.073395 259.000000,163.009369 Z M 149.773346,215.293335 C 149.796204,214.128418 149.795105,212.937103 149.773346,211.723328 C 149.773346,211.723328 149.773346,176.893341 149.773346,176.893341 C 149.773346,117.040405 198.293732,68.519989 258.146667,68.519989 C 258.431976,68.519989 258.715210,68.528595 259.000000,68.530792 C 259.000000,68.530792 259.000000,163.009369 259.000000,163.009369 C 250.422089,188.073395 149.773346,215.293335 149.773346,215.293335 Z" />
</svg>
