<?xml version="1.0" encoding="UTF-8" standalone="no"?>
<svg
   xmlns:dc="http://purl.org/dc/elements/1.1/"
   xmlns:cc="http://creativecommons.org/ns#"
   xmlns:rdf="http://www.w3.org/1999/02/22-rdf-syntax-ns#"
   xmlns:svg="http://www.w3.org/2000/svg"
   xmlns="http://www.w3.org/2000/svg"
   version="1.1"
   id="svg6013"
   height="512"
   width="512">
  <metadata
     id="metadata6044">
    <rdf:RDF>
      <cc:Work
         rdf:about="">
        <dc:format>image/svg+xml</dc:format>
        <dc:type
           rdf:resource="http://purl.org/dc/dcmitype/StillImage" />
        <dc:title></dc:title>
      </cc:Work>
    </rdf:RDF>
  </metadata>
  <defs
     id="defs6042" />
  <path
     id="body-bg"
     style="stroke: none; fill: rgb(255, 255, 255)"
     fill-rule="nonzero"
     d="M 112.000000,502.000000 C 112.000000,502.000000 100.011047,409.542938 192.426666,401.186676 C 192.426666,401.186676 214.613342,401.186676 214.613342,401.186676 C 214.613342,401.186676 221.875000,396.493347 226.986664,396.493347 C 226.986664,396.493347 226.986664,383.266663 226.986664,383.266663 C 226.986664,383.266663 254.679993,397.075012 283.306671,383.693329 C 283.306671,383.693329 283.306671,395.640015 283.306671,395.640015 C 283.306671,395.640015 284.523346,393.353333 296.959991,401.613342 C 296.959991,401.613342 330.239990,401.613342 330.239990,401.613342 C 330.239990,401.613342 401.000000,410.341858 401.000000,502.000000 C 401.000000,502.000000 112.000000,502.000000 112.000000,502.000000 Z" />
  <path
     id="Rounded Rectangle 13 copy 4"
     style="stroke: none; fill: rgb(59, 67, 79)"
     fill-rule="evenodd"
     d="M 398.261932,505.586670 C 398.261932,505.586670 113.745544,505.586670 113.745544,505.586670 C 113.745544,505.586670 108.227661,505.586670 108.227661,505.586670 C 108.227661,505.586670 109.605011,482.056854 109.605011,482.056854 C 112.294312,436.114624 148.491882,401.053345 189.915009,401.053345 C 189.915009,401.053345 218.398651,401.053345 218.398651,401.053345 C 216.550812,402.581665 215.196655,404.166901 214.222778,405.746674 C 214.222778,405.746674 192.429718,405.746674 192.429718,405.746674 C 152.506348,405.746674 117.619324,439.495087 115.027374,483.717010 C 115.027374,483.717010 114.070648,500.040009 114.070648,500.040009 C 114.070648,500.040009 397.510162,500.040009 397.510162,500.040009 C 397.510162,500.040009 396.980103,483.717010 396.980103,483.717010 C 394.388153,439.495087 359.501129,405.746674 319.577728,405.746674 C 319.577728,405.746674 297.766113,405.746674 297.766113,405.746674 C 296.932007,404.178528 295.745941,402.593414 294.090027,401.053345 C 294.090027,401.053345 321.839417,401.053345 321.839417,401.053345 C 363.262543,401.053345 399.460114,436.114624 402.149414,482.056854 C 402.149414,482.056854 403.526764,505.586670 403.526764,505.586670 C 403.526764,505.586670 398.261932,505.586670 398.261932,505.586670 Z M 285.650421,405.746674 C 285.650421,405.746674 284.160004,405.746674 284.160004,405.746674 C 284.160004,405.746674 284.160004,401.053345 284.160004,401.053345 C 284.160004,401.053345 285.816010,401.053345 285.816010,401.053345 C 285.717010,402.273132 285.653381,403.810577 285.650421,405.746674 Z M 225.639282,401.053345 C 225.639282,401.053345 227.413330,401.053345 227.413330,401.053345 C 227.413330,401.053345 227.413330,405.746674 227.413330,405.746674 C 227.413330,405.746674 225.880066,405.746674 225.880066,405.746674 C 225.857147,403.753540 225.765808,402.224060 225.639282,401.053345 Z" />
  <path
     id="Ellipse 5"
     style="stroke: none; fill: rgb(59, 67, 79)"
     fill-rule="nonzero"
     d="M 269.226654,466.333344 C 270.876160,466.333344 272.213348,467.670502 272.213348,469.320007 C 272.213348,470.969482 270.876160,472.306671 269.226654,472.306671 C 267.577179,472.306671 266.239990,470.969482 266.239990,469.320007 C 266.239990,467.670502 267.577179,466.333344 269.226654,466.333344 Z" />
  <path
     id="Ellipse 5 copy"
     style="stroke: none; fill: rgb(59, 67, 79)"
     fill-rule="nonzero"
     d="M 269.226654,485.959991 C 270.876160,485.959991 272.213348,487.297180 272.213348,488.946655 C 272.213348,490.596161 270.876160,491.933319 269.226654,491.933319 C 267.577179,491.933319 266.239990,490.596161 266.239990,488.946655 C 266.239990,487.297180 267.577179,485.959991 269.226654,485.959991 Z" />
  <path
     id="Shape 2 copy 9"
     style="stroke: none; fill: rgb(59, 67, 79)"
     fill-rule="evenodd"
     d="M 303.786652,426.226685 C 303.786652,426.226685 282.026672,458.653351 282.026672,458.653351 C 276.107239,440.306061 258.986664,447.133331 258.986664,447.133331 C 258.986664,447.133331 258.986664,501.321503 258.986664,501.321503 C 258.986664,502.734528 257.649475,503.880005 256.000000,503.880005 C 254.350525,503.880005 253.013336,502.734528 253.013336,501.321503 C 253.013336,501.321503 253.013336,447.132050 253.013336,447.132050 C 252.874817,447.077118 235.890472,440.380920 230.001587,458.653351 C 230.001587,458.653351 208.265228,426.226685 208.265228,426.226685 C 208.265228,426.226685 199.857147,404.849976 225.313354,395.506683 C 225.313354,386.184052 225.313354,385.693329 225.313354,385.693329 C 225.313354,385.693329 230.126953,385.693329 230.126953,385.693329 C 230.126953,385.693329 230.126953,403.517151 230.126953,416.577057 C 230.744934,421.893341 234.405304,437.041290 256.000000,442.013336 C 277.618164,437.041290 281.282532,421.893341 281.901184,416.577057 C 281.901184,403.517151 281.901184,385.693329 281.901184,385.693329 C 281.901184,385.693329 286.720001,385.693329 286.720001,385.693329 C 286.720001,385.693329 286.720001,386.184052 286.720001,395.506683 C 312.203857,404.849976 303.786652,426.226685 303.786652,426.226685 Z M 229.749268,429.097198 C 228.589020,427.783264 226.917877,424.519989 226.917877,424.519989 C 226.917877,424.519989 225.313354,419.180023 225.313354,416.839996 C 225.313354,413.933655 225.313354,410.118652 225.313354,406.017731 C 224.950470,401.136780 224.034760,401.053345 224.034760,401.053345 C 205.040985,410.408569 213.379669,424.946655 213.379669,424.946655 C 213.379669,424.946655 229.149200,449.693329 229.149200,449.693329 C 235.307312,439.258850 241.935303,441.160004 241.935303,441.160004 C 236.083344,438.177429 232.245422,433.548492 229.749268,429.097198 Z M 288.000000,401.053345 C 288.000000,401.053345 287.083282,401.136780 286.720001,406.017731 C 286.720001,410.118652 286.720001,413.933655 286.720001,416.839996 C 286.720001,419.180023 285.113739,424.519989 285.113739,424.519989 C 285.113739,424.519989 283.440765,427.783264 282.279266,429.097198 C 279.780396,433.548492 275.938293,438.177429 270.079987,441.160004 C 270.079987,441.160004 276.715179,439.258850 282.880005,449.693329 C 282.880005,449.693329 298.666656,424.946655 298.666656,424.946655 C 298.666656,424.946655 307.014404,410.408569 288.000000,401.053345 Z" />
  <path
     id="2 copy 5"
     style="stroke: none; fill: rgb(255, 255, 255)"
     fill-rule="nonzero"
     d="M 256.214661,116.466644 C 309.292542,116.466644 351.186951,166.067871 349.824738,225.664948 C 349.824738,225.664948 348.376923,289.006104 348.376923,289.006104 C 347.093597,345.152466 305.845428,389.533325 256.214661,389.533325 C 206.583893,389.533325 165.335724,345.152466 164.052399,289.006104 C 164.052399,289.006104 162.604584,225.664948 162.604584,225.664948 C 161.242401,166.067871 203.136780,116.466644 256.214661,116.466644 Z" />
  <path
     id="2 line"
     style="stroke: none; fill: rgb(59, 67, 79)"
     fill-rule="evenodd"
     d="M 354.089386,223.701141 C 354.089386,223.701141 352.572327,289.615509 352.572327,289.615509 C 351.227631,348.042816 308.006287,394.226654 256.001404,394.226654 C 203.996490,394.226654 160.775177,348.042816 159.430450,289.615509 C 159.430450,289.615509 157.913361,223.701141 157.913361,223.701141 C 156.486023,161.682922 200.384491,110.066650 256.001404,110.066650 C 311.618317,110.066650 355.516754,161.682922 354.089386,223.701141 Z M 255.788300,116.893311 C 203.436035,116.893311 162.114380,166.107025 163.457916,225.238495 C 163.457916,225.238495 164.885956,288.084808 164.885956,288.084808 C 166.151733,343.792511 206.836029,387.826660 255.788300,387.826660 C 304.740570,387.826660 345.424835,343.792511 346.690613,288.084808 C 346.690613,288.084808 348.118622,225.238495 348.118622,225.238495 C 349.462219,166.107025 308.140564,116.893311 255.788300,116.893311 Z" />
  <path
     opacity="0.058824"
     id="1 copy 4"
     style="stroke: none; fill: rgb(59, 67, 79)"
     fill-rule="evenodd"
     d="M 351.426666,234.653320 C 351.426666,234.653320 347.160004,304.626678 347.160004,304.626678 C 347.160004,304.626678 328.209778,385.397614 255.000000,394.961365 C 255.000000,394.961365 255.000000,395.079987 255.000000,395.079987 C 254.856110,395.062408 254.716797,395.038818 254.573334,395.020691 C 254.429871,395.038818 254.290558,395.062408 254.146667,395.079987 C 254.146667,395.079987 254.146667,394.961365 254.146667,394.961365 C 180.936920,385.397614 161.986664,304.626678 161.986664,304.626678 C 161.986664,304.626678 157.720001,234.653320 157.720001,234.653320 C 176.717773,318.980011 192.706665,324.253357 192.706665,324.253357 C 189.471100,298.682220 215.746674,301.213348 215.746674,301.213348 C 231.760803,303.918427 244.509155,305.225616 254.573334,305.714325 C 264.637543,305.225616 277.385864,303.918427 293.399994,301.213348 C 293.399994,301.213348 319.675537,298.682220 316.440002,324.253357 C 316.440002,324.253357 332.428894,318.980011 351.426666,234.653320 Z M 303.983093,332.926392 C 302.741058,317.884766 293.670868,319.160217 293.670868,319.160217 C 277.546234,323.904846 264.888733,326.540649 255.000000,327.880249 C 255.000000,327.880249 255.000000,327.781921 255.000000,327.781921 C 245.180511,326.453247 232.611664,323.839081 216.600006,319.133331 C 216.600006,319.133331 207.593323,317.868317 206.359985,332.786682 C 206.359985,332.786682 202.743317,347.733337 214.893341,354.119995 C 214.893341,354.119995 230.253326,370.333344 230.253326,370.333344 C 230.253326,370.333344 240.750000,373.660004 240.493347,360.946655 C 240.493347,360.946655 239.424988,351.464996 245.613342,349.853333 C 245.613342,349.853333 255.000000,349.853333 255.000000,349.853333 C 255.000000,349.853333 255.000000,350.134094 255.000000,350.134094 C 255.000000,350.134094 264.452881,350.134094 264.452881,350.134094 C 270.684875,351.759094 269.609009,361.319122 269.609009,361.319122 C 269.350525,374.137543 279.921204,370.783356 279.921204,370.783356 C 279.921204,370.783356 295.389557,354.436035 295.389557,354.436035 C 307.625275,347.996582 303.983093,332.926392 303.983093,332.926392 Z" />
  <path
     id="usta"
     style="stroke: none; fill: rgb(59, 67, 79)"
     fill-rule="nonzero"
     d="M 302.079987,327.325928 C 294.324768,334.059753 276.808014,340.466644 256.426697,340.466644 C 236.045349,340.466644 218.528595,334.059753 210.773346,327.325928 C 210.773346,327.325928 209.979889,325.142639 211.144043,323.978485 C 212.329742,322.792786 214.186676,323.050842 214.186676,323.050842 C 221.933777,329.789246 236.037567,335.346680 256.426697,335.346680 C 276.815796,335.346680 290.919586,329.789246 298.666687,323.050842 C 298.666687,323.050842 300.561707,322.346893 301.482269,323.267456 C 303.255310,325.040497 302.079987,327.325928 302.079987,327.325928 Z" />
  <path
     id="-"
     style="stroke: none; fill: rgb(59, 67, 79)"
     fill-rule="nonzero"
     d="M 242.346680,350.706665 C 242.346680,350.706665 269.653351,350.706665 269.653351,350.706665 C 269.653351,350.706665 269.653351,354.973328 269.653351,354.973328 C 269.653351,354.973328 242.346680,354.973328 242.346680,354.973328 C 242.346680,354.973328 242.346680,350.706665 242.346680,350.706665 Z" />
  <path
     id="Shape 11 copy"
     style="stroke: none; fill: rgb(255, 255, 255)"
     fill-rule="nonzero"
     d="M 157.807220,233.313141 C 157.795441,233.313812 156.759613,232.486603 154.803619,231.870758 C 153.826019,231.563507 152.611023,231.310760 151.226166,231.248444 C 150.880310,231.232880 150.524353,231.229187 150.160126,231.239532 C 149.795898,231.249878 149.423370,231.274231 149.044708,231.314667 C 148.287476,231.395569 147.505402,231.540955 146.718414,231.767334 C 143.567261,232.672913 140.352692,234.874664 138.464783,239.419098 C 137.517090,241.691437 136.891907,244.549713 136.726624,248.125916 C 136.685272,249.019989 136.672638,249.958923 136.690765,250.944794 C 136.708923,251.930664 136.757874,252.963470 136.839630,254.045288 C 137.003052,256.208832 137.298157,258.568451 137.737854,261.139679 C 137.728241,261.137146 137.327759,268.909668 140.106445,277.840820 C 142.718689,286.572784 148.991516,297.299225 160.573334,300.364410 C 159.241302,278.185028 159.199921,255.589905 157.807220,233.313141 C 157.807220,233.313141 157.807220,233.313141 157.807220,233.313141 Z" />
  <path
     id="Shape 3"
     style="stroke: none; fill: rgb(59, 67, 79)"
     fill-rule="nonzero"
     d="M 159.127869,234.207275 C 159.127869,234.207275 138.951477,227.955597 139.661530,248.698090 C 139.661530,248.698090 142.665436,278.775360 143.969879,281.547363 C 143.969879,281.547363 151.893707,299.059387 164.970856,299.835480 C 177.751862,300.593994 164.970856,299.835480 164.970856,299.835480 C 164.970856,299.835480 165.129578,305.480011 165.129578,305.480011 C 165.129578,305.480011 142.144928,302.533020 137.705597,276.045410 C 137.705597,276.045410 134.201721,251.982697 134.201721,251.982697 C 134.201721,251.982697 131.481110,220.138062 157.871185,228.234802 C 183.580475,236.122681 157.871185,228.234802 157.871185,228.234802 C 157.871185,228.234802 159.127869,234.207275 159.127869,234.207275 " />
  <path
     id="Shape 4"
     style="stroke: none; fill: rgb(59, 67, 79)"
     fill-rule="nonzero"
     d="M 152.468323,275.994812 C 152.468323,275.994812 151.339172,276.848145 150.369171,276.848145 C 149.399170,276.848145 148.283783,275.994812 148.283783,275.994812 C 148.283783,275.994812 146.201569,255.012024 146.201569,255.012024 C 146.201569,255.012024 149.074493,244.678558 161.265381,250.139496 C 161.265381,250.139496 161.553558,256.139221 161.553558,256.139221 C 161.553558,256.139221 150.857910,252.346008 151.079071,257.069427 C 151.291962,261.615967 152.468323,275.994812 152.468323,275.994812 Z" />
  <path
     id="Shape 11 copy_1"
     style="stroke: none; fill: rgb(247, 251, 251)"
     fill-rule="nonzero"
     d="M 354.813416,233.362122 C 354.825256,233.362793 355.865631,232.536163 357.830170,231.920715 C 358.812073,231.613678 360.032379,231.361115 361.423309,231.298828 C 361.770660,231.283295 362.128174,231.279602 362.494019,231.289948 C 362.859833,231.300262 363.233978,231.324615 363.614319,231.365021 C 364.374847,231.445862 365.160370,231.591156 365.950806,231.817383 C 369.115753,232.722351 372.344391,234.922607 374.240570,239.463959 C 375.192413,241.734741 375.820343,244.591064 375.986328,248.164856 C 376.027863,249.058319 376.040558,249.996613 376.022369,250.981812 C 376.004120,251.967010 375.954956,252.999115 375.872833,254.080200 C 375.708710,256.242279 375.412292,258.600311 374.970673,261.169769 C 374.980347,261.167236 375.382568,268.934509 372.591705,277.859589 C 369.968048,286.585632 363.667725,297.304779 352.035187,300.367889 C 353.373047,278.203552 353.414612,255.623779 354.813416,233.362122 C 354.813416,233.362122 354.813416,233.362122 354.813416,233.362122 Z" />
  <path
     id="Shape 3_1"
     style="stroke: none; fill: rgb(59, 67, 79)"
     fill-rule="nonzero"
     d="M 352.482605,234.255676 C 352.482605,234.255676 372.747375,228.008240 372.034210,248.736633 C 372.034210,248.736633 369.017151,278.793488 367.706970,281.563599 C 367.706970,281.563599 359.748444,299.063751 346.614044,299.839325 C 333.777039,300.597321 346.614044,299.839325 346.614044,299.839325 C 346.614044,299.839325 346.454620,305.480011 346.454620,305.480011 C 346.454620,305.480011 369.539917,302.535034 373.998688,276.065399 C 373.998688,276.065399 377.517914,252.019012 377.517914,252.019012 C 377.517914,252.019012 380.250458,220.195984 353.744781,228.287231 C 327.922913,236.169769 353.744781,228.287231 353.744781,228.287231 C 353.744781,228.287231 352.482605,234.255676 352.482605,234.255676 " />
  <path
     id="Shape 4_1"
     style="stroke: none; fill: rgb(59, 67, 79)"
     fill-rule="nonzero"
     d="M 359.171326,276.014832 C 359.171326,276.014832 360.305420,276.867584 361.279663,276.867584 C 362.253906,276.867584 363.374176,276.014832 363.374176,276.014832 C 363.374176,276.014832 365.465515,255.046295 365.465515,255.046295 C 365.465515,255.046295 362.580017,244.719849 350.335724,250.177063 C 350.335724,250.177063 350.046295,256.172729 350.046295,256.172729 C 350.046295,256.172729 360.788788,252.382080 360.566650,257.102295 C 360.352844,261.645752 359.171326,276.014832 359.171326,276.014832 Z" />
  <path
     id="Shape 11"
     style="stroke: none; fill: rgb(255, 255, 255)"
     fill-rule="nonzero"
     d="M 353.342529,233.349396 C 353.354340,233.350098 354.391296,232.519043 356.349487,231.900360 C 357.328186,231.591675 358.544525,231.337769 359.930939,231.275146 C 360.277161,231.259491 360.633514,231.255798 360.998169,231.266205 C 361.362793,231.276581 361.735718,231.301056 362.114807,231.341675 C 362.872894,231.422974 363.655823,231.569000 364.443726,231.796448 C 367.598389,232.706207 370.816559,234.918152 372.706543,239.483643 C 373.655334,241.766510 374.281189,244.638000 374.446655,248.230774 C 374.488068,249.128967 374.500702,250.072235 374.482544,251.062683 C 374.464386,252.053131 374.415375,253.090729 374.333527,254.177521 C 374.169922,256.351105 373.874512,258.721619 373.434326,261.304749 C 373.443909,261.302216 373.844849,269.110748 371.063080,278.083221 C 368.447906,286.855621 362.168091,297.631714 350.573334,300.711121 C 351.906830,278.429016 351.948273,255.729309 353.342529,233.349396 C 353.342529,233.349396 353.342529,233.349396 353.342529,233.349396 Z" />
  <path
     id="Shape 3_2"
     style="stroke: none; fill: rgb(59, 67, 79)"
     fill-rule="nonzero"
     d="M 352.922668,234.255646 C 352.922668,234.255646 373.187408,228.008240 372.474274,248.736664 C 372.474274,248.736664 369.457184,278.793457 368.147064,281.563629 C 368.147064,281.563629 360.188538,299.063721 347.054077,299.839294 C 334.217102,300.597351 347.054077,299.839294 347.054077,299.839294 C 347.054077,299.839294 346.894684,305.480011 346.894684,305.480011 C 346.894684,305.480011 369.980011,302.535034 374.438782,276.065369 C 374.438782,276.065369 377.958008,252.019012 377.958008,252.019012 C 377.958008,252.019012 380.690521,220.196014 354.184845,228.287231 C 328.362976,236.169739 354.184845,228.287231 354.184845,228.287231 C 354.184845,228.287231 352.922668,234.255646 352.922668,234.255646 " />
  <path
     id="Shape 4_2"
     style="stroke: none; fill: rgb(59, 67, 79)"
     fill-rule="nonzero"
     d="M 359.611389,276.014832 C 359.611389,276.014832 363.814240,276.014832 363.814240,276.014832 C 363.814240,276.014832 365.905548,255.046265 365.905548,255.046265 C 365.905548,255.046265 363.020081,244.719818 350.775787,250.177063 C 350.775787,250.177063 350.486359,256.172729 350.486359,256.172729 C 350.486359,256.172729 361.228851,252.382080 361.006714,257.102325 C 360.792908,261.645752 359.611389,276.014832 359.611389,276.014832 Z" />
  <path
     id="new_vector_shape_done"
     style="stroke: none; fill: rgb(59, 67, 79)"
     fill-rule="evenodd"
     d="M 263.893341,274.333344 C 264.391052,274.333344 264.888947,274.333344 265.386658,274.333344 C 268.474121,278.526306 269.730225,284.969757 271.359985,290.546661 C 271.865051,292.274963 271.375061,295.297974 270.933319,296.519989 C 269.315552,300.995514 264.235687,300.915192 260.053345,302.919983 C 258.930115,303.458435 258.094604,304.387817 256.640015,304.626678 C 255.691711,303.791351 254.546722,303.627289 254.079987,302.279999 C 252.927673,300.693268 254.412811,299.702393 255.573334,299.079987 C 257.679565,297.950409 264.181488,296.837097 264.959991,294.813324 C 265.923218,293.717590 265.282745,290.423157 264.959991,289.266663 C 264.133392,286.304504 263.736633,283.831543 262.613342,281.160004 C 261.867188,279.385498 260.557159,277.514496 261.333344,275.399994 C 261.976532,275.123810 263.366638,274.809784 263.893341,274.333344 Z" />
  <path
     id="Rounded Rectangle 8"
     style="stroke: none; fill: rgb(59, 67, 79)"
     fill-rule="nonzero"
     d="M 204.799988,241.480011 C 204.799988,241.480011 210.773346,241.480011 210.773346,241.480011 C 214.072327,241.480011 216.746674,244.154358 216.746674,247.453339 C 216.746674,250.752319 214.072327,253.426666 210.773346,253.426666 C 210.773346,253.426666 204.799988,253.426666 204.799988,253.426666 C 201.501007,253.426666 198.826660,250.752319 198.826660,247.453339 C 198.826660,244.154358 201.501007,241.480011 204.799988,241.480011 Z" />
  <path
     id="Rounded Rectangle 8 copy"
     style="stroke: none; fill: rgb(59, 67, 79)"
     fill-rule="nonzero"
     d="M 302.079987,241.480011 C 302.079987,241.480011 308.053345,241.480011 308.053345,241.480011 C 311.352325,241.480011 314.026672,244.154358 314.026672,247.453339 C 314.026672,250.752319 311.352325,253.426666 308.053345,253.426666 C 308.053345,253.426666 302.079987,253.426666 302.079987,253.426666 C 298.781006,253.426666 296.106659,250.752319 296.106659,247.453339 C 296.106659,244.154358 298.781006,241.480011 302.079987,241.480011 Z" />
  <path
     opacity="0.149020"
     id="Rounded Rectangle 10"
     style="stroke: none; fill: rgb(59, 67, 79)"
     fill-rule="nonzero"
     d="M 180.906677,226.119995 C 180.906677,226.119995 238.079987,226.119995 238.079987,226.119995 C 241.378967,226.119995 244.053345,228.794342 244.053345,232.093323 C 244.053345,232.093323 244.053345,268.786652 244.053345,268.786652 C 244.053345,272.085632 241.378967,274.760010 238.079987,274.760010 C 238.079987,274.760010 180.906677,274.760010 180.906677,274.760010 C 177.607697,274.760010 174.933319,272.085632 174.933319,268.786652 C 174.933319,268.786652 174.933319,232.093323 174.933319,232.093323 C 174.933319,228.794342 177.607697,226.119995 180.906677,226.119995 Z" />
  <path
     opacity="0.149020"
     id="Rounded Rectangle 10 copy"
     style="stroke: none; fill: rgb(59, 67, 79)"
     fill-rule="nonzero"
     d="M 273.066681,226.119995 C 273.066681,226.119995 330.239990,226.119995 330.239990,226.119995 C 333.538971,226.119995 336.213348,228.794342 336.213348,232.093323 C 336.213348,232.093323 336.213348,268.786652 336.213348,268.786652 C 336.213348,272.085632 333.538971,274.760010 330.239990,274.760010 C 330.239990,274.760010 273.066681,274.760010 273.066681,274.760010 C 269.767700,274.760010 267.093323,272.085632 267.093323,268.786652 C 267.093323,268.786652 267.093323,232.093323 267.093323,232.093323 C 267.093323,228.794342 269.767700,226.119995 273.066681,226.119995 Z" />
  <path
     id="Shape 1 copy 5"
     style="stroke: none; fill: rgb(59, 67, 79)"
     fill-rule="evenodd"
     d="M 341.333344,230.386658 C 341.333344,230.386658 341.333344,261.959991 341.333344,261.959991 C 341.333344,269.675720 333.806915,281.715454 321.542847,282.404938 C 319.741241,282.319031 283.306671,282.440002 283.306671,282.440002 C 266.928345,282.440002 263.679993,262.813324 263.679993,262.813324 C 263.679993,262.813324 263.679993,241.480011 263.679993,241.480011 C 263.679993,241.480011 248.320007,241.480011 248.320007,241.480011 C 248.320007,241.480011 248.320007,262.813324 248.320007,262.813324 C 248.320007,262.813324 245.071655,282.440002 228.693329,282.440002 C 228.693329,282.440002 192.258759,282.319031 190.457153,282.404938 C 178.193085,281.715454 170.666656,269.675720 170.666656,261.959991 C 170.666656,261.959991 170.666656,230.386658 170.666656,230.386658 C 170.666656,230.386658 157.013336,230.386658 157.013336,230.386658 C 157.013336,230.386658 157.013336,221.853333 157.013336,221.853333 C 157.013336,221.853333 236.373322,221.853333 236.373322,221.853333 C 236.373322,221.853333 248.320007,223.783325 248.320007,232.093323 C 248.320007,232.093323 263.679993,232.093323 263.679993,232.093323 C 263.679993,223.783325 275.626678,221.853333 275.626678,221.853333 C 275.626678,221.853333 354.986664,221.853333 354.986664,221.853333 C 354.986664,221.853333 354.986664,230.386658 354.986664,230.386658 C 354.986664,230.386658 341.333344,230.386658 341.333344,230.386658 Z M 239.786652,234.653320 C 239.786652,231.611664 236.373322,231.239990 236.373322,231.239990 C 236.373322,231.239990 179.200012,231.239990 179.200012,231.239990 C 179.200012,231.239990 179.200012,261.106659 179.200012,261.106659 C 179.200012,270.412506 192.000000,273.906677 192.000000,273.906677 C 192.000000,273.906677 226.986664,273.906677 226.986664,273.906677 C 239.024170,273.906677 239.786652,261.106659 239.786652,261.106659 C 239.786652,261.106659 239.786652,237.695007 239.786652,234.653320 Z M 332.799988,231.239990 C 332.799988,231.239990 275.626678,231.239990 275.626678,231.239990 C 275.626678,231.239990 272.213348,231.611664 272.213348,234.653320 C 272.213348,237.695007 272.213348,261.106659 272.213348,261.106659 C 272.213348,261.106659 272.975830,273.906677 285.013336,273.906677 C 285.013336,273.906677 320.000000,273.906677 320.000000,273.906677 C 320.000000,273.906677 332.799988,270.412506 332.799988,261.106659 C 332.799988,261.106659 332.799988,231.239990 332.799988,231.239990 Z M 320.853333,282.440002 C 321.085968,282.435150 321.313477,282.417847 321.542847,282.404938 C 321.735718,282.414154 321.541962,282.425659 320.853333,282.440002 Z M 190.457153,282.404938 C 190.686523,282.417847 190.914032,282.435150 191.146667,282.440002 C 190.458038,282.425659 190.264282,282.414154 190.457153,282.404938 Z" />
</svg>
