<?xml version="1.0" encoding="UTF-8" standalone="no"?>
<svg
   xmlns:dc="http://purl.org/dc/elements/1.1/"
   xmlns:cc="http://creativecommons.org/ns#"
   xmlns:rdf="http://www.w3.org/1999/02/22-rdf-syntax-ns#"
   xmlns:svg="http://www.w3.org/2000/svg"
   xmlns="http://www.w3.org/2000/svg"
   version="1.1"
   id="svg9797"
   height="512"
   width="512">
  <metadata
     id="metadata9831">
    <rdf:RDF>
      <cc:Work
         rdf:about="">
        <dc:format>image/svg+xml</dc:format>
        <dc:type
           rdf:resource="http://purl.org/dc/dcmitype/StillImage" />
        <dc:title></dc:title>
      </cc:Work>
    </rdf:RDF>
  </metadata>
  <defs
     id="defs9829" />
  <path
     id="body-bg-flat"
     style="stroke: none; fill: rgb(255, 255, 255)"
     fill-rule="nonzero"
     d="M 111.000000,504.000000 C 111.000000,504.000000 100.698120,413.688873 189.440002,403.613342 C 189.440002,403.613342 227.413330,403.613342 227.413330,403.613342 C 227.413330,403.613342 227.413330,386.119995 227.413330,386.119995 C 227.413330,386.119995 254.125000,397.593323 281.173340,387.399994 C 281.173340,387.399994 282.026672,403.613342 282.026672,403.613342 C 282.026672,403.613342 326.399994,403.613342 326.399994,403.613342 C 326.399994,403.613342 403.673462,411.327606 399.000000,504.000000 C 399.000000,504.000000 111.000000,504.000000 111.000000,504.000000 Z" />
  <path
     id="Shape 34"
     style="stroke: none; fill: rgb(59, 67, 79)"
     fill-rule="nonzero"
     d="M 243.000000,451.000000 C 243.000000,451.000000 255.000000,438.000000 255.000000,438.000000 C 255.000000,438.000000 268.000000,451.000000 268.000000,451.000000 C 268.000000,451.000000 261.000000,458.000000 261.000000,458.000000 C 261.000000,458.000000 272.000000,503.000000 272.000000,503.000000 C 272.000000,503.000000 238.000000,503.000000 238.000000,503.000000 C 238.000000,503.000000 250.000000,458.000000 250.000000,458.000000 C 250.000000,458.000000 243.000000,451.000000 243.000000,451.000000 Z" />
  <path
     id="Rounded Rectangle 13 copy 3"
     style="stroke: none; fill: rgb(59, 67, 79)"
     fill-rule="nonzero"
     d="M 398.261932,505.586670 C 398.261932,505.586670 398.261932,505.586670 398.261932,505.586670 C 398.261932,505.586670 113.745544,505.586670 113.745544,505.586670 C 113.745544,505.586670 113.745544,505.586670 113.745544,505.586670 C 113.745544,505.586670 108.227661,505.586670 108.227661,505.586670 C 108.227661,505.586670 109.605011,482.056854 109.605011,482.056854 C 112.294312,436.114624 148.491882,401.053345 189.915009,401.053345 C 189.915009,401.053345 227.413330,401.053345 227.413330,401.053345 C 227.413330,401.053345 227.413330,405.746674 227.413330,405.746674 C 227.413330,405.746674 192.429718,405.746674 192.429718,405.746674 C 152.506348,405.746674 117.619324,439.495087 115.027374,483.717010 C 115.027374,483.717010 114.070648,500.040009 114.070648,500.040009 C 114.070648,500.040009 397.510162,500.040009 397.510162,500.040009 C 397.510162,500.040009 396.980103,483.717010 396.980103,483.717010 C 394.388153,439.495087 359.501129,405.746674 319.577728,405.746674 C 319.577728,405.746674 284.160004,405.746674 284.160004,405.746674 C 284.160004,405.746674 284.160004,401.053345 284.160004,401.053345 C 284.160004,401.053345 321.839417,401.053345 321.839417,401.053345 C 363.262543,401.053345 399.460114,436.114624 402.149414,482.056854 C 402.149414,482.056854 403.526764,505.586670 403.526764,505.586670 C 403.526764,505.586670 398.261932,505.586670 398.261932,505.586670 Z" />
  <path
     id="neck copy 7"
     style="stroke: none; fill: rgb(59, 67, 79)"
     fill-rule="nonzero"
     d="M 230.399994,384.146088 C 230.399994,384.146088 230.399994,410.461182 230.399994,410.461182 C 230.399994,424.116669 241.479462,435.186676 255.146667,435.186676 C 268.813873,435.186676 279.893341,424.116669 279.893341,410.461182 C 279.893341,410.461182 279.893341,384.688995 279.893341,384.688995 C 281.329498,384.251862 282.752136,383.777069 284.160004,383.264130 C 284.160004,383.264130 284.160004,410.640289 284.160004,410.640289 C 284.160004,426.788910 271.074799,439.880005 254.933350,439.880005 C 238.791901,439.880005 225.706665,426.788910 225.706665,410.640289 C 225.706665,410.640289 225.706665,382.453674 225.706665,382.453674 C 227.252502,383.064911 228.818207,383.627106 230.399994,384.146088 Z" />
  <path
     id="Rounded Rectangle 2"
     style="stroke: none; fill: rgb(59, 67, 79)"
     fill-rule="nonzero"
     d="M 331.719940,457.489349 C 331.719940,457.489349 319.634583,482.696259 319.634583,482.696259 C 319.023346,483.971161 317.494324,484.509155 316.219452,483.897919 C 314.944550,483.286682 314.406555,481.757660 315.017792,480.482758 C 315.017792,480.482758 326.689819,456.138000 326.689819,456.138000 C 326.689819,456.138000 317.569641,440.341400 317.569641,440.341400 C 316.862732,439.116974 317.282227,437.551300 318.506653,436.844391 C 319.731110,436.137451 321.296753,436.556976 322.003693,437.781403 C 322.003693,437.781403 331.817017,454.778595 331.817017,454.778595 C 332.322723,455.654480 332.249390,456.703491 331.719940,457.489349 Z" />
  <path
     id="Rounded Rectangle 2 copy 3"
     style="stroke: none; fill: rgb(59, 67, 79)"
     fill-rule="nonzero"
     d="M 178.362396,457.513947 C 178.362396,457.513947 190.512604,482.798462 190.512604,482.798462 C 191.127106,484.077301 192.664337,484.616943 193.946045,484.003815 C 195.227783,483.390686 195.768677,481.856964 195.154144,480.578156 C 195.154144,480.578156 183.419525,456.158447 183.419525,456.158447 C 183.419525,456.158447 192.588623,440.313202 192.588623,440.313202 C 193.299316,439.085022 192.877563,437.514526 191.646576,436.805420 C 190.415558,436.096313 188.841522,436.517120 188.130798,437.745331 C 188.130798,437.745331 178.264832,454.794861 178.264832,454.794861 C 177.756409,455.673431 177.830109,456.725677 178.362396,457.513947 Z" />
  <path
     id="Rectangle 24"
     style="stroke: none; fill: rgb(59, 67, 79)"
     fill-rule="nonzero"
     d="M 225.706665,400.200012 C 225.706665,400.200012 230.399994,400.200012 230.399994,400.200012 C 230.399994,400.200012 230.399994,503.880005 230.399994,503.880005 C 230.399994,503.880005 225.706665,503.880005 225.706665,503.880005 C 225.706665,503.880005 225.706665,400.200012 225.706665,400.200012 Z" />
  <path
     id="Rectangle 24 copy"
     style="stroke: none; fill: rgb(59, 67, 79)"
     fill-rule="nonzero"
     d="M 279.893341,401.053345 C 279.893341,401.053345 284.586670,401.053345 284.586670,401.053345 C 284.586670,401.053345 284.586670,504.733337 284.586670,504.733337 C 284.586670,504.733337 279.893341,504.733337 279.893341,504.733337 C 279.893341,504.733337 279.893341,401.053345 279.893341,401.053345 Z" />
  <path
     id="Rectangle 24 copy 4"
     style="stroke: none; fill: rgb(59, 67, 79)"
     fill-rule="evenodd"
     d="M 270.699280,503.689667 C 270.699280,503.689667 258.605316,458.554413 258.605316,458.554413 C 258.605316,458.554413 261.119995,457.799988 261.119995,457.799988 C 261.119995,457.799988 262.787384,456.028412 262.787384,456.028412 C 262.787384,456.028412 275.578613,503.765900 275.578613,503.765900 C 275.578613,503.765900 270.699280,503.689667 270.699280,503.689667 Z M 236.584991,503.156647 C 236.584991,503.156647 249.211121,456.247620 249.211121,456.247620 C 249.211121,456.247620 250.026672,456.946655 250.026672,456.946655 C 250.026672,456.946655 252.586670,458.653320 252.586670,458.653320 C 252.586670,458.653320 253.430725,458.737732 253.430725,458.737732 C 253.430725,458.737732 241.454407,503.232727 241.454407,503.232727 C 241.454407,503.232727 236.584991,503.156647 236.584991,503.156647 Z" />
  <path
     id="Ellipse 6"
     style="stroke: none; fill: rgb(59, 67, 79)"
     fill-rule="evenodd"
     d="M 284.145569,463.787750 C 284.145569,463.787750 280.826874,467.106445 280.826874,467.106445 C 280.826874,467.106445 267.913605,454.193176 267.913605,454.193176 C 265.421692,458.151001 261.022430,460.786652 256.000000,460.786652 C 250.774628,460.786652 246.224152,457.933960 243.795074,453.706726 C 243.795074,453.706726 230.315369,467.186462 230.315369,467.186462 C 230.315369,467.186462 226.987762,463.858856 226.987762,463.858856 C 226.987762,463.858856 253.526611,437.320007 253.526611,437.320007 C 253.526611,437.320007 255.602203,435.395569 255.602203,435.395569 C 255.602203,435.395569 257.677795,437.320007 257.677795,437.320007 C 257.677795,437.320007 284.145569,463.787750 284.145569,463.787750 Z M 246.405548,451.096252 C 248.107025,454.560669 251.666168,456.946655 255.786652,456.946655 C 259.814484,456.946655 263.300873,454.663452 265.045563,451.325134 C 265.045563,451.325134 255.611115,441.890686 255.611115,441.890686 C 255.611115,441.890686 246.405548,451.096252 246.405548,451.096252 Z" />
  <path
     id="1 copy 4"
     style="stroke: none; fill: rgb(255, 255, 255)"
     fill-rule="nonzero"
     d="M 256.006958,125.426636 C 310.036316,125.426636 351.137390,172.810333 348.938171,227.029968 C 348.938171,227.029968 345.953674,300.609589 345.953674,300.609589 C 337.498535,350.564606 303.058563,386.630249 256.384003,391.666687 C 210.854645,386.881989 175.739075,350.551758 166.060211,300.609589 C 166.060211,300.609589 163.075714,227.029968 163.075714,227.029968 C 160.876495,172.810333 201.977600,125.426636 256.006958,125.426636 Z" />
  <path
     id="1 line"
     style="stroke: none; fill: rgb(59, 67, 79)"
     fill-rule="evenodd"
     d="M 354.906677,223.909088 C 354.906677,223.909088 351.730286,300.790375 351.730286,300.790375 C 342.731506,352.986938 306.077179,390.670929 256.401611,395.933350 C 207.944855,390.933960 170.571472,352.973511 160.270294,300.790375 C 160.270294,300.790375 157.093903,223.909088 157.093903,223.909088 C 154.753296,167.256531 198.497070,117.746643 256.000305,117.746643 C 313.503571,117.746643 357.247284,167.256531 354.906677,223.909088 Z M 256.006958,123.719971 C 201.977600,123.719971 160.876495,171.103668 163.075714,225.323303 C 163.075714,225.323303 166.060211,298.902924 166.060211,298.902924 C 175.739075,348.845093 210.854645,385.175323 256.384003,389.960022 C 303.058563,384.923584 337.498535,348.857941 345.953674,298.902924 C 345.953674,298.902924 348.938171,225.323303 348.938171,225.323303 C 351.137390,171.103668 310.036316,123.719971 256.006958,123.719971 Z" />
  <path
     id="-"
     style="stroke: none; fill: rgb(59, 67, 79)"
     fill-rule="nonzero"
     d="M 302.079987,327.325928 C 294.324768,334.059753 276.808014,340.466644 256.426697,340.466644 C 236.045349,340.466644 218.528595,334.059753 210.773346,327.325928 C 210.773346,327.325928 209.979889,325.142639 211.144043,323.978485 C 212.329742,322.792786 214.186676,323.050842 214.186676,323.050842 C 221.933777,329.789246 236.037567,335.346680 256.426697,335.346680 C 276.815796,335.346680 290.919586,329.789246 298.666687,323.050842 C 298.666687,323.050842 300.561707,322.346893 301.482269,323.267456 C 303.255310,325.040497 302.079987,327.325928 302.079987,327.325928 Z" />
  <path
     id="-_1"
     style="stroke: none; fill: rgb(59, 67, 79)"
     fill-rule="nonzero"
     d="M 242.346680,350.706665 C 242.346680,350.706665 269.653351,350.706665 269.653351,350.706665 C 269.653351,350.706665 269.653351,354.973328 269.653351,354.973328 C 269.653351,354.973328 242.346680,354.973328 242.346680,354.973328 C 242.346680,354.973328 242.346680,350.706665 242.346680,350.706665 Z" />
  <path
     id="Shape 11 copy"
     style="stroke: none; fill: rgb(255, 255, 255)"
     fill-rule="nonzero"
     d="M 157.807220,233.313141 C 157.795441,233.313812 156.759613,232.486603 154.803619,231.870758 C 153.826019,231.563507 152.611023,231.310760 151.226166,231.248444 C 150.880310,231.232880 150.524353,231.229187 150.160126,231.239532 C 149.795898,231.249878 149.423370,231.274231 149.044708,231.314667 C 148.287476,231.395569 147.505402,231.540955 146.718414,231.767334 C 143.567261,232.672913 140.352692,234.874664 138.464783,239.419098 C 137.517090,241.691437 136.891907,244.549713 136.726624,248.125916 C 136.685272,249.019989 136.672638,249.958923 136.690765,250.944794 C 136.708923,251.930664 136.757874,252.963470 136.839630,254.045288 C 137.003052,256.208832 137.298157,258.568451 137.737854,261.139679 C 137.728241,261.137146 137.327759,268.909668 140.106445,277.840820 C 142.718689,286.572784 148.991516,297.299225 160.573334,300.364410 C 159.241302,278.185028 159.199921,255.589905 157.807220,233.313141 C 157.807220,233.313141 157.807220,233.313141 157.807220,233.313141 Z" />
  <path
     id="Shape 3"
     style="stroke: none; fill: rgb(59, 67, 79)"
     fill-rule="nonzero"
     d="M 159.127869,234.207275 C 159.127869,234.207275 138.951477,227.955597 139.661530,248.698090 C 139.661530,248.698090 142.665436,278.775360 143.969879,281.547363 C 143.969879,281.547363 151.893707,299.059387 164.970856,299.835480 C 177.751862,300.593994 164.970856,299.835480 164.970856,299.835480 C 164.970856,299.835480 165.129578,305.480011 165.129578,305.480011 C 165.129578,305.480011 142.144928,302.533020 137.705597,276.045410 C 137.705597,276.045410 134.201721,251.982697 134.201721,251.982697 C 134.201721,251.982697 131.481110,220.138062 157.871185,228.234802 C 183.580475,236.122681 157.871185,228.234802 157.871185,228.234802 C 157.871185,228.234802 159.127869,234.207275 159.127869,234.207275 " />
  <path
     id="Shape 4"
     style="stroke: none; fill: rgb(59, 67, 79)"
     fill-rule="nonzero"
     d="M 152.468323,275.994812 C 152.468323,275.994812 151.339172,276.848145 150.369171,276.848145 C 149.399170,276.848145 148.283783,275.994812 148.283783,275.994812 C 148.283783,275.994812 146.201569,255.012024 146.201569,255.012024 C 146.201569,255.012024 149.074493,244.678558 161.265381,250.139496 C 161.265381,250.139496 161.553558,256.139221 161.553558,256.139221 C 161.553558,256.139221 150.857910,252.346008 151.079071,257.069427 C 151.291962,261.615967 152.468323,275.994812 152.468323,275.994812 Z" />
  <path
     id="Shape 11 copy_1"
     style="stroke: none; fill: rgb(255, 255, 255)"
     fill-rule="nonzero"
     d="M 353.813416,233.362122 C 353.825256,233.362793 354.865631,232.536163 356.830170,231.920715 C 357.812073,231.613678 359.032379,231.361115 360.423309,231.298828 C 360.770660,231.283295 361.128174,231.279602 361.494019,231.289948 C 361.859833,231.300262 362.233978,231.324615 362.614319,231.365021 C 363.374847,231.445862 364.160370,231.591156 364.950806,231.817383 C 368.115753,232.722351 371.344391,234.922607 373.240570,239.463959 C 374.192413,241.734741 374.820343,244.591064 374.986328,248.164856 C 375.027863,249.058319 375.040558,249.996613 375.022369,250.981812 C 375.004120,251.967010 374.954956,252.999115 374.872833,254.080200 C 374.708710,256.242279 374.412292,258.600311 373.970673,261.169769 C 373.980347,261.167236 374.382568,268.934509 371.591705,277.859589 C 368.968048,286.585632 362.667725,297.304779 351.035187,300.367889 C 352.373047,278.203552 352.414612,255.623779 353.813416,233.362122 C 353.813416,233.362122 353.813416,233.362122 353.813416,233.362122 Z" />
  <path
     id="Shape 3_1"
     style="stroke: none; fill: rgb(59, 67, 79)"
     fill-rule="nonzero"
     d="M 352.482605,234.255676 C 352.482605,234.255676 372.747375,228.008240 372.034210,248.736633 C 372.034210,248.736633 369.017151,278.793488 367.706970,281.563599 C 367.706970,281.563599 359.748444,299.063751 346.614044,299.839325 C 333.777039,300.597321 346.614044,299.839325 346.614044,299.839325 C 346.614044,299.839325 346.454620,305.480011 346.454620,305.480011 C 346.454620,305.480011 369.539917,302.535034 373.998688,276.065399 C 373.998688,276.065399 377.517914,252.019012 377.517914,252.019012 C 377.517914,252.019012 380.250458,220.195984 353.744781,228.287231 C 327.922913,236.169769 353.744781,228.287231 353.744781,228.287231 C 353.744781,228.287231 352.482605,234.255676 352.482605,234.255676 " />
  <path
     id="Shape 4_1"
     style="stroke: none; fill: rgb(59, 67, 79)"
     fill-rule="nonzero"
     d="M 359.171326,276.014832 C 359.171326,276.014832 360.305420,276.867584 361.279663,276.867584 C 362.253906,276.867584 363.374176,276.014832 363.374176,276.014832 C 363.374176,276.014832 365.465515,255.046295 365.465515,255.046295 C 365.465515,255.046295 362.580017,244.719849 350.335724,250.177063 C 350.335724,250.177063 350.046295,256.172729 350.046295,256.172729 C 350.046295,256.172729 360.788788,252.382080 360.566650,257.102295 C 360.352844,261.645752 359.171326,276.014832 359.171326,276.014832 Z" />
  <path
     id="new_vector_shape_done"
     style="stroke: none; fill: rgb(59, 67, 79)"
     fill-rule="evenodd"
     d="M 263.893341,274.333344 C 264.391052,274.333344 264.888947,274.333344 265.386658,274.333344 C 268.474121,278.526306 269.730225,284.969757 271.359985,290.546661 C 271.865051,292.274963 271.375061,295.297974 270.933319,296.519989 C 269.315552,300.995514 264.235687,300.915192 260.053345,302.919983 C 258.930115,303.458435 258.094604,304.387817 256.640015,304.626678 C 255.691711,303.791351 254.546722,303.627289 254.079987,302.279999 C 252.927673,300.693268 254.412811,299.702393 255.573334,299.079987 C 257.679565,297.950409 264.181488,296.837097 264.959991,294.813324 C 265.923218,293.717590 265.282745,290.423157 264.959991,289.266663 C 264.133392,286.304504 263.736633,283.831543 262.613342,281.160004 C 261.867188,279.385498 260.557159,277.514496 261.333344,275.399994 C 261.976532,275.123810 263.366638,274.809784 263.893341,274.333344 Z" />
  <path
     id="Rounded Rectangle 8"
     style="stroke: none; fill: rgb(59, 67, 79)"
     fill-rule="nonzero"
     d="M 204.799988,241.480011 C 204.799988,241.480011 210.773346,241.480011 210.773346,241.480011 C 214.072327,241.480011 216.746674,244.154358 216.746674,247.453339 C 216.746674,250.752319 214.072327,253.426666 210.773346,253.426666 C 210.773346,253.426666 204.799988,253.426666 204.799988,253.426666 C 201.501007,253.426666 198.826660,250.752319 198.826660,247.453339 C 198.826660,244.154358 201.501007,241.480011 204.799988,241.480011 Z" />
  <path
     id="Rounded Rectangle 8 copy"
     style="stroke: none; fill: rgb(59, 67, 79)"
     fill-rule="nonzero"
     d="M 302.079987,241.480011 C 302.079987,241.480011 308.053345,241.480011 308.053345,241.480011 C 311.352325,241.480011 314.026672,244.154358 314.026672,247.453339 C 314.026672,250.752319 311.352325,253.426666 308.053345,253.426666 C 308.053345,253.426666 302.079987,253.426666 302.079987,253.426666 C 298.781006,253.426666 296.106659,250.752319 296.106659,247.453339 C 296.106659,244.154358 298.781006,241.480011 302.079987,241.480011 Z" />
  <path
     id="Ellipse 3 copy"
     style="stroke: none; fill: rgb(245, 243, 239)"
     fill-rule="nonzero"
     d="M 208.640015,269.640015 C 216.887451,269.640015 223.573334,270.113220 223.573334,279.453339 C 223.573334,289.087250 216.887451,289.266663 208.640015,289.266663 C 200.392548,289.266663 193.706696,287.512146 193.706696,279.453339 C 193.706696,270.039642 200.392548,269.640015 208.640015,269.640015 Z" />
  <path
     id="Ellipse 3 copy 2"
     style="stroke: none; fill: rgb(245, 243, 239)"
     fill-rule="nonzero"
     d="M 307.626678,269.640015 C 315.874115,269.640015 322.559998,270.113220 322.559998,279.453339 C 322.559998,289.087250 315.874115,289.266663 307.626678,289.266663 C 299.379211,289.266663 292.693359,287.512146 292.693359,279.453339 C 292.693359,270.039642 299.379211,269.640015 307.626678,269.640015 Z" />
  <path
     id="R copy"
     style="stroke: none; fill: rgb(59, 67, 79)"
     fill-rule="nonzero"
     d="M 283.326904,226.440948 C 283.326904,226.440948 308.871521,211.836151 327.119781,227.927032 C 327.119781,227.927032 331.946655,228.675201 331.946655,228.675201 C 331.946655,228.675201 325.764191,206.177856 280.746674,220.806366 C 280.746674,220.806366 282.000000,225.000000 282.000000,225.000000  M 283.000000,225.000000 C 283.000000,225.000000 308.987244,210.073700 326.119781,228.927032 C 326.119781,228.927032 334.946655,228.675201 334.946655,228.675201 C 334.946655,228.675201 323.938019,204.643188 278.746674,219.806366 C 278.746674,219.806366 283.000000,226.000000 283.000000,226.000000 " />
  <path
     id="R copy 3"
     style="stroke: none; fill: rgb(59, 67, 79)"
     fill-rule="nonzero"
     d="M 228.438354,226.525543 C 228.438354,226.525543 202.979004,212.049988 184.791626,227.998474 C 184.791626,227.998474 179.980865,228.740021 179.980865,228.740021 C 179.980865,228.740021 186.142700,206.441772 231.009979,220.940826 C 231.009979,220.940826 229.760834,225.097351 229.760834,225.097351  M 228.764191,225.097351 C 228.764191,225.097351 202.863647,210.303131 185.788300,228.989624 C 185.788300,228.989624 176.990875,228.740021 176.990875,228.740021 C 176.990875,228.740021 187.962769,204.920685 233.003326,219.949677 C 233.003326,219.949677 228.764191,226.088501 228.764191,226.088501 " />
  <path
     id="Shape 1"
     style="stroke: none; fill: rgb(59, 67, 79)"
     fill-rule="nonzero"
     d="M 165.637238,217.564209 C 165.637238,217.564209 193.730438,203.320892 190.625336,154.341949 C 190.625336,154.341949 235.565857,203.583344 343.893341,188.573334 C 343.893341,188.573334 349.013336,234.653320 349.013336,234.653320 C 349.013336,234.653320 412.695221,116.653442 298.666656,89.586670 C 187.075287,63.098389 185.788910,132.983093 185.788910,132.983093 C 185.788910,132.983093 151.567322,127.869293 148.709808,161.176788 C 145.852325,194.484283 156.160004,229.533325 156.160004,229.533325 C 156.160004,229.533325 164.693329,236.359985 164.693329,236.359985 C 164.693329,236.359985 165.637238,217.564209 165.637238,217.564209 Z" />
</svg>
