<?xml version="1.0" encoding="UTF-8" standalone="no"?>
<svg
   xmlns:dc="http://purl.org/dc/elements/1.1/"
   xmlns:cc="http://creativecommons.org/ns#"
   xmlns:rdf="http://www.w3.org/1999/02/22-rdf-syntax-ns#"
   xmlns:svg="http://www.w3.org/2000/svg"
   xmlns="http://www.w3.org/2000/svg"
   version="1.1"
   id="svg7296"
   height="512"
   width="512">
  <metadata
     id="metadata7333">
    <rdf:RDF>
      <cc:Work
         rdf:about="">
        <dc:format>image/svg+xml</dc:format>
        <dc:type
           rdf:resource="http://purl.org/dc/dcmitype/StillImage" />
        <dc:title></dc:title>
      </cc:Work>
    </rdf:RDF>
  </metadata>
  <defs
     id="defs7331" />
  <path
     id="back"
     style="stroke: none; fill: rgb(59, 67, 79)"
     fill-rule="nonzero"
     d="M 127.086243,438.505310 C 127.086243,438.505310 145.209442,311.777130 138.594116,252.362305 C 131.937408,192.576080 150.686371,93.066650 268.742126,93.066650 C 372.859467,93.066650 384.487946,206.979645 382.009674,228.016785 C 379.250885,251.434845 358.387482,399.159271 382.406677,450.808197 C 406.161469,501.888641 305.569855,481.293335 305.569855,481.293335 C 305.569855,481.293335 170.577240,478.542847 170.577240,478.542847 C 170.577240,478.542847 127.086243,438.505310 127.086243,438.505310 Z" />
  <path
     id="body-bg-flat copy"
     style="stroke: none; fill: rgb(255, 255, 255)"
     fill-rule="nonzero"
     d="M 114.359985,502.000000 C 114.359985,502.000000 107.744995,412.011780 192.440002,403.613342 C 192.440002,403.613342 230.413330,403.613342 230.413330,403.613342 C 230.413330,403.613342 230.413330,386.119995 230.413330,386.119995 C 230.413330,386.119995 257.125000,397.593323 284.173340,387.399994 C 284.173340,387.399994 285.026672,403.613342 285.026672,403.613342 C 285.026672,403.613342 329.399994,403.613342 329.399994,403.613342 C 329.399994,403.613342 405.385406,406.597595 401.933319,502.853333 C 401.933319,502.853333 114.359985,502.000000 114.359985,502.000000 Z" />
  <path
     id="body-bg-flat"
     style="stroke: none; fill: rgb(255, 255, 255)"
     fill-rule="nonzero"
     d="M 114.000000,504.000000 C 114.000000,504.000000 103.698120,413.688873 192.440002,403.613342 C 192.440002,403.613342 230.413330,403.613342 230.413330,403.613342 C 230.413330,403.613342 230.413330,386.119995 230.413330,386.119995 C 230.413330,386.119995 257.125000,397.593323 284.173340,387.399994 C 284.173340,387.399994 285.026672,403.613342 285.026672,403.613342 C 285.026672,403.613342 329.399994,403.613342 329.399994,403.613342 C 329.399994,403.613342 406.673462,411.327606 402.000000,504.000000 C 402.000000,504.000000 114.000000,504.000000 114.000000,504.000000 Z" />
  <path
     id="Rounded Rectangle 13 copy"
     style="stroke: none; fill: rgb(59, 67, 79)"
     fill-rule="nonzero"
     d="M 401.261932,505.586670 C 401.261932,505.586670 401.261932,505.586670 401.261932,505.586670 C 401.261932,505.586670 116.745544,505.586670 116.745544,505.586670 C 116.745544,505.586670 116.745544,505.586670 116.745544,505.586670 C 116.745544,505.586670 111.227661,505.586670 111.227661,505.586670 C 111.227661,505.586670 112.605011,482.056854 112.605011,482.056854 C 115.294312,436.114624 151.491882,401.053345 192.915009,401.053345 C 192.915009,401.053345 224.440002,401.053345 224.440002,401.053345 C 224.440002,401.053345 224.440002,405.746674 224.440002,405.746674 C 224.440002,405.746674 195.429718,405.746674 195.429718,405.746674 C 155.506348,405.746674 120.619324,439.495087 118.027374,483.717010 C 118.027374,483.717010 117.070648,500.040009 117.070648,500.040009 C 117.070648,500.040009 400.510162,500.040009 400.510162,500.040009 C 400.510162,500.040009 399.980103,483.717010 399.980103,483.717010 C 397.388153,439.495087 362.501129,405.746674 322.577728,405.746674 C 322.577728,405.746674 283.746674,405.746674 283.746674,405.746674 C 283.746674,405.746674 283.746674,401.053345 283.746674,401.053345 C 283.746674,401.053345 324.839417,401.053345 324.839417,401.053345 C 366.262543,401.053345 402.460114,436.114624 405.149414,482.056854 C 405.149414,482.056854 406.526764,505.586670 406.526764,505.586670 C 406.526764,505.586670 401.261932,505.586670 401.261932,505.586670 Z" />
  <path
     id="neck copy 5"
     style="stroke: none; fill: rgb(59, 67, 79)"
     fill-rule="nonzero"
     d="M 234.679993,384.146088 C 234.679993,384.146088 234.679993,410.461182 234.679993,410.461182 C 234.679993,424.116669 245.759460,435.186676 259.426666,435.186676 C 273.093872,435.186676 284.173340,424.116669 284.173340,410.461182 C 284.173340,410.461182 284.173340,384.688995 284.173340,384.688995 C 285.609497,384.251862 287.032135,383.777069 288.440002,383.264130 C 288.440002,383.264130 288.440002,410.640289 288.440002,410.640289 C 288.440002,426.788910 275.354797,439.880005 259.213348,439.880005 C 243.071899,439.880005 229.986664,426.788910 229.986664,410.640289 C 229.986664,410.640289 229.986664,382.453674 229.986664,382.453674 C 231.532501,383.064911 233.098206,383.627106 234.679993,384.146088 Z" />
  <path
     id="Rounded Rectangle 14"
     style="stroke: none; fill: rgb(59, 67, 79)"
     fill-rule="nonzero"
     d="M 229.773346,434.760010 C 231.304993,434.760010 232.546661,436.001648 232.546661,437.533325 C 232.546661,437.533325 232.546661,479.346649 232.546661,479.346649 C 232.546661,480.878326 231.304993,482.119995 229.773346,482.119995 C 228.241669,482.119995 227.000000,480.878326 227.000000,479.346649 C 227.000000,479.346649 227.000000,437.533325 227.000000,437.533325 C 227.000000,436.001648 228.241669,434.760010 229.773346,434.760010 Z" />
  <path
     id="Rounded Rectangle 15"
     style="stroke: none; fill: rgb(59, 67, 79)"
     fill-rule="nonzero"
     d="M 288.013336,434.333344 C 289.662811,434.333344 291.000000,435.670502 291.000000,437.320007 C 291.000000,437.320007 291.000000,463.346649 291.000000,463.346649 C 291.000000,464.996155 289.662811,466.333344 288.013336,466.333344 C 286.363831,466.333344 285.026672,464.996155 285.026672,463.346649 C 285.026672,463.346649 285.026672,437.320007 285.026672,437.320007 C 285.026672,435.670502 286.363831,434.333344 288.013336,434.333344 Z" />
  <path
     id="Rounded Rectangle 16"
     style="stroke: none; fill: rgb(59, 67, 79)"
     fill-rule="nonzero"
     d="M 229.773346,479.133331 C 230.598083,479.133331 231.266663,479.801910 231.266663,480.626678 C 231.266663,480.626678 231.266663,491.293335 231.266663,491.293335 C 231.266663,492.118073 230.598083,492.786652 229.773346,492.786652 C 228.948578,492.786652 228.279999,492.118073 228.279999,491.293335 C 228.279999,491.293335 228.279999,480.626678 228.279999,480.626678 C 228.279999,479.801910 228.948578,479.133331 229.773346,479.133331 Z" />
  <path
     id="Rounded Rectangle 16 copy"
     style="stroke: none; fill: rgb(59, 67, 79)"
     fill-rule="nonzero"
     d="M 288.226654,463.346649 C 289.051422,463.346649 289.720001,464.015259 289.720001,464.839996 C 289.720001,464.839996 289.720001,475.506653 289.720001,475.506653 C 289.720001,476.331421 289.051422,477.000000 288.226654,477.000000 C 287.401917,477.000000 286.733337,476.331421 286.733337,475.506653 C 286.733337,475.506653 286.733337,464.839996 286.733337,464.839996 C 286.733337,464.015259 287.401917,463.346649 288.226654,463.346649 Z" />
  <path
     id="Shape 1 copy"
     style="stroke: none; fill: rgb(245, 243, 239)"
     fill-rule="nonzero"
     d="M 213.765503,373.646149 C 213.765503,373.646149 186.741852,379.851379 186.741852,379.851379 C 186.741852,379.851379 153.648834,387.347412 175.665649,409.650940 C 197.682495,431.954468 254.306671,435.893341 254.306671,435.893341 C 254.306671,435.893341 239.335297,428.802094 232.973328,418.826660 C 232.973328,418.826660 230.839996,382.986664 230.839996,382.986664 C 230.839996,382.986664 213.765503,373.646149 213.765503,373.646149 Z" />
  <path
     id="Shape 1 copy 2"
     style="stroke: none; fill: rgb(59, 67, 79)"
     fill-rule="evenodd"
     d="M 255.160004,438.026672 C 253.483246,440.148926 206.333374,438.689697 173.666656,410.293335 C 150.014038,389.732666 185.613342,377.866669 185.613342,377.866669 C 185.613342,377.866669 211.640015,371.893341 211.640015,371.893341 C 211.640015,371.893341 234.253326,383.413330 234.253326,383.413330 C 234.253326,383.413330 235.959991,417.973328 235.959991,417.973328 C 245.479462,432.899689 257.859344,434.610107 255.160004,438.026672 Z M 231.693329,419.679993 C 231.693329,419.679993 229.133331,383.413330 229.133331,383.413330 C 229.133331,383.413330 215.480011,375.733337 215.480011,375.733337 C 215.480011,375.733337 189.453339,382.133331 189.453339,382.133331 C 189.453339,382.133331 157.928406,388.597870 177.933319,407.306671 C 199.522644,427.497131 239.461578,432.915588 243.640015,432.480011 C 247.970764,432.028503 241.212799,434.606384 231.693329,419.679993 Z" />
  <path
     id="Shape 1 copy 4"
     style="stroke: none; fill: rgb(245, 243, 239)"
     fill-rule="nonzero"
     d="M 305.059265,374.651398 C 305.059265,374.651398 332.098938,380.875214 332.098938,380.875214 C 332.098938,380.875214 365.211548,388.393677 343.181702,410.764008 C 321.151794,433.134338 264.494049,437.084991 264.494049,437.084991 C 264.494049,437.084991 279.474335,429.972534 285.840027,419.967224 C 285.840027,419.967224 287.974640,384.019897 287.974640,384.019897 C 287.974640,384.019897 305.059265,374.651398 305.059265,374.651398 Z" />
  <path
     id="Shape 1 copy 6"
     style="stroke: none; fill: rgb(59, 67, 79)"
     fill-rule="evenodd"
     d="M 263.640228,438.798035 C 265.317963,440.926666 312.495789,439.463074 345.181854,410.981659 C 368.848511,390.359406 333.228119,378.457886 333.228119,378.457886 C 333.228119,378.457886 307.186005,372.466675 307.186005,372.466675 C 307.186005,372.466675 284.559296,384.021149 284.559296,384.021149 C 284.559296,384.021149 282.851593,418.684662 282.851593,418.684662 C 273.326508,433.655731 260.939301,435.371246 263.640228,438.798035 Z M 287.120789,420.396423 C 287.120789,420.396423 289.682312,384.021149 289.682312,384.021149 C 289.682312,384.021149 303.343750,376.318176 303.343750,376.318176 C 303.343750,376.318176 329.385834,382.737335 329.385834,382.737335 C 329.385834,382.737335 360.929474,389.221222 340.912659,407.986053 C 319.310547,428.237000 279.347931,433.671661 275.167053,433.234772 C 270.833710,432.781921 277.595703,435.367493 287.120789,420.396423 Z" />
  <path
     id="2 copy 5"
     style="stroke: none; fill: rgb(255, 255, 255)"
     fill-rule="nonzero"
     d="M 259.214661,116.466644 C 312.292542,116.466644 354.186951,166.067871 352.824738,225.664948 C 352.824738,225.664948 351.376923,289.006104 351.376923,289.006104 C 350.093597,345.152466 308.845428,389.533325 259.214661,389.533325 C 209.583893,389.533325 168.335724,345.152466 167.052399,289.006104 C 167.052399,289.006104 165.604584,225.664948 165.604584,225.664948 C 164.242401,166.067871 206.136780,116.466644 259.214661,116.466644 Z" />
  <path
     id="2 line"
     style="stroke: none; fill: rgb(59, 67, 79)"
     fill-rule="evenodd"
     d="M 357.089386,223.701141 C 357.089386,223.701141 355.572327,289.615509 355.572327,289.615509 C 354.227631,348.042816 311.006287,394.226654 259.001404,394.226654 C 206.996490,394.226654 163.775177,348.042816 162.430450,289.615509 C 162.430450,289.615509 160.913361,223.701141 160.913361,223.701141 C 159.486023,161.682922 203.384491,110.066650 259.001404,110.066650 C 314.618317,110.066650 358.516754,161.682922 357.089386,223.701141 Z M 258.788300,116.893311 C 206.436035,116.893311 165.114380,166.107025 166.457916,225.238495 C 166.457916,225.238495 167.885956,288.084808 167.885956,288.084808 C 169.151733,343.792511 209.836029,387.826660 258.788300,387.826660 C 307.740570,387.826660 348.424835,343.792511 349.690613,288.084808 C 349.690613,288.084808 351.118622,225.238495 351.118622,225.238495 C 352.462219,166.107025 311.140564,116.893311 258.788300,116.893311 Z" />
  <path
     id="usta"
     style="stroke: none; fill: rgb(59, 67, 79)"
     fill-rule="nonzero"
     d="M 305.079987,327.325928 C 297.324768,334.059753 279.808014,340.466644 259.426697,340.466644 C 239.045349,340.466644 221.528595,334.059753 213.773346,327.325928 C 213.773346,327.325928 212.979889,325.142639 214.144043,323.978485 C 215.329742,322.792786 217.186676,323.050842 217.186676,323.050842 C 224.933777,329.789246 239.037567,335.346680 259.426697,335.346680 C 279.815796,335.346680 293.919586,329.789246 301.666687,323.050842 C 301.666687,323.050842 303.561707,322.346893 304.482269,323.267456 C 306.255310,325.040497 305.079987,327.325928 305.079987,327.325928 Z" />
  <path
     id="-"
     style="stroke: none; fill: rgb(59, 67, 79)"
     fill-rule="nonzero"
     d="M 245.346680,350.706665 C 245.346680,350.706665 272.653351,350.706665 272.653351,350.706665 C 272.653351,350.706665 272.653351,354.973328 272.653351,354.973328 C 272.653351,354.973328 245.346680,354.973328 245.346680,354.973328 C 245.346680,354.973328 245.346680,350.706665 245.346680,350.706665 Z" />
  <path
     id="Shape 11 copy"
     style="stroke: none; fill: rgb(255, 255, 255)"
     fill-rule="nonzero"
     d="M 159.807220,233.313141 C 159.795441,233.313812 158.759613,232.486603 156.803619,231.870758 C 155.826019,231.563507 154.611023,231.310760 153.226166,231.248444 C 152.880310,231.232880 152.524353,231.229187 152.160126,231.239532 C 151.795898,231.249878 151.423370,231.274231 151.044708,231.314667 C 150.287476,231.395569 149.505402,231.540955 148.718414,231.767334 C 145.567261,232.672913 142.352692,234.874664 140.464783,239.419098 C 139.517090,241.691437 138.891907,244.549713 138.726624,248.125916 C 138.685272,249.019989 138.672638,249.958923 138.690765,250.944794 C 138.708923,251.930664 138.757874,252.963470 138.839630,254.045288 C 139.003052,256.208832 139.298157,258.568451 139.737854,261.139679 C 139.728241,261.137146 139.327759,268.909668 142.106445,277.840820 C 144.718689,286.572784 150.991516,297.299225 162.573334,300.364410 C 161.241302,278.185028 161.199921,255.589905 159.807220,233.313141 C 159.807220,233.313141 159.807220,233.313141 159.807220,233.313141 Z" />
  <path
     id="Shape 3"
     style="stroke: none; fill: rgb(59, 67, 79)"
     fill-rule="nonzero"
     d="M 162.127869,234.207275 C 162.127869,234.207275 141.951477,227.955597 142.661530,248.698090 C 142.661530,248.698090 145.665436,278.775360 146.969879,281.547363 C 146.969879,281.547363 154.893707,299.059387 167.970856,299.835480 C 180.751862,300.593994 167.970856,299.835480 167.970856,299.835480 C 167.970856,299.835480 168.129578,305.480011 168.129578,305.480011 C 168.129578,305.480011 145.144928,302.533020 140.705597,276.045410 C 140.705597,276.045410 137.201721,251.982697 137.201721,251.982697 C 137.201721,251.982697 134.481110,220.138062 160.871185,228.234802 C 186.580475,236.122681 160.871185,228.234802 160.871185,228.234802 C 160.871185,228.234802 162.127869,234.207275 162.127869,234.207275 " />
  <path
     id="Shape 4"
     style="stroke: none; fill: rgb(59, 67, 79)"
     fill-rule="nonzero"
     d="M 155.468323,275.994812 C 155.468323,275.994812 154.339172,276.848145 153.369171,276.848145 C 152.399170,276.848145 151.283783,275.994812 151.283783,275.994812 C 151.283783,275.994812 149.201569,255.012024 149.201569,255.012024 C 149.201569,255.012024 152.074493,244.678558 164.265381,250.139496 C 164.265381,250.139496 164.553558,256.139221 164.553558,256.139221 C 164.553558,256.139221 153.857910,252.346008 154.079071,257.069427 C 154.291962,261.615967 155.468323,275.994812 155.468323,275.994812 Z" />
  <path
     id="Shape 11 copy_1"
     style="stroke: none; fill: rgb(255, 255, 255)"
     fill-rule="nonzero"
     d="M 356.813416,233.362122 C 356.825256,233.362793 357.865631,232.536163 359.830170,231.920715 C 360.812073,231.613678 362.032379,231.361115 363.423309,231.298828 C 363.770660,231.283295 364.128174,231.279602 364.494019,231.289948 C 364.859833,231.300262 365.233978,231.324615 365.614319,231.365021 C 366.374847,231.445862 367.160370,231.591156 367.950806,231.817383 C 371.115753,232.722351 374.344391,234.922607 376.240570,239.463959 C 377.192413,241.734741 377.820343,244.591064 377.986328,248.164856 C 378.027863,249.058319 378.040558,249.996613 378.022369,250.981812 C 378.004120,251.967010 377.954956,252.999115 377.872833,254.080200 C 377.708710,256.242279 377.412292,258.600311 376.970673,261.169769 C 376.980347,261.167236 377.382568,268.934509 374.591705,277.859589 C 371.968048,286.585632 365.667725,297.304779 354.035187,300.367889 C 355.373047,278.203552 355.414612,255.623779 356.813416,233.362122 C 356.813416,233.362122 356.813416,233.362122 356.813416,233.362122 Z" />
  <path
     id="Shape 3_1"
     style="stroke: none; fill: rgb(59, 67, 79)"
     fill-rule="nonzero"
     d="M 355.482605,234.255676 C 355.482605,234.255676 375.747375,228.008240 375.034210,248.736633 C 375.034210,248.736633 372.017151,278.793488 370.706970,281.563599 C 370.706970,281.563599 362.748444,299.063751 349.614044,299.839325 C 336.777039,300.597321 349.614044,299.839325 349.614044,299.839325 C 349.614044,299.839325 349.454620,305.480011 349.454620,305.480011 C 349.454620,305.480011 372.539917,302.535034 376.998688,276.065399 C 376.998688,276.065399 380.517914,252.019012 380.517914,252.019012 C 380.517914,252.019012 383.250458,220.195984 356.744781,228.287231 C 330.922913,236.169769 356.744781,228.287231 356.744781,228.287231 C 356.744781,228.287231 355.482605,234.255676 355.482605,234.255676 " />
  <path
     id="Shape 4_1"
     style="stroke: none; fill: rgb(59, 67, 79)"
     fill-rule="nonzero"
     d="M 362.171326,276.014832 C 362.171326,276.014832 363.305420,276.867584 364.279663,276.867584 C 365.253906,276.867584 366.374176,276.014832 366.374176,276.014832 C 366.374176,276.014832 368.465515,255.046295 368.465515,255.046295 C 368.465515,255.046295 365.580017,244.719849 353.335724,250.177063 C 353.335724,250.177063 353.046295,256.172729 353.046295,256.172729 C 353.046295,256.172729 363.788788,252.382080 363.566650,257.102295 C 363.352844,261.645752 362.171326,276.014832 362.171326,276.014832 Z" />
  <path
     id="new_vector_shape_done"
     style="stroke: none; fill: rgb(59, 67, 79)"
     fill-rule="evenodd"
     d="M 266.893341,274.333344 C 267.391052,274.333344 267.888947,274.333344 268.386658,274.333344 C 271.474121,278.526306 272.730225,284.969757 274.359985,290.546661 C 274.865051,292.274963 274.375061,295.297974 273.933319,296.519989 C 272.315552,300.995514 267.235687,300.915192 263.053345,302.919983 C 261.930115,303.458435 261.094604,304.387817 259.640015,304.626678 C 258.691711,303.791351 257.546722,303.627289 257.079987,302.279999 C 255.927673,300.693268 257.412811,299.702393 258.573334,299.079987 C 260.679565,297.950409 267.181488,296.837097 267.959991,294.813324 C 268.923218,293.717590 268.282745,290.423157 267.959991,289.266663 C 267.133392,286.304504 266.736633,283.831543 265.613342,281.160004 C 264.867188,279.385498 263.557159,277.514496 264.333344,275.399994 C 264.976532,275.123810 266.366638,274.809784 266.893341,274.333344 Z" />
  <path
     id="oko"
     style="stroke: none; fill: rgb(59, 67, 79)"
     fill-rule="nonzero"
     d="M 212.066681,238.066681 C 216.779510,238.066681 220.600006,241.887177 220.600006,246.600006 C 220.600006,251.312836 216.779510,255.133331 212.066681,255.133331 C 207.353851,255.133331 203.533325,251.312836 203.533325,246.600006 C 203.533325,241.887177 207.353851,238.066681 212.066681,238.066681 Z" />
  <path
     id="oko_1"
     style="stroke: none; fill: rgb(59, 67, 79)"
     fill-rule="nonzero"
     d="M 306.786652,238.066681 C 311.499481,238.066681 315.319977,241.887177 315.319977,246.600006 C 315.319977,251.312836 311.499481,255.133331 306.786652,255.133331 C 302.073853,255.133331 298.253326,251.312836 298.253326,246.600006 C 298.253326,241.887177 302.073853,238.066681 306.786652,238.066681 Z" />
  <path
     id="Ellipse 3 copy"
     style="stroke: none; fill: rgb(245, 243, 239)"
     fill-rule="nonzero"
     d="M 211.640015,269.640015 C 219.887451,269.640015 226.573334,270.113220 226.573334,279.453339 C 226.573334,289.087250 219.887451,289.266663 211.640015,289.266663 C 203.392548,289.266663 196.706696,287.512146 196.706696,279.453339 C 196.706696,270.039642 203.392548,269.640015 211.640015,269.640015 Z" />
  <path
     id="Ellipse 3 copy 2"
     style="stroke: none; fill: rgb(245, 243, 239)"
     fill-rule="nonzero"
     d="M 310.626678,269.640015 C 318.874115,269.640015 325.559998,270.113220 325.559998,279.453339 C 325.559998,289.087250 318.874115,289.266663 310.626678,289.266663 C 302.379211,289.266663 295.693359,287.512146 295.693359,279.453339 C 295.693359,270.039642 302.379211,269.640015 310.626678,269.640015 Z" />
  <path
     id="R"
     style="stroke: none; fill: rgb(59, 67, 79)"
     fill-rule="nonzero"
     d="M 282.000000,222.610168 C 282.000000,222.610168 284.471436,225.749329 284.471436,225.749329 C 284.471436,225.749329 286.004822,227.694916 286.004822,227.694916 C 286.004822,227.694916 313.155151,212.702881 332.000000,230.000000 C 332.000000,230.000000 334.009155,230.984924 334.009155,230.984924 C 334.009155,230.984924 329.366699,205.908600 288.727692,220.576416 C 286.583557,221.158020 284.346405,221.829254 282.000000,222.610168 Z" />
  <path
     id="L"
     style="stroke: none; fill: rgb(59, 67, 79)"
     fill-rule="nonzero"
     d="M 235.000000,222.627625 C 235.000000,222.627625 232.528564,225.760254 232.528564,225.760254 C 232.528564,225.760254 230.995178,227.701782 230.995178,227.701782 C 230.995178,227.701782 203.844849,212.740936 185.000000,230.002075 C 185.000000,230.002075 182.990845,230.984955 182.990845,230.984955 C 182.990845,230.984955 187.633301,205.960754 228.272308,220.598083 C 230.416443,221.178497 232.653595,221.848328 235.000000,222.627625 Z" />
  <path
     id="Shape 26"
     style="stroke: none; fill: rgb(59, 67, 79)"
     fill-rule="nonzero"
     d="M 164.279999,223.986664 C 164.279999,223.986664 164.392517,248.864532 164.706665,248.306671 C 167.565155,243.230774 163.930023,185.108643 245.773346,186.866669 C 291.402069,187.846771 298.253326,160.200012 298.253326,160.200012 C 298.253326,160.200012 310.003632,164.786621 328.119995,183.453339 C 347.541656,203.464996 351.160004,228.679993 351.160004,228.679993 C 351.160004,228.679993 366.946655,171.506653 366.946655,171.506653 C 366.946655,171.506653 308.493347,110.919983 308.493347,110.919983 C 308.493347,110.919983 264.973328,108.359985 264.973328,108.359985 C 264.973328,108.359985 227.000000,114.333344 227.000000,114.333344 C 227.000000,114.333344 198.839996,127.559998 198.839996,127.559998 C 198.839996,127.559998 167.693329,167.239990 167.693329,167.239990 " />
</svg>
