<?xml version="1.0" encoding="UTF-8" standalone="no"?>
<svg
   xmlns:dc="http://purl.org/dc/elements/1.1/"
   xmlns:cc="http://creativecommons.org/ns#"
   xmlns:rdf="http://www.w3.org/1999/02/22-rdf-syntax-ns#"
   xmlns:svg="http://www.w3.org/2000/svg"
   xmlns="http://www.w3.org/2000/svg"
   version="1.1"
   id="svg5448"
   height="512"
   width="512">
  <metadata
     id="metadata5477">
    <rdf:RDF>
      <cc:Work
         rdf:about="">
        <dc:format>image/svg+xml</dc:format>
        <dc:type
           rdf:resource="http://purl.org/dc/dcmitype/StillImage" />
        <dc:title></dc:title>
      </cc:Work>
    </rdf:RDF>
  </metadata>
  <defs
     id="defs5475" />
  <path
     id="body-bg-flat copy"
     style="stroke: none; fill: rgb(255, 255, 255)"
     fill-rule="nonzero"
     d="M 117.359985,502.000000 C 117.359985,502.000000 110.744995,412.011780 195.440002,403.613342 C 195.440002,403.613342 233.413330,403.613342 233.413330,403.613342 C 233.413330,403.613342 233.413330,386.119995 233.413330,386.119995 C 233.413330,386.119995 260.125000,397.593323 287.173340,387.399994 C 287.173340,387.399994 288.026672,403.613342 288.026672,403.613342 C 288.026672,403.613342 332.399994,403.613342 332.399994,403.613342 C 332.399994,403.613342 408.385406,406.597595 404.933319,502.853333 C 404.933319,502.853333 117.359985,502.000000 117.359985,502.000000 Z" />
  <path
     id="Rounded Rectangle 13"
     style="stroke: none; fill: rgb(59, 67, 79)"
     fill-rule="nonzero"
     d="M 404.675262,505.586670 C 404.675262,505.586670 404.675262,505.586670 404.675262,505.586670 C 404.675262,505.586670 120.158875,505.586670 120.158875,505.586670 C 120.158875,505.586670 120.158875,505.586670 120.158875,505.586670 C 120.158875,505.586670 114.640991,505.586670 114.640991,505.586670 C 114.640991,505.586670 116.018341,482.056854 116.018341,482.056854 C 118.707642,436.114624 154.905212,401.053345 196.328339,401.053345 C 196.328339,401.053345 227.853333,401.053345 227.853333,401.053345 C 227.853333,401.053345 227.853333,405.746674 227.853333,405.746674 C 227.853333,405.746674 198.843048,405.746674 198.843048,405.746674 C 158.919678,405.746674 124.032654,439.495087 121.440704,483.717010 C 121.440704,483.717010 120.483978,500.040009 120.483978,500.040009 C 120.483978,500.040009 403.923492,500.040009 403.923492,500.040009 C 403.923492,500.040009 403.393433,483.717010 403.393433,483.717010 C 400.801483,439.495087 365.914459,405.746674 325.991058,405.746674 C 325.991058,405.746674 287.160004,405.746674 287.160004,405.746674 C 287.160004,405.746674 287.160004,401.053345 287.160004,401.053345 C 287.160004,401.053345 328.252747,401.053345 328.252747,401.053345 C 369.675873,401.053345 405.873444,436.114624 408.562744,482.056854 C 408.562744,482.056854 409.940094,505.586670 409.940094,505.586670 C 409.940094,505.586670 404.675262,505.586670 404.675262,505.586670 Z" />
  <path
     id="Ellipse 4"
     style="stroke: none; fill: rgb(59, 67, 79)"
     fill-rule="nonzero"
     d="M 257.720001,453.959991 C 234.862793,453.959991 216.333313,435.430573 216.333313,412.573334 C 216.333313,408.573883 216.911926,404.711700 217.970459,401.053345 C 217.970459,401.053345 218.040009,401.053345 218.040009,401.053345 C 218.040009,401.053345 222.431793,401.053345 222.431793,401.053345 C 222.431793,401.053345 229.986664,401.053345 229.986664,401.053345 C 229.986664,401.053345 229.986664,405.746674 229.986664,405.746674 C 229.986664,405.746674 221.238647,405.746674 221.238647,405.746674 C 220.824432,407.959839 220.599976,410.239716 220.599976,412.573334 C 220.599976,433.074158 237.219208,449.693329 257.720001,449.693329 C 278.220825,449.693329 294.839996,433.074158 294.839996,412.573334 C 294.839996,410.239716 294.615570,407.959839 294.201324,405.746674 C 294.201324,405.746674 285.453339,405.746674 285.453339,405.746674 C 285.453339,405.746674 285.453339,401.053345 285.453339,401.053345 C 285.453339,401.053345 293.008179,401.053345 293.008179,401.053345 C 293.008179,401.053345 297.399994,401.053345 297.399994,401.053345 C 297.399994,401.053345 297.469513,401.053345 297.469513,401.053345 C 298.528046,404.711700 299.106659,408.573883 299.106659,412.573334 C 299.106659,435.430573 280.577240,453.959991 257.720001,453.959991 Z" />
  <path
     id="neck"
     style="stroke: none; fill: rgb(59, 67, 79)"
     fill-rule="nonzero"
     d="M 233.399994,384.146088 C 233.399994,384.146088 233.399994,410.461182 233.399994,410.461182 C 233.399994,424.116669 244.479462,435.186676 258.146667,435.186676 C 271.813873,435.186676 282.893341,424.116669 282.893341,410.461182 C 282.893341,410.461182 282.893341,384.688995 282.893341,384.688995 C 284.329498,384.251862 285.752136,383.777069 287.160004,383.264130 C 287.160004,383.264130 287.160004,410.640289 287.160004,410.640289 C 287.160004,426.788910 274.074799,439.880005 257.933350,439.880005 C 241.791901,439.880005 228.706665,426.788910 228.706665,410.640289 C 228.706665,410.640289 228.706665,382.453674 228.706665,382.453674 C 230.252502,383.064911 231.818207,383.627106 233.399994,384.146088 Z" />
  <path
     id="2 copy 5"
     style="stroke: none; fill: rgb(255, 255, 255)"
     fill-rule="nonzero"
     d="M 259.214661,116.466644 C 312.292542,116.466644 354.186951,166.067871 352.824738,225.664948 C 352.824738,225.664948 351.376923,289.006104 351.376923,289.006104 C 350.093597,345.152466 308.845428,389.533325 259.214661,389.533325 C 209.583893,389.533325 168.335724,345.152466 167.052399,289.006104 C 167.052399,289.006104 165.604584,225.664948 165.604584,225.664948 C 164.242401,166.067871 206.136780,116.466644 259.214661,116.466644 Z" />
  <path
     id="2 line"
     style="stroke: none; fill: rgb(59, 67, 79)"
     fill-rule="evenodd"
     d="M 357.089386,223.701141 C 357.089386,223.701141 355.572327,289.615509 355.572327,289.615509 C 354.227631,348.042816 311.006287,394.226654 259.001404,394.226654 C 206.996490,394.226654 163.775177,348.042816 162.430450,289.615509 C 162.430450,289.615509 160.913361,223.701141 160.913361,223.701141 C 159.486023,161.682922 203.384491,110.066650 259.001404,110.066650 C 314.618317,110.066650 358.516754,161.682922 357.089386,223.701141 Z M 258.788300,116.893311 C 206.436035,116.893311 165.114380,166.107025 166.457916,225.238495 C 166.457916,225.238495 167.885956,288.084808 167.885956,288.084808 C 169.151733,343.792511 209.836029,387.826660 258.788300,387.826660 C 307.740570,387.826660 348.424835,343.792511 349.690613,288.084808 C 349.690613,288.084808 351.118622,225.238495 351.118622,225.238495 C 352.462219,166.107025 311.140564,116.893311 258.788300,116.893311 Z" />
  <path
     opacity="0.058824"
     id="1 copy 4"
     style="stroke: none; fill: rgb(59, 67, 79)"
     fill-rule="evenodd"
     d="M 354.426666,234.653320 C 354.426666,234.653320 350.160004,304.626678 350.160004,304.626678 C 350.160004,304.626678 331.209778,385.397614 258.000000,394.961365 C 258.000000,394.961365 258.000000,395.079987 258.000000,395.079987 C 257.856110,395.062408 257.716797,395.038818 257.573334,395.020691 C 257.429871,395.038818 257.290558,395.062408 257.146667,395.079987 C 257.146667,395.079987 257.146667,394.961365 257.146667,394.961365 C 183.936920,385.397614 164.986664,304.626678 164.986664,304.626678 C 164.986664,304.626678 160.720001,234.653320 160.720001,234.653320 C 179.717773,318.980011 195.706665,324.253357 195.706665,324.253357 C 192.471100,298.682220 218.746674,301.213348 218.746674,301.213348 C 234.760803,303.918427 247.509155,305.225616 257.573334,305.714325 C 267.637543,305.225616 280.385864,303.918427 296.399994,301.213348 C 296.399994,301.213348 322.675537,298.682220 319.440002,324.253357 C 319.440002,324.253357 335.428894,318.980011 354.426666,234.653320 Z M 306.983093,332.926392 C 305.741058,317.884766 296.670868,319.160217 296.670868,319.160217 C 280.546234,323.904846 267.888733,326.540649 258.000000,327.880249 C 258.000000,327.880249 258.000000,327.781921 258.000000,327.781921 C 248.180511,326.453247 235.611664,323.839081 219.600006,319.133331 C 219.600006,319.133331 210.593323,317.868317 209.359985,332.786682 C 209.359985,332.786682 205.743317,347.733337 217.893341,354.119995 C 217.893341,354.119995 233.253326,370.333344 233.253326,370.333344 C 233.253326,370.333344 243.750000,373.660004 243.493347,360.946655 C 243.493347,360.946655 242.424988,351.464996 248.613342,349.853333 C 248.613342,349.853333 258.000000,349.853333 258.000000,349.853333 C 258.000000,349.853333 258.000000,350.134094 258.000000,350.134094 C 258.000000,350.134094 267.452881,350.134094 267.452881,350.134094 C 273.684875,351.759094 272.609009,361.319122 272.609009,361.319122 C 272.350525,374.137543 282.921204,370.783356 282.921204,370.783356 C 282.921204,370.783356 298.389557,354.436035 298.389557,354.436035 C 310.625275,347.996582 306.983093,332.926392 306.983093,332.926392 Z" />
  <path
     id="usta"
     style="stroke: none; fill: rgb(59, 67, 79)"
     fill-rule="nonzero"
     d="M 305.079987,327.325928 C 297.324768,334.059753 279.808014,340.466644 259.426697,340.466644 C 239.045349,340.466644 221.528595,334.059753 213.773346,327.325928 C 213.773346,327.325928 212.979889,325.142639 214.144043,323.978485 C 215.329742,322.792786 217.186676,323.050842 217.186676,323.050842 C 224.933777,329.789246 239.037567,335.346680 259.426697,335.346680 C 279.815796,335.346680 293.919586,329.789246 301.666687,323.050842 C 301.666687,323.050842 303.561707,322.346893 304.482269,323.267456 C 306.255310,325.040497 305.079987,327.325928 305.079987,327.325928 Z" />
  <path
     id="-"
     style="stroke: none; fill: rgb(59, 67, 79)"
     fill-rule="nonzero"
     d="M 245.346680,350.706665 C 245.346680,350.706665 272.653351,350.706665 272.653351,350.706665 C 272.653351,350.706665 272.653351,354.973328 272.653351,354.973328 C 272.653351,354.973328 245.346680,354.973328 245.346680,354.973328 C 245.346680,354.973328 245.346680,350.706665 245.346680,350.706665 Z" />
  <path
     id="Shape 11 copy"
     style="stroke: none; fill: rgb(255, 255, 255)"
     fill-rule="nonzero"
     d="M 160.807220,233.313141 C 160.795441,233.313812 159.759613,232.486603 157.803619,231.870758 C 156.826019,231.563507 155.611023,231.310760 154.226166,231.248444 C 153.880310,231.232880 153.524353,231.229187 153.160126,231.239532 C 152.795898,231.249878 152.423370,231.274231 152.044708,231.314667 C 151.287476,231.395569 150.505402,231.540955 149.718414,231.767334 C 146.567261,232.672913 143.352692,234.874664 141.464783,239.419098 C 140.517090,241.691437 139.891907,244.549713 139.726624,248.125916 C 139.685272,249.019989 139.672638,249.958923 139.690765,250.944794 C 139.708923,251.930664 139.757874,252.963470 139.839630,254.045288 C 140.003052,256.208832 140.298157,258.568451 140.737854,261.139679 C 140.728241,261.137146 140.327759,268.909668 143.106445,277.840820 C 145.718689,286.572784 151.991516,297.299225 163.573334,300.364410 C 162.241302,278.185028 162.199921,255.589905 160.807220,233.313141 C 160.807220,233.313141 160.807220,233.313141 160.807220,233.313141 Z" />
  <path
     id="Shape 3"
     style="stroke: none; fill: rgb(59, 67, 79)"
     fill-rule="nonzero"
     d="M 162.127869,234.207275 C 162.127869,234.207275 141.951477,227.955597 142.661530,248.698090 C 142.661530,248.698090 145.665436,278.775360 146.969879,281.547363 C 146.969879,281.547363 154.893707,299.059387 167.970856,299.835480 C 180.751862,300.593994 167.970856,299.835480 167.970856,299.835480 C 167.970856,299.835480 168.129578,305.480011 168.129578,305.480011 C 168.129578,305.480011 145.144928,302.533020 140.705597,276.045410 C 140.705597,276.045410 137.201721,251.982697 137.201721,251.982697 C 137.201721,251.982697 134.481110,220.138062 160.871185,228.234802 C 186.580475,236.122681 160.871185,228.234802 160.871185,228.234802 C 160.871185,228.234802 162.127869,234.207275 162.127869,234.207275 " />
  <path
     id="Shape 4"
     style="stroke: none; fill: rgb(59, 67, 79)"
     fill-rule="nonzero"
     d="M 155.468323,275.994812 C 155.468323,275.994812 154.339172,276.848145 153.369171,276.848145 C 152.399170,276.848145 151.283783,275.994812 151.283783,275.994812 C 151.283783,275.994812 149.201569,255.012024 149.201569,255.012024 C 149.201569,255.012024 152.074493,244.678558 164.265381,250.139496 C 164.265381,250.139496 164.553558,256.139221 164.553558,256.139221 C 164.553558,256.139221 153.857910,252.346008 154.079071,257.069427 C 154.291962,261.615967 155.468323,275.994812 155.468323,275.994812 Z" />
  <path
     id="Shape 11 copy_1"
     style="stroke: none; fill: rgb(255, 255, 255)"
     fill-rule="nonzero"
     d="M 356.813416,233.362122 C 356.825256,233.362793 357.865631,232.536163 359.830170,231.920715 C 360.812073,231.613678 362.032379,231.361115 363.423309,231.298828 C 363.770660,231.283295 364.128174,231.279602 364.494019,231.289948 C 364.859833,231.300262 365.233978,231.324615 365.614319,231.365021 C 366.374847,231.445862 367.160370,231.591156 367.950806,231.817383 C 371.115753,232.722351 374.344391,234.922607 376.240570,239.463959 C 377.192413,241.734741 377.820343,244.591064 377.986328,248.164856 C 378.027863,249.058319 378.040558,249.996613 378.022369,250.981812 C 378.004120,251.967010 377.954956,252.999115 377.872833,254.080200 C 377.708710,256.242279 377.412292,258.600311 376.970673,261.169769 C 376.980347,261.167236 377.382568,268.934509 374.591705,277.859589 C 371.968048,286.585632 365.667725,297.304779 354.035187,300.367889 C 355.373047,278.203552 355.414612,255.623779 356.813416,233.362122 C 356.813416,233.362122 356.813416,233.362122 356.813416,233.362122 Z" />
  <path
     id="Shape 3_1"
     style="stroke: none; fill: rgb(59, 67, 79)"
     fill-rule="nonzero"
     d="M 355.482605,234.255676 C 355.482605,234.255676 375.747375,228.008240 375.034210,248.736633 C 375.034210,248.736633 372.017151,278.793488 370.706970,281.563599 C 370.706970,281.563599 362.748444,299.063751 349.614044,299.839325 C 336.777039,300.597321 349.614044,299.839325 349.614044,299.839325 C 349.614044,299.839325 349.454620,305.480011 349.454620,305.480011 C 349.454620,305.480011 372.539917,302.535034 376.998688,276.065399 C 376.998688,276.065399 380.517914,252.019012 380.517914,252.019012 C 380.517914,252.019012 383.250458,220.195984 356.744781,228.287231 C 330.922913,236.169769 356.744781,228.287231 356.744781,228.287231 C 356.744781,228.287231 355.482605,234.255676 355.482605,234.255676 " />
  <path
     id="Shape 4_1"
     style="stroke: none; fill: rgb(59, 67, 79)"
     fill-rule="nonzero"
     d="M 362.171326,276.014832 C 362.171326,276.014832 363.305420,276.867584 364.279663,276.867584 C 365.253906,276.867584 366.374176,276.014832 366.374176,276.014832 C 366.374176,276.014832 368.465515,255.046295 368.465515,255.046295 C 368.465515,255.046295 365.580017,244.719849 353.335724,250.177063 C 353.335724,250.177063 353.046295,256.172729 353.046295,256.172729 C 353.046295,256.172729 363.788788,252.382080 363.566650,257.102295 C 363.352844,261.645752 362.171326,276.014832 362.171326,276.014832 Z" />
  <path
     id="new_vector_shape_done"
     style="stroke: none; fill: rgb(59, 67, 79)"
     fill-rule="evenodd"
     d="M 266.893341,274.333344 C 267.391052,274.333344 267.888947,274.333344 268.386658,274.333344 C 271.474121,278.526306 272.730225,284.969757 274.359985,290.546661 C 274.865051,292.274963 274.375061,295.297974 273.933319,296.519989 C 272.315552,300.995514 267.235687,300.915192 263.053345,302.919983 C 261.930115,303.458435 261.094604,304.387817 259.640015,304.626678 C 258.691711,303.791351 257.546722,303.627289 257.079987,302.279999 C 255.927673,300.693268 257.412811,299.702393 258.573334,299.079987 C 260.679565,297.950409 267.181488,296.837097 267.959991,294.813324 C 268.923218,293.717590 268.282745,290.423157 267.959991,289.266663 C 267.133392,286.304504 266.736633,283.831543 265.613342,281.160004 C 264.867188,279.385498 263.557159,277.514496 264.333344,275.399994 C 264.976532,275.123810 266.366638,274.809784 266.893341,274.333344 Z" />
  <path
     id="Rounded Rectangle 8"
     style="stroke: none; fill: rgb(59, 67, 79)"
     fill-rule="nonzero"
     d="M 207.799988,241.480011 C 207.799988,241.480011 213.773346,241.480011 213.773346,241.480011 C 217.072327,241.480011 219.746674,244.154358 219.746674,247.453339 C 219.746674,250.752319 217.072327,253.426666 213.773346,253.426666 C 213.773346,253.426666 207.799988,253.426666 207.799988,253.426666 C 204.501007,253.426666 201.826660,250.752319 201.826660,247.453339 C 201.826660,244.154358 204.501007,241.480011 207.799988,241.480011 Z" />
  <path
     id="Rounded Rectangle 8 copy"
     style="stroke: none; fill: rgb(59, 67, 79)"
     fill-rule="nonzero"
     d="M 305.079987,241.480011 C 305.079987,241.480011 311.053345,241.480011 311.053345,241.480011 C 314.352325,241.480011 317.026672,244.154358 317.026672,247.453339 C 317.026672,250.752319 314.352325,253.426666 311.053345,253.426666 C 311.053345,253.426666 305.079987,253.426666 305.079987,253.426666 C 301.781006,253.426666 299.106659,250.752319 299.106659,247.453339 C 299.106659,244.154358 301.781006,241.480011 305.079987,241.480011 Z" />
  <path
     id="Ellipse 3"
     style="stroke: none; fill: rgb(237, 241, 241)"
     fill-rule="nonzero"
     d="M 310.626678,269.640015 C 316.517700,269.640015 321.293335,274.415649 321.293335,280.306671 C 321.293335,286.197693 316.517700,290.973328 310.626678,290.973328 C 304.735626,290.973328 299.960022,286.197693 299.960022,280.306671 C 299.960022,274.415649 304.735626,269.640015 310.626678,269.640015 Z" />
  <path
     id="Ellipse 3 copy"
     style="stroke: none; fill: rgb(237, 241, 241)"
     fill-rule="nonzero"
     d="M 207.373352,269.640015 C 213.264374,269.640015 218.040009,274.415649 218.040009,280.306671 C 218.040009,286.197693 213.264374,290.973328 207.373352,290.973328 C 201.482300,290.973328 196.706696,286.197693 196.706696,280.306671 C 196.706696,274.415649 201.482300,269.640015 207.373352,269.640015 Z" />
  <path
     id="R copy"
     style="stroke: none; fill: rgb(59, 67, 79)"
     fill-rule="nonzero"
     d="M 286.326904,226.440948 C 286.326904,226.440948 311.871521,211.836151 330.119781,227.927032 C 330.119781,227.927032 334.946655,228.675201 334.946655,228.675201 C 334.946655,228.675201 328.764191,206.177856 283.746674,220.806366 C 283.746674,220.806366 285.000000,225.000000 285.000000,225.000000  M 286.000000,225.000000 C 286.000000,225.000000 311.987244,210.073700 329.119781,228.927032 C 329.119781,228.927032 337.946655,228.675201 337.946655,228.675201 C 337.946655,228.675201 326.938019,204.643188 281.746674,219.806366 C 281.746674,219.806366 286.000000,226.000000 286.000000,226.000000 " />
  <path
     id="R copy 3"
     style="stroke: none; fill: rgb(59, 67, 79)"
     fill-rule="nonzero"
     d="M 231.438354,226.525543 C 231.438354,226.525543 205.979004,212.049988 187.791626,227.998474 C 187.791626,227.998474 182.980865,228.740021 182.980865,228.740021 C 182.980865,228.740021 189.142700,206.441772 234.009979,220.940826 C 234.009979,220.940826 232.760834,225.097351 232.760834,225.097351  M 231.764191,225.097351 C 231.764191,225.097351 205.863647,210.303131 188.788300,228.989624 C 188.788300,228.989624 179.990875,228.740021 179.990875,228.740021 C 179.990875,228.740021 190.962769,204.920685 236.003326,219.949677 C 236.003326,219.949677 231.764191,226.088501 231.764191,226.088501 " />
  <path
     id="Shape 1"
     style="stroke: none; fill: rgb(59, 67, 79)"
     fill-rule="nonzero"
     d="M 167.000000,278.000000 C 167.000000,278.000000 123.943512,261.071259 118.178284,235.490387 C 112.413086,209.909546 117.346283,193.807831 124.495819,188.539185 C 124.495819,188.539185 121.421661,149.157501 136.228363,136.466003 C 136.228363,136.466003 142.907837,107.870636 176.841064,98.904999 C 176.841064,98.904999 229.531769,43.328278 324.851715,81.831848 C 324.851715,81.831848 348.328400,104.533936 362.476044,112.752197 C 362.878265,112.985870 363.272980,113.207825 363.659393,113.417206 C 377.636444,120.991211 390.816772,136.761658 393.442017,167.197693 C 393.442017,167.197693 393.178772,194.434753 406.979584,212.441620 C 406.979584,212.441620 422.256348,259.864136 350.121826,276.466003 C 350.121826,276.466003 347.414307,210.734283 347.414307,210.734283 C 347.414307,210.734283 314.042816,199.267700 310.411652,168.905029 C 310.411652,168.905029 261.657623,184.270874 230.991302,168.051361 C 230.991302,168.051361 211.949402,162.309174 211.136200,170.612335 C 211.136200,170.612335 204.757568,204.963196 170.523529,214.148926 C 170.523529,214.148926 167.000000,278.000000 167.000000,278.000000 Z" />
</svg>
