<?xml version="1.0" encoding="UTF-8" standalone="no"?>
<svg
   xmlns:dc="http://purl.org/dc/elements/1.1/"
   xmlns:cc="http://creativecommons.org/ns#"
   xmlns:rdf="http://www.w3.org/1999/02/22-rdf-syntax-ns#"
   xmlns:svg="http://www.w3.org/2000/svg"
   xmlns="http://www.w3.org/2000/svg"
   version="1.1"
   id="svg6678"
   height="512"
   width="512">
  <metadata
     id="metadata6716">
    <rdf:RDF>
      <cc:Work
         rdf:about="">
        <dc:format>image/svg+xml</dc:format>
        <dc:type
           rdf:resource="http://purl.org/dc/dcmitype/StillImage" />
        <dc:title></dc:title>
      </cc:Work>
    </rdf:RDF>
  </metadata>
  <defs
     id="defs6714" />
  <path
     id="body-bg-flat copy"
     style="stroke: none; fill: rgb(255, 255, 255)"
     fill-rule="nonzero"
     d="M 116.359985,502.000000 C 116.359985,502.000000 109.744995,412.011780 194.440002,403.613342 C 194.440002,403.613342 232.413330,403.613342 232.413330,403.613342 C 232.413330,403.613342 232.413330,386.119995 232.413330,386.119995 C 232.413330,386.119995 259.125000,397.593323 286.173340,387.399994 C 286.173340,387.399994 287.026672,403.613342 287.026672,403.613342 C 287.026672,403.613342 331.399994,403.613342 331.399994,403.613342 C 331.399994,403.613342 407.385406,406.597595 403.933319,502.853333 C 403.933319,502.853333 116.359985,502.000000 116.359985,502.000000 Z" />
  <path
     id="Rounded Rectangle 13"
     style="stroke: none; fill: rgb(59, 67, 79)"
     fill-rule="nonzero"
     d="M 404.675262,505.586670 C 404.675262,505.586670 404.675262,505.586670 404.675262,505.586670 C 404.675262,505.586670 120.158875,505.586670 120.158875,505.586670 C 120.158875,505.586670 120.158875,505.586670 120.158875,505.586670 C 120.158875,505.586670 114.640991,505.586670 114.640991,505.586670 C 114.640991,505.586670 116.018341,482.056854 116.018341,482.056854 C 118.707642,436.114624 154.905212,401.053345 196.328339,401.053345 C 196.328339,401.053345 227.853333,401.053345 227.853333,401.053345 C 227.853333,401.053345 227.853333,405.746674 227.853333,405.746674 C 227.853333,405.746674 198.843048,405.746674 198.843048,405.746674 C 158.919678,405.746674 124.032654,439.495087 121.440704,483.717010 C 121.440704,483.717010 120.483978,500.040009 120.483978,500.040009 C 120.483978,500.040009 403.923492,500.040009 403.923492,500.040009 C 403.923492,500.040009 403.393433,483.717010 403.393433,483.717010 C 400.801483,439.495087 365.914459,405.746674 325.991058,405.746674 C 325.991058,405.746674 287.160004,405.746674 287.160004,405.746674 C 287.160004,405.746674 287.160004,401.053345 287.160004,401.053345 C 287.160004,401.053345 328.252747,401.053345 328.252747,401.053345 C 369.675873,401.053345 405.873444,436.114624 408.562744,482.056854 C 408.562744,482.056854 409.940094,505.586670 409.940094,505.586670 C 409.940094,505.586670 404.675262,505.586670 404.675262,505.586670 Z" />
  <path
     id="Ellipse 4"
     style="stroke: none; fill: rgb(59, 67, 79)"
     fill-rule="nonzero"
     d="M 257.720001,453.959991 C 234.862793,453.959991 216.333313,435.430573 216.333313,412.573334 C 216.333313,408.573883 216.911926,404.711700 217.970459,401.053345 C 217.970459,401.053345 218.040009,401.053345 218.040009,401.053345 C 218.040009,401.053345 222.431793,401.053345 222.431793,401.053345 C 222.431793,401.053345 229.986664,401.053345 229.986664,401.053345 C 229.986664,401.053345 229.986664,405.746674 229.986664,405.746674 C 229.986664,405.746674 221.238647,405.746674 221.238647,405.746674 C 220.824432,407.959839 220.599976,410.239716 220.599976,412.573334 C 220.599976,433.074158 237.219208,449.693329 257.720001,449.693329 C 278.220825,449.693329 294.839996,433.074158 294.839996,412.573334 C 294.839996,410.239716 294.615570,407.959839 294.201324,405.746674 C 294.201324,405.746674 285.453339,405.746674 285.453339,405.746674 C 285.453339,405.746674 285.453339,401.053345 285.453339,401.053345 C 285.453339,401.053345 293.008179,401.053345 293.008179,401.053345 C 293.008179,401.053345 297.399994,401.053345 297.399994,401.053345 C 297.399994,401.053345 297.469513,401.053345 297.469513,401.053345 C 298.528046,404.711700 299.106659,408.573883 299.106659,412.573334 C 299.106659,435.430573 280.577240,453.959991 257.720001,453.959991 Z" />
  <path
     id="neck"
     style="stroke: none; fill: rgb(59, 67, 79)"
     fill-rule="nonzero"
     d="M 233.399994,384.146088 C 233.399994,384.146088 233.399994,410.461182 233.399994,410.461182 C 233.399994,424.116669 244.479462,435.186676 258.146667,435.186676 C 271.813873,435.186676 282.893341,424.116669 282.893341,410.461182 C 282.893341,410.461182 282.893341,384.688995 282.893341,384.688995 C 284.329498,384.251862 285.752136,383.777069 287.160004,383.264130 C 287.160004,383.264130 287.160004,410.640289 287.160004,410.640289 C 287.160004,426.788910 274.074799,439.880005 257.933350,439.880005 C 241.791901,439.880005 228.706665,426.788910 228.706665,410.640289 C 228.706665,410.640289 228.706665,382.453674 228.706665,382.453674 C 230.252502,383.064911 231.818207,383.627106 233.399994,384.146088 Z" />
  <path
     id="2 copy 5"
     style="stroke: none; fill: rgb(255, 255, 255)"
     fill-rule="nonzero"
     d="M 259.214661,116.466644 C 312.292542,116.466644 354.186951,166.067871 352.824738,225.664948 C 352.824738,225.664948 351.376923,289.006104 351.376923,289.006104 C 350.093597,345.152466 308.845428,389.533325 259.214661,389.533325 C 209.583893,389.533325 168.335724,345.152466 167.052399,289.006104 C 167.052399,289.006104 165.604584,225.664948 165.604584,225.664948 C 164.242401,166.067871 206.136780,116.466644 259.214661,116.466644 Z" />
  <path
     id="2 line"
     style="stroke: none; fill: rgb(59, 67, 79)"
     fill-rule="evenodd"
     d="M 357.089386,223.701141 C 357.089386,223.701141 355.572327,289.615509 355.572327,289.615509 C 354.227631,348.042816 311.006287,394.226654 259.001404,394.226654 C 206.996490,394.226654 163.775177,348.042816 162.430450,289.615509 C 162.430450,289.615509 160.913361,223.701141 160.913361,223.701141 C 159.486023,161.682922 203.384491,110.066650 259.001404,110.066650 C 314.618317,110.066650 358.516754,161.682922 357.089386,223.701141 Z M 258.788300,116.893311 C 206.436035,116.893311 165.114380,166.107025 166.457916,225.238495 C 166.457916,225.238495 167.885956,288.084808 167.885956,288.084808 C 169.151733,343.792511 209.836029,387.826660 258.788300,387.826660 C 307.740570,387.826660 348.424835,343.792511 349.690613,288.084808 C 349.690613,288.084808 351.118622,225.238495 351.118622,225.238495 C 352.462219,166.107025 311.140564,116.893311 258.788300,116.893311 Z" />
  <path
     opacity="0.058824"
     id="1 copy 4"
     style="stroke: none; fill: rgb(59, 67, 79)"
     fill-rule="evenodd"
     d="M 354.426666,234.653320 C 354.426666,234.653320 350.160004,304.626678 350.160004,304.626678 C 350.160004,304.626678 331.209778,385.397614 258.000000,394.961365 C 258.000000,394.961365 258.000000,395.079987 258.000000,395.079987 C 257.856110,395.062408 257.716797,395.038818 257.573334,395.020691 C 257.429871,395.038818 257.290558,395.062408 257.146667,395.079987 C 257.146667,395.079987 257.146667,394.961365 257.146667,394.961365 C 183.936920,385.397614 164.986664,304.626678 164.986664,304.626678 C 164.986664,304.626678 160.720001,234.653320 160.720001,234.653320 C 179.717773,318.980011 195.706665,324.253357 195.706665,324.253357 C 192.471100,298.682220 218.746674,301.213348 218.746674,301.213348 C 234.760803,303.918427 247.509155,305.225616 257.573334,305.714325 C 267.637543,305.225616 280.385864,303.918427 296.399994,301.213348 C 296.399994,301.213348 322.675537,298.682220 319.440002,324.253357 C 319.440002,324.253357 335.428894,318.980011 354.426666,234.653320 Z M 306.983093,332.926392 C 305.741058,317.884766 296.670868,319.160217 296.670868,319.160217 C 280.546234,323.904846 267.888733,326.540649 258.000000,327.880249 C 258.000000,327.880249 258.000000,327.781921 258.000000,327.781921 C 248.180511,326.453247 235.611664,323.839081 219.600006,319.133331 C 219.600006,319.133331 210.593323,317.868317 209.359985,332.786682 C 209.359985,332.786682 205.743317,347.733337 217.893341,354.119995 C 217.893341,354.119995 233.253326,370.333344 233.253326,370.333344 C 233.253326,370.333344 243.750000,373.660004 243.493347,360.946655 C 243.493347,360.946655 242.424988,351.464996 248.613342,349.853333 C 248.613342,349.853333 258.000000,349.853333 258.000000,349.853333 C 258.000000,349.853333 258.000000,350.134094 258.000000,350.134094 C 258.000000,350.134094 267.452881,350.134094 267.452881,350.134094 C 273.684875,351.759094 272.609009,361.319122 272.609009,361.319122 C 272.350525,374.137543 282.921204,370.783356 282.921204,370.783356 C 282.921204,370.783356 298.389557,354.436035 298.389557,354.436035 C 310.625275,347.996582 306.983093,332.926392 306.983093,332.926392 Z" />
  <path
     id="Rounded Rectangle 3"
     style="stroke: none; fill: rgb(59, 67, 79)"
     fill-rule="nonzero"
     d="M 248.760010,355.826691 C 248.760010,355.826691 269.239990,355.826691 269.239990,355.826691 C 270.182587,355.826691 270.946655,356.590759 270.946655,357.533325 C 270.946655,358.475922 270.182587,359.239990 269.239990,359.239990 C 269.239990,359.239990 248.760010,359.239990 248.760010,359.239990 C 247.817413,359.239990 247.053345,358.475922 247.053345,357.533325 C 247.053345,356.590759 247.817413,355.826691 248.760010,355.826691 Z" />
  <path
     id="2"
     style="stroke: none; fill: rgb(59, 67, 79)"
     fill-rule="nonzero"
     d="M 230.838165,335.406464 C 230.838165,335.406464 233.214661,332.079865 233.214661,332.079865 C 240.854858,336.450012 249.931793,338.983551 259.669922,338.983551 C 269.516541,338.983551 278.686523,336.392334 286.379395,331.932159 C 286.379395,331.932159 288.867615,335.368225 288.867615,335.368225 C 280.498932,340.212860 270.527039,343.026703 259.820404,343.026703 C 249.141663,343.026703 239.193420,340.227997 230.838165,335.406464 Z" />
  <path
     id="Shape 11 copy"
     style="stroke: none; fill: rgb(255, 255, 255)"
     fill-rule="nonzero"
     d="M 160.807220,233.313141 C 160.795441,233.313812 159.759613,232.486603 157.803619,231.870758 C 156.826019,231.563507 155.611023,231.310760 154.226166,231.248444 C 153.880310,231.232880 153.524353,231.229187 153.160126,231.239532 C 152.795898,231.249878 152.423370,231.274231 152.044708,231.314667 C 151.287476,231.395569 150.505402,231.540955 149.718414,231.767334 C 146.567261,232.672913 143.352692,234.874664 141.464783,239.419098 C 140.517090,241.691437 139.891907,244.549713 139.726624,248.125916 C 139.685272,249.019989 139.672638,249.958923 139.690765,250.944794 C 139.708923,251.930664 139.757874,252.963470 139.839630,254.045288 C 140.003052,256.208832 140.298157,258.568451 140.737854,261.139679 C 140.728241,261.137146 140.327759,268.909668 143.106445,277.840820 C 145.718689,286.572784 151.991516,297.299225 163.573334,300.364410 C 162.241302,278.185028 162.199921,255.589905 160.807220,233.313141 C 160.807220,233.313141 160.807220,233.313141 160.807220,233.313141 Z" />
  <path
     id="Shape 3"
     style="stroke: none; fill: rgb(59, 67, 79)"
     fill-rule="nonzero"
     d="M 162.127869,234.207275 C 162.127869,234.207275 141.951477,227.955597 142.661530,248.698090 C 142.661530,248.698090 145.665436,278.775360 146.969879,281.547363 C 146.969879,281.547363 154.893707,299.059387 167.970856,299.835480 C 180.751862,300.593994 167.970856,299.835480 167.970856,299.835480 C 167.970856,299.835480 168.129578,305.480011 168.129578,305.480011 C 168.129578,305.480011 145.144928,302.533020 140.705597,276.045410 C 140.705597,276.045410 137.201721,251.982697 137.201721,251.982697 C 137.201721,251.982697 134.481110,220.138062 160.871185,228.234802 C 186.580475,236.122681 160.871185,228.234802 160.871185,228.234802 C 160.871185,228.234802 162.127869,234.207275 162.127869,234.207275 " />
  <path
     id="Shape 4"
     style="stroke: none; fill: rgb(59, 67, 79)"
     fill-rule="nonzero"
     d="M 155.468323,275.994812 C 155.468323,275.994812 154.339172,276.848145 153.369171,276.848145 C 152.399170,276.848145 151.283783,275.994812 151.283783,275.994812 C 151.283783,275.994812 149.201569,255.012024 149.201569,255.012024 C 149.201569,255.012024 152.074493,244.678558 164.265381,250.139496 C 164.265381,250.139496 164.553558,256.139221 164.553558,256.139221 C 164.553558,256.139221 153.857910,252.346008 154.079071,257.069427 C 154.291962,261.615967 155.468323,275.994812 155.468323,275.994812 Z" />
  <path
     id="Shape 11 copy_1"
     style="stroke: none; fill: rgb(255, 255, 255)"
     fill-rule="nonzero"
     d="M 356.813416,233.362122 C 356.825256,233.362793 357.865631,232.536163 359.830170,231.920715 C 360.812073,231.613678 362.032379,231.361115 363.423309,231.298828 C 363.770660,231.283295 364.128174,231.279602 364.494019,231.289948 C 364.859833,231.300262 365.233978,231.324615 365.614319,231.365021 C 366.374847,231.445862 367.160370,231.591156 367.950806,231.817383 C 371.115753,232.722351 374.344391,234.922607 376.240570,239.463959 C 377.192413,241.734741 377.820343,244.591064 377.986328,248.164856 C 378.027863,249.058319 378.040558,249.996613 378.022369,250.981812 C 378.004120,251.967010 377.954956,252.999115 377.872833,254.080200 C 377.708710,256.242279 377.412292,258.600311 376.970673,261.169769 C 376.980347,261.167236 377.382568,268.934509 374.591705,277.859589 C 371.968048,286.585632 365.667725,297.304779 354.035187,300.367889 C 355.373047,278.203552 355.414612,255.623779 356.813416,233.362122 C 356.813416,233.362122 356.813416,233.362122 356.813416,233.362122 Z" />
  <path
     id="Shape 3_1"
     style="stroke: none; fill: rgb(59, 67, 79)"
     fill-rule="nonzero"
     d="M 355.482605,234.255676 C 355.482605,234.255676 375.747375,228.008240 375.034210,248.736633 C 375.034210,248.736633 372.017151,278.793488 370.706970,281.563599 C 370.706970,281.563599 362.748444,299.063751 349.614044,299.839325 C 336.777039,300.597321 349.614044,299.839325 349.614044,299.839325 C 349.614044,299.839325 349.454620,305.480011 349.454620,305.480011 C 349.454620,305.480011 372.539917,302.535034 376.998688,276.065399 C 376.998688,276.065399 380.517914,252.019012 380.517914,252.019012 C 380.517914,252.019012 383.250458,220.195984 356.744781,228.287231 C 330.922913,236.169769 356.744781,228.287231 356.744781,228.287231 C 356.744781,228.287231 355.482605,234.255676 355.482605,234.255676 " />
  <path
     id="Shape 4_1"
     style="stroke: none; fill: rgb(59, 67, 79)"
     fill-rule="nonzero"
     d="M 362.171326,276.014832 C 362.171326,276.014832 363.305420,276.867584 364.279663,276.867584 C 365.253906,276.867584 366.374176,276.014832 366.374176,276.014832 C 366.374176,276.014832 368.465515,255.046295 368.465515,255.046295 C 368.465515,255.046295 365.580017,244.719849 353.335724,250.177063 C 353.335724,250.177063 353.046295,256.172729 353.046295,256.172729 C 353.046295,256.172729 363.788788,252.382080 363.566650,257.102295 C 363.352844,261.645752 362.171326,276.014832 362.171326,276.014832 Z" />
  <path
     id="new_vector_shape_done"
     style="stroke: none; fill: rgb(59, 67, 79)"
     fill-rule="evenodd"
     d="M 266.893341,274.333344 C 267.391052,274.333344 267.888947,274.333344 268.386658,274.333344 C 271.474121,278.526306 272.730225,284.969757 274.359985,290.546661 C 274.865051,292.274963 274.375061,295.297974 273.933319,296.519989 C 272.315552,300.995514 267.235687,300.915192 263.053345,302.919983 C 261.930115,303.458435 261.094604,304.387817 259.640015,304.626678 C 258.691711,303.791351 257.546722,303.627289 257.079987,302.279999 C 255.927673,300.693268 257.412811,299.702393 258.573334,299.079987 C 260.679565,297.950409 267.181488,296.837097 267.959991,294.813324 C 268.923218,293.717590 268.282745,290.423157 267.959991,289.266663 C 267.133392,286.304504 266.736633,283.831543 265.613342,281.160004 C 264.867188,279.385498 263.557159,277.514496 264.333344,275.399994 C 264.976532,275.123810 266.366638,274.809784 266.893341,274.333344 Z" />
  <path
     id="oko"
     style="stroke: none; fill: rgb(59, 67, 79)"
     fill-rule="nonzero"
     d="M 209.506683,238.066681 C 214.219513,238.066681 218.040009,241.887177 218.040009,246.600006 C 218.040009,251.312836 214.219513,255.133331 209.506683,255.133331 C 204.793854,255.133331 200.973328,251.312836 200.973328,246.600006 C 200.973328,241.887177 204.793854,238.066681 209.506683,238.066681 Z" />
  <path
     id="oko_1"
     style="stroke: none; fill: rgb(59, 67, 79)"
     fill-rule="nonzero"
     d="M 309.346649,238.066681 C 314.059479,238.066681 317.879974,241.887177 317.879974,246.600006 C 317.879974,251.312836 314.059479,255.133331 309.346649,255.133331 C 304.633850,255.133331 300.813324,251.312836 300.813324,246.600006 C 300.813324,241.887177 304.633850,238.066681 309.346649,238.066681 Z" />
  <path
     id="Ellipse 3"
     style="stroke: none; fill: rgb(237, 241, 241)"
     fill-rule="nonzero"
     d="M 310.626678,269.640015 C 316.517700,269.640015 321.293335,274.415649 321.293335,280.306671 C 321.293335,286.197693 316.517700,290.973328 310.626678,290.973328 C 304.735626,290.973328 299.960022,286.197693 299.960022,280.306671 C 299.960022,274.415649 304.735626,269.640015 310.626678,269.640015 Z" />
  <path
     id="Ellipse 3 copy"
     style="stroke: none; fill: rgb(237, 241, 241)"
     fill-rule="nonzero"
     d="M 207.373352,269.640015 C 213.264374,269.640015 218.040009,274.415649 218.040009,280.306671 C 218.040009,286.197693 213.264374,290.973328 207.373352,290.973328 C 201.482300,290.973328 196.706696,286.197693 196.706696,280.306671 C 196.706696,274.415649 201.482300,269.640015 207.373352,269.640015 Z" />
  <path
     id="R copy"
     style="stroke: none; fill: rgb(59, 67, 79)"
     fill-rule="nonzero"
     d="M 286.326904,226.440948 C 286.326904,226.440948 311.871521,211.836151 330.119781,227.927032 C 330.119781,227.927032 334.946655,228.675201 334.946655,228.675201 C 334.946655,228.675201 328.764191,206.177856 283.746674,220.806366 C 283.746674,220.806366 285.000000,225.000000 285.000000,225.000000  M 286.000000,225.000000 C 286.000000,225.000000 311.987244,210.073700 329.119781,228.927032 C 329.119781,228.927032 337.946655,228.675201 337.946655,228.675201 C 337.946655,228.675201 326.938019,204.643188 281.746674,219.806366 C 281.746674,219.806366 286.000000,226.000000 286.000000,226.000000 " />
  <path
     id="R copy 3"
     style="stroke: none; fill: rgb(59, 67, 79)"
     fill-rule="nonzero"
     d="M 231.438354,226.525543 C 231.438354,226.525543 205.979004,212.049988 187.791626,227.998474 C 187.791626,227.998474 182.980865,228.740021 182.980865,228.740021 C 182.980865,228.740021 189.142700,206.441772 234.009979,220.940826 C 234.009979,220.940826 232.760834,225.097351 232.760834,225.097351  M 231.764191,225.097351 C 231.764191,225.097351 205.863647,210.303131 188.788300,228.989624 C 188.788300,228.989624 179.990875,228.740021 179.990875,228.740021 C 179.990875,228.740021 190.962769,204.920685 236.003326,219.949677 C 236.003326,219.949677 231.764191,226.088501 231.764191,226.088501 " />
  <path
     id="Shape 6 copy 3"
     style="stroke: none; fill: rgb(59, 67, 79)"
     fill-rule="nonzero"
     d="M 163.750946,229.533356 C 163.750946,229.533356 167.043091,178.136658 198.760651,155.293335 C 198.760651,155.293335 244.557495,186.446655 316.598297,155.293335 C 316.598297,155.293335 348.462616,169.806671 353.315826,229.533356 C 353.315826,229.533356 355.026398,229.533356 355.026398,229.533356 C 355.026398,229.533356 364.149597,161.119995 340.507355,133.959991 C 340.507355,133.959991 334.683533,113.160004 303.789856,98.119995 C 303.789856,98.119995 292.689209,104.946686 292.689209,104.946686 C 292.689209,104.946686 285.230957,95.819977 265.364532,84.466675 C 265.364532,84.466675 250.671509,91.013336 243.163239,102.386658 C 243.163239,102.386658 231.208710,94.706665 231.208710,94.706665 C 231.208710,94.706665 214.504364,102.353333 204.737946,116.040009 C 204.737946,116.040009 186.806122,118.599976 186.806122,118.599976 C 186.806122,118.599976 177.413269,135.666656 177.413269,135.666656 C 177.413269,135.666656 154.992340,153.729980 162.040344,227.826660 C 162.040344,227.826660 163.750946,229.533356 163.750946,229.533356 Z" />
  <mask
     id="_1">
    <g
       id="g6704">
      <path
         id="path6706"
         style="stroke:none; fill:white"
         d="M 0,0 512,0 512,512 0,512 0,0 Z" />
      <path
         id="path6708"
         fill-rule="nonzero"
         style="stroke:none; fill:black"
         d="M 163.853333,209.053345 C 163.853333,209.053345 169.774200,173.332214 198.760651,151.453339 C 198.760651,151.453339 245.837494,183.459991 317.878296,152.306671 C 317.878296,152.306671 344.493469,164.823303 353.720001,209.480011 C 353.720001,209.480011 353.720001,209.480011 353.720001,209.480011 C 353.720001,209.480011 359.196686,163.548889 338.360016,135.239990 C 338.360016,135.239990 334.693665,116.573334 303.799988,101.533325 C 303.799988,101.533325 292.279999,108.359985 292.279999,108.359985 C 292.279999,108.359985 284.839752,99.233307 264.973328,87.880005 C 264.973328,87.880005 251.574951,94.853333 244.066681,106.226654 C 244.066681,106.226654 231.266663,98.119995 231.266663,98.119995 C 231.266663,98.119995 215.859741,105.339996 206.093323,119.026672 C 206.093323,119.026672 189.026672,121.586670 189.026672,121.586670 C 189.026672,121.586670 180.066681,137.799988 180.066681,137.799988 C 180.066681,137.799988 161.456451,152.014435 163.426666,209.480011 C 163.426666,209.480011 163.853333,209.053345 163.853333,209.053345 Z" />
    </g>
  </mask>
  <path
     id="Shape 6 copy"
     style="stroke: none; fill: rgb(59, 67, 79)"
     mask="url(#_1)"
     fill-rule="nonzero"
     d="M 166.737610,229.960022 C 166.737610,229.960022 171.057526,181.913330 198.760651,158.279999 C 198.760651,158.279999 244.557495,189.859985 316.598297,158.706665 C 316.598297,158.706665 345.475952,169.380005 350.329163,229.106689 C 350.329163,229.106689 358.439728,229.533356 358.439728,229.533356 C 358.439728,229.533356 367.562927,160.693329 343.920685,133.533325 C 343.920685,133.533325 335.536865,109.746674 304.643188,94.706665 C 304.643188,94.706665 293.133331,101.106659 293.133331,101.106659 C 293.133331,101.106659 285.693085,92.406647 265.826660,81.053345 C 265.826660,81.053345 250.294952,86.746674 242.786682,98.119995 C 242.786682,98.119995 231.635376,90.866669 231.635376,90.866669 C 231.635376,90.866669 213.651031,99.366669 203.884613,113.053345 C 203.884613,113.053345 185.099457,115.613312 185.099457,115.613312 C 185.099457,115.613312 174.853271,134.386658 174.853271,134.386658 C 174.853271,134.386658 152.432343,153.729980 159.480347,227.826660 C 159.480347,227.826660 166.737610,229.960022 166.737610,229.960022 Z" />
  <path
     opacity="0.200000"
     id="new_vector_shape_done copy"
     style="stroke: none; fill: rgb(59, 67, 79)"
     fill-rule="evenodd"
     d="M 260.139130,103.673004 C 260.766876,104.139984 260.456116,104.572113 260.319794,105.156036 C 260.116425,106.027191 259.875153,106.889465 259.739258,107.758759 C 259.533295,109.075989 259.345520,110.394775 259.291626,111.694336 C 259.246307,112.787109 259.265961,113.876282 259.284943,114.958466 C 259.295898,115.583405 259.402863,116.207275 259.418243,116.833221 C 259.424377,117.082947 259.492401,117.333405 259.499420,117.587555 C 259.514740,117.656525 259.530060,117.725525 259.545380,117.794464 C 259.554291,118.113892 259.638031,118.418579 259.646851,118.737396 C 259.698944,119.026062 259.751099,119.314789 259.803192,119.603455 C 259.879852,120.060913 259.917114,120.538452 260.057037,120.984070 C 260.072388,121.098175 260.087738,121.212341 260.103088,121.326447 C 260.214111,121.680573 260.250458,122.046082 260.362183,122.401337 C 260.370178,122.471497 260.378174,122.541687 260.386169,122.611877 C 260.548309,123.124084 260.621338,123.662994 260.783020,124.172028 C 261.045563,124.998596 261.259186,125.828674 261.548767,126.653381 C 261.740814,127.200348 261.906372,127.773346 262.099579,128.323517 C 262.443481,129.302887 262.863159,130.259399 263.241150,131.228119 C 263.471252,131.817810 263.779968,132.362640 264.026459,132.949768 C 264.724030,134.611328 265.620361,136.244385 266.477478,137.873077 C 266.754395,138.399261 267.058350,138.883179 267.365234,139.397095 C 267.561005,139.725006 267.764282,140.092438 267.944855,140.430176 C 268.044769,140.617065 268.169952,140.757965 268.278625,140.939453 C 268.514221,141.332855 268.769470,141.755707 269.001282,142.152069 C 269.215668,142.518616 269.457703,142.831635 269.694489,143.188934 C 269.949677,143.574036 270.202393,144.007477 270.461090,144.394287 C 270.910645,145.066498 271.387482,145.716125 271.832764,146.380096 C 272.295380,147.069885 272.815399,147.680603 273.305206,148.360535 C 274.254456,149.678192 275.364014,150.942261 276.387421,152.264771 C 276.693756,152.660614 277.060242,153.006714 277.366455,153.389771 C 277.519196,153.580872 277.774567,153.747833 277.877960,153.948639 C 277.920044,154.030396 277.944092,154.156403 277.973419,154.248962 C 278.020630,154.397919 278.008423,154.581879 278.010437,154.739624 C 278.013641,154.992157 278.025940,155.247955 277.981720,155.512177 C 277.935883,155.785950 277.762024,156.087280 277.648987,156.357635 C 277.558197,156.574646 277.332123,156.765961 277.204224,156.871613 C 277.096588,156.960571 277.052185,157.043304 276.942474,157.129486 C 276.657043,157.353790 276.334045,157.538269 276.021484,157.632050 C 275.697479,157.729248 275.278717,157.438263 275.022766,157.131287 C 274.575043,156.594269 274.015137,156.101257 273.585449,155.562805 C 273.493591,155.447662 273.391541,155.396576 273.301300,155.282410 C 272.805206,154.654846 272.196228,154.063904 271.706268,153.446503 C 271.594421,153.305573 271.471863,153.226562 271.363434,153.085510 C 270.982513,152.590027 270.536194,152.143463 270.149689,151.638062 C 269.180786,150.371185 268.135986,149.147095 267.259918,147.871307 C 267.055084,147.573029 266.835266,147.337463 266.634644,147.037750 C 265.215668,144.917664 263.791779,142.834290 262.654816,140.673981 C 262.355621,140.105530 262.024994,139.588593 261.744995,139.018158 C 260.950043,137.398529 260.208557,135.779907 259.528473,134.146301 C 259.439117,133.931671 259.374268,133.691681 259.291687,133.474213 C 258.919220,132.493561 258.581696,131.525146 258.247162,130.542236 C 257.909668,129.550690 257.717651,128.514801 257.402252,127.520752 C 257.335724,127.311096 257.315430,127.083710 257.247864,126.868866 C 257.238647,126.791351 257.229431,126.713837 257.220215,126.636353 C 257.147064,126.403229 257.139069,126.155396 257.067627,125.927704 C 256.896362,125.381622 256.843414,124.791473 256.749451,124.230347 C 256.660767,123.700745 256.539612,123.159149 256.524750,122.619080 C 256.504517,122.520844 256.484283,122.422546 256.464081,122.324280 C 256.454376,121.973480 256.365753,121.626770 256.357025,121.280701 C 256.341827,120.676636 256.246002,120.074524 256.234772,119.471832 C 256.220795,118.722351 256.191956,117.970154 256.196411,117.220032 C 256.200897,116.469025 256.263123,115.734894 256.306458,114.977509 C 256.423828,112.925781 256.799042,110.864166 257.294556,108.739441 C 257.474304,107.968719 257.762634,107.214630 258.005371,106.442596 C 258.172607,105.910767 258.435699,105.398315 258.623322,104.872467 C 258.672302,104.735229 258.748413,104.653687 258.800751,104.515656 C 258.913177,104.219055 259.060577,103.854126 259.334961,103.659393 C 259.457733,103.572296 259.739899,103.525665 259.884430,103.568420 C 259.985107,103.598175 260.048706,103.675537 260.139130,103.673004 Z M 240.115997,118.381470 C 240.570404,118.710175 240.534698,119.191589 240.545563,119.597473 C 240.556793,120.018097 240.677734,120.436798 240.689392,120.860809 C 240.738464,121.153748 240.787537,121.446747 240.836609,121.739685 C 240.843109,121.976959 240.902740,122.201996 240.941528,122.433624 C 240.981537,122.672333 240.998840,122.912445 241.072144,123.145905 C 241.116302,123.409546 241.160461,123.673248 241.204620,123.936890 C 241.277435,124.169128 241.285645,124.417389 241.357208,124.645538 C 241.578522,125.351135 241.663116,126.099823 241.888245,126.804443 C 242.126892,127.551483 242.301270,128.323822 242.560394,129.064178 C 242.899811,130.034027 243.231964,131.010071 243.601227,131.974182 C 243.790039,132.467133 244.014679,132.927948 244.215973,133.419220 C 244.369873,133.794800 244.516144,134.204071 244.691284,134.571198 C 245.418701,136.095856 246.169739,137.619171 246.969849,139.139191 C 247.603394,140.342834 248.359192,141.491394 249.053436,142.678162 C 249.267487,143.044067 249.509308,143.358612 249.746643,143.714996 C 250.282318,144.519409 250.852325,145.355957 251.400787,146.173431 C 251.919312,146.946259 252.542450,147.666565 253.087769,148.423187 C 253.176849,148.546783 253.280029,148.613617 253.366425,148.738342 C 253.642853,149.137421 254.004700,149.521820 254.308868,149.914551 C 254.461792,150.112030 254.655579,150.249115 254.794708,150.455078 C 255.099304,150.906097 255.289276,151.747162 255.144104,152.271484 C 254.892639,153.179871 254.015839,153.791473 253.348450,154.025391 C 253.147064,154.095978 252.832794,154.223724 252.614014,154.158295 C 252.269226,154.055206 252.049225,153.748230 251.847809,153.494843 C 251.587463,153.167267 251.284027,152.929443 251.031982,152.602509 C 250.566284,151.998383 250.018127,151.458435 249.552399,150.849060 C 248.577148,149.573029 247.578278,148.338654 246.712067,147.040253 C 244.706543,144.034149 243.042419,140.999573 241.744598,137.881897 C 241.205872,136.587708 240.772186,135.253082 240.338470,133.937195 C 240.184021,133.468658 240.099487,132.967377 239.950867,132.499695 C 239.747162,131.858673 239.656677,131.197601 239.456635,130.560516 C 239.446198,130.475677 239.435730,130.390839 239.425293,130.306000 C 239.392853,130.163696 239.344696,130.026489 239.320557,129.882996 C 239.303986,129.761566 239.287415,129.640106 239.270844,129.518646 C 239.195404,129.278351 239.177704,129.030212 239.136566,128.784393 C 239.096588,128.545685 239.034668,128.312958 239.027924,128.068512 C 238.997894,127.911652 238.967865,127.754761 238.937805,127.597931 C 238.919891,126.958038 238.766266,126.330933 238.753174,125.686493 C 238.750092,125.534454 238.701569,125.373322 238.697876,125.221436 C 238.682922,124.605072 238.622009,123.986908 238.625031,123.370514 C 238.628479,122.668579 238.621704,121.954590 238.665558,121.252441 C 238.682831,120.975800 238.731293,120.715088 238.743713,120.437836 C 238.757294,120.133728 238.811005,119.842438 238.851074,119.528076 C 238.874847,119.341705 238.875153,119.116058 238.931244,118.927704 C 238.988190,118.736359 239.183899,118.427032 239.364929,118.347778 C 239.488464,118.293732 239.726471,118.239929 239.861298,118.276886 C 239.962494,118.304596 240.025085,118.383881 240.115997,118.381470 Z M 224.815613,121.570282 C 225.326294,121.944733 225.184509,122.417206 225.181122,122.875916 C 225.175690,123.614044 225.250427,124.350830 225.268890,125.085663 C 225.283630,125.671478 225.433533,126.253296 225.449738,126.839661 C 225.484680,127.025787 225.519653,127.211975 225.554596,127.398132 C 225.563568,127.723053 225.633820,128.142487 225.731232,128.452789 C 225.740448,128.530273 225.749664,128.607819 225.758881,128.685303 C 225.789032,128.865234 225.826782,129.042236 225.882019,129.218170 C 225.894928,129.317627 225.907806,129.417145 225.920715,129.516602 C 226.052032,129.935455 226.092529,130.383575 226.225769,130.798401 C 226.544464,131.790527 226.797791,132.805328 227.145782,133.796143 C 227.900055,135.943756 228.933960,138.025452 230.033813,140.114899 C 230.393250,140.797760 230.840637,141.433167 231.204010,142.111511 C 231.358978,142.400757 231.562286,142.635620 231.734009,142.915710 C 232.203400,143.681305 232.747559,144.445007 233.257965,145.203735 C 233.964386,146.253845 234.824921,147.211121 235.575684,148.252289 C 235.838745,148.617126 236.170929,148.933929 236.426422,149.285645 C 236.653625,149.598450 236.947662,149.833069 237.190918,150.141327 C 237.672791,150.751953 238.280273,151.333527 238.791443,151.942474 C 239.086487,152.293976 239.437347,152.577789 239.722748,152.917328 C 240.041534,153.296600 240.442535,153.599854 240.756653,153.965485 C 240.836090,154.035126 240.915527,154.104797 240.994965,154.174438 C 241.315369,154.553558 241.762604,154.889435 242.093018,155.268433 C 242.234039,155.430176 242.401367,155.505829 242.543945,155.667969 C 243.007385,156.194977 243.661011,156.622070 244.136902,157.154205 C 244.272736,157.306091 244.453522,157.408905 244.575012,157.544586 C 244.626312,157.581238 244.677643,157.617920 244.728973,157.654572 C 244.893188,157.837585 245.148987,158.005188 245.315552,158.189728 C 245.371124,158.229431 245.426727,158.269165 245.482330,158.308868 C 245.754425,158.610870 246.173676,158.849915 246.448334,159.153778 C 246.521027,159.205719 246.593719,159.257660 246.666412,159.309601 C 247.016571,159.696655 247.572021,159.973633 247.927490,160.365326 C 248.086945,160.485687 248.246429,160.606079 248.405884,160.726440 C 248.483704,160.812134 248.651733,160.886169 248.743134,160.986725 C 248.985168,161.253021 249.393280,161.462158 249.655914,161.716217 C 249.811157,161.866425 250.054596,161.969879 250.185608,162.114014 C 250.301147,162.241119 250.510651,162.326233 250.612640,162.438446 C 250.946198,162.676758 251.279816,162.915131 251.613342,163.153412 C 252.402863,163.717499 253.189606,164.246246 253.953796,164.786865 C 254.315521,165.042755 254.764618,165.244385 254.987518,165.564087 C 255.113434,165.744690 255.163666,166.004181 255.229797,166.201416 C 255.378601,166.645081 255.440033,167.171814 255.315155,167.655060 C 255.277130,167.802307 255.200409,167.901672 255.145111,168.055817 C 255.056549,168.302734 254.909241,168.685944 254.645691,168.917603 C 254.474274,169.068268 254.295563,169.271362 254.105682,169.402222 C 253.812988,169.603882 253.493774,169.496277 253.136627,169.348175 C 253.022400,169.273010 252.908142,169.197815 252.793915,169.122650 C 252.246246,168.887512 251.734558,168.384369 251.184845,168.147156 C 251.078949,168.101471 250.968079,167.986877 250.880615,167.949127 C 250.697968,167.825104 250.515289,167.701019 250.332642,167.576965 C 250.131592,167.490051 249.950989,167.279114 249.724182,167.180939 C 249.534485,167.098846 249.340485,166.945465 249.154205,166.812408 C 249.085785,166.763550 249.017365,166.714630 248.948944,166.665771 C 248.765869,166.586456 248.549591,166.419006 248.378967,166.297241 C 248.130951,166.120056 247.882874,165.942810 247.634857,165.765594 C 247.368500,165.649902 247.073090,165.383575 246.817444,165.200958 C 246.605652,165.049652 246.318787,164.886597 246.159454,164.711517 C 246.014069,164.607635 245.868652,164.503723 245.723267,164.399872 C 245.419617,164.182953 245.120209,163.968933 244.856323,163.741791 C 244.710938,163.637909 244.565491,163.534027 244.420105,163.430145 C 244.209595,163.197876 243.844513,163.022125 243.635620,162.792297 C 243.537262,162.722046 243.438904,162.651733 243.340546,162.581482 C 243.188049,162.412964 242.924927,162.265564 242.774139,162.099457 C 242.688629,162.038361 242.603088,161.977234 242.517548,161.916138 C 242.401886,161.787903 242.195404,161.653748 242.079468,161.525757 C 242.011047,161.476868 241.942627,161.427979 241.874207,161.379120 C 241.473572,160.934509 240.886810,160.598724 240.495758,160.162170 C 240.373566,160.061981 240.251373,159.961761 240.129181,159.861572 C 239.623505,159.292908 238.939880,158.836151 238.451874,158.276398 C 238.319183,158.124146 238.169556,158.055481 238.039429,157.904358 C 237.588318,157.380341 237.012573,156.913422 236.578369,156.396240 C 236.506744,156.310974 236.437012,156.291168 236.365723,156.205658 C 236.161041,155.960083 235.896637,155.706421 235.698395,155.458069 C 235.606110,155.342468 235.506073,155.293610 235.414246,155.177704 C 234.727356,154.310852 233.919830,153.537201 233.254486,152.667511 C 232.076172,151.127380 230.846893,149.624420 229.915283,148.038086 C 229.704285,147.678802 229.452667,147.378113 229.247711,147.019562 C 228.885101,146.385162 228.489655,145.760498 228.149048,145.112701 C 227.615997,144.099060 227.117096,143.076935 226.631805,142.055786 C 226.290466,141.337524 226.020233,140.564941 225.739868,139.832458 C 225.509766,139.231201 225.290344,138.646667 225.079071,138.045044 C 224.871216,137.453064 224.722290,136.837280 224.528168,136.239410 C 224.330719,135.631348 224.249908,134.986206 224.057800,134.375305 C 223.984833,134.143250 223.992401,133.850342 223.919861,133.619080 C 223.740936,133.048798 223.697906,132.429108 223.599762,131.842987 C 223.180878,129.341187 223.137421,126.779358 223.321014,124.177551 C 223.363373,123.577057 223.488403,123.008331 223.587097,122.394714 C 223.632080,122.115173 223.723785,121.760010 224.033417,121.553040 C 224.132111,121.487061 224.446045,121.435089 224.560913,121.465668 C 224.655151,121.490753 224.728973,121.572388 224.815613,121.570282 Z" />
</svg>
