<?xml version="1.0" encoding="UTF-8" standalone="no"?>
<svg
   xmlns:dc="http://purl.org/dc/elements/1.1/"
   xmlns:cc="http://creativecommons.org/ns#"
   xmlns:rdf="http://www.w3.org/1999/02/22-rdf-syntax-ns#"
   xmlns:svg="http://www.w3.org/2000/svg"
   xmlns="http://www.w3.org/2000/svg"
   version="1.1"
   id="svg10411"
   height="512"
   width="512">
  <metadata
     id="metadata10443">
    <rdf:RDF>
      <cc:Work
         rdf:about="">
        <dc:format>image/svg+xml</dc:format>
        <dc:type
           rdf:resource="http://purl.org/dc/dcmitype/StillImage" />
        <dc:title></dc:title>
      </cc:Work>
    </rdf:RDF>
  </metadata>
  <defs
     id="defs10441" />
  <path
     id="body-bg"
     style="stroke: none; fill: rgb(255, 255, 255)"
     fill-rule="nonzero"
     d="M 112.000000,502.000000 C 112.000000,502.000000 100.011047,409.542938 192.426666,401.186676 C 192.426666,401.186676 214.613342,401.186676 214.613342,401.186676 C 214.613342,401.186676 221.875000,396.493347 226.986664,396.493347 C 226.986664,396.493347 226.986664,383.266663 226.986664,383.266663 C 226.986664,383.266663 254.679993,397.075012 283.306671,383.693329 C 283.306671,383.693329 283.306671,395.640015 283.306671,395.640015 C 283.306671,395.640015 284.523346,393.353333 296.959991,401.613342 C 296.959991,401.613342 330.239990,401.613342 330.239990,401.613342 C 330.239990,401.613342 401.000000,410.341858 401.000000,502.000000 C 401.000000,502.000000 112.000000,502.000000 112.000000,502.000000 Z" />
  <path
     id="Rounded Rectangle 13 copy 4"
     style="stroke: none; fill: rgb(59, 67, 79)"
     fill-rule="evenodd"
     d="M 398.261932,503.586670 C 398.261932,503.586670 113.745544,503.586670 113.745544,503.586670 C 113.745544,503.586670 108.227661,503.586670 108.227661,503.586670 C 108.227661,503.586670 109.605011,480.056854 109.605011,480.056854 C 112.294312,434.114624 148.491882,399.053345 189.915009,399.053345 C 189.915009,399.053345 218.398651,399.053345 218.398651,399.053345 C 216.550812,400.581665 215.196655,402.166901 214.222778,403.746674 C 214.222778,403.746674 192.429718,403.746674 192.429718,403.746674 C 152.506348,403.746674 117.619324,437.495087 115.027374,481.717010 C 115.027374,481.717010 114.070648,498.040009 114.070648,498.040009 C 114.070648,498.040009 397.510162,498.040009 397.510162,498.040009 C 397.510162,498.040009 396.980103,481.717010 396.980103,481.717010 C 394.388153,437.495087 359.501129,403.746674 319.577728,403.746674 C 319.577728,403.746674 297.766113,403.746674 297.766113,403.746674 C 296.932007,402.178528 295.745941,400.593414 294.090027,399.053345 C 294.090027,399.053345 321.839417,399.053345 321.839417,399.053345 C 363.262543,399.053345 399.460114,434.114624 402.149414,480.056854 C 402.149414,480.056854 403.526764,503.586670 403.526764,503.586670 C 403.526764,503.586670 398.261932,503.586670 398.261932,503.586670 Z M 285.650421,403.746674 C 285.650421,403.746674 284.160004,403.746674 284.160004,403.746674 C 284.160004,403.746674 284.160004,399.053345 284.160004,399.053345 C 284.160004,399.053345 285.816010,399.053345 285.816010,399.053345 C 285.717010,400.273132 285.653381,401.810577 285.650421,403.746674 Z M 225.639282,399.053345 C 225.639282,399.053345 227.413330,399.053345 227.413330,399.053345 C 227.413330,399.053345 227.413330,403.746674 227.413330,403.746674 C 227.413330,403.746674 225.880066,403.746674 225.880066,403.746674 C 225.857147,401.753540 225.765808,400.224060 225.639282,399.053345 Z" />
  <path
     id="Ellipse 5"
     style="stroke: none; fill: rgb(59, 67, 79)"
     fill-rule="nonzero"
     d="M 269.226654,464.333344 C 270.876160,464.333344 272.213348,465.670502 272.213348,467.320007 C 272.213348,468.969482 270.876160,470.306671 269.226654,470.306671 C 267.577179,470.306671 266.239990,468.969482 266.239990,467.320007 C 266.239990,465.670502 267.577179,464.333344 269.226654,464.333344 Z" />
  <path
     id="Ellipse 5 copy"
     style="stroke: none; fill: rgb(59, 67, 79)"
     fill-rule="nonzero"
     d="M 269.226654,483.959991 C 270.876160,483.959991 272.213348,485.297180 272.213348,486.946655 C 272.213348,488.596161 270.876160,489.933319 269.226654,489.933319 C 267.577179,489.933319 266.239990,488.596161 266.239990,486.946655 C 266.239990,485.297180 267.577179,483.959991 269.226654,483.959991 Z" />
  <path
     id="Shape 2 copy 9"
     style="stroke: none; fill: rgb(59, 67, 79)"
     fill-rule="evenodd"
     d="M 303.786652,424.226685 C 303.786652,424.226685 282.026672,456.653351 282.026672,456.653351 C 276.107239,438.306061 258.986664,445.133331 258.986664,445.133331 C 258.986664,445.133331 258.986664,499.321503 258.986664,499.321503 C 258.986664,500.734528 257.649475,501.880005 256.000000,501.880005 C 254.350525,501.880005 253.013336,500.734528 253.013336,499.321503 C 253.013336,499.321503 253.013336,445.132050 253.013336,445.132050 C 252.874817,445.077118 235.890472,438.380920 230.001587,456.653351 C 230.001587,456.653351 208.265228,424.226685 208.265228,424.226685 C 208.265228,424.226685 199.857147,402.849976 225.313354,393.506683 C 225.313354,384.184052 225.313354,383.693329 225.313354,383.693329 C 225.313354,383.693329 230.126953,383.693329 230.126953,383.693329 C 230.126953,383.693329 230.126953,401.517151 230.126953,414.577057 C 230.744934,419.893341 234.405304,435.041290 256.000000,440.013336 C 277.618164,435.041290 281.282532,419.893341 281.901184,414.577057 C 281.901184,401.517151 281.901184,383.693329 281.901184,383.693329 C 281.901184,383.693329 286.720001,383.693329 286.720001,383.693329 C 286.720001,383.693329 286.720001,384.184052 286.720001,393.506683 C 312.203857,402.849976 303.786652,424.226685 303.786652,424.226685 Z M 229.749268,427.097198 C 228.589020,425.783264 226.917877,422.519989 226.917877,422.519989 C 226.917877,422.519989 225.313354,417.180023 225.313354,414.839996 C 225.313354,411.933655 225.313354,408.118652 225.313354,404.017731 C 224.950470,399.136780 224.034760,399.053345 224.034760,399.053345 C 205.040985,408.408569 213.379669,422.946655 213.379669,422.946655 C 213.379669,422.946655 229.149200,447.693329 229.149200,447.693329 C 235.307312,437.258850 241.935303,439.160004 241.935303,439.160004 C 236.083344,436.177429 232.245422,431.548492 229.749268,427.097198 Z M 288.000000,399.053345 C 288.000000,399.053345 287.083282,399.136780 286.720001,404.017731 C 286.720001,408.118652 286.720001,411.933655 286.720001,414.839996 C 286.720001,417.180023 285.113739,422.519989 285.113739,422.519989 C 285.113739,422.519989 283.440765,425.783264 282.279266,427.097198 C 279.780396,431.548492 275.938293,436.177429 270.079987,439.160004 C 270.079987,439.160004 276.715179,437.258850 282.880005,447.693329 C 282.880005,447.693329 298.666656,422.946655 298.666656,422.946655 C 298.666656,422.946655 307.014404,408.408569 288.000000,399.053345 Z" />
  <path
     id="3 copy 5"
     style="stroke: none; fill: rgb(255, 255, 255)"
     fill-rule="nonzero"
     d="M 256.001343,123.998718 C 309.293274,123.998718 349.988922,153.968994 349.988922,225.700439 C 349.988922,225.700439 347.664856,287.663422 347.664856,287.663422 C 333.466095,367.212769 297.779480,386.003326 256.001343,386.003326 C 214.220520,386.003326 176.901886,366.425995 164.337799,287.663422 C 164.337799,287.663422 162.013733,225.700439 162.013733,225.700439 C 162.013733,154.278534 202.709412,123.998718 256.001343,123.998718 Z" />
  <path
     id="3 copy 6"
     style="stroke: none; fill: rgb(59, 67, 79)"
     fill-rule="evenodd"
     d="M 352.121582,287.308075 C 337.232483,370.216064 299.810760,389.799988 256.001404,389.799988 C 212.189240,389.799988 173.056152,369.396118 159.881195,287.308075 C 159.881195,287.308075 157.444153,222.728973 157.444153,222.728973 C 157.444153,148.291565 200.118439,116.733307 256.001404,116.733307 C 311.884369,116.733307 354.558624,147.968964 354.558624,222.728973 C 354.558624,222.728973 352.121582,287.308075 352.121582,287.308075 Z M 256.001312,122.279968 C 203.754669,122.279968 163.857208,152.556183 163.857208,223.969574 C 163.857208,223.969574 166.135681,285.925140 166.135681,285.925140 C 178.453339,364.678345 215.040009,384.253326 256.001312,384.253326 C 296.959991,384.253326 331.946655,365.464996 345.866913,285.925140 C 345.866913,285.925140 348.145386,223.969574 348.145386,223.969574 C 348.145386,152.246674 308.247955,122.279968 256.001312,122.279968 Z" />
  <path
     id="usta"
     style="stroke: none; fill: rgb(59, 67, 79)"
     fill-rule="nonzero"
     d="M 302.079987,325.325928 C 294.324768,332.059753 276.808014,338.466644 256.426697,338.466644 C 236.045349,338.466644 218.528595,332.059753 210.773346,325.325928 C 210.773346,325.325928 209.979889,323.142639 211.144043,321.978485 C 212.329742,320.792786 214.186676,321.050842 214.186676,321.050842 C 221.933777,327.789246 236.037567,333.346680 256.426697,333.346680 C 276.815796,333.346680 290.919586,327.789246 298.666687,321.050842 C 298.666687,321.050842 300.561707,320.346893 301.482269,321.267456 C 303.255310,323.040497 302.079987,325.325928 302.079987,325.325928 Z" />
  <path
     id="-"
     style="stroke: none; fill: rgb(59, 67, 79)"
     fill-rule="nonzero"
     d="M 242.346680,348.706665 C 242.346680,348.706665 269.653351,348.706665 269.653351,348.706665 C 269.653351,348.706665 269.653351,352.973328 269.653351,352.973328 C 269.653351,352.973328 242.346680,352.973328 242.346680,352.973328 C 242.346680,352.973328 242.346680,348.706665 242.346680,348.706665 Z" />
  <path
     id="Shape 11 copy"
     style="stroke: none; fill: rgb(255, 255, 255)"
     fill-rule="nonzero"
     d="M 157.807220,231.313141 C 157.795441,231.313812 156.759613,230.486603 154.803619,229.870758 C 153.826019,229.563507 152.611023,229.310760 151.226166,229.248444 C 150.880310,229.232880 150.524353,229.229187 150.160126,229.239532 C 149.795898,229.249878 149.423370,229.274231 149.044708,229.314667 C 148.287476,229.395569 147.505402,229.540955 146.718414,229.767334 C 143.567261,230.672913 140.352692,232.874664 138.464783,237.419098 C 137.517090,239.691437 136.891907,242.549713 136.726624,246.125916 C 136.685272,247.019989 136.672638,247.958923 136.690765,248.944794 C 136.708923,249.930664 136.757874,250.963470 136.839630,252.045288 C 137.003052,254.208832 137.298157,256.568451 137.737854,259.139679 C 137.728241,259.137146 137.327759,266.909668 140.106445,275.840820 C 142.718689,284.572784 148.991516,295.299225 160.573334,298.364410 C 159.241302,276.185028 159.199921,253.589905 157.807220,231.313141 C 157.807220,231.313141 157.807220,231.313141 157.807220,231.313141 Z" />
  <path
     id="Shape 3"
     style="stroke: none; fill: rgb(59, 67, 79)"
     fill-rule="nonzero"
     d="M 159.127869,232.207275 C 159.127869,232.207275 138.951477,225.955597 139.661530,246.698090 C 139.661530,246.698090 142.665436,276.775360 143.969879,279.547363 C 143.969879,279.547363 151.893707,297.059387 164.970856,297.835480 C 177.751862,298.593994 164.970856,297.835480 164.970856,297.835480 C 164.970856,297.835480 165.129578,303.480011 165.129578,303.480011 C 165.129578,303.480011 142.144928,300.533020 137.705597,274.045410 C 137.705597,274.045410 134.201721,249.982697 134.201721,249.982697 C 134.201721,249.982697 131.481110,218.138062 157.871185,226.234802 C 183.580475,234.122681 157.871185,226.234802 157.871185,226.234802 C 157.871185,226.234802 159.127869,232.207275 159.127869,232.207275 " />
  <path
     id="Shape 4"
     style="stroke: none; fill: rgb(59, 67, 79)"
     fill-rule="nonzero"
     d="M 152.468323,273.994812 C 152.468323,273.994812 151.339172,274.848145 150.369171,274.848145 C 149.399170,274.848145 148.283783,273.994812 148.283783,273.994812 C 148.283783,273.994812 146.201569,253.012024 146.201569,253.012024 C 146.201569,253.012024 149.074493,242.678558 161.265381,248.139496 C 161.265381,248.139496 161.553558,254.139221 161.553558,254.139221 C 161.553558,254.139221 150.857910,250.346008 151.079071,255.069427 C 151.291962,259.615967 152.468323,273.994812 152.468323,273.994812 Z" />
  <path
     id="Shape 3_1"
     style="stroke: none; fill: rgb(59, 67, 79)"
     fill-rule="nonzero"
     d="M 352.482605,232.255676 C 352.482605,232.255676 372.747375,226.008240 372.034210,246.736633 C 372.034210,246.736633 369.017151,276.793488 367.706970,279.563599 C 367.706970,279.563599 359.748444,297.063751 346.614044,297.839325 C 333.777039,298.597321 346.614044,297.839325 346.614044,297.839325 C 346.614044,297.839325 346.454620,303.480011 346.454620,303.480011 C 346.454620,303.480011 369.539917,300.535034 373.998688,274.065399 C 373.998688,274.065399 377.517914,250.019012 377.517914,250.019012 C 377.517914,250.019012 380.250458,218.195984 353.744781,226.287231 C 327.922913,234.169769 353.744781,226.287231 353.744781,226.287231 C 353.744781,226.287231 352.482605,232.255676 352.482605,232.255676 " />
  <path
     id="Shape 4_1"
     style="stroke: none; fill: rgb(59, 67, 79)"
     fill-rule="nonzero"
     d="M 359.171326,274.014832 C 359.171326,274.014832 360.305420,274.867584 361.279663,274.867584 C 362.253906,274.867584 363.374176,274.014832 363.374176,274.014832 C 363.374176,274.014832 365.465515,253.046295 365.465515,253.046295 C 365.465515,253.046295 362.580017,242.719849 350.335724,248.177063 C 350.335724,248.177063 350.046295,254.172729 350.046295,254.172729 C 350.046295,254.172729 360.788788,250.382080 360.566650,255.102295 C 360.352844,259.645752 359.171326,274.014832 359.171326,274.014832 Z" />
  <path
     id="Shape 11"
     style="stroke: none; fill: rgb(255, 255, 255)"
     fill-rule="nonzero"
     d="M 352.342529,231.349396 C 352.354340,231.350098 353.391296,230.519043 355.349487,229.900360 C 356.328186,229.591675 357.544525,229.337769 358.930939,229.275146 C 359.277161,229.259491 359.633514,229.255798 359.998169,229.266205 C 360.362793,229.276581 360.735718,229.301056 361.114807,229.341675 C 361.872894,229.422974 362.655823,229.569000 363.443726,229.796448 C 366.598389,230.706207 369.816559,232.918152 371.706543,237.483643 C 372.655334,239.766510 373.281189,242.638000 373.446655,246.230774 C 373.488068,247.128967 373.500702,248.072235 373.482544,249.062683 C 373.464386,250.053131 373.415375,251.090729 373.333527,252.177521 C 373.169922,254.351105 372.874512,256.721619 372.434326,259.304749 C 372.443909,259.302216 372.844849,267.110748 370.063080,276.083221 C 367.447906,284.855621 361.168091,295.631714 349.573334,298.711121 C 350.906830,276.429016 350.948273,253.729309 352.342529,231.349396 C 352.342529,231.349396 352.342529,231.349396 352.342529,231.349396 Z" />
  <path
     id="Shape 3_2"
     style="stroke: none; fill: rgb(59, 67, 79)"
     fill-rule="nonzero"
     d="M 352.922668,232.255646 C 352.922668,232.255646 373.187408,226.008240 372.474274,246.736664 C 372.474274,246.736664 369.457184,276.793457 368.147064,279.563629 C 368.147064,279.563629 360.188538,297.063721 347.054077,297.839294 C 334.217102,298.597351 347.054077,297.839294 347.054077,297.839294 C 347.054077,297.839294 346.894684,303.480011 346.894684,303.480011 C 346.894684,303.480011 369.980011,300.535034 374.438782,274.065369 C 374.438782,274.065369 377.958008,250.019012 377.958008,250.019012 C 377.958008,250.019012 380.690521,218.196014 354.184845,226.287231 C 328.362976,234.169739 354.184845,226.287231 354.184845,226.287231 C 354.184845,226.287231 352.922668,232.255646 352.922668,232.255646 " />
  <path
     id="Shape 4_2"
     style="stroke: none; fill: rgb(59, 67, 79)"
     fill-rule="nonzero"
     d="M 359.611389,274.014832 C 359.611389,274.014832 363.814240,274.014832 363.814240,274.014832 C 363.814240,274.014832 365.905548,253.046265 365.905548,253.046265 C 365.905548,253.046265 363.020081,242.719818 350.775787,248.177063 C 350.775787,248.177063 350.486359,254.172729 350.486359,254.172729 C 350.486359,254.172729 361.228851,250.382080 361.006714,255.102325 C 360.792908,259.645752 359.611389,274.014832 359.611389,274.014832 Z" />
  <path
     id="new_vector_shape_done"
     style="stroke: none; fill: rgb(59, 67, 79)"
     fill-rule="evenodd"
     d="M 263.893341,272.333344 C 264.391052,272.333344 264.888947,272.333344 265.386658,272.333344 C 268.474121,276.526306 269.730225,282.969757 271.359985,288.546661 C 271.865051,290.274963 271.375061,293.297974 270.933319,294.519989 C 269.315552,298.995514 264.235687,298.915192 260.053345,300.919983 C 258.930115,301.458435 258.094604,302.387817 256.640015,302.626678 C 255.691711,301.791351 254.546722,301.627289 254.079987,300.279999 C 252.927673,298.693268 254.412811,297.702393 255.573334,297.079987 C 257.679565,295.950409 264.181488,294.837097 264.959991,292.813324 C 265.923218,291.717590 265.282745,288.423157 264.959991,287.266663 C 264.133392,284.304504 263.736633,281.831543 262.613342,279.160004 C 261.867188,277.385498 260.557159,275.514496 261.333344,273.399994 C 261.976532,273.123810 263.366638,272.809784 263.893341,272.333344 Z" />
  <path
     id="oko"
     style="stroke: none; fill: rgb(59, 67, 79)"
     fill-rule="nonzero"
     d="M 209.066681,236.066681 C 213.779510,236.066681 217.600006,239.887177 217.600006,244.600006 C 217.600006,249.312836 213.779510,253.133331 209.066681,253.133331 C 204.353851,253.133331 200.533325,249.312836 200.533325,244.600006 C 200.533325,239.887177 204.353851,236.066681 209.066681,236.066681 Z" />
  <path
     id="oko_1"
     style="stroke: none; fill: rgb(59, 67, 79)"
     fill-rule="nonzero"
     d="M 303.786652,236.066681 C 308.499481,236.066681 312.319977,239.887177 312.319977,244.600006 C 312.319977,249.312836 308.499481,253.133331 303.786652,253.133331 C 299.073853,253.133331 295.253326,249.312836 295.253326,244.600006 C 295.253326,239.887177 299.073853,236.066681 303.786652,236.066681 Z" />
  <path
     id="Ellipse 3 copy 3"
     style="stroke: none; fill: rgb(237, 241, 241)"
     fill-rule="nonzero"
     d="M 307.626678,267.640015 C 313.517700,267.640015 318.293335,272.415649 318.293335,278.306671 C 318.293335,284.197693 313.517700,288.973328 307.626678,288.973328 C 301.735626,288.973328 296.960022,284.197693 296.960022,278.306671 C 296.960022,272.415649 301.735626,267.640015 307.626678,267.640015 Z" />
  <path
     id="Ellipse 3 copy 4"
     style="stroke: none; fill: rgb(237, 241, 241)"
     fill-rule="nonzero"
     d="M 204.373352,267.640015 C 210.264374,267.640015 215.040009,272.415649 215.040009,278.306671 C 215.040009,284.197693 210.264374,288.973328 204.373352,288.973328 C 198.482300,288.973328 193.706696,284.197693 193.706696,278.306671 C 193.706696,272.415649 198.482300,267.640015 204.373352,267.640015 Z" />
  <path
     id="fill"
     style="stroke: none; fill: rgb(193, 191, 189)"
     fill-rule="nonzero"
     d="M 165.637238,216.417542 C 165.637238,216.417542 193.730438,202.174225 190.625336,153.195282 C 190.625336,153.195282 235.565857,202.436676 343.893341,187.426666 C 343.893341,187.426666 349.013336,233.506653 349.013336,233.506653 C 349.013336,233.506653 412.695221,115.506775 298.666656,88.440002 C 187.075287,61.951721 185.788910,131.836426 185.788910,131.836426 C 185.788910,131.836426 151.567322,126.722626 148.709808,160.030121 C 145.852325,193.337616 156.160004,228.386658 156.160004,228.386658 C 156.160004,228.386658 164.693329,235.213318 164.693329,235.213318 C 164.693329,235.213318 165.637238,216.417542 165.637238,216.417542 Z" />
  <path
     id="line"
     style="stroke: none; fill: rgb(59, 67, 79)"
     fill-rule="evenodd"
     d="M 348.160004,238.626648 C 348.160004,238.626648 341.760010,190.413330 341.760010,190.413330 C 233.432526,203.557800 193.612000,159.595276 193.612000,159.595276 C 191.999329,208.574219 168.197235,217.697540 168.197235,217.697540 C 168.197235,217.697540 166.399994,237.346649 166.399994,237.346649 C 166.399994,237.346649 154.453339,230.519989 154.453339,230.519989 C 154.453339,230.519989 143.073547,193.354797 145.723145,160.030121 C 148.580658,124.090973 183.228912,129.276428 183.228912,129.276428 C 183.228912,129.276428 187.341705,57.440094 298.666656,85.026672 C 420.161896,115.133453 348.160004,238.626648 348.160004,238.626648 Z M 297.813324,91.000000 C 185.907745,65.872345 188.160004,135.799988 188.160004,135.799988 C 188.160004,135.799988 154.553986,126.722626 151.696472,160.030121 C 148.838989,193.337616 158.293335,226.253326 158.293335,226.253326 C 158.293335,226.253326 162.133331,229.239990 162.133331,229.239990 C 162.133331,229.239990 162.650574,214.710876 162.650574,214.710876 C 162.650574,214.710876 190.791534,205.038666 187.638672,146.795288 C 187.638672,146.795288 227.801422,199.414459 346.453339,184.440002 C 346.453339,184.440002 350.720001,222.839996 350.720001,222.839996 C 350.720001,222.839996 402.596893,114.528442 297.813324,91.000000 Z" />
  <path
     id="R copy"
     style="stroke: none; fill: rgb(59, 67, 79)"
     fill-rule="nonzero"
     d="M 283.326904,224.440948 C 283.326904,224.440948 308.871521,209.836151 327.119781,225.927032 C 327.119781,225.927032 331.946655,226.675201 331.946655,226.675201 C 331.946655,226.675201 325.764191,204.177856 280.746674,218.806366 C 280.746674,218.806366 282.000000,223.000000 282.000000,223.000000  M 283.000000,223.000000 C 283.000000,223.000000 308.987244,208.073700 326.119781,226.927032 C 326.119781,226.927032 334.946655,226.675201 334.946655,226.675201 C 334.946655,226.675201 323.938019,202.643188 278.746674,217.806366 C 278.746674,217.806366 283.000000,224.000000 283.000000,224.000000 " />
  <path
     id="R copy 3"
     style="stroke: none; fill: rgb(59, 67, 79)"
     fill-rule="nonzero"
     d="M 228.438354,224.525543 C 228.438354,224.525543 202.979004,210.049988 184.791626,225.998474 C 184.791626,225.998474 179.980865,226.740021 179.980865,226.740021 C 179.980865,226.740021 186.142700,204.441772 231.009979,218.940826 C 231.009979,218.940826 229.760834,223.097351 229.760834,223.097351  M 228.764191,223.097351 C 228.764191,223.097351 202.863647,208.303131 185.788300,226.989624 C 185.788300,226.989624 176.990875,226.740021 176.990875,226.740021 C 176.990875,226.740021 187.962769,202.920685 233.003326,217.949677 C 233.003326,217.949677 228.764191,224.088501 228.764191,224.088501 " />
</svg>
