<?xml version="1.0" encoding="UTF-8" standalone="no"?>
<svg
   xmlns:dc="http://purl.org/dc/elements/1.1/"
   xmlns:cc="http://creativecommons.org/ns#"
   xmlns:rdf="http://www.w3.org/1999/02/22-rdf-syntax-ns#"
   xmlns:svg="http://www.w3.org/2000/svg"
   xmlns="http://www.w3.org/2000/svg"
   version="1.1"
   id="svg9188"
   height="512"
   width="512">
  <metadata
     id="metadata9217">
    <rdf:RDF>
      <cc:Work
         rdf:about="">
        <dc:format>image/svg+xml</dc:format>
        <dc:type
           rdf:resource="http://purl.org/dc/dcmitype/StillImage" />
        <dc:title></dc:title>
      </cc:Work>
    </rdf:RDF>
  </metadata>
  <defs
     id="defs9215" />
  <path
     id="Shape 16"
     style="stroke: none; fill: rgb(59, 68, 79)"
     fill-rule="nonzero"
     d="M 290.573334,109.213318 C 282.115845,101.168335 286.733337,80.200012 286.733337,80.200012 C 286.733337,80.200012 287.113495,78.671417 288.007202,76.168701 C 293.146912,61.775635 315.271210,15.164764 379.746674,41.799988 C 379.746674,41.799988 363.533325,46.066650 363.533325,46.066650 C 363.533325,46.066650 415.586670,48.913330 415.586670,133.106659 C 415.586670,217.299988 415.586670,331.933319 415.586670,331.933319 C 415.586670,331.933319 375.760010,367.339996 325.986664,308.893341 C 276.213318,250.446655 290.000000,163.000000 290.000000,163.000000 C 290.000000,163.000000 299.030823,117.258331 290.573334,109.213318 Z" />
  <path
     id="Rounded Rectangle 7"
     style="stroke: none; fill: rgb(59, 68, 79)"
     fill-rule="nonzero"
     d="M 256.866669,94.706665 C 316.012665,94.706665 363.959991,142.653992 363.959991,201.799988 C 363.959991,201.799988 363.959991,223.986664 363.959991,223.986664 C 363.959991,283.132660 316.012665,331.079987 256.866669,331.079987 C 197.720673,331.079987 149.773346,283.132660 149.773346,223.986664 C 149.773346,223.986664 149.773346,201.799988 149.773346,201.799988 C 149.773346,142.653992 197.720673,94.706665 256.866669,94.706665 Z" />
  <path
     id="body-bg-flat copy"
     style="stroke: none; fill: rgb(255, 255, 255)"
     fill-rule="nonzero"
     d="M 117.359985,502.000000 C 117.359985,502.000000 110.744995,412.011780 195.440002,403.613342 C 195.440002,403.613342 233.413330,403.613342 233.413330,403.613342 C 233.413330,403.613342 233.413330,386.119995 233.413330,386.119995 C 233.413330,386.119995 260.125000,397.593323 287.173340,387.399994 C 287.173340,387.399994 288.026672,403.613342 288.026672,403.613342 C 288.026672,403.613342 332.399994,403.613342 332.399994,403.613342 C 332.399994,403.613342 408.385406,406.597595 404.933319,502.853333 C 404.933319,502.853333 117.359985,502.000000 117.359985,502.000000 Z" />
  <path
     id="Rounded Rectangle 13"
     style="stroke: none; fill: rgb(59, 67, 79)"
     fill-rule="nonzero"
     d="M 404.675262,505.586670 C 404.675262,505.586670 404.675262,505.586670 404.675262,505.586670 C 404.675262,505.586670 120.158875,505.586670 120.158875,505.586670 C 120.158875,505.586670 120.158875,505.586670 120.158875,505.586670 C 120.158875,505.586670 114.640991,505.586670 114.640991,505.586670 C 114.640991,505.586670 116.018341,482.056854 116.018341,482.056854 C 118.707642,436.114624 154.905212,401.053345 196.328339,401.053345 C 196.328339,401.053345 227.853333,401.053345 227.853333,401.053345 C 227.853333,401.053345 227.853333,405.746674 227.853333,405.746674 C 227.853333,405.746674 198.843048,405.746674 198.843048,405.746674 C 158.919678,405.746674 124.032654,439.495087 121.440704,483.717010 C 121.440704,483.717010 120.483978,500.040009 120.483978,500.040009 C 120.483978,500.040009 403.923492,500.040009 403.923492,500.040009 C 403.923492,500.040009 403.393433,483.717010 403.393433,483.717010 C 400.801483,439.495087 365.914459,405.746674 325.991058,405.746674 C 325.991058,405.746674 287.160004,405.746674 287.160004,405.746674 C 287.160004,405.746674 287.160004,401.053345 287.160004,401.053345 C 287.160004,401.053345 328.252747,401.053345 328.252747,401.053345 C 369.675873,401.053345 405.873444,436.114624 408.562744,482.056854 C 408.562744,482.056854 409.940094,505.586670 409.940094,505.586670 C 409.940094,505.586670 404.675262,505.586670 404.675262,505.586670 Z" />
  <path
     id="Ellipse 4"
     style="stroke: none; fill: rgb(59, 67, 79)"
     fill-rule="nonzero"
     d="M 258.720001,453.959991 C 235.862793,453.959991 217.333313,435.430573 217.333313,412.573334 C 217.333313,408.573883 217.911926,404.711700 218.970459,401.053345 C 218.970459,401.053345 219.040009,401.053345 219.040009,401.053345 C 219.040009,401.053345 223.431793,401.053345 223.431793,401.053345 C 223.431793,401.053345 230.986664,401.053345 230.986664,401.053345 C 230.986664,401.053345 230.986664,405.746674 230.986664,405.746674 C 230.986664,405.746674 222.238647,405.746674 222.238647,405.746674 C 221.824432,407.959839 221.599976,410.239716 221.599976,412.573334 C 221.599976,433.074158 238.219208,449.693329 258.720001,449.693329 C 279.220825,449.693329 295.839996,433.074158 295.839996,412.573334 C 295.839996,410.239716 295.615570,407.959839 295.201324,405.746674 C 295.201324,405.746674 286.453339,405.746674 286.453339,405.746674 C 286.453339,405.746674 286.453339,401.053345 286.453339,401.053345 C 286.453339,401.053345 294.008179,401.053345 294.008179,401.053345 C 294.008179,401.053345 298.399994,401.053345 298.399994,401.053345 C 298.399994,401.053345 298.469513,401.053345 298.469513,401.053345 C 299.528046,404.711700 300.106659,408.573883 300.106659,412.573334 C 300.106659,435.430573 281.577240,453.959991 258.720001,453.959991 Z" />
  <path
     id="neck"
     style="stroke: none; fill: rgb(59, 67, 79)"
     fill-rule="nonzero"
     d="M 233.399994,384.146088 C 233.399994,384.146088 233.399994,410.461182 233.399994,410.461182 C 233.399994,424.116669 244.479462,435.186676 258.146667,435.186676 C 271.813873,435.186676 282.893341,424.116669 282.893341,410.461182 C 282.893341,410.461182 282.893341,384.688995 282.893341,384.688995 C 284.329498,384.251862 285.752136,383.777069 287.160004,383.264130 C 287.160004,383.264130 287.160004,410.640289 287.160004,410.640289 C 287.160004,426.788910 274.074799,439.880005 257.933350,439.880005 C 241.791901,439.880005 228.706665,426.788910 228.706665,410.640289 C 228.706665,410.640289 228.706665,382.453674 228.706665,382.453674 C 230.252502,383.064911 231.818207,383.627106 233.399994,384.146088 Z" />
  <path
     id="1 copy 4"
     style="stroke: none; fill: rgb(255, 255, 255)"
     fill-rule="nonzero"
     d="M 259.006958,125.426636 C 313.036316,125.426636 354.137390,172.810333 351.938171,227.029968 C 351.938171,227.029968 348.953674,300.609589 348.953674,300.609589 C 340.498535,350.564606 306.058563,386.630249 259.384003,391.666687 C 213.854645,386.881989 178.739075,350.551758 169.060211,300.609589 C 169.060211,300.609589 166.075714,227.029968 166.075714,227.029968 C 163.876495,172.810333 204.977600,125.426636 259.006958,125.426636 Z" />
  <path
     id="1 line"
     style="stroke: none; fill: rgb(59, 67, 79)"
     fill-rule="evenodd"
     d="M 357.906677,223.909088 C 357.906677,223.909088 354.730286,300.790375 354.730286,300.790375 C 345.731506,352.986938 309.077179,390.670929 259.401611,395.933350 C 210.944855,390.933960 173.571472,352.973511 163.270294,300.790375 C 163.270294,300.790375 160.093903,223.909088 160.093903,223.909088 C 157.753296,167.256531 201.497070,117.746643 259.000305,117.746643 C 316.503571,117.746643 360.247284,167.256531 357.906677,223.909088 Z M 259.006958,123.719971 C 204.977600,123.719971 163.876495,171.103668 166.075714,225.323303 C 166.075714,225.323303 169.060211,298.902924 169.060211,298.902924 C 178.739075,348.845093 213.854645,385.175323 259.384003,389.960022 C 306.058563,384.923584 340.498535,348.857941 348.953674,298.902924 C 348.953674,298.902924 351.938171,225.323303 351.938171,225.323303 C 354.137390,171.103668 313.036316,123.719971 259.006958,123.719971 Z" />
  <path
     id="usta"
     style="stroke: none; fill: rgb(59, 67, 79)"
     fill-rule="nonzero"
     d="M 305.079987,327.325928 C 297.324768,334.059753 279.808014,340.466644 259.426697,340.466644 C 239.045349,340.466644 221.528595,334.059753 213.773346,327.325928 C 213.773346,327.325928 212.979889,325.142639 214.144043,323.978485 C 215.329742,322.792786 217.186676,323.050842 217.186676,323.050842 C 224.933777,329.789246 239.037567,335.346680 259.426697,335.346680 C 279.815796,335.346680 293.919586,329.789246 301.666687,323.050842 C 301.666687,323.050842 303.561707,322.346893 304.482269,323.267456 C 306.255310,325.040497 305.079987,327.325928 305.079987,327.325928 Z" />
  <path
     id="-"
     style="stroke: none; fill: rgb(59, 67, 79)"
     fill-rule="nonzero"
     d="M 245.346680,350.706665 C 245.346680,350.706665 272.653351,350.706665 272.653351,350.706665 C 272.653351,350.706665 272.653351,354.973328 272.653351,354.973328 C 272.653351,354.973328 245.346680,354.973328 245.346680,354.973328 C 245.346680,354.973328 245.346680,350.706665 245.346680,350.706665 Z" />
  <path
     id="Shape 11 copy"
     style="stroke: none; fill: rgb(255, 255, 255)"
     fill-rule="nonzero"
     d="M 160.807220,233.313141 C 160.795441,233.313812 159.759613,232.486603 157.803619,231.870758 C 156.826019,231.563507 155.611023,231.310760 154.226166,231.248444 C 153.880310,231.232880 153.524353,231.229187 153.160126,231.239532 C 152.795898,231.249878 152.423370,231.274231 152.044708,231.314667 C 151.287476,231.395569 150.505402,231.540955 149.718414,231.767334 C 146.567261,232.672913 143.352692,234.874664 141.464783,239.419098 C 140.517090,241.691437 139.891907,244.549713 139.726624,248.125916 C 139.685272,249.019989 139.672638,249.958923 139.690765,250.944794 C 139.708923,251.930664 139.757874,252.963470 139.839630,254.045288 C 140.003052,256.208832 140.298157,258.568451 140.737854,261.139679 C 140.728241,261.137146 140.327759,268.909668 143.106445,277.840820 C 145.718689,286.572784 151.991516,297.299225 163.573334,300.364410 C 162.241302,278.185028 162.199921,255.589905 160.807220,233.313141 C 160.807220,233.313141 160.807220,233.313141 160.807220,233.313141 Z" />
  <path
     id="Shape 3"
     style="stroke: none; fill: rgb(59, 67, 79)"
     fill-rule="nonzero"
     d="M 162.127869,234.207275 C 162.127869,234.207275 141.951477,227.955597 142.661530,248.698090 C 142.661530,248.698090 145.665436,278.775360 146.969879,281.547363 C 146.969879,281.547363 154.893707,299.059387 167.970856,299.835480 C 180.751862,300.593994 167.970856,299.835480 167.970856,299.835480 C 167.970856,299.835480 168.129578,305.480011 168.129578,305.480011 C 168.129578,305.480011 145.144928,302.533020 140.705597,276.045410 C 140.705597,276.045410 137.201721,251.982697 137.201721,251.982697 C 137.201721,251.982697 134.481110,220.138062 160.871185,228.234802 C 186.580475,236.122681 160.871185,228.234802 160.871185,228.234802 C 160.871185,228.234802 162.127869,234.207275 162.127869,234.207275 " />
  <path
     id="Shape 4"
     style="stroke: none; fill: rgb(59, 67, 79)"
     fill-rule="nonzero"
     d="M 155.468323,275.994812 C 155.468323,275.994812 154.339172,276.848145 153.369171,276.848145 C 152.399170,276.848145 151.283783,275.994812 151.283783,275.994812 C 151.283783,275.994812 149.201569,255.012024 149.201569,255.012024 C 149.201569,255.012024 152.074493,244.678558 164.265381,250.139496 C 164.265381,250.139496 164.553558,256.139221 164.553558,256.139221 C 164.553558,256.139221 153.857910,252.346008 154.079071,257.069427 C 154.291962,261.615967 155.468323,275.994812 155.468323,275.994812 Z" />
  <path
     id="Shape 11 copy_1"
     style="stroke: none; fill: rgb(255, 255, 255)"
     fill-rule="nonzero"
     d="M 357.813416,233.362122 C 357.825256,233.362793 358.865631,232.536163 360.830170,231.920715 C 361.812073,231.613678 363.032379,231.361115 364.423309,231.298828 C 364.770660,231.283295 365.128174,231.279602 365.494019,231.289948 C 365.859833,231.300262 366.233978,231.324615 366.614319,231.365021 C 367.374847,231.445862 368.160370,231.591156 368.950806,231.817383 C 372.115753,232.722351 375.344391,234.922607 377.240570,239.463959 C 378.192413,241.734741 378.820343,244.591064 378.986328,248.164856 C 379.027863,249.058319 379.040558,249.996613 379.022369,250.981812 C 379.004120,251.967010 378.954956,252.999115 378.872833,254.080200 C 378.708710,256.242279 378.412292,258.600311 377.970673,261.169769 C 377.980347,261.167236 378.382568,268.934509 375.591705,277.859589 C 372.968048,286.585632 366.667725,297.304779 355.035187,300.367889 C 356.373047,278.203552 356.414612,255.623779 357.813416,233.362122 C 357.813416,233.362122 357.813416,233.362122 357.813416,233.362122 Z" />
  <path
     id="Shape 3_1"
     style="stroke: none; fill: rgb(59, 67, 79)"
     fill-rule="nonzero"
     d="M 355.482605,234.255676 C 355.482605,234.255676 375.747375,228.008240 375.034210,248.736633 C 375.034210,248.736633 372.017151,278.793488 370.706970,281.563599 C 370.706970,281.563599 362.748444,299.063751 349.614044,299.839325 C 336.777039,300.597321 349.614044,299.839325 349.614044,299.839325 C 349.614044,299.839325 349.454620,305.480011 349.454620,305.480011 C 349.454620,305.480011 372.539917,302.535034 376.998688,276.065399 C 376.998688,276.065399 380.517914,252.019012 380.517914,252.019012 C 380.517914,252.019012 383.250458,220.195984 356.744781,228.287231 C 330.922913,236.169769 356.744781,228.287231 356.744781,228.287231 C 356.744781,228.287231 355.482605,234.255676 355.482605,234.255676 " />
  <path
     id="Shape 4_1"
     style="stroke: none; fill: rgb(59, 67, 79)"
     fill-rule="nonzero"
     d="M 362.171326,276.014832 C 362.171326,276.014832 363.305420,276.867584 364.279663,276.867584 C 365.253906,276.867584 366.374176,276.014832 366.374176,276.014832 C 366.374176,276.014832 368.465515,255.046295 368.465515,255.046295 C 368.465515,255.046295 365.580017,244.719849 353.335724,250.177063 C 353.335724,250.177063 353.046295,256.172729 353.046295,256.172729 C 353.046295,256.172729 363.788788,252.382080 363.566650,257.102295 C 363.352844,261.645752 362.171326,276.014832 362.171326,276.014832 Z" />
  <path
     id="new_vector_shape_done"
     style="stroke: none; fill: rgb(59, 67, 79)"
     fill-rule="evenodd"
     d="M 266.893341,274.333344 C 267.391052,274.333344 267.888947,274.333344 268.386658,274.333344 C 271.474121,278.526306 272.730225,284.969757 274.359985,290.546661 C 274.865051,292.274963 274.375061,295.297974 273.933319,296.519989 C 272.315552,300.995514 267.235687,300.915192 263.053345,302.919983 C 261.930115,303.458435 261.094604,304.387817 259.640015,304.626678 C 258.691711,303.791351 257.546722,303.627289 257.079987,302.279999 C 255.927673,300.693268 257.412811,299.702393 258.573334,299.079987 C 260.679565,297.950409 267.181488,296.837097 267.959991,294.813324 C 268.923218,293.717590 268.282745,290.423157 267.959991,289.266663 C 267.133392,286.304504 266.736633,283.831543 265.613342,281.160004 C 264.867188,279.385498 263.557159,277.514496 264.333344,275.399994 C 264.976532,275.123810 266.366638,274.809784 266.893341,274.333344 Z" />
  <path
     id="Rounded Rectangle 8"
     style="stroke: none; fill: rgb(59, 67, 79)"
     fill-rule="nonzero"
     d="M 207.799988,241.480011 C 207.799988,241.480011 213.773346,241.480011 213.773346,241.480011 C 217.072327,241.480011 219.746674,244.154358 219.746674,247.453339 C 219.746674,250.752319 217.072327,253.426666 213.773346,253.426666 C 213.773346,253.426666 207.799988,253.426666 207.799988,253.426666 C 204.501007,253.426666 201.826660,250.752319 201.826660,247.453339 C 201.826660,244.154358 204.501007,241.480011 207.799988,241.480011 Z" />
  <path
     id="Rounded Rectangle 8 copy"
     style="stroke: none; fill: rgb(59, 67, 79)"
     fill-rule="nonzero"
     d="M 305.079987,241.480011 C 305.079987,241.480011 311.053345,241.480011 311.053345,241.480011 C 314.352325,241.480011 317.026672,244.154358 317.026672,247.453339 C 317.026672,250.752319 314.352325,253.426666 311.053345,253.426666 C 311.053345,253.426666 305.079987,253.426666 305.079987,253.426666 C 301.781006,253.426666 299.106659,250.752319 299.106659,247.453339 C 299.106659,244.154358 301.781006,241.480011 305.079987,241.480011 Z" />
  <path
     id="Ellipse 3"
     style="stroke: none; fill: rgb(237, 241, 241)"
     fill-rule="nonzero"
     d="M 310.626678,269.640015 C 316.517700,269.640015 321.293335,274.415649 321.293335,280.306671 C 321.293335,286.197693 316.517700,290.973328 310.626678,290.973328 C 304.735626,290.973328 299.960022,286.197693 299.960022,280.306671 C 299.960022,274.415649 304.735626,269.640015 310.626678,269.640015 Z" />
  <path
     id="Ellipse 3 copy"
     style="stroke: none; fill: rgb(237, 241, 241)"
     fill-rule="nonzero"
     d="M 207.373352,269.640015 C 213.264374,269.640015 218.040009,274.415649 218.040009,280.306671 C 218.040009,286.197693 213.264374,290.973328 207.373352,290.973328 C 201.482300,290.973328 196.706696,286.197693 196.706696,280.306671 C 196.706696,274.415649 201.482300,269.640015 207.373352,269.640015 Z" />
  <path
     id="glasses"
     style="stroke: none; fill: rgb(59, 68, 79)"
     fill-rule="evenodd"
     d="M 351.939911,228.879608 C 351.362732,233.809509 350.855652,239.842255 349.789673,245.235870 C 346.602081,261.364380 332.743378,276.307343 309.079590,278.009949 C 285.415833,279.712555 265.275787,267.799591 264.095551,251.401581 C 263.895447,248.621277 263.360138,245.501251 262.949341,242.467896 C 259.600494,240.611298 256.148895,240.607056 252.594574,242.455261 C 252.179474,245.557281 251.623993,248.759369 251.419128,251.606171 C 250.235199,268.058533 230.031647,280.010986 206.293243,278.302734 C 182.554840,276.594482 168.652435,261.602020 165.454773,245.420044 C 164.385437,240.008545 163.876770,233.955811 163.297760,229.009552 C 163.297760,229.009552 159.809448,228.758514 159.809448,228.758514 C 159.809448,228.758514 160.299438,221.949463 160.299438,221.949463 C 160.299438,221.949463 161.150574,222.010712 161.150574,222.010712 C 161.150574,222.010712 182.739105,223.564270 182.739105,223.564270 C 182.739105,223.564270 200.962189,224.875641 200.962189,224.875641 C 200.962189,224.875641 219.219147,226.189423 219.219147,226.189423 C 219.219147,226.189423 247.655823,228.235779 247.655823,228.235779 C 249.617004,228.483826 250.921082,229.324921 251.760895,230.580536 C 255.844788,232.368225 259.811005,232.375366 263.659515,230.601654 C 264.491730,229.265259 265.813354,228.365540 267.847015,228.108368 C 267.847015,228.108368 296.194305,226.068787 296.194305,226.068787 C 296.194305,226.068787 314.393890,224.759338 314.393890,224.759338 C 314.393890,224.759338 332.559692,223.452301 332.559692,223.452301 C 332.559692,223.452301 354.080353,221.903870 354.080353,221.903870 C 354.080353,221.903870 354.928802,221.842834 354.928802,221.842834 C 354.928802,221.842834 355.417267,228.629395 355.417267,228.629395 C 355.417267,228.629395 351.939911,228.879608 351.939911,228.879608 Z M 240.019867,236.237274 C 240.019867,236.237274 184.288300,232.226746 184.288300,232.226746 C 176.999054,231.598328 174.415344,239.789520 173.966095,246.032532 C 173.018951,259.194397 187.684265,270.974823 206.721985,272.344818 C 225.759705,273.714783 241.960663,264.155579 242.907806,250.993683 C 243.357056,244.750702 245.396210,240.895111 240.019867,236.237274 Z M 341.305115,245.846344 C 340.857269,239.623962 338.281677,231.459808 331.015350,232.086151 C 331.015350,232.086151 275.458984,236.083435 275.458984,236.083435 C 270.099548,240.725922 272.132294,244.568726 272.580109,250.791107 C 273.524292,263.909515 289.674316,273.437164 308.652191,272.071686 C 327.630066,270.706238 342.249298,258.964722 341.305115,245.846344 Z" />
  <path
     id="Shape 26"
     style="stroke: none; fill: rgb(59, 67, 79)"
     fill-rule="nonzero"
     d="M 167.693329,167.239990 C 167.693329,167.239990 198.839996,127.559998 198.839996,127.559998 C 198.839996,127.559998 227.000000,114.333344 227.000000,114.333344 C 227.000000,114.333344 264.973328,108.359985 264.973328,108.359985 C 264.973328,108.359985 308.493347,110.919983 308.493347,110.919983 C 308.493347,110.919983 366.946655,171.506653 366.946655,171.506653 C 366.946655,171.506653 351.160004,228.679993 351.160004,228.679993 C 351.160004,228.679993 347.541656,203.464996 328.119995,183.453339 C 310.003632,164.786621 298.253326,160.200012 298.253326,160.200012 C 298.253326,160.200012 291.402069,187.846771 245.773346,186.866669 C 163.930023,185.108643 167.565155,243.230774 164.706665,248.306671 C 164.392517,248.864532 164.279999,223.986664 164.279999,223.986664 C 164.279999,223.986664 167.693329,167.239990 167.693329,167.239990 Z" />
</svg>
