<?xml version="1.0" encoding="UTF-8" standalone="no"?>
<svg
   xmlns:dc="http://purl.org/dc/elements/1.1/"
   xmlns:cc="http://creativecommons.org/ns#"
   xmlns:rdf="http://www.w3.org/1999/02/22-rdf-syntax-ns#"
   xmlns:svg="http://www.w3.org/2000/svg"
   xmlns="http://www.w3.org/2000/svg"
   version="1.1"
   id="svg4823"
   height="512"
   width="512">
  <metadata
     id="metadata4859">
    <rdf:RDF>
      <cc:Work
         rdf:about="">
        <dc:format>image/svg+xml</dc:format>
        <dc:type
           rdf:resource="http://purl.org/dc/dcmitype/StillImage" />
        <dc:title></dc:title>
      </cc:Work>
    </rdf:RDF>
  </metadata>
  <defs
     id="defs4857" />
  <path
     id="body-bg-flat"
     style="stroke: none; fill: rgb(255, 255, 255)"
     fill-rule="nonzero"
     d="M 111.000000,504.000000 C 111.000000,504.000000 100.698120,413.688873 189.440002,403.613342 C 189.440002,403.613342 227.413330,403.613342 227.413330,403.613342 C 227.413330,403.613342 227.413330,386.119995 227.413330,386.119995 C 227.413330,386.119995 254.125000,397.593323 281.173340,387.399994 C 281.173340,387.399994 282.026672,403.613342 282.026672,403.613342 C 282.026672,403.613342 326.399994,403.613342 326.399994,403.613342 C 326.399994,403.613342 403.673462,411.327606 399.000000,504.000000 C 399.000000,504.000000 111.000000,504.000000 111.000000,504.000000 Z" />
  <path
     id="Rounded Rectangle 13 copy 3"
     style="stroke: none; fill: rgb(59, 67, 79)"
     fill-rule="nonzero"
     d="M 398.261932,505.586670 C 398.261932,505.586670 398.261932,505.586670 398.261932,505.586670 C 398.261932,505.586670 113.745544,505.586670 113.745544,505.586670 C 113.745544,505.586670 113.745544,505.586670 113.745544,505.586670 C 113.745544,505.586670 108.227661,505.586670 108.227661,505.586670 C 108.227661,505.586670 109.605011,482.056854 109.605011,482.056854 C 112.294312,436.114624 148.491882,401.053345 189.915009,401.053345 C 189.915009,401.053345 227.413330,401.053345 227.413330,401.053345 C 227.413330,401.053345 227.413330,405.746674 227.413330,405.746674 C 227.413330,405.746674 192.429718,405.746674 192.429718,405.746674 C 152.506348,405.746674 117.619324,439.495087 115.027374,483.717010 C 115.027374,483.717010 114.070648,500.040009 114.070648,500.040009 C 114.070648,500.040009 397.510162,500.040009 397.510162,500.040009 C 397.510162,500.040009 396.980103,483.717010 396.980103,483.717010 C 394.388153,439.495087 359.501129,405.746674 319.577728,405.746674 C 319.577728,405.746674 284.160004,405.746674 284.160004,405.746674 C 284.160004,405.746674 284.160004,401.053345 284.160004,401.053345 C 284.160004,401.053345 321.839417,401.053345 321.839417,401.053345 C 363.262543,401.053345 399.460114,436.114624 402.149414,482.056854 C 402.149414,482.056854 403.526764,505.586670 403.526764,505.586670 C 403.526764,505.586670 398.261932,505.586670 398.261932,505.586670 Z" />
  <path
     id="neck copy 7"
     style="stroke: none; fill: rgb(59, 67, 79)"
     fill-rule="nonzero"
     d="M 230.399994,384.146088 C 230.399994,384.146088 230.399994,410.461182 230.399994,410.461182 C 230.399994,424.116669 241.479462,435.186676 255.146667,435.186676 C 268.813873,435.186676 279.893341,424.116669 279.893341,410.461182 C 279.893341,410.461182 279.893341,384.688995 279.893341,384.688995 C 281.329498,384.251862 282.752136,383.777069 284.160004,383.264130 C 284.160004,383.264130 284.160004,410.640289 284.160004,410.640289 C 284.160004,426.788910 271.074799,439.880005 254.933350,439.880005 C 238.791901,439.880005 225.706665,426.788910 225.706665,410.640289 C 225.706665,410.640289 225.706665,382.453674 225.706665,382.453674 C 227.252502,383.064911 228.818207,383.627106 230.399994,384.146088 Z" />
  <path
     id="Rounded Rectangle 2"
     style="stroke: none; fill: rgb(59, 67, 79)"
     fill-rule="nonzero"
     d="M 331.719940,457.489349 C 331.719940,457.489349 319.634583,482.696259 319.634583,482.696259 C 319.023346,483.971161 317.494324,484.509155 316.219452,483.897919 C 314.944550,483.286682 314.406555,481.757660 315.017792,480.482758 C 315.017792,480.482758 326.689819,456.138000 326.689819,456.138000 C 326.689819,456.138000 317.569641,440.341400 317.569641,440.341400 C 316.862732,439.116974 317.282227,437.551300 318.506653,436.844391 C 319.731110,436.137451 321.296753,436.556976 322.003693,437.781403 C 322.003693,437.781403 331.817017,454.778595 331.817017,454.778595 C 332.322723,455.654480 332.249390,456.703491 331.719940,457.489349 Z" />
  <path
     id="Rounded Rectangle 2 copy 3"
     style="stroke: none; fill: rgb(59, 67, 79)"
     fill-rule="nonzero"
     d="M 178.362396,457.513947 C 178.362396,457.513947 190.512604,482.798462 190.512604,482.798462 C 191.127106,484.077301 192.664337,484.616943 193.946045,484.003815 C 195.227783,483.390686 195.768677,481.856964 195.154144,480.578156 C 195.154144,480.578156 183.419525,456.158447 183.419525,456.158447 C 183.419525,456.158447 192.588623,440.313202 192.588623,440.313202 C 193.299316,439.085022 192.877563,437.514526 191.646576,436.805420 C 190.415558,436.096313 188.841522,436.517120 188.130798,437.745331 C 188.130798,437.745331 178.264832,454.794861 178.264832,454.794861 C 177.756409,455.673431 177.830109,456.725677 178.362396,457.513947 Z" />
  <path
     id="Rectangle 24"
     style="stroke: none; fill: rgb(59, 67, 79)"
     fill-rule="nonzero"
     d="M 225.706665,400.200012 C 225.706665,400.200012 230.399994,400.200012 230.399994,400.200012 C 230.399994,400.200012 230.399994,503.880005 230.399994,503.880005 C 230.399994,503.880005 225.706665,503.880005 225.706665,503.880005 C 225.706665,503.880005 225.706665,400.200012 225.706665,400.200012 Z" />
  <path
     id="Rectangle 24 copy"
     style="stroke: none; fill: rgb(59, 67, 79)"
     fill-rule="nonzero"
     d="M 279.893341,401.053345 C 279.893341,401.053345 284.586670,401.053345 284.586670,401.053345 C 284.586670,401.053345 284.586670,504.733337 284.586670,504.733337 C 284.586670,504.733337 279.893341,504.733337 279.893341,504.733337 C 279.893341,504.733337 279.893341,401.053345 279.893341,401.053345 Z" />
  <path
     id="Shape 34"
     style="stroke: none; fill: rgb(59, 67, 79)"
     fill-rule="nonzero"
     d="M 243.000000,451.000000 C 243.000000,451.000000 255.000000,438.000000 255.000000,438.000000 C 255.000000,438.000000 268.000000,451.000000 268.000000,451.000000 C 268.000000,451.000000 261.000000,458.000000 261.000000,458.000000 C 261.000000,458.000000 272.000000,503.000000 272.000000,503.000000 C 272.000000,503.000000 238.000000,503.000000 238.000000,503.000000 C 238.000000,503.000000 250.000000,458.000000 250.000000,458.000000 C 250.000000,458.000000 243.000000,451.000000 243.000000,451.000000 Z" />
  <path
     id="Rectangle 24 copy 4"
     style="stroke: none; fill: rgb(59, 67, 79)"
     fill-rule="evenodd"
     d="M 269.699280,503.689667 C 269.699280,503.689667 257.605316,458.554413 257.605316,458.554413 C 257.605316,458.554413 260.119995,457.799988 260.119995,457.799988 C 260.119995,457.799988 261.787384,456.028412 261.787384,456.028412 C 261.787384,456.028412 274.578613,503.765900 274.578613,503.765900 C 274.578613,503.765900 269.699280,503.689667 269.699280,503.689667 Z M 235.584991,503.156647 C 235.584991,503.156647 248.211121,456.247620 248.211121,456.247620 C 248.211121,456.247620 249.026672,456.946655 249.026672,456.946655 C 249.026672,456.946655 251.586670,458.653320 251.586670,458.653320 C 251.586670,458.653320 252.430725,458.737732 252.430725,458.737732 C 252.430725,458.737732 240.454407,503.232727 240.454407,503.232727 C 240.454407,503.232727 235.584991,503.156647 235.584991,503.156647 Z" />
  <path
     id="Ellipse 6"
     style="stroke: none; fill: rgb(59, 67, 79)"
     fill-rule="evenodd"
     d="M 284.145569,463.787750 C 284.145569,463.787750 280.826874,467.106445 280.826874,467.106445 C 280.826874,467.106445 267.913605,454.193176 267.913605,454.193176 C 265.421692,458.151001 261.022430,460.786652 256.000000,460.786652 C 250.774628,460.786652 246.224152,457.933960 243.795074,453.706726 C 243.795074,453.706726 230.315369,467.186462 230.315369,467.186462 C 230.315369,467.186462 226.987762,463.858856 226.987762,463.858856 C 226.987762,463.858856 253.526611,437.320007 253.526611,437.320007 C 253.526611,437.320007 255.602203,435.395569 255.602203,435.395569 C 255.602203,435.395569 257.677795,437.320007 257.677795,437.320007 C 257.677795,437.320007 284.145569,463.787750 284.145569,463.787750 Z M 246.405548,451.096252 C 248.107025,454.560669 251.666168,456.946655 255.786652,456.946655 C 259.814484,456.946655 263.300873,454.663452 265.045563,451.325134 C 265.045563,451.325134 255.611115,441.890686 255.611115,441.890686 C 255.611115,441.890686 246.405548,451.096252 246.405548,451.096252 Z" />
  <path
     id="2 copy 5"
     style="stroke: none; fill: rgb(255, 255, 255)"
     fill-rule="nonzero"
     d="M 256.214661,116.466644 C 309.292542,116.466644 351.186951,166.067871 349.824738,225.664948 C 349.824738,225.664948 348.376923,289.006104 348.376923,289.006104 C 347.093597,345.152466 305.845428,389.533325 256.214661,389.533325 C 206.583893,389.533325 165.335724,345.152466 164.052399,289.006104 C 164.052399,289.006104 162.604584,225.664948 162.604584,225.664948 C 161.242401,166.067871 203.136780,116.466644 256.214661,116.466644 Z" />
  <path
     id="2 line"
     style="stroke: none; fill: rgb(59, 67, 79)"
     fill-rule="evenodd"
     d="M 354.089386,223.701141 C 354.089386,223.701141 352.572327,289.615509 352.572327,289.615509 C 351.227631,348.042816 308.006287,394.226654 256.001404,394.226654 C 203.996490,394.226654 160.775177,348.042816 159.430450,289.615509 C 159.430450,289.615509 157.913361,223.701141 157.913361,223.701141 C 156.486023,161.682922 200.384491,110.066650 256.001404,110.066650 C 311.618317,110.066650 355.516754,161.682922 354.089386,223.701141 Z M 255.788300,116.893311 C 203.436035,116.893311 162.114380,166.107025 163.457916,225.238495 C 163.457916,225.238495 164.885956,288.084808 164.885956,288.084808 C 166.151733,343.792511 206.836029,387.826660 255.788300,387.826660 C 304.740570,387.826660 345.424835,343.792511 346.690613,288.084808 C 346.690613,288.084808 348.118622,225.238495 348.118622,225.238495 C 349.462219,166.107025 308.140564,116.893311 255.788300,116.893311 Z" />
  <path
     id="usta"
     style="stroke: none; fill: rgb(59, 67, 79)"
     fill-rule="nonzero"
     d="M 302.079987,327.325928 C 294.324768,334.059753 276.808014,340.466644 256.426697,340.466644 C 236.045349,340.466644 218.528595,334.059753 210.773346,327.325928 C 210.773346,327.325928 209.979889,325.142639 211.144043,323.978485 C 212.329742,322.792786 214.186676,323.050842 214.186676,323.050842 C 221.933777,329.789246 236.037567,335.346680 256.426697,335.346680 C 276.815796,335.346680 290.919586,329.789246 298.666687,323.050842 C 298.666687,323.050842 300.561707,322.346893 301.482269,323.267456 C 303.255310,325.040497 302.079987,327.325928 302.079987,327.325928 Z" />
  <path
     id="-"
     style="stroke: none; fill: rgb(59, 67, 79)"
     fill-rule="nonzero"
     d="M 242.346680,350.706665 C 242.346680,350.706665 269.653351,350.706665 269.653351,350.706665 C 269.653351,350.706665 269.653351,354.973328 269.653351,354.973328 C 269.653351,354.973328 242.346680,354.973328 242.346680,354.973328 C 242.346680,354.973328 242.346680,350.706665 242.346680,350.706665 Z" />
  <path
     id="Shape 11 copy"
     style="stroke: none; fill: rgb(255, 255, 255)"
     fill-rule="nonzero"
     d="M 157.807220,233.313141 C 157.795441,233.313812 156.759613,232.486603 154.803619,231.870758 C 153.826019,231.563507 152.611023,231.310760 151.226166,231.248444 C 150.880310,231.232880 150.524353,231.229187 150.160126,231.239532 C 149.795898,231.249878 149.423370,231.274231 149.044708,231.314667 C 148.287476,231.395569 147.505402,231.540955 146.718414,231.767334 C 143.567261,232.672913 140.352692,234.874664 138.464783,239.419098 C 137.517090,241.691437 136.891907,244.549713 136.726624,248.125916 C 136.685272,249.019989 136.672638,249.958923 136.690765,250.944794 C 136.708923,251.930664 136.757874,252.963470 136.839630,254.045288 C 137.003052,256.208832 137.298157,258.568451 137.737854,261.139679 C 137.728241,261.137146 137.327759,268.909668 140.106445,277.840820 C 142.718689,286.572784 148.991516,297.299225 160.573334,300.364410 C 159.241302,278.185028 159.199921,255.589905 157.807220,233.313141 C 157.807220,233.313141 157.807220,233.313141 157.807220,233.313141 Z" />
  <path
     id="Shape 3"
     style="stroke: none; fill: rgb(59, 67, 79)"
     fill-rule="nonzero"
     d="M 159.127869,234.207275 C 159.127869,234.207275 138.951477,227.955597 139.661530,248.698090 C 139.661530,248.698090 142.665436,278.775360 143.969879,281.547363 C 143.969879,281.547363 151.893707,299.059387 164.970856,299.835480 C 177.751862,300.593994 164.970856,299.835480 164.970856,299.835480 C 164.970856,299.835480 165.129578,305.480011 165.129578,305.480011 C 165.129578,305.480011 142.144928,302.533020 137.705597,276.045410 C 137.705597,276.045410 134.201721,251.982697 134.201721,251.982697 C 134.201721,251.982697 131.481110,220.138062 157.871185,228.234802 C 183.580475,236.122681 157.871185,228.234802 157.871185,228.234802 C 157.871185,228.234802 159.127869,234.207275 159.127869,234.207275 " />
  <path
     id="Shape 4"
     style="stroke: none; fill: rgb(59, 67, 79)"
     fill-rule="nonzero"
     d="M 152.468323,275.994812 C 152.468323,275.994812 151.339172,276.848145 150.369171,276.848145 C 149.399170,276.848145 148.283783,275.994812 148.283783,275.994812 C 148.283783,275.994812 146.201569,255.012024 146.201569,255.012024 C 146.201569,255.012024 149.074493,244.678558 161.265381,250.139496 C 161.265381,250.139496 161.553558,256.139221 161.553558,256.139221 C 161.553558,256.139221 150.857910,252.346008 151.079071,257.069427 C 151.291962,261.615967 152.468323,275.994812 152.468323,275.994812 Z" />
  <path
     id="Shape 11 copy_1"
     style="stroke: none; fill: rgb(255, 255, 255)"
     fill-rule="nonzero"
     d="M 353.813416,233.362122 C 353.825256,233.362793 354.865631,232.536163 356.830170,231.920715 C 357.812073,231.613678 359.032379,231.361115 360.423309,231.298828 C 360.770660,231.283295 361.128174,231.279602 361.494019,231.289948 C 361.859833,231.300262 362.233978,231.324615 362.614319,231.365021 C 363.374847,231.445862 364.160370,231.591156 364.950806,231.817383 C 368.115753,232.722351 371.344391,234.922607 373.240570,239.463959 C 374.192413,241.734741 374.820343,244.591064 374.986328,248.164856 C 375.027863,249.058319 375.040558,249.996613 375.022369,250.981812 C 375.004120,251.967010 374.954956,252.999115 374.872833,254.080200 C 374.708710,256.242279 374.412292,258.600311 373.970673,261.169769 C 373.980347,261.167236 374.382568,268.934509 371.591705,277.859589 C 368.968048,286.585632 362.667725,297.304779 351.035187,300.367889 C 352.373047,278.203552 352.414612,255.623779 353.813416,233.362122 C 353.813416,233.362122 353.813416,233.362122 353.813416,233.362122 Z" />
  <path
     id="Shape 3_1"
     style="stroke: none; fill: rgb(59, 67, 79)"
     fill-rule="nonzero"
     d="M 352.482605,234.255676 C 352.482605,234.255676 372.747375,228.008240 372.034210,248.736633 C 372.034210,248.736633 369.017151,278.793488 367.706970,281.563599 C 367.706970,281.563599 359.748444,299.063751 346.614044,299.839325 C 333.777039,300.597321 346.614044,299.839325 346.614044,299.839325 C 346.614044,299.839325 346.454620,305.480011 346.454620,305.480011 C 346.454620,305.480011 369.539917,302.535034 373.998688,276.065399 C 373.998688,276.065399 377.517914,252.019012 377.517914,252.019012 C 377.517914,252.019012 380.250458,220.195984 353.744781,228.287231 C 327.922913,236.169769 353.744781,228.287231 353.744781,228.287231 C 353.744781,228.287231 352.482605,234.255676 352.482605,234.255676 " />
  <path
     id="Shape 4_1"
     style="stroke: none; fill: rgb(59, 67, 79)"
     fill-rule="nonzero"
     d="M 359.171326,276.014832 C 359.171326,276.014832 360.305420,276.867584 361.279663,276.867584 C 362.253906,276.867584 363.374176,276.014832 363.374176,276.014832 C 363.374176,276.014832 365.465515,255.046295 365.465515,255.046295 C 365.465515,255.046295 362.580017,244.719849 350.335724,250.177063 C 350.335724,250.177063 350.046295,256.172729 350.046295,256.172729 C 350.046295,256.172729 360.788788,252.382080 360.566650,257.102295 C 360.352844,261.645752 359.171326,276.014832 359.171326,276.014832 Z" />
  <path
     id="R copy"
     style="stroke: none; fill: rgb(59, 67, 79)"
     fill-rule="nonzero"
     d="M 283.326904,226.440948 C 283.326904,226.440948 308.871521,211.836151 327.119781,227.927032 C 327.119781,227.927032 331.946655,228.675201 331.946655,228.675201 C 331.946655,228.675201 325.764191,206.177856 280.746674,220.806366 C 280.746674,220.806366 282.000000,225.000000 282.000000,225.000000  M 283.000000,225.000000 C 283.000000,225.000000 308.987244,210.073700 326.119781,228.927032 C 326.119781,228.927032 334.946655,228.675201 334.946655,228.675201 C 334.946655,228.675201 323.938019,204.643188 278.746674,219.806366 C 278.746674,219.806366 283.000000,226.000000 283.000000,226.000000 " />
  <path
     id="R copy 3"
     style="stroke: none; fill: rgb(59, 67, 79)"
     fill-rule="nonzero"
     d="M 228.438354,226.525543 C 228.438354,226.525543 202.979004,212.049988 184.791626,227.998474 C 184.791626,227.998474 179.980865,228.740021 179.980865,228.740021 C 179.980865,228.740021 186.142700,206.441772 231.009979,220.940826 C 231.009979,220.940826 229.760834,225.097351 229.760834,225.097351  M 228.764191,225.097351 C 228.764191,225.097351 202.863647,210.303131 185.788300,228.989624 C 185.788300,228.989624 176.990875,228.740021 176.990875,228.740021 C 176.990875,228.740021 187.962769,204.920685 233.003326,219.949677 C 233.003326,219.949677 228.764191,226.088501 228.764191,226.088501 " />
  <path
     id="fill"
     style="stroke: none; fill: rgb(193, 191, 189)"
     fill-rule="nonzero"
     d="M 350.588287,233.800018 C 350.588287,233.800018 389.975616,130.456268 268.689972,106.913483 C 268.689972,106.913483 243.303375,105.538696 223.475281,81.906677 C 223.475281,81.906677 209.310150,101.325073 217.503540,116.175262 C 217.503540,116.175262 207.077393,125.270660 179.113708,118.027649 C 179.113708,118.027649 174.881470,127.067535 178.260590,137.477386 C 178.260590,137.477386 143.087097,152.686096 159.849304,220.716522 C 160.009888,221.368073 160.175171,222.024506 160.345337,222.685852 C 160.345337,222.685852 175.394684,162.525238 185.938538,161.558044 C 185.938538,161.558044 242.752411,194.174500 290.870758,158.779510 C 290.870758,158.779510 314.628937,190.477020 343.763428,192.121948 C 343.763428,192.121948 349.033142,212.562988 350.588287,233.800018 Z" />
  <path
     id="line"
     style="stroke: none; fill: rgb(59, 67, 79)"
     fill-rule="evenodd"
     d="M 353.279999,234.653320 C 352.096039,237.865784 348.160004,236.786652 348.160004,236.786652 C 346.604858,215.549622 341.760010,194.973328 341.760010,194.973328 C 312.242188,191.253967 290.133331,162.973328 290.133331,162.973328 C 242.299438,195.848328 186.026672,164.253326 186.026672,164.253326 C 174.728363,173.620514 163.413330,223.133331 163.413330,223.133331 C 163.243164,222.471985 157.600586,223.784882 157.440002,223.133331 C 140.677795,155.102905 174.933319,136.093323 174.933319,136.093323 C 171.554199,125.683472 177.066681,114.760010 177.066681,114.760010 C 205.030365,122.003021 213.760010,115.613342 213.760010,115.613342 C 206.367401,97.095734 222.720001,78.066650 222.720001,78.066650 C 242.548096,101.698669 269.653320,104.093323 269.653320,104.093323 C 381.201782,126.447388 361.188629,213.194733 353.279999,234.653320 Z M 267.093323,109.639984 C 267.093323,109.639984 244.263092,108.397858 224.000000,87.026672 C 224.000000,87.026672 212.393280,102.469818 220.586670,117.320007 C 220.586670,117.320007 208.870361,128.829681 180.906677,121.586670 C 180.906677,121.586670 178.695038,127.380981 180.906677,138.226654 C 180.906677,138.226654 149.546112,154.417084 160.426666,209.480011 C 160.556793,210.138306 160.256500,209.245331 160.426666,209.906677 C 160.426666,209.906677 173.544495,159.098846 185.600006,158.706665 C 185.600006,158.706665 244.462494,192.030823 291.839996,154.866669 C 291.839996,154.866669 316.892181,188.208405 346.026672,189.853333 C 346.026672,189.853333 348.554016,196.998810 351.573334,218.013336 C 351.573334,218.013336 377.124817,130.607788 267.093323,109.639984 Z" />
  <path
     opacity="0.200000"
     id="new_vector_shape_done"
     style="stroke: none; fill: rgb(59, 67, 79)"
     fill-rule="evenodd"
     d="M 231.091553,104.946655 C 231.873779,104.961700 231.872131,105.493988 232.100677,106.048370 C 232.441620,106.875427 232.746582,107.717255 233.141327,108.503571 C 233.739502,109.695129 234.353333,110.877319 235.064972,111.966064 C 235.663361,112.881561 236.312500,113.756378 236.957062,114.625885 C 237.329285,115.128021 237.778961,115.573456 238.155396,116.073822 C 238.305542,116.273438 238.506500,116.437683 238.659943,116.640411 C 238.712494,116.687622 238.765076,116.734833 238.817627,116.782074 C 239.010559,117.036774 239.255798,117.236023 239.448303,117.490295 C 239.658539,117.694885 239.868805,117.899506 240.079010,118.104095 C 240.407288,118.431732 240.715240,118.798645 241.088135,119.079895 C 241.166962,119.163818 241.245819,119.247772 241.324646,119.331696 C 241.620850,119.555298 241.862885,119.831604 242.160309,120.055664 C 242.207611,120.108124 242.254913,120.160614 242.302216,120.213074 C 242.731903,120.535583 243.104614,120.931610 243.532074,121.251801 C 244.226227,121.771729 244.882568,122.322968 245.597626,122.825653 C 246.071869,123.159058 246.539642,123.529053 247.016693,123.864410 C 247.865875,124.461365 248.763367,124.995697 249.634094,125.564178 C 250.164124,125.910217 250.732056,126.174072 251.273926,126.508484 C 252.807404,127.454926 254.486053,128.262665 256.130280,129.089600 C 256.661469,129.356781 257.190125,129.573822 257.738556,129.813599 C 258.088501,129.966583 258.467499,130.147400 258.810760,130.317230 C 259.000702,130.411194 259.184448,130.453064 259.378387,130.537567 C 259.798767,130.720703 260.252289,130.916412 260.671326,131.104156 C 261.058838,131.277771 261.437744,131.391754 261.838104,131.544830 C 262.269653,131.709808 262.727234,131.915588 263.162567,132.079926 C 263.919128,132.365570 264.684784,132.616943 265.433105,132.898346 C 266.210510,133.190674 266.988617,133.385284 267.782440,133.653778 C 269.320801,134.174133 270.958466,134.557648 272.559998,135.038788 C 273.039337,135.182800 273.538757,135.251343 274.010590,135.385040 C 274.245972,135.451721 274.550842,135.439117 274.751648,135.542419 C 274.833435,135.584473 274.926270,135.673035 275.003937,135.731293 C 275.128937,135.825012 275.225952,135.981812 275.319305,136.109009 C 275.468719,136.312622 275.627411,136.513580 275.745026,136.754303 C 275.866882,137.003693 275.900604,137.349976 275.965759,137.635651 C 276.018066,137.864990 275.945312,138.152100 275.902679,138.312408 C 275.866791,138.447357 275.878754,138.540497 275.839630,138.674377 C 275.737762,139.022827 275.582184,139.360687 275.382355,139.618713 C 275.175232,139.886139 274.665344,139.892822 274.278625,139.791840 C 273.602173,139.615143 272.859985,139.539490 272.197327,139.351135 C 272.055664,139.310883 271.942932,139.328613 271.803162,139.288208 C 271.034668,139.065948 270.195587,138.939148 269.438019,138.721619 C 269.265106,138.671967 269.119446,138.678894 268.949249,138.627167 C 268.351257,138.445465 267.728516,138.341553 267.120209,138.155029 C 265.595367,137.687439 264.033630,137.298828 262.579193,136.770020 C 262.239105,136.646393 261.923309,136.582520 261.585846,136.455261 C 259.198792,135.555084 256.829102,134.687653 254.648163,133.590851 C 254.074249,133.302216 253.504700,133.073822 252.945251,132.772430 C 251.356903,131.916718 249.812622,131.030731 248.309631,130.096893 C 248.112152,129.974182 247.919861,129.816620 247.726227,129.687683 C 246.853119,129.106262 246.015503,128.514496 245.171906,127.909210 C 244.320892,127.298615 243.562469,126.567352 242.727936,125.941895 C 242.551941,125.809998 242.403259,125.636749 242.223389,125.501221 C 242.170837,125.443512 242.118256,125.385803 242.065704,125.328094 C 241.870697,125.180939 241.720093,124.983948 241.529633,124.840210 C 241.072784,124.495422 240.686646,124.046021 240.283997,123.644073 C 239.903992,123.264709 239.490540,122.894470 239.164490,122.463684 C 239.090912,122.395477 239.017334,122.327271 238.943756,122.259064 C 238.731934,121.979279 238.458282,121.748688 238.250000,121.472137 C 237.886444,120.989502 237.458466,120.555267 237.098969,120.071411 C 236.651886,119.469727 236.191162,118.874420 235.758728,118.261475 C 235.325775,117.647827 234.949646,117.014313 234.544647,116.372864 C 233.447418,114.635162 232.554230,112.739594 231.722260,110.722717 C 231.420471,109.991119 231.216705,109.209930 230.965424,108.440613 C 230.792328,107.910675 230.708496,107.340759 230.555450,106.803802 C 230.515533,106.663666 230.530060,106.553101 230.492401,106.410339 C 230.411438,106.103668 230.319244,105.721008 230.429321,105.403076 C 230.478577,105.260834 230.681061,105.058868 230.823517,105.009613 C 230.922729,104.975311 231.019440,105.001312 231.091553,104.946655 Z M 223.349731,128.554504 C 223.910553,128.557800 224.161377,128.970245 224.406158,129.294220 C 224.659821,129.629944 225.001617,129.900330 225.257599,130.238525 C 225.467804,130.448364 225.678070,130.658234 225.888306,130.868073 C 226.031525,131.057343 226.210876,131.205811 226.377075,131.371704 C 226.548401,131.542694 226.702087,131.727997 226.897400,131.875336 C 227.086609,132.064178 227.275848,132.253082 227.465057,132.441925 C 227.659302,132.588562 227.810303,132.785797 228.001129,132.929810 C 228.591431,133.375305 229.095490,133.935303 229.688263,134.377777 C 230.316711,134.846863 230.907593,135.373932 231.548828,135.825714 C 232.388794,136.417542 233.226440,137.018616 234.087372,137.588440 C 234.527557,137.879761 234.978241,138.124115 235.427612,138.406830 C 235.771179,138.622986 236.128082,138.870972 236.484039,139.067871 C 237.962219,139.885559 239.458893,140.688446 240.993530,141.460114 C 242.208740,142.071198 243.491394,142.566345 244.746185,143.128418 C 245.133057,143.301697 245.512695,143.417053 245.912964,143.569092 C 246.816467,143.912201 247.766541,144.261505 248.688049,144.607819 C 249.559235,144.935242 250.484955,145.159088 251.368530,145.457703 C 251.512848,145.506500 251.635681,145.500885 251.778473,145.552155 C 252.235382,145.716156 252.753265,145.818604 253.229065,145.961334 C 253.468323,146.033112 253.705688,146.032013 253.938599,146.118744 C 254.448639,146.308624 255.092163,146.882538 255.278839,147.393555 C 255.602295,148.278870 255.244385,149.286224 254.837372,149.864502 C 254.714508,150.039032 254.533081,150.325653 254.317017,150.399628 C 253.976562,150.516174 253.619080,150.394287 253.307922,150.305176 C 252.905640,150.190002 252.520508,150.172882 252.125366,150.053375 C 251.395233,149.832550 250.635345,149.711884 249.902130,149.486786 C 248.366821,149.015442 246.836487,148.591736 245.376892,148.038849 C 241.997528,146.758698 238.879395,145.256958 236.011017,143.474640 C 234.820282,142.734772 233.691589,141.900940 232.573700,141.082397 C 232.175659,140.790924 231.815460,140.432190 231.422668,140.138092 C 230.884277,139.734924 230.426361,139.249603 229.893219,138.847504 C 229.835419,138.784576 229.777588,138.721588 229.719788,138.658661 C 229.610657,138.561707 229.491730,138.478058 229.388672,138.375366 C 229.304596,138.286194 229.220490,138.196991 229.136383,138.107819 C 228.935333,137.956116 228.776703,137.764526 228.600311,137.588440 C 228.429016,137.417419 228.243347,137.264038 228.095734,137.069061 C 227.980133,136.958893 227.864471,136.848694 227.748871,136.738556 C 227.362305,136.228302 226.872742,135.807373 226.487457,135.290588 C 226.396576,135.168701 226.263397,135.065796 226.172119,134.944366 C 225.801605,134.451538 225.392731,133.983948 225.036865,133.480682 C 224.631592,132.907532 224.211029,132.330505 223.838531,131.733673 C 223.691772,131.498566 223.579651,131.258240 223.428558,131.025452 C 223.262848,130.770111 223.137207,130.501862 222.987091,130.222778 C 222.898071,130.057312 222.767151,129.873535 222.703278,129.687683 C 222.638397,129.498901 222.617798,129.133423 222.719025,128.963715 C 222.788116,128.847900 222.950500,128.665771 223.081696,128.617462 C 223.180176,128.581177 223.277191,128.609314 223.349731,128.554504 Z M 212.753998,140.043640 C 213.387207,140.051453 213.546509,140.518311 213.810425,140.893524 C 214.235077,141.497284 214.724182,142.053345 215.166412,142.640503 C 215.518951,143.108582 215.979156,143.494873 216.333221,143.962555 C 216.469849,144.093689 216.606537,144.224884 216.743164,144.356018 C 216.939392,144.615173 217.240356,144.915649 217.500000,145.111450 C 217.552551,145.169159 217.605133,145.226898 217.657684,145.284576 C 217.786804,145.413452 217.920410,145.535553 218.067627,145.646576 C 218.135956,145.720001 218.204285,145.793488 218.272614,145.866913 C 218.622925,146.131378 218.916412,146.472473 219.265961,146.732544 C 220.102020,147.354523 220.898071,148.032990 221.757233,148.636902 C 223.619415,149.945862 225.670837,151.038635 227.780396,152.099396 C 228.469818,152.446045 229.203217,152.703003 229.893219,153.043701 C 230.187469,153.188965 230.489410,153.261871 230.791992,153.389954 C 231.618958,153.740021 232.505707,154.045074 233.362061,154.365723 C 234.547302,154.809509 235.803986,155.088165 237.020111,155.498901 C 237.446259,155.642822 237.900726,155.707489 238.313049,155.845154 C 238.679779,155.967590 239.055420,155.987579 239.432556,156.096985 C 240.179596,156.313690 241.011993,156.433777 241.781891,156.632080 C 242.226318,156.746552 242.676788,156.773529 243.106354,156.883911 C 243.586243,157.007172 244.088837,157.020813 244.556976,157.135712 C 244.662079,157.146210 244.767212,157.156708 244.872314,157.167206 C 245.353424,157.289429 245.912598,157.302734 246.401764,157.419006 C 246.610504,157.468628 246.790649,157.432922 247.000916,157.481964 C 247.684387,157.641388 248.464508,157.608917 249.161072,157.765259 C 249.359863,157.809875 249.566742,157.788452 249.744476,157.828217 C 249.807526,157.828217 249.870605,157.828217 249.933685,157.828217 C 250.173676,157.881653 250.479248,157.869324 250.722046,157.922638 C 250.790375,157.922638 250.858704,157.922638 250.927032,157.922638 C 251.323975,158.010193 251.804077,157.960968 252.204193,158.048553 C 252.293518,158.048553 252.382904,158.048553 252.472229,158.048553 C 252.982147,158.159973 253.595093,158.062408 254.112061,158.174469 C 254.311768,158.179718 254.511505,158.184967 254.711212,158.190216 C 254.824371,158.214691 255.004120,158.177246 255.136932,158.205933 C 255.488708,158.281921 255.942352,158.214844 256.303741,158.268890 C 256.517365,158.300842 256.775574,158.243500 256.965973,158.284637 C 257.133850,158.320892 257.353821,158.268372 257.502045,158.300385 C 257.911957,158.300385 258.322021,158.300385 258.731934,158.300385 C 259.702240,158.300385 260.649750,158.273254 261.585846,158.268890 C 262.028931,158.266815 262.511566,158.169800 262.878754,158.300385 C 263.086243,158.374146 263.277924,158.556091 263.446381,158.678101 C 263.825409,158.952606 264.181580,159.345459 264.360901,159.811279 C 264.415558,159.953186 264.410889,160.078644 264.455505,160.236206 C 264.526978,160.488617 264.629883,160.886047 264.550110,161.227753 C 264.498230,161.450012 264.470886,161.719147 264.392426,161.935974 C 264.271515,162.270233 263.949249,162.368256 263.572540,162.455353 C 263.435883,162.460602 263.299225,162.465851 263.162567,162.471100 C 262.580261,162.598145 261.871429,162.486176 261.286255,162.612732 C 261.173523,162.637115 261.016693,162.608337 260.923584,162.628479 C 260.702881,162.633728 260.482086,162.638977 260.261353,162.644226 C 260.047241,162.690369 259.777679,162.623718 259.536072,162.675690 C 259.333984,162.719177 259.086975,162.707153 258.858063,162.707184 C 258.773987,162.707184 258.689880,162.707184 258.605774,162.707184 C 258.410736,162.749054 258.137390,162.738556 257.927765,162.738647 C 257.622986,162.738647 257.318085,162.738647 257.013275,162.738647 C 256.729279,162.799347 256.334076,162.754364 256.019928,162.754395 C 255.759644,162.754395 255.431427,162.788483 255.200012,162.738647 C 255.021332,162.738647 254.842590,162.738647 254.663910,162.738647 C 254.290771,162.738678 253.922729,162.738586 253.575958,162.707184 C 253.397278,162.707184 253.218536,162.707184 253.039856,162.707184 C 252.733551,162.640533 252.334320,162.709778 252.030762,162.644226 C 251.909882,162.644226 251.788971,162.644226 251.668091,162.644226 C 251.446045,162.595734 251.146271,162.628754 250.927032,162.581268 C 250.821930,162.581268 250.716797,162.581268 250.611664,162.581268 C 250.443024,162.544159 250.197021,162.555054 250.028290,162.518311 C 249.944183,162.518311 249.860077,162.518311 249.776001,162.518311 C 249.191589,162.389465 248.518951,162.457336 247.946991,162.329437 C 247.789307,162.318939 247.631622,162.308472 247.473938,162.297974 C 246.731903,162.129211 245.910156,162.154999 245.187683,161.983185 C 244.991180,161.936462 244.829559,161.967560 244.635803,161.920227 C 243.964111,161.756134 243.224213,161.710876 242.570282,161.542511 C 242.462433,161.514740 242.394165,161.539185 242.286469,161.511047 C 241.977142,161.430237 241.614563,161.377533 241.308868,161.290710 C 241.166595,161.250275 241.056793,161.268646 240.914673,161.227753 C 239.851868,160.921722 238.745056,160.761658 237.698120,160.440826 C 235.844025,159.872650 233.970123,159.364349 232.289886,158.615143 C 231.909332,158.445465 231.529816,158.347076 231.154633,158.174469 C 230.490784,157.869080 229.805908,157.590698 229.152161,157.261627 C 228.129181,156.746704 227.129059,156.205048 226.140564,155.656281 C 225.445282,155.270294 224.776276,154.798767 224.122345,154.365723 C 223.585571,154.010284 223.067230,153.662231 222.545593,153.295502 C 222.032318,152.934662 221.553192,152.520203 221.047699,152.146606 C 220.533539,151.766602 220.092773,151.288635 219.581299,150.903259 C 219.387054,150.756866 219.222900,150.514130 219.029449,150.368134 C 218.552338,150.008118 218.157104,149.528931 217.736511,149.109070 C 215.941315,147.316895 214.416687,145.257721 213.053589,143.033966 C 212.738953,142.520721 212.510071,141.985291 212.233673,141.428650 C 212.107758,141.175049 211.975891,140.832733 212.107544,140.484314 C 212.149506,140.373260 212.374695,140.148499 212.485962,140.106598 C 212.577240,140.072235 212.684723,140.095734 212.753998,140.043640 Z M 317.103058,155.561859 C 317.677094,155.568268 317.854156,155.949249 318.096405,156.285828 C 318.335724,156.618317 318.607574,156.930298 318.853241,157.261627 C 319.374664,157.964844 320.029480,158.564636 320.556152,159.260437 C 320.739929,159.503235 321.000671,159.691284 321.186829,159.937195 C 321.260406,160.005371 321.334015,160.073578 321.407593,160.141785 C 321.663544,160.479828 322.007782,160.756653 322.306335,161.054626 C 322.563843,161.311646 322.821411,161.568787 323.078949,161.825806 C 323.484192,162.131683 323.812317,162.561279 324.214203,162.864563 C 324.443848,163.037872 324.634399,163.261353 324.860657,163.431152 C 325.606171,163.990570 326.283661,164.641449 327.036560,165.193848 C 328.170715,166.025970 329.306732,166.865723 330.489655,167.649078 C 332.268127,168.826843 334.156006,169.890259 336.071320,170.922699 C 337.159271,171.509155 338.299683,172.007324 339.414032,172.559509 C 339.810242,172.755829 340.225769,172.903381 340.612366,173.094604 C 340.755615,173.165466 340.894806,173.181183 341.038086,173.252014 C 341.654755,173.556763 342.341949,173.787537 342.977478,174.070404 C 343.140869,174.143127 343.282898,174.164246 343.450500,174.227783 C 344.069153,174.462402 344.723877,174.701477 345.358368,174.936035 C 345.715057,175.067871 346.138336,175.119049 346.462067,175.298004 C 347.279846,175.750061 348.034271,176.719025 347.613098,178.005035 C 347.463196,178.462799 347.209076,178.818787 346.950867,179.169708 C 346.772766,179.411743 346.550110,179.507996 346.225555,179.610382 C 346.146179,179.635406 345.792389,179.510345 345.721008,179.484467 C 345.286499,179.326904 344.849548,179.252106 344.412323,179.106750 C 342.153473,178.355713 339.983673,177.561035 337.900360,176.651520 C 334.527863,175.179230 331.505554,173.300659 328.660614,171.300415 C 327.832947,170.718506 327.085846,170.030426 326.279724,169.427521 C 326.043396,169.250763 325.840790,169.025360 325.601715,168.845215 C 325.554443,168.792755 325.507111,168.740265 325.459808,168.687836 C 325.138733,168.445709 324.880768,168.142059 324.561066,167.900879 C 324.419189,167.754028 324.277252,167.607086 324.135345,167.460205 C 323.974426,167.338806 323.850403,167.191528 323.709625,167.051025 C 323.568878,166.910492 323.421295,166.786713 323.299683,166.626068 C 323.199829,166.531647 323.099945,166.437195 323.000092,166.342773 C 322.819580,166.162415 322.634216,165.964569 322.479767,165.760437 C 322.385162,165.666016 322.290558,165.571564 322.195953,165.477142 C 321.993103,165.209198 321.733368,164.986755 321.533722,164.721710 C 321.013031,164.030487 320.445557,163.389801 319.941223,162.675690 C 319.488159,162.034210 318.990295,161.397705 318.569427,160.724121 C 318.030273,159.861145 317.536652,158.970978 317.055756,158.048553 C 316.844604,157.643524 316.605072,157.135986 316.456604,156.695038 C 316.390625,156.499054 316.371155,156.147949 316.472382,155.971069 C 316.541290,155.850586 316.700562,155.675476 316.835022,155.624817 C 316.926270,155.590454 317.033844,155.613983 317.103058,155.561859 Z" />
  <path
     id="new_vector_shape_done_1"
     style="stroke: none; fill: rgb(59, 67, 79)"
     fill-rule="evenodd"
     d="M 263.893341,274.333344 C 264.391052,274.333344 264.888947,274.333344 265.386658,274.333344 C 268.474121,278.526306 269.730225,284.969757 271.359985,290.546661 C 271.865051,292.274963 271.375061,295.297974 270.933319,296.519989 C 269.315552,300.995514 264.235687,300.915192 260.053345,302.919983 C 258.930115,303.458435 258.094604,304.387817 256.640015,304.626678 C 255.691711,303.791351 254.546722,303.627289 254.079987,302.279999 C 252.927673,300.693268 254.412811,299.702393 255.573334,299.079987 C 257.679565,297.950409 264.181488,296.837097 264.959991,294.813324 C 265.923218,293.717590 265.282745,290.423157 264.959991,289.266663 C 264.133392,286.304504 263.736633,283.831543 262.613342,281.160004 C 261.867188,279.385498 260.557159,277.514496 261.333344,275.399994 C 261.976532,275.123810 263.366638,274.809784 263.893341,274.333344 Z" />
  <path
     id="oko"
     style="stroke: none; fill: rgb(59, 67, 79)"
     fill-rule="nonzero"
     d="M 209.066681,238.066681 C 213.779510,238.066681 217.600006,241.887177 217.600006,246.600006 C 217.600006,251.312836 213.779510,255.133331 209.066681,255.133331 C 204.353851,255.133331 200.533325,251.312836 200.533325,246.600006 C 200.533325,241.887177 204.353851,238.066681 209.066681,238.066681 Z" />
  <path
     id="oko_1"
     style="stroke: none; fill: rgb(59, 67, 79)"
     fill-rule="nonzero"
     d="M 303.786652,238.066681 C 308.499481,238.066681 312.319977,241.887177 312.319977,246.600006 C 312.319977,251.312836 308.499481,255.133331 303.786652,255.133331 C 299.073853,255.133331 295.253326,251.312836 295.253326,246.600006 C 295.253326,241.887177 299.073853,238.066681 303.786652,238.066681 Z" />
  <path
     id="Ellipse 3"
     style="stroke: none; fill: rgb(245, 243, 239)"
     fill-rule="nonzero"
     d="M 307.626678,269.640015 C 313.517700,269.640015 318.293335,274.415649 318.293335,280.306671 C 318.293335,286.197693 313.517700,290.973328 307.626678,290.973328 C 301.735626,290.973328 296.960022,286.197693 296.960022,280.306671 C 296.960022,274.415649 301.735626,269.640015 307.626678,269.640015 Z" />
  <path
     id="Ellipse 3 copy"
     style="stroke: none; fill: rgb(244, 243, 239)"
     fill-rule="nonzero"
     d="M 204.373352,269.640015 C 210.264374,269.640015 215.040009,274.415649 215.040009,280.306671 C 215.040009,286.197693 210.264374,290.973328 204.373352,290.973328 C 198.482300,290.973328 193.706696,286.197693 193.706696,280.306671 C 193.706696,274.415649 198.482300,269.640015 204.373352,269.640015 Z" />
</svg>
