<?xml version="1.0" encoding="UTF-8" standalone="no"?>
<svg
   xmlns:dc="http://purl.org/dc/elements/1.1/"
   xmlns:cc="http://creativecommons.org/ns#"
   xmlns:rdf="http://www.w3.org/1999/02/22-rdf-syntax-ns#"
   xmlns:svg="http://www.w3.org/2000/svg"
   xmlns="http://www.w3.org/2000/svg"
   version="1.1"
   id="svg4837"
   height="512"
   width="512">
  <metadata
     id="metadata4868">
    <rdf:RDF>
      <cc:Work
         rdf:about="">
        <dc:format>image/svg+xml</dc:format>
        <dc:type
           rdf:resource="http://purl.org/dc/dcmitype/StillImage" />
        <dc:title></dc:title>
      </cc:Work>
    </rdf:RDF>
  </metadata>
  <defs
     id="defs4866" />
  <path
     id="Shape 16"
     style="stroke: none; fill: rgb(59, 68, 79)"
     fill-rule="nonzero"
     d="M 322.573334,306.333344 C 322.573334,306.333344 276.213318,250.446655 325.986664,308.893341 C 375.760010,367.339996 415.586670,331.933319 415.586670,331.933319 C 415.586670,331.933319 415.586670,217.299988 415.586670,133.106659 C 415.586670,48.913330 363.533325,46.066650 363.533325,46.066650 C 363.533325,46.066650 379.746674,41.799988 379.746674,41.799988 C 315.271210,15.164764 293.146912,61.775635 288.007202,76.168701 C 287.113495,78.671417 286.733337,80.200012 286.733337,80.200012 C 286.733337,80.200012 282.115845,101.168335 290.573334,109.213318 " />
  <path
     id="Rounded Rectangle 7"
     style="stroke: none; fill: rgb(59, 68, 79)"
     fill-rule="nonzero"
     d="M 256.866669,94.706665 C 316.012665,94.706665 363.959991,142.653992 363.959991,201.799988 C 363.959991,201.799988 363.959991,223.986664 363.959991,223.986664 C 363.959991,283.132660 316.012665,331.079987 256.866669,331.079987 C 197.720673,331.079987 149.773346,283.132660 149.773346,223.986664 C 149.773346,223.986664 149.773346,201.799988 149.773346,201.799988 C 149.773346,142.653992 197.720673,94.706665 256.866669,94.706665 Z" />
  <path
     id="body-bg-flat copy"
     style="stroke: none; fill: rgb(255, 255, 255)"
     fill-rule="nonzero"
     d="M 114.359985,502.000000 C 114.359985,502.000000 107.744995,412.011780 192.440002,403.613342 C 192.440002,403.613342 230.413330,403.613342 230.413330,403.613342 C 230.413330,403.613342 230.413330,386.119995 230.413330,386.119995 C 230.413330,386.119995 257.125000,397.593323 284.173340,387.399994 C 284.173340,387.399994 285.026672,403.613342 285.026672,403.613342 C 285.026672,403.613342 329.399994,403.613342 329.399994,403.613342 C 329.399994,403.613342 405.385406,406.597595 401.933319,502.853333 C 401.933319,502.853333 114.359985,502.000000 114.359985,502.000000 Z" />
  <path
     id="Rounded Rectangle 13 copy 4"
     style="stroke: none; fill: rgb(59, 67, 79)"
     fill-rule="evenodd"
     d="M 401.261932,505.586670 C 401.261932,505.586670 116.745544,505.586670 116.745544,505.586670 C 116.745544,505.586670 111.227661,505.586670 111.227661,505.586670 C 111.227661,505.586670 112.605011,482.056854 112.605011,482.056854 C 115.294312,436.114624 151.491882,401.053345 192.915009,401.053345 C 192.915009,401.053345 221.398651,401.053345 221.398651,401.053345 C 219.550812,402.581665 218.196655,404.166901 217.222778,405.746674 C 217.222778,405.746674 195.429718,405.746674 195.429718,405.746674 C 155.506348,405.746674 120.619324,439.495087 118.027374,483.717010 C 118.027374,483.717010 117.070648,500.040009 117.070648,500.040009 C 117.070648,500.040009 400.510162,500.040009 400.510162,500.040009 C 400.510162,500.040009 399.980103,483.717010 399.980103,483.717010 C 397.388153,439.495087 362.501129,405.746674 322.577728,405.746674 C 322.577728,405.746674 300.766113,405.746674 300.766113,405.746674 C 299.932007,404.178528 298.745941,402.593414 297.090027,401.053345 C 297.090027,401.053345 324.839417,401.053345 324.839417,401.053345 C 366.262543,401.053345 402.460114,436.114624 405.149414,482.056854 C 405.149414,482.056854 406.526764,505.586670 406.526764,505.586670 C 406.526764,505.586670 401.261932,505.586670 401.261932,505.586670 Z M 288.650421,405.746674 C 288.650421,405.746674 287.160004,405.746674 287.160004,405.746674 C 287.160004,405.746674 287.160004,401.053345 287.160004,401.053345 C 287.160004,401.053345 288.816010,401.053345 288.816010,401.053345 C 288.717010,402.273132 288.653381,403.810577 288.650421,405.746674 Z M 228.639282,401.053345 C 228.639282,401.053345 230.413330,401.053345 230.413330,401.053345 C 230.413330,401.053345 230.413330,405.746674 230.413330,405.746674 C 230.413330,405.746674 228.880066,405.746674 228.880066,405.746674 C 228.857147,403.753540 228.765808,402.224060 228.639282,401.053345 Z" />
  <path
     id="Ellipse 5"
     style="stroke: none; fill: rgb(59, 67, 79)"
     fill-rule="nonzero"
     d="M 272.226654,466.333344 C 273.876160,466.333344 275.213348,467.670502 275.213348,469.320007 C 275.213348,470.969482 273.876160,472.306671 272.226654,472.306671 C 270.577179,472.306671 269.239990,470.969482 269.239990,469.320007 C 269.239990,467.670502 270.577179,466.333344 272.226654,466.333344 Z" />
  <path
     id="Ellipse 5 copy"
     style="stroke: none; fill: rgb(59, 67, 79)"
     fill-rule="nonzero"
     d="M 272.226654,485.959991 C 273.876160,485.959991 275.213348,487.297180 275.213348,488.946655 C 275.213348,490.596161 273.876160,491.933319 272.226654,491.933319 C 270.577179,491.933319 269.239990,490.596161 269.239990,488.946655 C 269.239990,487.297180 270.577179,485.959991 272.226654,485.959991 Z" />
  <path
     id="Shape 2 copy 9"
     style="stroke: none; fill: rgb(59, 67, 79)"
     fill-rule="evenodd"
     d="M 306.786652,426.226685 C 306.786652,426.226685 285.026672,458.653351 285.026672,458.653351 C 279.107239,440.306061 261.986664,447.133331 261.986664,447.133331 C 261.986664,447.133331 261.986664,501.321503 261.986664,501.321503 C 261.986664,502.734528 260.649475,503.880005 259.000000,503.880005 C 257.350525,503.880005 256.013336,502.734528 256.013336,501.321503 C 256.013336,501.321503 256.013336,447.132050 256.013336,447.132050 C 255.874817,447.077118 238.890472,440.380920 233.001587,458.653351 C 233.001587,458.653351 211.265228,426.226685 211.265228,426.226685 C 211.265228,426.226685 202.857147,404.849976 228.313354,395.506683 C 228.313354,386.184052 228.313354,385.693329 228.313354,385.693329 C 228.313354,385.693329 233.126953,385.693329 233.126953,385.693329 C 233.126953,385.693329 233.126953,403.517151 233.126953,416.577057 C 233.744934,421.893341 237.405304,437.041290 259.000000,442.013336 C 280.618164,437.041290 284.282532,421.893341 284.901184,416.577057 C 284.901184,403.517151 284.901184,385.693329 284.901184,385.693329 C 284.901184,385.693329 289.720001,385.693329 289.720001,385.693329 C 289.720001,385.693329 289.720001,386.184052 289.720001,395.506683 C 315.203857,404.849976 306.786652,426.226685 306.786652,426.226685 Z M 232.749268,429.097198 C 231.589020,427.783264 229.917877,424.519989 229.917877,424.519989 C 229.917877,424.519989 228.313354,419.180023 228.313354,416.839996 C 228.313354,413.933655 228.313354,410.118652 228.313354,406.017731 C 227.950470,401.136780 227.034760,401.053345 227.034760,401.053345 C 208.040985,410.408569 216.379669,424.946655 216.379669,424.946655 C 216.379669,424.946655 232.149200,449.693329 232.149200,449.693329 C 238.307312,439.258850 244.935303,441.160004 244.935303,441.160004 C 239.083344,438.177429 235.245422,433.548492 232.749268,429.097198 Z M 291.000000,401.053345 C 291.000000,401.053345 290.083282,401.136780 289.720001,406.017731 C 289.720001,410.118652 289.720001,413.933655 289.720001,416.839996 C 289.720001,419.180023 288.113739,424.519989 288.113739,424.519989 C 288.113739,424.519989 286.440765,427.783264 285.279266,429.097198 C 282.780396,433.548492 278.938293,438.177429 273.079987,441.160004 C 273.079987,441.160004 279.715179,439.258850 285.880005,449.693329 C 285.880005,449.693329 301.666656,424.946655 301.666656,424.946655 C 301.666656,424.946655 310.014404,410.408569 291.000000,401.053345 Z" />
  <path
     id="2 copy 5"
     style="stroke: none; fill: rgb(255, 255, 255)"
     fill-rule="nonzero"
     d="M 259.214661,116.466644 C 312.292542,116.466644 354.186951,166.067871 352.824738,225.664948 C 352.824738,225.664948 351.376923,289.006104 351.376923,289.006104 C 350.093597,345.152466 308.845428,389.533325 259.214661,389.533325 C 209.583893,389.533325 168.335724,345.152466 167.052399,289.006104 C 167.052399,289.006104 165.604584,225.664948 165.604584,225.664948 C 164.242401,166.067871 206.136780,116.466644 259.214661,116.466644 Z" />
  <path
     id="2 line"
     style="stroke: none; fill: rgb(59, 67, 79)"
     fill-rule="evenodd"
     d="M 357.089386,223.701141 C 357.089386,223.701141 355.572327,289.615509 355.572327,289.615509 C 354.227631,348.042816 311.006287,394.226654 259.001404,394.226654 C 206.996490,394.226654 163.775177,348.042816 162.430450,289.615509 C 162.430450,289.615509 160.913361,223.701141 160.913361,223.701141 C 159.486023,161.682922 203.384491,110.066650 259.001404,110.066650 C 314.618317,110.066650 358.516754,161.682922 357.089386,223.701141 Z M 258.788300,116.893311 C 206.436035,116.893311 165.114380,166.107025 166.457916,225.238495 C 166.457916,225.238495 167.885956,288.084808 167.885956,288.084808 C 169.151733,343.792511 209.836029,387.826660 258.788300,387.826660 C 307.740570,387.826660 348.424835,343.792511 349.690613,288.084808 C 349.690613,288.084808 351.118622,225.238495 351.118622,225.238495 C 352.462219,166.107025 311.140564,116.893311 258.788300,116.893311 Z" />
  <path
     id="usta"
     style="stroke: none; fill: rgb(59, 67, 79)"
     fill-rule="nonzero"
     d="M 305.079987,327.325928 C 297.324768,334.059753 279.808014,340.466644 259.426697,340.466644 C 239.045349,340.466644 221.528595,334.059753 213.773346,327.325928 C 213.773346,327.325928 212.979889,325.142639 214.144043,323.978485 C 215.329742,322.792786 217.186676,323.050842 217.186676,323.050842 C 224.933777,329.789246 239.037567,335.346680 259.426697,335.346680 C 279.815796,335.346680 293.919586,329.789246 301.666687,323.050842 C 301.666687,323.050842 303.561707,322.346893 304.482269,323.267456 C 306.255310,325.040497 305.079987,327.325928 305.079987,327.325928 Z" />
  <path
     id="-"
     style="stroke: none; fill: rgb(59, 67, 79)"
     fill-rule="nonzero"
     d="M 245.346680,350.706665 C 245.346680,350.706665 272.653351,350.706665 272.653351,350.706665 C 272.653351,350.706665 272.653351,354.973328 272.653351,354.973328 C 272.653351,354.973328 245.346680,354.973328 245.346680,354.973328 C 245.346680,354.973328 245.346680,350.706665 245.346680,350.706665 Z" />
  <path
     id="Shape 11 copy"
     style="stroke: none; fill: rgb(255, 255, 255)"
     fill-rule="nonzero"
     d="M 160.807220,233.313141 C 160.795441,233.313812 159.759613,232.486603 157.803619,231.870758 C 156.826019,231.563507 155.611023,231.310760 154.226166,231.248444 C 153.880310,231.232880 153.524353,231.229187 153.160126,231.239532 C 152.795898,231.249878 152.423370,231.274231 152.044708,231.314667 C 151.287476,231.395569 150.505402,231.540955 149.718414,231.767334 C 146.567261,232.672913 143.352692,234.874664 141.464783,239.419098 C 140.517090,241.691437 139.891907,244.549713 139.726624,248.125916 C 139.685272,249.019989 139.672638,249.958923 139.690765,250.944794 C 139.708923,251.930664 139.757874,252.963470 139.839630,254.045288 C 140.003052,256.208832 140.298157,258.568451 140.737854,261.139679 C 140.728241,261.137146 140.327759,268.909668 143.106445,277.840820 C 145.718689,286.572784 151.991516,297.299225 163.573334,300.364410 C 162.241302,278.185028 162.199921,255.589905 160.807220,233.313141 C 160.807220,233.313141 160.807220,233.313141 160.807220,233.313141 Z" />
  <path
     id="Shape 3"
     style="stroke: none; fill: rgb(59, 67, 79)"
     fill-rule="nonzero"
     d="M 162.127869,234.207275 C 162.127869,234.207275 141.951477,227.955597 142.661530,248.698090 C 142.661530,248.698090 145.665436,278.775360 146.969879,281.547363 C 146.969879,281.547363 154.893707,299.059387 167.970856,299.835480 C 180.751862,300.593994 167.970856,299.835480 167.970856,299.835480 C 167.970856,299.835480 168.129578,305.480011 168.129578,305.480011 C 168.129578,305.480011 145.144928,302.533020 140.705597,276.045410 C 140.705597,276.045410 137.201721,251.982697 137.201721,251.982697 C 137.201721,251.982697 134.481110,220.138062 160.871185,228.234802 C 186.580475,236.122681 160.871185,228.234802 160.871185,228.234802 C 160.871185,228.234802 162.127869,234.207275 162.127869,234.207275 " />
  <path
     id="Shape 4"
     style="stroke: none; fill: rgb(59, 67, 79)"
     fill-rule="nonzero"
     d="M 155.468323,275.994812 C 155.468323,275.994812 154.339172,276.848145 153.369171,276.848145 C 152.399170,276.848145 151.283783,275.994812 151.283783,275.994812 C 151.283783,275.994812 149.201569,255.012024 149.201569,255.012024 C 149.201569,255.012024 152.074493,244.678558 164.265381,250.139496 C 164.265381,250.139496 164.553558,256.139221 164.553558,256.139221 C 164.553558,256.139221 153.857910,252.346008 154.079071,257.069427 C 154.291962,261.615967 155.468323,275.994812 155.468323,275.994812 Z" />
  <path
     id="Shape 11 copy_1"
     style="stroke: none; fill: rgb(255, 255, 255)"
     fill-rule="nonzero"
     d="M 357.813416,233.362122 C 357.825256,233.362793 358.865631,232.536163 360.830170,231.920715 C 361.812073,231.613678 363.032379,231.361115 364.423309,231.298828 C 364.770660,231.283295 365.128174,231.279602 365.494019,231.289948 C 365.859833,231.300262 366.233978,231.324615 366.614319,231.365021 C 367.374847,231.445862 368.160370,231.591156 368.950806,231.817383 C 372.115753,232.722351 375.344391,234.922607 377.240570,239.463959 C 378.192413,241.734741 378.820343,244.591064 378.986328,248.164856 C 379.027863,249.058319 379.040558,249.996613 379.022369,250.981812 C 379.004120,251.967010 378.954956,252.999115 378.872833,254.080200 C 378.708710,256.242279 378.412292,258.600311 377.970673,261.169769 C 377.980347,261.167236 378.382568,268.934509 375.591705,277.859589 C 372.968048,286.585632 366.667725,297.304779 355.035187,300.367889 C 356.373047,278.203552 356.414612,255.623779 357.813416,233.362122 C 357.813416,233.362122 357.813416,233.362122 357.813416,233.362122 Z" />
  <path
     id="Shape 3_1"
     style="stroke: none; fill: rgb(59, 67, 79)"
     fill-rule="nonzero"
     d="M 355.482605,234.255676 C 355.482605,234.255676 375.747375,228.008240 375.034210,248.736633 C 375.034210,248.736633 372.017151,278.793488 370.706970,281.563599 C 370.706970,281.563599 362.748444,299.063751 349.614044,299.839325 C 336.777039,300.597321 349.614044,299.839325 349.614044,299.839325 C 349.614044,299.839325 349.454620,305.480011 349.454620,305.480011 C 349.454620,305.480011 372.539917,302.535034 376.998688,276.065399 C 376.998688,276.065399 380.517914,252.019012 380.517914,252.019012 C 380.517914,252.019012 383.250458,220.195984 356.744781,228.287231 C 330.922913,236.169769 356.744781,228.287231 356.744781,228.287231 C 356.744781,228.287231 355.482605,234.255676 355.482605,234.255676 " />
  <path
     id="Shape 4_1"
     style="stroke: none; fill: rgb(59, 67, 79)"
     fill-rule="nonzero"
     d="M 362.171326,276.014832 C 362.171326,276.014832 363.305420,276.867584 364.279663,276.867584 C 365.253906,276.867584 366.374176,276.014832 366.374176,276.014832 C 366.374176,276.014832 368.465515,255.046295 368.465515,255.046295 C 368.465515,255.046295 365.580017,244.719849 353.335724,250.177063 C 353.335724,250.177063 353.046295,256.172729 353.046295,256.172729 C 353.046295,256.172729 363.788788,252.382080 363.566650,257.102295 C 363.352844,261.645752 362.171326,276.014832 362.171326,276.014832 Z" />
  <path
     id="new_vector_shape_done"
     style="stroke: none; fill: rgb(59, 67, 79)"
     fill-rule="evenodd"
     d="M 266.893341,274.333344 C 267.391052,274.333344 267.888947,274.333344 268.386658,274.333344 C 271.474121,278.526306 272.730225,284.969757 274.359985,290.546661 C 274.865051,292.274963 274.375061,295.297974 273.933319,296.519989 C 272.315552,300.995514 267.235687,300.915192 263.053345,302.919983 C 261.930115,303.458435 261.094604,304.387817 259.640015,304.626678 C 258.691711,303.791351 257.546722,303.627289 257.079987,302.279999 C 255.927673,300.693268 257.412811,299.702393 258.573334,299.079987 C 260.679565,297.950409 267.181488,296.837097 267.959991,294.813324 C 268.923218,293.717590 268.282745,290.423157 267.959991,289.266663 C 267.133392,286.304504 266.736633,283.831543 265.613342,281.160004 C 264.867188,279.385498 263.557159,277.514496 264.333344,275.399994 C 264.976532,275.123810 266.366638,274.809784 266.893341,274.333344 Z" />
  <path
     id="Rounded Rectangle 8"
     style="stroke: none; fill: rgb(59, 67, 79)"
     fill-rule="nonzero"
     d="M 207.799988,241.480011 C 207.799988,241.480011 213.773346,241.480011 213.773346,241.480011 C 217.072327,241.480011 219.746674,244.154358 219.746674,247.453339 C 219.746674,250.752319 217.072327,253.426666 213.773346,253.426666 C 213.773346,253.426666 207.799988,253.426666 207.799988,253.426666 C 204.501007,253.426666 201.826660,250.752319 201.826660,247.453339 C 201.826660,244.154358 204.501007,241.480011 207.799988,241.480011 Z" />
  <path
     id="Rounded Rectangle 8 copy"
     style="stroke: none; fill: rgb(59, 67, 79)"
     fill-rule="nonzero"
     d="M 305.079987,241.480011 C 305.079987,241.480011 311.053345,241.480011 311.053345,241.480011 C 314.352325,241.480011 317.026672,244.154358 317.026672,247.453339 C 317.026672,250.752319 314.352325,253.426666 311.053345,253.426666 C 311.053345,253.426666 305.079987,253.426666 305.079987,253.426666 C 301.781006,253.426666 299.106659,250.752319 299.106659,247.453339 C 299.106659,244.154358 301.781006,241.480011 305.079987,241.480011 Z" />
  <path
     id="Ellipse 3"
     style="stroke: none; fill: rgb(237, 241, 241)"
     fill-rule="nonzero"
     d="M 310.626678,269.640015 C 316.517700,269.640015 321.293335,274.415649 321.293335,280.306671 C 321.293335,286.197693 316.517700,290.973328 310.626678,290.973328 C 304.735626,290.973328 299.960022,286.197693 299.960022,280.306671 C 299.960022,274.415649 304.735626,269.640015 310.626678,269.640015 Z" />
  <path
     id="Ellipse 3 copy"
     style="stroke: none; fill: rgb(237, 241, 241)"
     fill-rule="nonzero"
     d="M 207.373352,269.640015 C 213.264374,269.640015 218.040009,274.415649 218.040009,280.306671 C 218.040009,286.197693 213.264374,290.973328 207.373352,290.973328 C 201.482300,290.973328 196.706696,286.197693 196.706696,280.306671 C 196.706696,274.415649 201.482300,269.640015 207.373352,269.640015 Z" />
  <path
     id="R"
     style="stroke: none; fill: rgb(59, 67, 79)"
     fill-rule="nonzero"
     d="M 282.000000,222.610168 C 282.000000,222.610168 284.471436,225.749329 284.471436,225.749329 C 284.471436,225.749329 286.004822,227.694916 286.004822,227.694916 C 286.004822,227.694916 313.155151,212.702881 332.000000,230.000000 C 332.000000,230.000000 334.009155,230.984924 334.009155,230.984924 C 334.009155,230.984924 329.366699,205.908600 288.727692,220.576416 C 286.583557,221.158020 284.346405,221.829254 282.000000,222.610168 Z" />
  <path
     id="L"
     style="stroke: none; fill: rgb(59, 67, 79)"
     fill-rule="nonzero"
     d="M 235.000000,222.627625 C 235.000000,222.627625 232.528564,225.760254 232.528564,225.760254 C 232.528564,225.760254 230.995178,227.701782 230.995178,227.701782 C 230.995178,227.701782 203.844849,212.740936 185.000000,230.002075 C 185.000000,230.002075 182.990845,230.984955 182.990845,230.984955 C 182.990845,230.984955 187.633301,205.960754 228.272308,220.598083 C 230.416443,221.178497 232.653595,221.848328 235.000000,222.627625 Z" />
  <path
     id="Rounded Rectangle 6"
     style="stroke: none; fill: rgb(59, 67, 79)"
     fill-rule="evenodd"
     d="M 259.000000,167.009369 C 259.000000,167.009369 259.000000,72.530792 259.000000,72.530792 C 259.284790,72.528595 259.568024,72.519989 259.853333,72.519989 C 319.706268,72.519989 368.226654,121.040405 368.226654,180.893341 C 368.226654,180.893341 368.226654,215.723328 368.226654,215.723328 C 368.204895,216.937103 368.203796,218.128418 368.226654,219.293335 C 368.226654,219.293335 267.577911,192.073395 259.000000,167.009369 Z M 149.773346,219.293335 C 149.796204,218.128418 149.795105,216.937103 149.773346,215.723328 C 149.773346,215.723328 149.773346,180.893341 149.773346,180.893341 C 149.773346,121.040405 198.293732,72.519989 258.146667,72.519989 C 258.431976,72.519989 258.715210,72.528595 259.000000,72.530792 C 259.000000,72.530792 259.000000,167.009369 259.000000,167.009369 C 250.422089,192.073395 149.773346,219.293335 149.773346,219.293335 Z" />
</svg>
