<?xml version="1.0" encoding="UTF-8" standalone="no"?>
<svg
   xmlns:dc="http://purl.org/dc/elements/1.1/"
   xmlns:cc="http://creativecommons.org/ns#"
   xmlns:rdf="http://www.w3.org/1999/02/22-rdf-syntax-ns#"
   xmlns:svg="http://www.w3.org/2000/svg"
   xmlns="http://www.w3.org/2000/svg"
   version="1.1"
   id="svg7956"
   height="512"
   width="512">
  <metadata
     id="metadata7992">
    <rdf:RDF>
      <cc:Work
         rdf:about="">
        <dc:format>image/svg+xml</dc:format>
        <dc:type
           rdf:resource="http://purl.org/dc/dcmitype/StillImage" />
        <dc:title></dc:title>
      </cc:Work>
    </rdf:RDF>
  </metadata>
  <defs
     id="defs7990" />
  <path
     id="body-bg-flat"
     style="stroke: none; fill: rgb(255, 255, 255)"
     fill-rule="nonzero"
     d="M 111.000000,504.000000 C 111.000000,504.000000 100.698120,413.688873 189.440002,403.613342 C 189.440002,403.613342 227.413330,403.613342 227.413330,403.613342 C 227.413330,403.613342 227.413330,386.119995 227.413330,386.119995 C 227.413330,386.119995 254.125000,397.593323 281.173340,387.399994 C 281.173340,387.399994 282.026672,403.613342 282.026672,403.613342 C 282.026672,403.613342 326.399994,403.613342 326.399994,403.613342 C 326.399994,403.613342 403.673462,411.327606 399.000000,504.000000 C 399.000000,504.000000 111.000000,504.000000 111.000000,504.000000 Z" />
  <path
     id="Rounded Rectangle 13 copy 3"
     style="stroke: none; fill: rgb(59, 67, 79)"
     fill-rule="nonzero"
     d="M 398.261932,505.586670 C 398.261932,505.586670 398.261932,505.586670 398.261932,505.586670 C 398.261932,505.586670 113.745544,505.586670 113.745544,505.586670 C 113.745544,505.586670 113.745544,505.586670 113.745544,505.586670 C 113.745544,505.586670 108.227661,505.586670 108.227661,505.586670 C 108.227661,505.586670 109.605011,482.056854 109.605011,482.056854 C 112.294312,436.114624 148.491882,401.053345 189.915009,401.053345 C 189.915009,401.053345 227.413330,401.053345 227.413330,401.053345 C 227.413330,401.053345 227.413330,405.746674 227.413330,405.746674 C 227.413330,405.746674 192.429718,405.746674 192.429718,405.746674 C 152.506348,405.746674 117.619324,439.495087 115.027374,483.717010 C 115.027374,483.717010 114.070648,500.040009 114.070648,500.040009 C 114.070648,500.040009 397.510162,500.040009 397.510162,500.040009 C 397.510162,500.040009 396.980103,483.717010 396.980103,483.717010 C 394.388153,439.495087 359.501129,405.746674 319.577728,405.746674 C 319.577728,405.746674 284.160004,405.746674 284.160004,405.746674 C 284.160004,405.746674 284.160004,401.053345 284.160004,401.053345 C 284.160004,401.053345 321.839417,401.053345 321.839417,401.053345 C 363.262543,401.053345 399.460114,436.114624 402.149414,482.056854 C 402.149414,482.056854 403.526764,505.586670 403.526764,505.586670 C 403.526764,505.586670 398.261932,505.586670 398.261932,505.586670 Z" />
  <path
     id="neck copy 7"
     style="stroke: none; fill: rgb(59, 67, 79)"
     fill-rule="nonzero"
     d="M 230.399994,384.146088 C 230.399994,384.146088 230.399994,410.461182 230.399994,410.461182 C 230.399994,424.116669 241.479462,435.186676 255.146667,435.186676 C 268.813873,435.186676 279.893341,424.116669 279.893341,410.461182 C 279.893341,410.461182 279.893341,384.688995 279.893341,384.688995 C 281.329498,384.251862 282.752136,383.777069 284.160004,383.264130 C 284.160004,383.264130 284.160004,410.640289 284.160004,410.640289 C 284.160004,426.788910 271.074799,439.880005 254.933350,439.880005 C 238.791901,439.880005 225.706665,426.788910 225.706665,410.640289 C 225.706665,410.640289 225.706665,382.453674 225.706665,382.453674 C 227.252502,383.064911 228.818207,383.627106 230.399994,384.146088 Z" />
  <path
     id="Rounded Rectangle 2"
     style="stroke: none; fill: rgb(59, 67, 79)"
     fill-rule="nonzero"
     d="M 331.719940,457.489349 C 331.719940,457.489349 319.634583,482.696259 319.634583,482.696259 C 319.023346,483.971161 317.494324,484.509155 316.219452,483.897919 C 314.944550,483.286682 314.406555,481.757660 315.017792,480.482758 C 315.017792,480.482758 326.689819,456.138000 326.689819,456.138000 C 326.689819,456.138000 317.569641,440.341400 317.569641,440.341400 C 316.862732,439.116974 317.282227,437.551300 318.506653,436.844391 C 319.731110,436.137451 321.296753,436.556976 322.003693,437.781403 C 322.003693,437.781403 331.817017,454.778595 331.817017,454.778595 C 332.322723,455.654480 332.249390,456.703491 331.719940,457.489349 Z" />
  <path
     id="Rounded Rectangle 2 copy 3"
     style="stroke: none; fill: rgb(59, 67, 79)"
     fill-rule="nonzero"
     d="M 178.362396,457.513947 C 178.362396,457.513947 190.512604,482.798462 190.512604,482.798462 C 191.127106,484.077301 192.664337,484.616943 193.946045,484.003815 C 195.227783,483.390686 195.768677,481.856964 195.154144,480.578156 C 195.154144,480.578156 183.419525,456.158447 183.419525,456.158447 C 183.419525,456.158447 192.588623,440.313202 192.588623,440.313202 C 193.299316,439.085022 192.877563,437.514526 191.646576,436.805420 C 190.415558,436.096313 188.841522,436.517120 188.130798,437.745331 C 188.130798,437.745331 178.264832,454.794861 178.264832,454.794861 C 177.756409,455.673431 177.830109,456.725677 178.362396,457.513947 Z" />
  <path
     id="Rectangle 24"
     style="stroke: none; fill: rgb(59, 67, 79)"
     fill-rule="nonzero"
     d="M 225.706665,400.200012 C 225.706665,400.200012 230.399994,400.200012 230.399994,400.200012 C 230.399994,400.200012 230.399994,503.880005 230.399994,503.880005 C 230.399994,503.880005 225.706665,503.880005 225.706665,503.880005 C 225.706665,503.880005 225.706665,400.200012 225.706665,400.200012 Z" />
  <path
     id="Rectangle 24 copy"
     style="stroke: none; fill: rgb(59, 67, 79)"
     fill-rule="nonzero"
     d="M 279.893341,401.053345 C 279.893341,401.053345 284.586670,401.053345 284.586670,401.053345 C 284.586670,401.053345 284.586670,504.733337 284.586670,504.733337 C 284.586670,504.733337 279.893341,504.733337 279.893341,504.733337 C 279.893341,504.733337 279.893341,401.053345 279.893341,401.053345 Z" />
  <path
     id="2 copy 5"
     style="stroke: none; fill: rgb(255, 255, 255)"
     fill-rule="nonzero"
     d="M 256.214661,116.466644 C 309.292542,116.466644 351.186951,166.067871 349.824738,225.664948 C 349.824738,225.664948 348.376923,289.006104 348.376923,289.006104 C 347.093597,345.152466 305.845428,389.533325 256.214661,389.533325 C 206.583893,389.533325 165.335724,345.152466 164.052399,289.006104 C 164.052399,289.006104 162.604584,225.664948 162.604584,225.664948 C 161.242401,166.067871 203.136780,116.466644 256.214661,116.466644 Z" />
  <path
     id="2 line"
     style="stroke: none; fill: rgb(59, 67, 79)"
     fill-rule="evenodd"
     d="M 354.089386,223.701141 C 354.089386,223.701141 352.572327,289.615509 352.572327,289.615509 C 351.227631,348.042816 308.006287,394.226654 256.001404,394.226654 C 203.996490,394.226654 160.775177,348.042816 159.430450,289.615509 C 159.430450,289.615509 157.913361,223.701141 157.913361,223.701141 C 156.486023,161.682922 200.384491,110.066650 256.001404,110.066650 C 311.618317,110.066650 355.516754,161.682922 354.089386,223.701141 Z M 255.788300,116.893311 C 203.436035,116.893311 162.114380,166.107025 163.457916,225.238495 C 163.457916,225.238495 164.885956,288.084808 164.885956,288.084808 C 166.151733,343.792511 206.836029,387.826660 255.788300,387.826660 C 304.740570,387.826660 345.424835,343.792511 346.690613,288.084808 C 346.690613,288.084808 348.118622,225.238495 348.118622,225.238495 C 349.462219,166.107025 308.140564,116.893311 255.788300,116.893311 Z" />
  <path
     opacity="0.058824"
     id="1 copy 4"
     style="stroke: none; fill: rgb(59, 67, 79)"
     fill-rule="evenodd"
     d="M 351.426666,234.653320 C 351.426666,234.653320 347.160004,304.626678 347.160004,304.626678 C 347.160004,304.626678 328.209778,385.397614 255.000000,394.961365 C 255.000000,394.961365 255.000000,395.079987 255.000000,395.079987 C 254.856110,395.062408 254.716797,395.038818 254.573334,395.020691 C 254.429871,395.038818 254.290558,395.062408 254.146667,395.079987 C 254.146667,395.079987 254.146667,394.961365 254.146667,394.961365 C 180.936920,385.397614 161.986664,304.626678 161.986664,304.626678 C 161.986664,304.626678 157.720001,234.653320 157.720001,234.653320 C 176.717773,318.980011 192.706665,324.253357 192.706665,324.253357 C 189.471100,298.682220 215.746674,301.213348 215.746674,301.213348 C 231.760803,303.918427 244.509155,305.225616 254.573334,305.714325 C 264.637543,305.225616 277.385864,303.918427 293.399994,301.213348 C 293.399994,301.213348 319.675537,298.682220 316.440002,324.253357 C 316.440002,324.253357 332.428894,318.980011 351.426666,234.653320 Z M 303.983093,332.926392 C 302.741058,317.884766 293.670868,319.160217 293.670868,319.160217 C 277.546234,323.904846 264.888733,326.540649 255.000000,327.880249 C 255.000000,327.880249 255.000000,327.781921 255.000000,327.781921 C 245.180511,326.453247 232.611664,323.839081 216.600006,319.133331 C 216.600006,319.133331 207.593323,317.868317 206.359985,332.786682 C 206.359985,332.786682 202.743317,347.733337 214.893341,354.119995 C 214.893341,354.119995 230.253326,370.333344 230.253326,370.333344 C 230.253326,370.333344 240.750000,373.660004 240.493347,360.946655 C 240.493347,360.946655 239.424988,351.464996 245.613342,349.853333 C 245.613342,349.853333 255.000000,349.853333 255.000000,349.853333 C 255.000000,349.853333 255.000000,350.134094 255.000000,350.134094 C 255.000000,350.134094 264.452881,350.134094 264.452881,350.134094 C 270.684875,351.759094 269.609009,361.319122 269.609009,361.319122 C 269.350525,374.137543 279.921204,370.783356 279.921204,370.783356 C 279.921204,370.783356 295.389557,354.436035 295.389557,354.436035 C 307.625275,347.996582 303.983093,332.926392 303.983093,332.926392 Z" />
  <path
     id="Rounded Rectangle 3"
     style="stroke: none; fill: rgb(59, 67, 79)"
     fill-rule="nonzero"
     d="M 245.760010,355.826691 C 245.760010,355.826691 266.239990,355.826691 266.239990,355.826691 C 267.182587,355.826691 267.946655,356.590759 267.946655,357.533325 C 267.946655,358.475922 267.182587,359.239990 266.239990,359.239990 C 266.239990,359.239990 245.760010,359.239990 245.760010,359.239990 C 244.817413,359.239990 244.053345,358.475922 244.053345,357.533325 C 244.053345,356.590759 244.817413,355.826691 245.760010,355.826691 Z" />
  <path
     id="2"
     style="stroke: none; fill: rgb(59, 67, 79)"
     fill-rule="nonzero"
     d="M 227.838165,335.406464 C 227.838165,335.406464 230.214661,332.079865 230.214661,332.079865 C 237.854858,336.450012 246.931793,338.983551 256.669922,338.983551 C 266.516541,338.983551 275.686523,336.392334 283.379395,331.932159 C 283.379395,331.932159 285.867615,335.368225 285.867615,335.368225 C 277.498932,340.212860 267.527039,343.026703 256.820404,343.026703 C 246.141663,343.026703 236.193420,340.227997 227.838165,335.406464 Z" />
  <path
     id="Shape 11 copy"
     style="stroke: none; fill: rgb(247, 251, 251)"
     fill-rule="nonzero"
     d="M 157.807220,233.313141 C 157.795441,233.313812 156.759613,232.486603 154.803619,231.870758 C 153.826019,231.563507 152.611023,231.310760 151.226166,231.248444 C 150.880310,231.232880 150.524353,231.229187 150.160126,231.239532 C 149.795898,231.249878 149.423370,231.274231 149.044708,231.314667 C 148.287476,231.395569 147.505402,231.540955 146.718414,231.767334 C 143.567261,232.672913 140.352692,234.874664 138.464783,239.419098 C 137.517090,241.691437 136.891907,244.549713 136.726624,248.125916 C 136.685272,249.019989 136.672638,249.958923 136.690765,250.944794 C 136.708923,251.930664 136.757874,252.963470 136.839630,254.045288 C 137.003052,256.208832 137.298157,258.568451 137.737854,261.139679 C 137.728241,261.137146 137.327759,268.909668 140.106445,277.840820 C 142.718689,286.572784 148.991516,297.299225 160.573334,300.364410 C 159.241302,278.185028 159.199921,255.589905 157.807220,233.313141 C 157.807220,233.313141 157.807220,233.313141 157.807220,233.313141 Z" />
  <path
     id="Shape 3"
     style="stroke: none; fill: rgb(59, 67, 79)"
     fill-rule="nonzero"
     d="M 159.127869,234.207275 C 159.127869,234.207275 138.951477,227.955597 139.661530,248.698090 C 139.661530,248.698090 142.665436,278.775360 143.969879,281.547363 C 143.969879,281.547363 151.893707,299.059387 164.970856,299.835480 C 177.751862,300.593994 164.970856,299.835480 164.970856,299.835480 C 164.970856,299.835480 165.129578,305.480011 165.129578,305.480011 C 165.129578,305.480011 142.144928,302.533020 137.705597,276.045410 C 137.705597,276.045410 134.201721,251.982697 134.201721,251.982697 C 134.201721,251.982697 131.481110,220.138062 157.871185,228.234802 C 183.580475,236.122681 157.871185,228.234802 157.871185,228.234802 C 157.871185,228.234802 159.127869,234.207275 159.127869,234.207275 " />
  <path
     id="Shape 4"
     style="stroke: none; fill: rgb(59, 67, 79)"
     fill-rule="nonzero"
     d="M 152.468323,275.994812 C 152.468323,275.994812 151.339172,276.848145 150.369171,276.848145 C 149.399170,276.848145 148.283783,275.994812 148.283783,275.994812 C 148.283783,275.994812 146.201569,255.012024 146.201569,255.012024 C 146.201569,255.012024 149.074493,244.678558 161.265381,250.139496 C 161.265381,250.139496 161.553558,256.139221 161.553558,256.139221 C 161.553558,256.139221 150.857910,252.346008 151.079071,257.069427 C 151.291962,261.615967 152.468323,275.994812 152.468323,275.994812 Z" />
  <path
     id="Shape 11 copy_1"
     style="stroke: none; fill: rgb(247, 251, 251)"
     fill-rule="nonzero"
     d="M 353.813416,233.362122 C 353.825256,233.362793 354.865631,232.536163 356.830170,231.920715 C 357.812073,231.613678 359.032379,231.361115 360.423309,231.298828 C 360.770660,231.283295 361.128174,231.279602 361.494019,231.289948 C 361.859833,231.300262 362.233978,231.324615 362.614319,231.365021 C 363.374847,231.445862 364.160370,231.591156 364.950806,231.817383 C 368.115753,232.722351 371.344391,234.922607 373.240570,239.463959 C 374.192413,241.734741 374.820343,244.591064 374.986328,248.164856 C 375.027863,249.058319 375.040558,249.996613 375.022369,250.981812 C 375.004120,251.967010 374.954956,252.999115 374.872833,254.080200 C 374.708710,256.242279 374.412292,258.600311 373.970673,261.169769 C 373.980347,261.167236 374.382568,268.934509 371.591705,277.859589 C 368.968048,286.585632 362.667725,297.304779 351.035187,300.367889 C 352.373047,278.203552 352.414612,255.623779 353.813416,233.362122 C 353.813416,233.362122 353.813416,233.362122 353.813416,233.362122 Z" />
  <path
     id="Shape 3_1"
     style="stroke: none; fill: rgb(59, 67, 79)"
     fill-rule="nonzero"
     d="M 352.482605,234.255676 C 352.482605,234.255676 372.747375,228.008240 372.034210,248.736633 C 372.034210,248.736633 369.017151,278.793488 367.706970,281.563599 C 367.706970,281.563599 359.748444,299.063751 346.614044,299.839325 C 333.777039,300.597321 346.614044,299.839325 346.614044,299.839325 C 346.614044,299.839325 346.454620,305.480011 346.454620,305.480011 C 346.454620,305.480011 369.539917,302.535034 373.998688,276.065399 C 373.998688,276.065399 377.517914,252.019012 377.517914,252.019012 C 377.517914,252.019012 380.250458,220.195984 353.744781,228.287231 C 327.922913,236.169769 353.744781,228.287231 353.744781,228.287231 C 353.744781,228.287231 352.482605,234.255676 352.482605,234.255676 " />
  <path
     id="Shape 4_1"
     style="stroke: none; fill: rgb(59, 67, 79)"
     fill-rule="nonzero"
     d="M 359.171326,276.014832 C 359.171326,276.014832 360.305420,276.867584 361.279663,276.867584 C 362.253906,276.867584 363.374176,276.014832 363.374176,276.014832 C 363.374176,276.014832 365.465515,255.046295 365.465515,255.046295 C 365.465515,255.046295 362.580017,244.719849 350.335724,250.177063 C 350.335724,250.177063 350.046295,256.172729 350.046295,256.172729 C 350.046295,256.172729 360.788788,252.382080 360.566650,257.102295 C 360.352844,261.645752 359.171326,276.014832 359.171326,276.014832 Z" />
  <path
     id="new_vector_shape_done"
     style="stroke: none; fill: rgb(59, 67, 79)"
     fill-rule="evenodd"
     d="M 263.893341,274.333344 C 264.391052,274.333344 264.888947,274.333344 265.386658,274.333344 C 268.474121,278.526306 269.730225,284.969757 271.359985,290.546661 C 271.865051,292.274963 271.375061,295.297974 270.933319,296.519989 C 269.315552,300.995514 264.235687,300.915192 260.053345,302.919983 C 258.930115,303.458435 258.094604,304.387817 256.640015,304.626678 C 255.691711,303.791351 254.546722,303.627289 254.079987,302.279999 C 252.927673,300.693268 254.412811,299.702393 255.573334,299.079987 C 257.679565,297.950409 264.181488,296.837097 264.959991,294.813324 C 265.923218,293.717590 265.282745,290.423157 264.959991,289.266663 C 264.133392,286.304504 263.736633,283.831543 262.613342,281.160004 C 261.867188,279.385498 260.557159,277.514496 261.333344,275.399994 C 261.976532,275.123810 263.366638,274.809784 263.893341,274.333344 Z" />
  <path
     id="eye"
     style="stroke: none; fill: rgb(59, 67, 79)"
     fill-rule="nonzero"
     d="M 209.066681,238.066681 C 213.779510,238.066681 217.600006,241.887177 217.600006,246.600006 C 217.600006,251.312836 213.779510,255.133331 209.066681,255.133331 C 204.353851,255.133331 200.533325,251.312836 200.533325,246.600006 C 200.533325,241.887177 204.353851,238.066681 209.066681,238.066681 Z" />
  <path
     id="eye_1"
     style="stroke: none; fill: rgb(59, 67, 79)"
     fill-rule="nonzero"
     d="M 303.786652,238.066681 C 308.499481,238.066681 312.319977,241.887177 312.319977,246.600006 C 312.319977,251.312836 308.499481,255.133331 303.786652,255.133331 C 299.073853,255.133331 295.253326,251.312836 295.253326,246.600006 C 295.253326,241.887177 299.073853,238.066681 303.786652,238.066681 Z" />
  <path
     id="Ellipse 3"
     style="stroke: none; fill: rgb(237, 241, 241)"
     fill-rule="nonzero"
     d="M 307.626678,269.640015 C 313.517700,269.640015 318.293335,274.415649 318.293335,280.306671 C 318.293335,286.197693 313.517700,290.973328 307.626678,290.973328 C 301.735626,290.973328 296.960022,286.197693 296.960022,280.306671 C 296.960022,274.415649 301.735626,269.640015 307.626678,269.640015 Z" />
  <path
     id="Ellipse 3 copy"
     style="stroke: none; fill: rgb(237, 241, 241)"
     fill-rule="nonzero"
     d="M 204.373352,269.640015 C 210.264374,269.640015 215.040009,274.415649 215.040009,280.306671 C 215.040009,286.197693 210.264374,290.973328 204.373352,290.973328 C 198.482300,290.973328 193.706696,286.197693 193.706696,280.306671 C 193.706696,274.415649 198.482300,269.640015 204.373352,269.640015 Z" />
  <path
     id="Shape 1 copy 5"
     style="stroke: none; fill: rgb(59, 67, 79)"
     fill-rule="evenodd"
     d="M 341.333344,230.386658 C 341.333344,230.386658 341.333344,261.959991 341.333344,261.959991 C 341.333344,269.675720 333.806915,281.715454 321.542847,282.404938 C 319.741241,282.319031 283.306671,282.440002 283.306671,282.440002 C 266.928345,282.440002 263.679993,262.813324 263.679993,262.813324 C 263.679993,262.813324 263.679993,241.480011 263.679993,241.480011 C 263.679993,241.480011 248.320007,241.480011 248.320007,241.480011 C 248.320007,241.480011 248.320007,262.813324 248.320007,262.813324 C 248.320007,262.813324 245.071655,282.440002 228.693329,282.440002 C 228.693329,282.440002 192.258759,282.319031 190.457153,282.404938 C 178.193085,281.715454 170.666656,269.675720 170.666656,261.959991 C 170.666656,261.959991 170.666656,230.386658 170.666656,230.386658 C 170.666656,230.386658 157.013336,230.386658 157.013336,230.386658 C 157.013336,230.386658 157.013336,221.853333 157.013336,221.853333 C 157.013336,221.853333 236.373322,221.853333 236.373322,221.853333 C 236.373322,221.853333 248.320007,223.783325 248.320007,232.093323 C 248.320007,232.093323 263.679993,232.093323 263.679993,232.093323 C 263.679993,223.783325 275.626678,221.853333 275.626678,221.853333 C 275.626678,221.853333 354.986664,221.853333 354.986664,221.853333 C 354.986664,221.853333 354.986664,230.386658 354.986664,230.386658 C 354.986664,230.386658 341.333344,230.386658 341.333344,230.386658 Z M 239.786652,234.653320 C 239.786652,231.611664 236.373322,231.239990 236.373322,231.239990 C 236.373322,231.239990 179.200012,231.239990 179.200012,231.239990 C 179.200012,231.239990 179.200012,261.106659 179.200012,261.106659 C 179.200012,270.412506 192.000000,273.906677 192.000000,273.906677 C 192.000000,273.906677 226.986664,273.906677 226.986664,273.906677 C 239.024170,273.906677 239.786652,261.106659 239.786652,261.106659 C 239.786652,261.106659 239.786652,237.695007 239.786652,234.653320 Z M 332.799988,231.239990 C 332.799988,231.239990 275.626678,231.239990 275.626678,231.239990 C 275.626678,231.239990 272.213348,231.611664 272.213348,234.653320 C 272.213348,237.695007 272.213348,261.106659 272.213348,261.106659 C 272.213348,261.106659 272.975830,273.906677 285.013336,273.906677 C 285.013336,273.906677 320.000000,273.906677 320.000000,273.906677 C 320.000000,273.906677 332.799988,270.412506 332.799988,261.106659 C 332.799988,261.106659 332.799988,231.239990 332.799988,231.239990 Z M 320.853333,282.440002 C 321.085968,282.435150 321.313477,282.417847 321.542847,282.404938 C 321.735718,282.414154 321.541962,282.425659 320.853333,282.440002 Z M 190.457153,282.404938 C 190.686523,282.417847 190.914032,282.435150 191.146667,282.440002 C 190.458038,282.425659 190.264282,282.414154 190.457153,282.404938 Z" />
  <path
     id="Shape 6 copy 3"
     style="stroke: none; fill: rgb(158, 160, 164)"
     fill-rule="nonzero"
     d="M 160.750946,229.533356 C 160.750946,229.533356 164.043091,178.136658 195.760651,155.293335 C 195.760651,155.293335 241.557495,186.446655 313.598297,155.293335 C 313.598297,155.293335 345.462616,169.806671 350.315826,229.533356 C 350.315826,229.533356 352.026398,229.533356 352.026398,229.533356 C 352.026398,229.533356 361.149597,161.119995 337.507355,133.959991 C 337.507355,133.959991 331.683533,113.160004 300.789856,98.119995 C 300.789856,98.119995 289.689209,104.946686 289.689209,104.946686 C 289.689209,104.946686 282.230957,95.819977 262.364532,84.466675 C 262.364532,84.466675 247.671509,91.013336 240.163239,102.386658 C 240.163239,102.386658 228.208710,94.706665 228.208710,94.706665 C 228.208710,94.706665 211.504364,102.353333 201.737946,116.040009 C 201.737946,116.040009 183.806122,118.599976 183.806122,118.599976 C 183.806122,118.599976 174.413269,135.666656 174.413269,135.666656 C 174.413269,135.666656 151.992340,153.729980 159.040344,227.826660 C 159.040344,227.826660 160.750946,229.533356 160.750946,229.533356 Z" />
  <path
     id="Shape 6 copy"
     style="stroke: none; fill: rgb(59, 67, 79)"
     fill-rule="evenodd"
     d="M 355.439728,229.533356 C 355.439728,229.533356 347.329163,229.106689 347.329163,229.106689 C 342.475952,169.380005 313.598297,158.706665 313.598297,158.706665 C 241.557495,189.859985 195.760651,158.279999 195.760651,158.279999 C 168.057526,181.913330 163.737610,229.960022 163.737610,229.960022 C 163.737610,229.960022 156.480347,227.826660 156.480347,227.826660 C 149.432343,153.729980 171.853271,134.386658 171.853271,134.386658 C 171.853271,134.386658 182.099457,115.613312 182.099457,115.613312 C 182.099457,115.613312 200.884613,113.053345 200.884613,113.053345 C 210.651031,99.366669 228.635376,90.866669 228.635376,90.866669 C 228.635376,90.866669 239.786682,98.119995 239.786682,98.119995 C 247.294952,86.746674 262.826660,81.053345 262.826660,81.053345 C 282.693085,92.406647 290.133331,101.106659 290.133331,101.106659 C 290.133331,101.106659 301.643188,94.706665 301.643188,94.706665 C 332.536865,109.746674 340.920685,133.533325 340.920685,133.533325 C 364.562927,160.693329 355.439728,229.533356 355.439728,229.533356 Z M 335.360016,135.239990 C 335.360016,135.239990 331.693665,116.573334 300.799988,101.533325 C 300.799988,101.533325 289.279999,108.359985 289.279999,108.359985 C 289.279999,108.359985 281.839752,99.233307 261.973328,87.880005 C 261.973328,87.880005 248.574951,94.853333 241.066681,106.226654 C 241.066681,106.226654 228.266663,98.119995 228.266663,98.119995 C 228.266663,98.119995 212.859741,105.339996 203.093323,119.026672 C 203.093323,119.026672 186.026672,121.586670 186.026672,121.586670 C 186.026672,121.586670 177.066681,137.799988 177.066681,137.799988 C 177.066681,137.799988 158.456451,152.014435 160.426666,209.480011 C 160.426666,209.480011 160.853333,209.053345 160.853333,209.053345 C 160.853333,209.053345 166.774200,173.332214 195.760651,151.453339 C 195.760651,151.453339 242.837494,183.459991 314.878296,152.306671 C 314.878296,152.306671 341.493469,164.823303 350.720001,209.480011 C 350.720001,209.480011 356.196686,163.548889 335.360016,135.239990 Z" />
  <path
     id="Shape 34"
     style="stroke: none; fill: rgb(59, 67, 79)"
     fill-rule="nonzero"
     d="M 243.000000,451.000000 C 243.000000,451.000000 255.000000,438.000000 255.000000,438.000000 C 255.000000,438.000000 268.000000,451.000000 268.000000,451.000000 C 268.000000,451.000000 261.000000,458.000000 261.000000,458.000000 C 261.000000,458.000000 272.000000,503.000000 272.000000,503.000000 C 272.000000,503.000000 238.000000,503.000000 238.000000,503.000000 C 238.000000,503.000000 250.000000,458.000000 250.000000,458.000000 C 250.000000,458.000000 243.000000,451.000000 243.000000,451.000000 Z" />
  <path
     id="Rectangle 24 copy 4"
     style="stroke: none; fill: rgb(59, 67, 79)"
     fill-rule="evenodd"
     d="M 269.699280,503.689667 C 269.699280,503.689667 257.605316,458.554413 257.605316,458.554413 C 257.605316,458.554413 260.119995,457.799988 260.119995,457.799988 C 260.119995,457.799988 261.787384,456.028412 261.787384,456.028412 C 261.787384,456.028412 274.578613,503.765900 274.578613,503.765900 C 274.578613,503.765900 269.699280,503.689667 269.699280,503.689667 Z M 235.584991,503.156647 C 235.584991,503.156647 248.211121,456.247620 248.211121,456.247620 C 248.211121,456.247620 249.026672,456.946655 249.026672,456.946655 C 249.026672,456.946655 251.586670,458.653320 251.586670,458.653320 C 251.586670,458.653320 252.430725,458.737732 252.430725,458.737732 C 252.430725,458.737732 240.454407,503.232727 240.454407,503.232727 C 240.454407,503.232727 235.584991,503.156647 235.584991,503.156647 Z" />
  <path
     id="Ellipse 6"
     style="stroke: none; fill: rgb(59, 67, 79)"
     fill-rule="evenodd"
     d="M 284.145569,463.787750 C 284.145569,463.787750 280.826874,467.106445 280.826874,467.106445 C 280.826874,467.106445 267.913605,454.193176 267.913605,454.193176 C 265.421692,458.151001 261.022430,460.786652 256.000000,460.786652 C 250.774628,460.786652 246.224152,457.933960 243.795074,453.706726 C 243.795074,453.706726 230.315369,467.186462 230.315369,467.186462 C 230.315369,467.186462 226.987762,463.858856 226.987762,463.858856 C 226.987762,463.858856 253.526611,437.320007 253.526611,437.320007 C 253.526611,437.320007 255.602203,435.395569 255.602203,435.395569 C 255.602203,435.395569 257.677795,437.320007 257.677795,437.320007 C 257.677795,437.320007 284.145569,463.787750 284.145569,463.787750 Z M 246.405548,451.096252 C 248.107025,454.560669 251.666168,456.946655 255.786652,456.946655 C 259.814484,456.946655 263.300873,454.663452 265.045563,451.325134 C 265.045563,451.325134 255.611115,441.890686 255.611115,441.890686 C 255.611115,441.890686 246.405548,451.096252 246.405548,451.096252 Z" />
  <path
     opacity="0.200000"
     id="new_vector_shape_done copy"
     style="stroke: none; fill: rgb(59, 67, 79)"
     fill-rule="evenodd"
     d="M 257.139130,103.673004 C 257.766876,104.139984 257.456116,104.572113 257.319794,105.156036 C 257.116425,106.027191 256.875153,106.889465 256.739258,107.758759 C 256.533295,109.075989 256.345520,110.394775 256.291626,111.694336 C 256.246307,112.787109 256.265961,113.876282 256.284943,114.958466 C 256.295898,115.583405 256.402863,116.207275 256.418243,116.833221 C 256.424377,117.082947 256.492401,117.333405 256.499420,117.587555 C 256.514740,117.656525 256.530060,117.725525 256.545380,117.794464 C 256.554291,118.113892 256.638031,118.418579 256.646851,118.737396 C 256.698944,119.026062 256.751099,119.314789 256.803192,119.603455 C 256.879852,120.060913 256.917114,120.538452 257.057037,120.984070 C 257.072388,121.098175 257.087738,121.212341 257.103088,121.326447 C 257.214111,121.680573 257.250458,122.046082 257.362183,122.401337 C 257.370178,122.471497 257.378174,122.541687 257.386169,122.611877 C 257.548309,123.124084 257.621338,123.662994 257.783020,124.172028 C 258.045563,124.998596 258.259186,125.828674 258.548767,126.653381 C 258.740814,127.200348 258.906372,127.773346 259.099579,128.323517 C 259.443481,129.302887 259.863159,130.259399 260.241150,131.228119 C 260.471252,131.817810 260.779968,132.362640 261.026459,132.949768 C 261.724030,134.611328 262.620361,136.244385 263.477478,137.873077 C 263.754395,138.399261 264.058350,138.883179 264.365234,139.397095 C 264.561005,139.725006 264.764282,140.092438 264.944855,140.430176 C 265.044769,140.617065 265.169952,140.757965 265.278625,140.939453 C 265.514221,141.332855 265.769470,141.755707 266.001282,142.152069 C 266.215668,142.518616 266.457703,142.831635 266.694489,143.188934 C 266.949677,143.574036 267.202393,144.007477 267.461090,144.394287 C 267.910645,145.066498 268.387482,145.716125 268.832764,146.380096 C 269.295380,147.069885 269.815399,147.680603 270.305206,148.360535 C 271.254456,149.678192 272.364014,150.942261 273.387421,152.264771 C 273.693756,152.660614 274.060242,153.006714 274.366455,153.389771 C 274.519196,153.580872 274.774567,153.747833 274.877960,153.948639 C 274.920044,154.030396 274.944092,154.156403 274.973419,154.248962 C 275.020630,154.397919 275.008423,154.581879 275.010437,154.739624 C 275.013641,154.992157 275.025940,155.247955 274.981720,155.512177 C 274.935883,155.785950 274.762024,156.087280 274.648987,156.357635 C 274.558197,156.574646 274.332123,156.765961 274.204224,156.871613 C 274.096588,156.960571 274.052185,157.043304 273.942474,157.129486 C 273.657043,157.353790 273.334045,157.538269 273.021484,157.632050 C 272.697479,157.729248 272.278717,157.438263 272.022766,157.131287 C 271.575043,156.594269 271.015137,156.101257 270.585449,155.562805 C 270.493591,155.447662 270.391541,155.396576 270.301300,155.282410 C 269.805206,154.654846 269.196228,154.063904 268.706268,153.446503 C 268.594421,153.305573 268.471863,153.226562 268.363434,153.085510 C 267.982513,152.590027 267.536194,152.143463 267.149689,151.638062 C 266.180786,150.371185 265.135986,149.147095 264.259918,147.871307 C 264.055084,147.573029 263.835266,147.337463 263.634644,147.037750 C 262.215668,144.917664 260.791779,142.834290 259.654816,140.673981 C 259.355621,140.105530 259.024994,139.588593 258.744995,139.018158 C 257.950043,137.398529 257.208557,135.779907 256.528473,134.146301 C 256.439117,133.931671 256.374268,133.691681 256.291687,133.474213 C 255.919220,132.493561 255.581696,131.525146 255.247162,130.542236 C 254.909668,129.550690 254.717651,128.514801 254.402252,127.520752 C 254.335724,127.311096 254.315430,127.083710 254.247864,126.868866 C 254.238647,126.791351 254.229431,126.713837 254.220215,126.636353 C 254.147064,126.403229 254.139069,126.155396 254.067627,125.927704 C 253.896362,125.381622 253.843414,124.791473 253.749451,124.230347 C 253.660767,123.700745 253.539612,123.159149 253.524750,122.619080 C 253.504517,122.520844 253.484283,122.422546 253.464081,122.324280 C 253.454376,121.973480 253.365753,121.626770 253.357025,121.280701 C 253.341827,120.676636 253.246002,120.074524 253.234772,119.471832 C 253.220795,118.722351 253.191956,117.970154 253.196411,117.220032 C 253.200897,116.469025 253.263123,115.734894 253.306458,114.977509 C 253.423828,112.925781 253.799042,110.864166 254.294556,108.739441 C 254.474304,107.968719 254.762634,107.214630 255.005371,106.442596 C 255.172607,105.910767 255.435699,105.398315 255.623322,104.872467 C 255.672302,104.735229 255.748413,104.653687 255.800751,104.515656 C 255.913177,104.219055 256.060577,103.854126 256.334961,103.659393 C 256.457733,103.572296 256.739899,103.525665 256.884430,103.568420 C 256.985107,103.598175 257.048706,103.675537 257.139130,103.673004 Z M 237.115997,118.381470 C 237.570404,118.710175 237.534698,119.191589 237.545563,119.597473 C 237.556793,120.018097 237.677734,120.436798 237.689392,120.860809 C 237.738464,121.153748 237.787537,121.446747 237.836609,121.739685 C 237.843109,121.976959 237.902740,122.201996 237.941528,122.433624 C 237.981537,122.672333 237.998840,122.912445 238.072144,123.145905 C 238.116302,123.409546 238.160461,123.673248 238.204620,123.936890 C 238.277435,124.169128 238.285645,124.417389 238.357208,124.645538 C 238.578522,125.351135 238.663116,126.099823 238.888245,126.804443 C 239.126892,127.551483 239.301270,128.323822 239.560394,129.064178 C 239.899811,130.034027 240.231964,131.010071 240.601227,131.974182 C 240.790039,132.467133 241.014679,132.927948 241.215973,133.419220 C 241.369873,133.794800 241.516144,134.204071 241.691284,134.571198 C 242.418701,136.095856 243.169739,137.619171 243.969849,139.139191 C 244.603394,140.342834 245.359192,141.491394 246.053436,142.678162 C 246.267487,143.044067 246.509308,143.358612 246.746643,143.714996 C 247.282318,144.519409 247.852325,145.355957 248.400787,146.173431 C 248.919312,146.946259 249.542450,147.666565 250.087769,148.423187 C 250.176849,148.546783 250.280029,148.613617 250.366425,148.738342 C 250.642853,149.137421 251.004700,149.521820 251.308868,149.914551 C 251.461792,150.112030 251.655579,150.249115 251.794708,150.455078 C 252.099304,150.906097 252.289276,151.747162 252.144104,152.271484 C 251.892639,153.179871 251.015839,153.791473 250.348450,154.025391 C 250.147064,154.095978 249.832794,154.223724 249.614014,154.158295 C 249.269226,154.055206 249.049225,153.748230 248.847809,153.494843 C 248.587463,153.167267 248.284027,152.929443 248.031982,152.602509 C 247.566284,151.998383 247.018127,151.458435 246.552399,150.849060 C 245.577148,149.573029 244.578278,148.338654 243.712067,147.040253 C 241.706543,144.034149 240.042419,140.999573 238.744598,137.881897 C 238.205872,136.587708 237.772186,135.253082 237.338470,133.937195 C 237.184021,133.468658 237.099487,132.967377 236.950867,132.499695 C 236.747162,131.858673 236.656677,131.197601 236.456635,130.560516 C 236.446198,130.475677 236.435730,130.390839 236.425293,130.306000 C 236.392853,130.163696 236.344696,130.026489 236.320557,129.882996 C 236.303986,129.761566 236.287415,129.640106 236.270844,129.518646 C 236.195404,129.278351 236.177704,129.030212 236.136566,128.784393 C 236.096588,128.545685 236.034668,128.312958 236.027924,128.068512 C 235.997894,127.911652 235.967865,127.754761 235.937805,127.597931 C 235.919891,126.958038 235.766266,126.330933 235.753174,125.686493 C 235.750092,125.534454 235.701569,125.373322 235.697876,125.221436 C 235.682922,124.605072 235.622009,123.986908 235.625031,123.370514 C 235.628479,122.668579 235.621704,121.954590 235.665558,121.252441 C 235.682831,120.975800 235.731293,120.715088 235.743713,120.437836 C 235.757294,120.133728 235.811005,119.842438 235.851074,119.528076 C 235.874847,119.341705 235.875153,119.116058 235.931244,118.927704 C 235.988190,118.736359 236.183899,118.427032 236.364929,118.347778 C 236.488464,118.293732 236.726471,118.239929 236.861298,118.276886 C 236.962494,118.304596 237.025085,118.383881 237.115997,118.381470 Z M 221.815613,121.570282 C 222.326294,121.944733 222.184509,122.417206 222.181122,122.875916 C 222.175690,123.614044 222.250427,124.350830 222.268890,125.085663 C 222.283630,125.671478 222.433533,126.253296 222.449738,126.839661 C 222.484680,127.025787 222.519653,127.211975 222.554596,127.398132 C 222.563568,127.723053 222.633820,128.142487 222.731232,128.452789 C 222.740448,128.530273 222.749664,128.607819 222.758881,128.685303 C 222.789032,128.865234 222.826782,129.042236 222.882019,129.218170 C 222.894928,129.317627 222.907806,129.417145 222.920715,129.516602 C 223.052032,129.935455 223.092529,130.383575 223.225769,130.798401 C 223.544464,131.790527 223.797791,132.805328 224.145782,133.796143 C 224.900055,135.943756 225.933960,138.025452 227.033813,140.114899 C 227.393250,140.797760 227.840637,141.433167 228.204010,142.111511 C 228.358978,142.400757 228.562286,142.635620 228.734009,142.915710 C 229.203400,143.681305 229.747559,144.445007 230.257965,145.203735 C 230.964386,146.253845 231.824921,147.211121 232.575684,148.252289 C 232.838745,148.617126 233.170929,148.933929 233.426422,149.285645 C 233.653625,149.598450 233.947662,149.833069 234.190918,150.141327 C 234.672791,150.751953 235.280273,151.333527 235.791443,151.942474 C 236.086487,152.293976 236.437347,152.577789 236.722748,152.917328 C 237.041534,153.296600 237.442535,153.599854 237.756653,153.965485 C 237.836090,154.035126 237.915527,154.104797 237.994965,154.174438 C 238.315369,154.553558 238.762604,154.889435 239.093018,155.268433 C 239.234039,155.430176 239.401367,155.505829 239.543945,155.667969 C 240.007385,156.194977 240.661011,156.622070 241.136902,157.154205 C 241.272736,157.306091 241.453522,157.408905 241.575012,157.544586 C 241.626312,157.581238 241.677643,157.617920 241.728973,157.654572 C 241.893188,157.837585 242.148987,158.005188 242.315552,158.189728 C 242.371124,158.229431 242.426727,158.269165 242.482330,158.308868 C 242.754425,158.610870 243.173676,158.849915 243.448334,159.153778 C 243.521027,159.205719 243.593719,159.257660 243.666412,159.309601 C 244.016571,159.696655 244.572021,159.973633 244.927490,160.365326 C 245.086945,160.485687 245.246429,160.606079 245.405884,160.726440 C 245.483704,160.812134 245.651733,160.886169 245.743134,160.986725 C 245.985168,161.253021 246.393280,161.462158 246.655914,161.716217 C 246.811157,161.866425 247.054596,161.969879 247.185608,162.114014 C 247.301147,162.241119 247.510651,162.326233 247.612640,162.438446 C 247.946198,162.676758 248.279816,162.915131 248.613342,163.153412 C 249.402863,163.717499 250.189606,164.246246 250.953796,164.786865 C 251.315521,165.042755 251.764618,165.244385 251.987518,165.564087 C 252.113434,165.744690 252.163666,166.004181 252.229797,166.201416 C 252.378601,166.645081 252.440033,167.171814 252.315155,167.655060 C 252.277130,167.802307 252.200409,167.901672 252.145111,168.055817 C 252.056549,168.302734 251.909241,168.685944 251.645691,168.917603 C 251.474274,169.068268 251.295563,169.271362 251.105682,169.402222 C 250.812988,169.603882 250.493774,169.496277 250.136627,169.348175 C 250.022400,169.273010 249.908142,169.197815 249.793915,169.122650 C 249.246246,168.887512 248.734558,168.384369 248.184845,168.147156 C 248.078949,168.101471 247.968079,167.986877 247.880615,167.949127 C 247.697968,167.825104 247.515289,167.701019 247.332642,167.576965 C 247.131592,167.490051 246.950989,167.279114 246.724182,167.180939 C 246.534485,167.098846 246.340485,166.945465 246.154205,166.812408 C 246.085785,166.763550 246.017365,166.714630 245.948944,166.665771 C 245.765869,166.586456 245.549591,166.419006 245.378967,166.297241 C 245.130951,166.120056 244.882874,165.942810 244.634857,165.765594 C 244.368500,165.649902 244.073090,165.383575 243.817444,165.200958 C 243.605652,165.049652 243.318787,164.886597 243.159454,164.711517 C 243.014069,164.607635 242.868652,164.503723 242.723267,164.399872 C 242.419617,164.182953 242.120209,163.968933 241.856323,163.741791 C 241.710938,163.637909 241.565491,163.534027 241.420105,163.430145 C 241.209595,163.197876 240.844513,163.022125 240.635620,162.792297 C 240.537262,162.722046 240.438904,162.651733 240.340546,162.581482 C 240.188049,162.412964 239.924927,162.265564 239.774139,162.099457 C 239.688629,162.038361 239.603088,161.977234 239.517548,161.916138 C 239.401886,161.787903 239.195404,161.653748 239.079468,161.525757 C 239.011047,161.476868 238.942627,161.427979 238.874207,161.379120 C 238.473572,160.934509 237.886810,160.598724 237.495758,160.162170 C 237.373566,160.061981 237.251373,159.961761 237.129181,159.861572 C 236.623505,159.292908 235.939880,158.836151 235.451874,158.276398 C 235.319183,158.124146 235.169556,158.055481 235.039429,157.904358 C 234.588318,157.380341 234.012573,156.913422 233.578369,156.396240 C 233.506744,156.310974 233.437012,156.291168 233.365723,156.205658 C 233.161041,155.960083 232.896637,155.706421 232.698395,155.458069 C 232.606110,155.342468 232.506073,155.293610 232.414246,155.177704 C 231.727356,154.310852 230.919830,153.537201 230.254486,152.667511 C 229.076172,151.127380 227.846893,149.624420 226.915283,148.038086 C 226.704285,147.678802 226.452667,147.378113 226.247711,147.019562 C 225.885101,146.385162 225.489655,145.760498 225.149048,145.112701 C 224.615997,144.099060 224.117096,143.076935 223.631805,142.055786 C 223.290466,141.337524 223.020233,140.564941 222.739868,139.832458 C 222.509766,139.231201 222.290344,138.646667 222.079071,138.045044 C 221.871216,137.453064 221.722290,136.837280 221.528168,136.239410 C 221.330719,135.631348 221.249908,134.986206 221.057800,134.375305 C 220.984833,134.143250 220.992401,133.850342 220.919861,133.619080 C 220.740936,133.048798 220.697906,132.429108 220.599762,131.842987 C 220.180878,129.341187 220.137421,126.779358 220.321014,124.177551 C 220.363373,123.577057 220.488403,123.008331 220.587097,122.394714 C 220.632080,122.115173 220.723785,121.760010 221.033417,121.553040 C 221.132111,121.487061 221.446045,121.435089 221.560913,121.465668 C 221.655151,121.490753 221.728973,121.572388 221.815613,121.570282 Z" />
</svg>
